<svg xmlns="http://www.w3.org/2000/svg" width="24" height="24" viewBox="0 0 24 24">
  <g id="file-earmark-plus" transform="translate(-4.5 -2.25)">
    <path id="패스_925" data-name="패스 925" d="M15.875,2.25H7.75A3.343,3.343,0,0,0,4.5,5.679V22.821A3.343,3.343,0,0,0,7.75,26.25h8.125V24.536H7.75a1.671,1.671,0,0,1-1.625-1.714V5.679A1.671,1.671,0,0,1,7.75,3.964h8.125V8.25a2.507,2.507,0,0,0,2.438,2.571h4.062V14.25H24V10.821Z" transform="translate(0)" fill="#fff"/>
    <path id="패스_926" data-name="패스 926" d="M30.375,22.5A1.125,1.125,0,0,1,31.5,23.625v4.5a1.125,1.125,0,0,1-1.125,1.125h-4.5a1.125,1.125,0,0,1,0-2.25H29.25V23.625A1.125,1.125,0,0,1,30.375,22.5Z" transform="translate(-7.032 -7.032)" fill="#fff" fill-rule="evenodd"/>
    <path id="패스_927" data-name="패스 927" d="M29.25,28.125A1.125,1.125,0,0,1,30.375,27h4.5a1.125,1.125,0,0,1,0,2.25H31.5v3.375a1.125,1.125,0,0,1-2.25,0Z" transform="translate(-7.5 -7.5)" fill="#fff" fill-rule="evenodd"/>
  </g>
</svg>
