<svg xmlns="http://www.w3.org/2000/svg" width="22.502" height="25.876" viewBox="0 0 22.502 25.876">
  <g id="arrow-90deg-left" transform="translate(-5.061 -5.061)">
    <path id="Path_921" data-name="Path 921" d="M13.734,5.391a1.125,1.125,0,0,1,0,1.593L7.778,12.938l5.956,5.954a1.126,1.126,0,0,1-1.593,1.593l-6.75-6.75a1.125,1.125,0,0,1,0-1.593l6.75-6.75a1.125,1.125,0,0,1,1.593,0Z" fill="#86A4BF" fill-rule="evenodd"/>
    <path id="Path_922" data-name="Path 922" d="M6.188,12.938a1.125,1.125,0,0,1,1.125-1.125H21.938a5.625,5.625,0,0,1,5.625,5.625V29.813a1.125,1.125,0,0,1-2.25,0V17.438a3.375,3.375,0,0,0-3.375-3.375H7.313a1.125,1.125,0,0,1-1.125-1.125Z" fill="#86A4BF" fill-rule="evenodd"/>
  </g>
</svg>
