<svg xmlns="http://www.w3.org/2000/svg" width="17" height="30" viewBox="0 0 17 30">
  <path id="money" d="M9.166,13.2a14.9,14.9,0,0,1,5.719,2.5A5.668,5.668,0,0,1,17,20.469a5.162,5.162,0,0,1-1.606,3.984A8.165,8.165,0,0,1,11.2,26.406V30H6.189V26.406a8.518,8.518,0,0,1-4.348-2.187A6.189,6.189,0,0,1,0,20H3.682Q4,23.515,8.7,23.515a5.051,5.051,0,0,0,3.447-.937,2.744,2.744,0,0,0,1.019-2.032A3.16,3.16,0,0,0,12.1,18.2a8.951,8.951,0,0,0-3.956-1.718Q.313,14.609.313,9.609A5.2,5.2,0,0,1,1.959,5.742a8.393,8.393,0,0,1,4.23-2.147V0H11.2V3.672a6.916,6.916,0,0,1,3.878,2.344A6.583,6.583,0,0,1,16.53,10H12.848Q12.691,6.484,8.7,6.484a5.675,5.675,0,0,0-3.329.859A2.652,2.652,0,0,0,4.152,9.609a2.425,2.425,0,0,0,1.1,1.992,12.636,12.636,0,0,0,3.917,1.6Z" fill="#5cd077"/>
</svg>
