<svg xmlns="http://www.w3.org/2000/svg" width="1027.456" height="1162.402" viewBox="0 0 1027.456 1162.402">
  <path id="패스_62" data-name="패스 62" d="M787.468,179.276c1.445-.968.209.613.418,3.406.266,3.5,1.5,10.044,2.141,17.439,1.622,18.606,5.567,46.662,9.838,80.127,4.079,31.957,9.019,70.843,11.726,95.5.127,10.07,2.211,18.377,3.076,25.056,1.486,11.48,2.109,16.963,2.079,16.933l70,570.125c4.694,3.144,3.163,17.92,4.3,35.016,1.237,18.6,4.992,40.728,8.07,65.727,3.509,28.5,6.539,60.638,10.5,85.537,4.394,27.6,9.394,46.68,6.678,54.388h0c-1.277,3.624.707-1.956,0,0-.553,1.573.335-.914,0,0-.95,2.71.014-.133,0,0L312.331,1239a60,60,0,0,1-56.589-40.057L15.468,517.148a60,60,0,0,1,23.2-69.792l236.1-205.128Z" transform="translate(139.034 -179.125) rotate(7)" fill="#1b4971"/>
</svg>
