<svg xmlns="http://www.w3.org/2000/svg" width="33" height="33" viewBox="0 0 33 33">
  <path id="block" d="M33,16.536a16.163,16.163,0,0,1-2.211,8.283,16.383,16.383,0,0,1-6.006,6.006A16.163,16.163,0,0,1,16.5,33.036a16.163,16.163,0,0,1-8.283-2.211,16.383,16.383,0,0,1-6.006-6.006A16.163,16.163,0,0,1,0,16.536,16.163,16.163,0,0,1,2.211,8.253,16.383,16.383,0,0,1,8.217,2.247,16.163,16.163,0,0,1,16.5.036a16.163,16.163,0,0,1,8.283,2.211,16.383,16.383,0,0,1,6.006,6.006A16.163,16.163,0,0,1,33,16.536Zm-3.861,0A12.171,12.171,0,0,0,25.426,7.61,12.171,12.171,0,0,0,16.5,3.9,12.223,12.223,0,0,0,9.042,6.339L26.7,23.994a12.223,12.223,0,0,0,2.442-7.458Zm-5.181,10.2L6.3,9.078a12.223,12.223,0,0,0-2.442,7.458,12.171,12.171,0,0,0,3.713,8.926A12.171,12.171,0,0,0,16.5,29.175,12.223,12.223,0,0,0,23.958,26.733Z" transform="translate(0 -0.036)" fill="red"/>
</svg>
