<svg xmlns="http://www.w3.org/2000/svg" width="31" height="26" viewBox="0 0 31 26">
  <path id="comment" d="M30,10.414a7.983,7.983,0,0,1-2.009,5.232,13.567,13.567,0,0,1-5.458,3.792A19.946,19.946,0,0,1,15,20.829a23.514,23.514,0,0,1-2.428-.13,18.48,18.48,0,0,1-7.7,3.938A12.965,12.965,0,0,1,2.963,25a.671.671,0,0,1-.511-.147.818.818,0,0,1-.293-.472V24.36a.21.21,0,0,1-.008-.2A.427.427,0,0,0,2.184,24q-.008-.032.075-.155l.1-.147.118-.139.134-.147q.118-.13.519-.561l.577-.618q.176-.187.519-.643a6.6,6.6,0,0,0,.544-.83q.2-.374.452-.96a10.161,10.161,0,0,0,.435-1.237,12.181,12.181,0,0,1-4.143-3.58A7.745,7.745,0,0,1,0,10.414,7.59,7.59,0,0,1,1.188,6.371a11.233,11.233,0,0,1,3.2-3.327A16.491,16.491,0,0,1,9.174.822,20.469,20.469,0,0,1,15,0a19.946,19.946,0,0,1,7.533,1.392,13.567,13.567,0,0,1,5.458,3.792A7.982,7.982,0,0,1,30,10.414Z" transform="translate(0.5 0.5)" fill="none" stroke="#707070" stroke-width="1"/>
</svg>
