<svg xmlns="http://www.w3.org/2000/svg" width="31" height="31" viewBox="0 0 31 31">
  <g id="notification-solid" transform="translate(-2.05 -0.775)">
    <path id="패스_213" data-name="패스 213" d="M32.05,24.958l-.331-.264a13.088,13.088,0,0,1-2.443-2.577,10.308,10.308,0,0,1-1.314-4.231V13.54c.013-4.795-3.925-8.848-9.187-9.456V2.949a1.306,1.306,0,0,0-2.6,0V4.1c-5.212.651-9.09,4.683-9.08,9.438v4.345a10.308,10.308,0,0,1-1.314,4.231,13.084,13.084,0,0,1-2.4,2.577l-.331.264v2.481h29Z" transform="translate(0 0)" fill="none" stroke="#0f4c81" stroke-width="2"/>
    <path id="패스_214" data-name="패스 214" d="M15.32,32a2.65,2.65,0,0,0,5.25,0Z" transform="translate(-0.4 -3.512)" fill="none" stroke="#0f4c81" stroke-width="2"/>
  </g>
</svg>
