<svg xmlns="http://www.w3.org/2000/svg" xmlns:xlink="http://www.w3.org/1999/xlink" width="754.06" height="520.548" viewBox="0 0 754.06 520.548">
  <defs>
    <linearGradient id="linear-gradient" y1="0.5" x2="1" y2="0.5" gradientUnits="objectBoundingBox">
      <stop offset="0" stop-color="gray" stop-opacity="0.251"/>
      <stop offset="0.54" stop-color="gray" stop-opacity="0.122"/>
      <stop offset="1" stop-color="gray" stop-opacity="0.102"/>
    </linearGradient>
  </defs>
  <g id="그룹_222" data-name="그룹 222" transform="translate(0 0.006)">
    <path id="패스_934" data-name="패스 934" d="M443.427,118.333c-48.334.065-94.858-13.637-139.357-28.858S215.413,57.209,167.978,49.986c-30.507-4.643-65.2-4.216-89.045,12.641-22.955,16.217-29.6,43.058-32.809,67.855-2.412,18.655-3.524,38.234,5.509,55.3,6.272,11.846,17.006,21.61,24.571,32.9,26.408,39.275,10.527,89.446-15.137,129.632-12.033,18.855-26.13,36.928-35.227,56.863s-12.829,42.54-3.55,62.217c9.195,19.5,29.964,33.656,52.253,43.323,45.263,19.67,97.961,23.886,149.244,25.509,113.519,3.6,227.258-3.744,340.692-11.089,41.978-2.716,84.143-5.451,125.255-13.32,22.825-4.365,46.33-10.844,62.514-25.043,20.543-18.027,24.746-47.461,9.8-68.618-25.069-35.486-91.172-42.178-109.148-80.574-9.913-21.138-1.364-45.379,11.225-65.754,27-43.717,73.481-82.876,74.263-131.773.537-33.578-23.634-66.336-59.734-80.93-37.84-15.286-89.433-11.355-115.944,17.135C535.446,105.608,486.1,118.288,443.427,118.333Z" transform="translate(-16.91 -47.46)" fill="#0f4c81" opacity="0.1"/>
    <path id="패스_935" data-name="패스 935" d="M1000.793,691.261s-7.947-5.244-15.823-1.513c0,0,2.425,4.669,12.4,4.229Z" transform="translate(-359.013 -273.967)" fill="#6c63ff"/>
    <path id="패스_936" data-name="패스 936" d="M1008.121,693.25s2.418,9.208-3.647,15.473c0,0-3.647-3.8,0-13.094Z" transform="translate(-365.333 -275.678)" fill="#6c63ff"/>
    <path id="패스_937" data-name="패스 937" d="M1016.293,676.432s-.588-7.83-18.273-5.231c0,0-.084,5.05,6.123,7.442S1013.2,679.019,1016.293,676.432Z" transform="translate(-363.624 -267.699)" fill="#6c63ff"/>
    <path id="패스_938" data-name="패스 938" d="M1025.166,679.5s7.475,2.4.808,18.984c0,0-4.934-1.1-5.819-7.7S1021.894,681.905,1025.166,679.5Z" transform="translate(-371.385 -270.819)" fill="#6c63ff"/>
    <path id="패스_939" data-name="패스 939" d="M1034.1,655.946s1.015-12.887-17.057-11.568c0,0-1.293,11.639,13.87,14.665Z" transform="translate(-370.338 -258.374)" fill="#6c63ff"/>
    <path id="패스_940" data-name="패스 940" d="M1050.683,633.773s-2.477-14.607-20.543-10.255c0,0-.065,12.628,17.594,13.734Z" transform="translate(-374.975 -250.749)" fill="#6c63ff"/>
    <path id="패스_941" data-name="패스 941" d="M1063.359,610.677s-4.151-14.225-22.049-9.971c0,0,4.261,12.8,20.86,12.6Z" transform="translate(-378.923 -242.693)" fill="#0f4c81"/>
    <path id="패스_942" data-name="패스 942" d="M1076.568,587.735s-4.054-14.762-21.338-10.346c0,0,5.768,14.025,20.194,12.842Z" transform="translate(-383.842 -234.443)" fill="#0f4c81"/>
    <path id="패스_943" data-name="패스 943" d="M1085.98,564.262s-3.117-18.053-19.23-14.057c0,0,4.682,16.424,18.047,16.689Z" transform="translate(-387.913 -224.923)" fill="#0f4c81"/>
    <path id="패스_944" data-name="패스 944" d="M1093.285,538.6s-3.744-18.2-20.045-12.932c0,0,6.388,17.2,18.887,15.422Z" transform="translate(-390.207 -216.118)" fill="#0f4c81"/>
    <path id="패스_945" data-name="패스 945" d="M1098.865,512.245s-5.942-18.2-18.545-17.711c0,0,6.072,19.224,17.491,21.338Z" transform="translate(-392.709 -205.45)" fill="#0f4c81"/>
    <path id="패스_946" data-name="패스 946" d="M1102.941,487.149s-6.466-21.907-16.721-20.22c0,0,4.475,16.747,16.359,23.634Z" transform="translate(-394.794 -195.666)" fill="#0f4c81"/>
    <path id="패스_947" data-name="패스 947" d="M1104.985,459.625s-6.065-18.254-16.165-18.984c0,0,4.125,17.963,15.965,23.731Z" transform="translate(-395.712 -186.408)" fill="#0f4c81"/>
    <path id="패스_948" data-name="패스 948" d="M1107.936,433.427s-7.559-18.273-14.225-18.687c0,0,3.285,18,13.579,21.687Z" transform="translate(-397.441 -177.255)" fill="#0f4c81"/>
    <path id="패스_949" data-name="패스 949" d="M1110.809,407.373s-4.649-19.844-11.329-21.493c0,0,.912,16.236,10.656,22.98Z" transform="translate(-399.479 -167.056)" fill="#0f4c81"/>
    <path id="패스_950" data-name="패스 950" d="M1115.271,377.034s-4.888-15.823-10.3-18.234c0,0,1.067,18.655,9.052,22.1Z" transform="translate(-401.42 -157.487)" fill="#0f4c81"/>
    <path id="패스_951" data-name="패스 951" d="M1121.906,350.755l.983-27.895s-10.12,21.028-1.714,32.79Z" transform="translate(-405.967 -144.786)" fill="#0f4c81"/>
    <path id="패스_952" data-name="패스 952" d="M1134.058,311.336s7.287-20.368,9.052-21.506c0,0-14.29,13.217-12.893,30.216Z" transform="translate(-410.308 -133.113)" fill="#0f4c81"/>
    <path id="패스_953" data-name="패스 953" d="M1042.6,662.148s12.816-1.675,12.434,16.437c0,0-11.581,1.888-15.363-13.094Z" transform="translate(-378.343 -264.672)" fill="#6c63ff"/>
    <path id="패스_954" data-name="패스 954" d="M1061.235,639.06s14.807-.045,13.579,18.493c0,0-12.434,2.224-16.534-14.988Z" transform="translate(-384.92 -256.528)" fill="#0f4c81"/>
    <path id="패스_955" data-name="패스 955" d="M1074.98,617.753s13.443-6.3,22.043,9.971c0,0-12.415,5.25-23.233-7.339Z" transform="translate(-390.401 -248.574)" fill="#0f4c81"/>
    <path id="패스_956" data-name="패스 956" d="M1088.068,593.283s13.766-6.705,21.849,9.188c0,0-14.342,4.94-22.987-6.673Z" transform="translate(-395.044 -239.854)" fill="#0f4c81"/>
    <path id="패스_957" data-name="패스 957" d="M1095.888,569.819s13.249-12.654,23.821.142c0,0-13.533,10.417-24.429,2.677Z" transform="translate(-397.995 -230.086)" fill="#0f4c81"/>
    <path id="패스_958" data-name="패스 958" d="M1102.818,542.473s13.327-12.932,23.815.595c0,0-14.956,10.624-24.293,2.121Z" transform="translate(-400.49 -220.424)" fill="#0f4c81"/>
    <path id="패스_959" data-name="패스 959" d="M1106.93,513.98s10.268-16.165,22.36-12.557c0,0-10.656,17.116-22.244,16.353Z" transform="translate(-402.112 -207.703)" fill="#0f4c81"/>
    <path id="패스_960" data-name="패스 960" d="M1111.465,488.675s10.346-20.355,20.135-16.812c0,0-7.462,15.648-20.4,20.245Z" transform="translate(-403.621 -197.296)" fill="#0f4c81"/>
    <path id="패스_961" data-name="패스 961" d="M1112.155,460.583s10.637-16.023,20.6-14.064c0,0-8.7,16.249-21.636,18.7Z" transform="translate(-403.593 -188.427)" fill="#0f4c81"/>
    <path id="패스_962" data-name="패스 962" d="M1114,433.2s8.244-17.982,14.943-18.105c0,0-3.957,17.853-14.387,21.157Z" transform="translate(-404.611 -177.379)" fill="#0f4c81"/>
    <path id="패스_963" data-name="패스 963" d="M1116.5,408.547s9.162-18.208,16.049-18.247c0,0-4.688,15.57-15.745,19.844Z" transform="translate(-405.494 -168.618)" fill="#0f4c81"/>
    <path id="패스_964" data-name="패스 964" d="M1118.63,379.593s6.854-15.066,12.531-16.773c0,0-3.427,18.364-11.775,20.769Z" transform="translate(-406.247 -158.907)" fill="#0f4c81"/>
    <path id="패스_965" data-name="패스 965" d="M1124.167,352.4l15.318-23.336s-3.925,23.019-17.555,27.8Z" transform="translate(-407.413 -146.977)" fill="#0f4c81"/>
    <path id="패스_966" data-name="패스 966" d="M1137.6,318.2s17.8-12.286,18.448-14.271c0,0-9.052,17.206-25.864,20.245Z" transform="translate(-410.329 -138.096)" fill="#0f4c81"/>
    <path id="패스_967" data-name="패스 967" d="M1143.032,306.721s20.439-19.651,25.658-19.631c0,0-16.857.769-26.149,18.584Z" transform="translate(-414.697 -132.145)" fill="#0f4c81"/>
    <path id="패스_968" data-name="패스 968" d="M1118.94,365.592l.744.1c3.841-30.061,9.441-47.849,15.764-50.028l-.246-.711C1128.5,317.278,1122.859,334.794,1118.94,365.592Z" transform="translate(-406.357 -141.99)" fill="#444053"/>
    <path id="패스_969" data-name="패스 969" d="M1110.2,463.941l1.125.091c.239-2.806.42-5.677.543-8.542,1.073-24.882,2.735-47.733,4.921-64.861l-.647-.808c-2.192,17.167-4.326,40.7-5.4,65.624C1110.62,458.29,1110.439,461.148,1110.2,463.941Z" transform="translate(-403.268 -168.449)" fill="#444053"/>
    <path id="패스_970" data-name="패스 970" d="M976.668,639.421c.194-.084,20-8.93,40.555-30.022a163.085,163.085,0,0,0,29.647-42.03c9.505-19.353,15.3-43.135,17.239-66.239l-1.17.55c-4.365,51.858-27.972,87.292-46.743,106.594-20.355,20.9-39.941,29.66-40.135,29.744Z" transform="translate(-355.864 -207.785)" fill="#444053"/>
    <path id="패스_971" data-name="패스 971" d="M713.72,132.69H92.4a5.535,5.535,0,0,0-5.535,5.535v16.126H719.255V138.225A5.535,5.535,0,0,0,713.72,132.69Z" transform="translate(-41.633 -77.582)" fill="#3f3d56"/>
    <path id="패스_972" data-name="패스 972" d="M86.87,166.19v362.9a11.16,11.16,0,0,0,11.16,11.161H708.094a11.16,11.16,0,0,0,11.161-11.161V166.19Z" transform="translate(-41.633 -89.42)" fill="#fff"/>
    <circle id="타원_225" data-name="타원 225" cx="2.586" cy="2.586" r="2.586" transform="translate(52.666 63.191)" fill="#fa5959" opacity="0.8"/>
    <circle id="타원_226" data-name="타원 226" cx="2.586" cy="2.586" r="2.586" transform="translate(59.779 63.191)" fill="#fed253" opacity="0.8"/>
    <circle id="타원_227" data-name="타원 227" cx="2.586" cy="2.586" r="2.586" transform="translate(66.892 63.191)" fill="#8ccf4d" opacity="0.8"/>
    <rect id="사각형_133" data-name="사각형 133" width="508.235" height="223.481" transform="translate(104.02 137.28)" opacity="0.05"/>
    <rect id="사각형_134" data-name="사각형 134" width="500.476" height="218.554" transform="translate(107.9 138.974)" fill="#394046"/>
    <path id="패스_973" data-name="패스 973" d="M367.569,349.38a49.789,49.789,0,1,0,49.789,49.789,49.789,49.789,0,0,0-49.789-49.789Zm8.93,50.985v23.575H358.9V400.365a14.581,14.581,0,1,1,17.6,0Z" transform="translate(-123.234 -154.158)" fill="#0c3c65"/>
    <path id="패스_974" data-name="패스 974" d="M367.569,349.38a49.789,49.789,0,1,0,49.789,49.789,49.789,49.789,0,0,0-49.789-49.789Zm8.93,50.985v23.575H358.9V400.365a14.581,14.581,0,1,1,17.6,0Z" transform="translate(-116.234 -155.158)" opacity="0.05"/>
    <path id="패스_975" data-name="패스 975" d="M359.794,327.38a64.014,64.014,0,1,0,64.014,64.014,64.014,64.014,0,0,0-64.014-64.014Zm11.477,65.553V423.24H348.64V392.933a18.752,18.752,0,1,1,22.631,0Z" transform="translate(-115.46 -146.383)" fill="#0f4c81"/>
    <rect id="사각형_135" data-name="사각형 135" width="206.915" height="21.985" transform="translate(334.86 236.612)" fill="#fff"/>
    <rect id="사각형_136" data-name="사각형 136" width="44.616" height="21.985" transform="translate(497.159 276.702)" fill="#0f4c81"/>
    <path id="패스_976" data-name="패스 976" d="M561.156,427.406h-3.744l3.33-3.324a.33.33,0,0,0,0-.459.323.323,0,0,0-.459,0l-3.33,3.33V423.2a.323.323,0,0,0-.323-.323.33.33,0,0,0-.323.323v3.75l-3.324-3.349a.323.323,0,0,0-.459,0,.33.33,0,0,0,0,.459l3.33,3.324H552.1a.33.33,0,0,0-.323.323.323.323,0,0,0,.323.323h3.75l-3.33,3.33a.33.33,0,0,0,0,.459.336.336,0,0,0,.459,0l3.324-3.33v3.744a.323.323,0,1,0,.647,0v-3.744l3.33,3.33a.336.336,0,0,0,.459,0,.33.33,0,0,0,0-.459l-3.33-3.33h3.744a.314.314,0,1,0,0-.627Z" transform="translate(-205.928 -180.132)" fill="#0f4c81"/>
    <path id="패스_977" data-name="패스 977" d="M582.156,427.406h-3.744l3.33-3.324a.33.33,0,0,0,0-.459.323.323,0,0,0-.459,0l-3.33,3.33V423.2a.323.323,0,0,0-.323-.323.33.33,0,0,0-.323.323v3.75l-3.324-3.349a.323.323,0,0,0-.459,0,.33.33,0,0,0,0,.459l3.33,3.324H573.1a.33.33,0,0,0-.323.323.323.323,0,0,0,.323.323h3.75l-3.33,3.33a.33.33,0,0,0,0,.459.336.336,0,0,0,.459,0l3.323-3.33v3.744a.323.323,0,0,0,.647,0v-3.744l3.33,3.33a.336.336,0,0,0,.459,0,.33.33,0,0,0,0-.459l-3.33-3.33h3.744a.314.314,0,1,0,0-.627Z" transform="translate(-213.349 -180.132)" fill="#0f4c81"/>
    <path id="패스_978" data-name="패스 978" d="M603.156,427.406h-3.744l3.33-3.324a.33.33,0,0,0,0-.459.323.323,0,0,0-.459,0l-3.33,3.33V423.2a.323.323,0,0,0-.323-.323.33.33,0,0,0-.323.323v3.75l-3.324-3.349a.323.323,0,0,0-.459,0,.33.33,0,0,0,0,.459l3.33,3.324H594.1a.33.33,0,0,0-.323.323.323.323,0,0,0,.323.323h3.75l-3.33,3.33a.33.33,0,0,0,0,.459.336.336,0,0,0,.459,0l3.324-3.33v3.744a.323.323,0,1,0,.647,0v-3.744l3.33,3.33a.336.336,0,0,0,.459,0,.33.33,0,0,0,0-.459l-3.33-3.33h3.744a.314.314,0,1,0,0-.627Z" transform="translate(-220.77 -180.132)" fill="#0f4c81"/>
    <path id="패스_979" data-name="패스 979" d="M624.156,427.406h-3.744l3.33-3.324a.33.33,0,0,0,0-.459.323.323,0,0,0-.459,0l-3.33,3.33V423.2a.323.323,0,0,0-.323-.323.33.33,0,0,0-.323.323v3.75l-3.324-3.349a.323.323,0,0,0-.459,0,.33.33,0,0,0,0,.459l3.33,3.324H615.1a.33.33,0,0,0-.323.323.323.323,0,0,0,.323.323h3.75l-3.33,3.33a.33.33,0,0,0,0,.459.336.336,0,0,0,.459,0l3.324-3.33v3.744a.323.323,0,0,0,.647,0v-3.744l3.33,3.33a.336.336,0,0,0,.459,0,.33.33,0,0,0,0-.459l-3.33-3.33h3.744a.314.314,0,1,0,0-.627Z" transform="translate(-228.191 -180.132)" fill="#0f4c81"/>
    <path id="패스_980" data-name="패스 980" d="M645.156,427.406h-3.744l3.33-3.324a.33.33,0,0,0,0-.459.323.323,0,0,0-.459,0l-3.33,3.33V423.2a.323.323,0,0,0-.323-.323.33.33,0,0,0-.323.323v3.75l-3.324-3.349a.323.323,0,0,0-.459,0,.33.33,0,0,0,0,.459l3.33,3.324H636.1a.33.33,0,0,0-.323.323.323.323,0,0,0,.323.323h3.75l-3.33,3.33a.33.33,0,0,0,0,.459.336.336,0,0,0,.459,0l3.324-3.33v3.744a.323.323,0,1,0,.647,0v-3.744l3.33,3.33a.336.336,0,0,0,.459,0,.33.33,0,0,0,0-.459l-3.33-3.33h3.744a.314.314,0,1,0,0-.627Z" transform="translate(-235.613 -180.132)" fill="#0f4c81"/>
    <path id="패스_981" data-name="패스 981" d="M666.156,427.406h-3.744l3.33-3.324a.33.33,0,0,0,0-.459.323.323,0,0,0-.459,0l-3.33,3.33V423.2a.323.323,0,0,0-.323-.323.33.33,0,0,0-.323.323v3.75l-3.324-3.349a.323.323,0,0,0-.459,0,.33.33,0,0,0,0,.459l3.33,3.324H657.1a.33.33,0,0,0-.323.323.323.323,0,0,0,.323.323h3.75l-3.33,3.33a.33.33,0,0,0,0,.459.336.336,0,0,0,.459,0l3.324-3.33v3.744a.323.323,0,0,0,.647,0v-3.744l3.33,3.33a.336.336,0,0,0,.459,0,.33.33,0,0,0,0-.459l-3.33-3.33h3.744a.314.314,0,1,0,0-.627Z" transform="translate(-243.034 -180.132)" fill="#0f4c81"/>
    <path id="패스_982" data-name="패스 982" d="M687.156,427.406h-3.744l3.33-3.324a.33.33,0,0,0,0-.459.323.323,0,0,0-.459,0l-3.33,3.33V423.2a.323.323,0,0,0-.323-.323.33.33,0,0,0-.323.323v3.75l-3.324-3.349a.323.323,0,0,0-.459,0,.33.33,0,0,0,0,.459l3.33,3.324H678.1a.33.33,0,0,0-.323.323.323.323,0,0,0,.323.323h3.75l-3.33,3.33a.33.33,0,0,0,0,.459.336.336,0,0,0,.459,0l3.324-3.33v3.744a.323.323,0,1,0,.647,0v-3.744l3.33,3.33a.336.336,0,0,0,.459,0,.33.33,0,0,0,0-.459l-3.33-3.33h3.744a.314.314,0,1,0,0-.627Z" transform="translate(-250.455 -180.132)" fill="#0f4c81"/>
    <path id="패스_983" data-name="패스 983" d="M708.156,427.406h-3.744l3.33-3.324a.33.33,0,0,0,0-.459.323.323,0,0,0-.459,0l-3.33,3.33V423.2a.323.323,0,0,0-.323-.323.33.33,0,0,0-.323.323v3.75l-3.324-3.349a.323.323,0,0,0-.459,0,.33.33,0,0,0,0,.459l3.33,3.324H699.1a.33.33,0,0,0-.323.323.323.323,0,0,0,.323.323h3.75l-3.33,3.33a.33.33,0,0,0,0,.459.336.336,0,0,0,.459,0l3.324-3.33v3.744a.323.323,0,1,0,.647,0v-3.744l3.33,3.33a.336.336,0,0,0,.459,0,.33.33,0,0,0,0-.459l-3.33-3.33h3.744a.314.314,0,1,0,0-.627Z" transform="translate(-257.876 -180.132)" fill="#0f4c81"/>
    <path id="패스_984" data-name="패스 984" d="M729.156,427.406h-3.744l3.33-3.324a.33.33,0,0,0,0-.459.323.323,0,0,0-.459,0l-3.33,3.33V423.2a.323.323,0,0,0-.323-.323.33.33,0,0,0-.323.323v3.75l-3.324-3.349a.323.323,0,0,0-.459,0,.33.33,0,0,0,0,.459l3.33,3.324H720.1a.33.33,0,0,0-.323.323.323.323,0,0,0,.323.323h3.75l-3.33,3.33a.33.33,0,0,0,0,.459.336.336,0,0,0,.459,0l3.324-3.33v3.744a.323.323,0,0,0,.647,0v-3.744l3.33,3.33a.336.336,0,0,0,.459,0,.33.33,0,0,0,0-.459l-3.33-3.33h3.744a.314.314,0,1,0,0-.627Z" transform="translate(-265.297 -180.132)" fill="#0f4c81"/>
    <path id="패스_985" data-name="패스 985" d="M750.156,427.406h-3.744l3.33-3.324a.33.33,0,0,0,0-.459.323.323,0,0,0-.459,0l-3.33,3.33V423.2a.323.323,0,0,0-.323-.323.33.33,0,0,0-.323.323v3.75l-3.324-3.349a.323.323,0,0,0-.459,0,.33.33,0,0,0,0,.459l3.33,3.324H741.1a.33.33,0,0,0-.323.323.323.323,0,0,0,.323.323h3.75l-3.33,3.33a.33.33,0,0,0,0,.459.336.336,0,0,0,.459,0l3.324-3.33v3.744a.323.323,0,1,0,.647,0v-3.744l3.33,3.33a.336.336,0,0,0,.459,0,.33.33,0,0,0,0-.459l-3.33-3.33h3.744a.314.314,0,1,0,0-.627Z" transform="translate(-272.718 -180.132)" fill="#0f4c81"/>
    <path id="패스_986" data-name="패스 986" d="M771.156,427.406h-3.744l3.33-3.324a.33.33,0,0,0,0-.459.323.323,0,0,0-.459,0l-3.33,3.33V423.2a.323.323,0,0,0-.323-.323.33.33,0,0,0-.323.323v3.75l-3.324-3.349a.323.323,0,0,0-.459,0,.33.33,0,0,0,0,.459l3.33,3.324H762.1a.33.33,0,0,0-.323.323.323.323,0,0,0,.323.323h3.75l-3.33,3.33a.33.33,0,0,0,0,.459.336.336,0,0,0,.459,0l3.324-3.33v3.744a.323.323,0,0,0,.647,0v-3.744l3.33,3.33a.336.336,0,0,0,.459,0,.33.33,0,0,0,0-.459l-3.33-3.33h3.744a.314.314,0,1,0,0-.627Z" transform="translate(-280.14 -180.132)" fill="#0f4c81"/>
    <path id="패스_987" data-name="패스 987" d="M883.616,521.783a11.567,11.567,0,0,0-.291-2.321c-.582-2.186-1.894-4.83-4.054-5.49a34.038,34.038,0,0,1-6.427-2.716c-.388-6.932,1.2-14.025-.53-20.743-.647-2.457-1.714-4.811-2-7.326-.356-3.13.5-6.466-.75-9.35a9.228,9.228,0,0,0-5.464-4.72,29.115,29.115,0,0,0-7.287-1.293c-3.1-.252-13.152-1.442-16.657,1.332h0a3.659,3.659,0,0,0-.647.647h0a2.588,2.588,0,0,0-.207.336l-.032.052a2.629,2.629,0,0,0-.175.42h0a3.279,3.279,0,0,0-.11.485v1.164c.045.582.129,1.164.129,1.739a3.746,3.746,0,0,1-.078.854,5.975,5.975,0,0,1-1.073,2.1h0l-.116.168c-.071.1-.142.2-.207.3s-.116.181-.168.272-.1.149-.149.233a3.176,3.176,0,0,0-.168.33c0,.065-.071.123-.1.188a3.175,3.175,0,0,0-.194.543,3.608,3.608,0,0,0-.039,1.72,6.4,6.4,0,0,0,.886,2.037c.162.265.336.524.517.782l.453.614a13.942,13.942,0,0,0-.136,1.811,13.377,13.377,0,0,0,5.107,10.513,39.613,39.613,0,0,1-.082,8.207c-.058.569-.129,1.145-.207,1.714s-.136.944-.213,1.416a6.563,6.563,0,0,1-2.826-.213,13.332,13.332,0,0,0-1.293-.5c-1.882-.472-3.8,1.4-5.664.834a.761.761,0,0,1-.084.259,2.534,2.534,0,0,0-1.293-.382,4.717,4.717,0,0,1-2.806-1.61l-2.464-2.321a2.719,2.719,0,0,1-.427-.478,3.358,3.358,0,0,1-.3-.8,9.164,9.164,0,0,0-2.386-3.421,1.616,1.616,0,0,0-.7-.511,1.085,1.085,0,0,0-.323,0,2.846,2.846,0,0,0-.213-.259,6.1,6.1,0,0,0-.537-.543c-1.177-1.086-1.293-2.017-2.315-3.233a31.078,31.078,0,0,1-2.418-3.653c-.084-.679-.2-1.377-.343-2.082a26.787,26.787,0,0,0-1.416-4.72l-1.293-2.864-.149.149c-.938-1.4-1.94-2.16-2.839-1.979-1.507.31-2.25,3.233-2.011,7.055l.517,3.88a1.2,1.2,0,0,0,.071.291,7.165,7.165,0,0,0-.142,1.4c0,.543.5.944.769,1.429a4.041,4.041,0,0,1,.647,2.2c-.032.278-.116.543-.129.815a3.137,3.137,0,0,0,.608,1.681l3.233,5.432.647,1.138.039.052a2.762,2.762,0,0,0,.866,1,11.844,11.844,0,0,0,1.067,3.925c.11.246.233.478.362.711a22.875,22.875,0,0,0,3.052,3.964l1.539,1.726c1.519,1.694,3.039,3.395,4.688,4.96a6.277,6.277,0,0,0,2.095,1.468,2.373,2.373,0,0,0,2.354-.343q0,1.2,0,2.405a1.351,1.351,0,0,1,1.022,2.127,53.32,53.32,0,0,1-4.785,10.126,21.556,21.556,0,0,1,4.009,3.058,18.037,18.037,0,0,1,2.089,2.826c.058.478.1.95.129,1.423.479,7.708-2.5,15.357-5.173,22.7a17.688,17.688,0,0,0-1.545,6.427,12.6,12.6,0,0,0-1.448,1.041,9.59,9.59,0,0,1,.265,4.1,7.266,7.266,0,0,1-.537,2.586,18.176,18.176,0,0,1-.931,1.662c-1.675,2.955-2.043,6.466-2.38,9.841-.2,2.037.588,4.526-.336,6.35a25.976,25.976,0,0,0-3.233,9.945,9.966,9.966,0,0,1-.3,2.321c-.2.647-.556,1.2-.737,1.83a7.829,7.829,0,0,0-.129,2.586,24.75,24.75,0,0,1-1.358,9.124c-.808,2.308-1.7,4.779-1.067,7.152a10.08,10.08,0,0,0-2.735,6.007,9.471,9.471,0,0,1-.207,1.714,8.336,8.336,0,0,1-.776,1.649,14.432,14.432,0,0,0-1.759,7.759,21.583,21.583,0,0,0-3.485,9.1c-.576,3.227-.828,6.511-1.565,9.7-.983,4.216-2.761,8.477-3.11,12.8-2.1,1.339-3,3.931-3.4,6.382s-.466,5.024-1.494,7.287c-.53,1.177-1.293,2.231-1.8,3.434a15.769,15.769,0,0,0-.776,2.955,11.531,11.531,0,0,0-.2,4.85,7.313,7.313,0,0,1-1.894,1.442c.1-.4.187-.8.259-1.209-1.668,1.513-4.694.983-6.026,2.8a2.729,2.729,0,0,0,.647,3.744,5.174,5.174,0,0,0,1.338.576c3.233,1.035,6.557,2.076,9.88,1.526a2.949,2.949,0,0,0,1.119-.356,3.6,3.6,0,0,0,1.041-1.2q.747-1.183,1.487-2.367a30.718,30.718,0,0,0,3.628.847c.123,1.034.213,2.069.259,3.1.647.129,1.513.168,1.817-.433a1.571,1.571,0,0,0,.11-.718c0-.459.065-1.067.1-1.688h.129a12.285,12.285,0,0,0,5.723-1.157c-.692-5.729,1.591-11.329,3.569-16.747,2.089-5.7,3.88-11.51,5.684-17.316,1.293-4.087,2.722-8.044,3.99-12.137q2.393-7.759,4.8-15.519c.7-2.276,1.4-4.526,2.2-6.789a105.783,105.783,0,0,1,5.994-13.34c.647-1.222,1.293-2.431,1.823-3.7.647-1.545,1.106-3.162,1.623-4.759a73.715,73.715,0,0,1,4.061-9.557c.045-.084.077-.162.123-.239.524,2.14,1.047,4.313,1.4,6.466a24.573,24.573,0,0,1,.11,7.992,26.353,26.353,0,0,0-.828,5.419c.1,2.528,1.448,4.824,2.114,7.261a27.633,27.633,0,0,1,.724,5.561c.181,2.91,1.759,6.175.647,8.871-3.459,8.542-1.785,18.189-3.757,27.158-1.015,4.6-4.125,8.93-3.88,13.637q.259,5.011.879,10a9.512,9.512,0,0,0,.809,3.033,11.139,11.139,0,0,0,.886,1.448c-.285.11-.524.4-.731,1.015a3.989,3.989,0,0,0,1.435,4.526,6.283,6.283,0,0,0,1.869.647,9.837,9.837,0,0,0,2.7.375,6.3,6.3,0,0,0,.847-.1,30.8,30.8,0,0,0,3.058,1.1,6.647,6.647,0,0,0,.084.8.99.99,0,0,0,.336.731,1.01,1.01,0,0,0,.517.091h3.511v-.879a2.891,2.891,0,0,0,2.231-.724,3.45,3.45,0,0,0,.647-1.345q1.436-4.869,2.852-9.744a31.154,31.154,0,0,0,1.39-11.122c-1.248-11.917,1.494-23.873.6-35.822a85.805,85.805,0,0,1,1.1-21.493c.291-1.6.647-3.233.776-4.83.284-3.013-.065-6.059.149-9.053.071-1.047.213-2.089.343-3.13a150.267,150.267,0,0,0,1.39-19.5,61.446,61.446,0,0,0-.4-6.466,3.691,3.691,0,0,0,1.765-1.034,4.4,4.4,0,0,0,.42-2.761c0-2.289.963-4.449,1.739-6.608a78.526,78.526,0,0,0,2.444-9.091,31.738,31.738,0,0,0,1.086-7.6q0-.388-.039-.776a2,2,0,0,0,.595-.647,3.758,3.758,0,0,0,.31-1.2c.233-1.649.472-3.3.7-4.959q.259-1.778.511-3.55l2.056-14.348c.175-1.248.356-2.489.53-3.731l.537-3.711c.058-.44.123-.879.168-1.293C885.291,528.3,883.785,524.783,883.616,521.783ZM866.462,575.5a11.819,11.819,0,0,1-1.293-5.619H865.1a2.884,2.884,0,0,0-.084-1.823c-.2-.472-.549-.873-.763-1.345a4.927,4.927,0,0,1-.349-1.811,49.355,49.355,0,0,1,.925-11.729c.084-.453.175-.912.259-1.364a3.371,3.371,0,0,0,.737-.576,5.24,5.24,0,0,0,.834-1.293c.731-1.468,1.4-2.961,2.011-4.481.2-.491.492-1.06.989-1.183-.1,3.783.284,7.643-1.254,11.057a7,7,0,0,0-.647,1.746c-.142.964.259,1.94.116,2.9-.071.5-.284.957-.369,1.448a1.416,1.416,0,0,0,.375,1.371,1.128,1.128,0,0,0,.278.142c-.039.259-.071.524-.1.776-.052.53-.078,1.028-.11,1.338a41.709,41.709,0,0,0-.175,4.759c0,1.714.065,3.427.039,5.173a3.509,3.509,0,0,1-.246,1.468,2.546,2.546,0,0,1-.491.647A16.8,16.8,0,0,0,866.462,575.5Z" transform="translate(-288.503 -195.848)" fill="url(#linear-gradient)"/>
    <ellipse id="타원_228" data-name="타원 228" cx="3.647" cy="10.326" rx="3.647" ry="10.326" transform="matrix(0.98, -0.201, 0.201, 0.98, 519.203, 285.128)" fill="#fbbebe"/>
    <path id="패스_988" data-name="패스 988" d="M878.29,838.448a3.915,3.915,0,0,0,1.435,4.481,6.387,6.387,0,0,0,1.856.646,9.785,9.785,0,0,0,2.7.369c1.119-.052,2.192-.491,3.311-.647a.517.517,0,0,1,.382.052.55.55,0,0,1,.142.453,17.079,17.079,0,0,0,.142,1.9.977.977,0,0,0,.336.731,1.009,1.009,0,0,0,.517.09h3.5a34.181,34.181,0,0,0-1-9.143,2.044,2.044,0,0,0-.259-.647,2.14,2.14,0,0,0-1.119-.647,6.251,6.251,0,0,0-2.709-.472,7.934,7.934,0,0,0-3.039,1.487,4.631,4.631,0,0,1-3.446.834C879.868,837.627,878.891,836.651,878.29,838.448Z" transform="translate(-321.242 -325.986)" fill="#3f3d56"/>
    <path id="패스_989" data-name="패스 989" d="M796.448,834.884a9.7,9.7,0,0,1-3.537,2.405l-.595.284a.413.413,0,0,0-.2.162.349.349,0,0,0,.065.291,4.184,4.184,0,0,0,4.746,1.726,2.515,2.515,0,0,0,1.041-.543,3.414,3.414,0,0,0,.8-2.082,4.261,4.261,0,0,0-.1-2.386C797.773,832.718,797.443,833.636,796.448,834.884Z" transform="translate(-290.857 -325.26)" fill="#fbbebe"/>
    <path id="패스_990" data-name="패스 990" d="M807.72,843.054a1.572,1.572,0,0,1-.11.718c-.3.595-1.151.563-1.811.433a43.524,43.524,0,0,0-.8-6.531c-1.254-.058-2.16,1.132-2.832,2.2l-1.733,2.748a3.582,3.582,0,0,1-1.034,1.2,3.064,3.064,0,0,1-1.119.356c-3.311.55-6.654-.491-9.848-1.526a5.22,5.22,0,0,1-1.338-.569,2.735,2.735,0,0,1-.647-3.737c1.339-1.81,4.345-1.293,6.013-2.793a15.062,15.062,0,0,1-.853,3.084c2.231-.336,3.731-2.379,5.528-3.744a3.4,3.4,0,0,1,1.578-.75,3.474,3.474,0,0,1,1.293.136,15.172,15.172,0,0,1,5.69,2.8,6.135,6.135,0,0,1,2.037,2.121C808.056,840.189,807.72,842,807.72,843.054Z" transform="translate(-288.693 -325.464)" fill="#3f3d56"/>
    <circle id="타원_229" data-name="타원 229" cx="13.359" cy="13.359" r="13.359" transform="translate(550.149 277.529)" fill="#fbbebe"/>
    <path id="패스_991" data-name="패스 991" d="M921.52,617.009a31.694,31.694,0,0,1-1.08,7.559A78.041,78.041,0,0,1,918,633.62c-.77,2.153-1.733,4.313-1.727,6.6,0,.951.155,2-.427,2.755a4.022,4.022,0,0,1-1.888,1.08,2.36,2.36,0,0,0-1.591,1.416,9.993,9.993,0,0,1-1.345-2.961q-1.739-5.328-3.233-10.714a1.39,1.39,0,0,1,.091-1.293,1.606,1.606,0,0,1,.563-.317,5.819,5.819,0,0,0,1.791-1.151,2.617,2.617,0,0,0,.595-.77,3.485,3.485,0,0,0,.252-1.461c0-1.714,0-3.421-.045-5.134a42.885,42.885,0,0,1,.181-4.74c0-.31.058-.808.11-1.339.1-1.015.291-2.192.841-2.586.821-.55,3.278.188,4.209.317,1.6.22,3.233.479,4.8.782A12.812,12.812,0,0,1,921.52,617.009Z" transform="translate(-331.695 -247.247)" fill="#3f3d56"/>
    <path id="패스_992" data-name="패스 992" d="M837.675,513.146c-.517,1.035-1.759,1.533-2.716,2.186l-3.278,2.25a2.186,2.186,0,0,1-1.623.556,2.133,2.133,0,0,1-1.209-1.131.226.226,0,0,0,0-.052l-.679-1.138-3.233-5.419a3.083,3.083,0,0,1-.6-1.668c0-.278.1-.537.123-.815a3.912,3.912,0,0,0-.647-2.2c-.259-.485-.776-.886-.763-1.429a5.174,5.174,0,0,1,.362-2.089,4.229,4.229,0,0,1,1.416-1.513c.3-.22.614-.427.938-.647a1.848,1.848,0,0,1,.563-.259c.537-.11,1.067.336,1.61.356,2.334,1.565,3.233,4.526,5.069,6.66,1.035,1.216,1.138,2.147,2.308,3.233.187.168.369.349.543.537a3.756,3.756,0,0,1,.582.841C836.653,511.963,837.94,512.616,837.675,513.146Z" transform="translate(-301.79 -207.302)" fill="#3f3d56"/>
    <path id="패스_993" data-name="패스 993" d="M877.839,512.627a12.038,12.038,0,0,1,1.435,6.511,4.068,4.068,0,0,1-.563,1.714c-.931,1.429-2.884,1.688-4.584,1.772a2.7,2.7,0,0,0-1.992.647,1.81,1.81,0,0,0,.123,2.211,4.992,4.992,0,0,0,1.979,1.293c2.69,1.183,5.593,2.16,8.516,1.888,1.358-.129,2.677-.524,4.028-.724a42.282,42.282,0,0,1,4.436-.246c1.759-.065,3.511-.239,5.263-.414l4.643-.459a1.034,1.034,0,0,0,.692-.252c.343-.4-.1-.989-.524-1.293-2.464-1.823-5.6-3.078-7-5.819a34.259,34.259,0,0,1-1.326-4.229,35.548,35.548,0,0,1-1.539-4.08,27.045,27.045,0,0,1-.214-3.763,5.05,5.05,0,0,0-1.293-3.44,5.391,5.391,0,0,0-3.518-1.131c-3.091-.136-6.382.6-8.574,2.78-.588.588-1.093,1.293-1.7,1.823s-1.435.685-1.035,1.384,1.19,1.132,1.616,1.746A14.865,14.865,0,0,1,877.839,512.627Z" transform="translate(-319.026 -208.373)" fill="#fbbebe"/>
    <path id="패스_994" data-name="패스 994" d="M896.524,538.006a73.465,73.465,0,0,1-3.957,14.568,54.853,54.853,0,0,0-2.328,6.531c-.5,2-.4,4.151-.86,6.162-.569,2.5-1.138,5.011-1.6,7.533a49.392,49.392,0,0,0-.918,11.7,4.9,4.9,0,0,0,.349,1.8c.213.466.556.867.757,1.345a3.233,3.233,0,0,1-.181,2.586,7.484,7.484,0,0,1-1.332,2.017c-6.026,1.8-12.473,1.209-18.752,1.591-5.787.349-11.639,1.539-17.342.55-.647-2.587.433-5.3,1.358-7.818,2.683-7.326,5.651-14.956,5.173-22.631a23.452,23.452,0,0,0-.3-2.671c-.938-5.438.084-11.07,1.72-16.34a28.045,28.045,0,0,0,.737-10.2,18.63,18.63,0,0,1-.045-3.343,5.879,5.879,0,0,1,1.216-3.123c0-.045.058-.091.091-.136a.887.887,0,0,1,.485,0h0a.415.415,0,0,0,.323,0l.071-.045a.162.162,0,0,1,.187,0c.149.091.233.4.556.459a12.917,12.917,0,0,0,1.442.136,7.754,7.754,0,0,1,1.72.246h.078a5.05,5.05,0,0,0,2.509-.214,6.67,6.67,0,0,0,1.539-.595c.142-.155,1.035-.3,1.216-.407.589-.356.459-2.024.582-2.709a7.444,7.444,0,0,1,.485-2,3.414,3.414,0,0,1,2.767-1.61,14.733,14.733,0,0,1,3.317.3c2.412.343,4.882.285,7.249.841,1.19.278,2.489.7,3.582.155.3.071.343.33.343.647a4.131,4.131,0,0,1-.181.886c-.414,1.785.989,3.427,2.283,4.72a7.315,7.315,0,0,0,1.907,1.52c.647.3,1.293.42,1.94.744A3.53,3.53,0,0,1,896,532.38a4.939,4.939,0,0,1,.737,1.882A11.256,11.256,0,0,1,896.524,538.006Z" transform="translate(-311.374 -214.942)" fill="#3f3d56"/>
    <path id="패스_995" data-name="패스 995" d="M899.85,541.651a73.467,73.467,0,0,1-3.957,14.568,54.831,54.831,0,0,0-2.328,6.531c-.5,2-.4,4.151-.86,6.162-.569,2.5-1.138,5.011-1.6,7.533-.136.078-.278.149-.42.213a9.924,9.924,0,0,1-2.535.815,15.518,15.518,0,0,1-4.733-.155l-9.227-1.235c-3.686-.5-7.611-1.1-10.346-3.6a22.075,22.075,0,0,1-3.608-4.927,23.406,23.406,0,0,0-.3-2.671c-.938-5.438.084-11.07,1.72-16.34a28.041,28.041,0,0,0,.737-10.2,18.625,18.625,0,0,1-.045-3.343,5.878,5.878,0,0,1,1.216-3.123,4.618,4.618,0,0,1,.576-.129h0a2.878,2.878,0,0,1,.394-.052h.188a2.82,2.82,0,0,1,.647.078,11.681,11.681,0,0,1,1.293.5h.078a4.951,4.951,0,0,0,1.72.246c.854,0,1.733-.136,2.587-.194a4.771,4.771,0,0,1,3.065.55,18.388,18.388,0,0,1,1.707,1.558,7.334,7.334,0,0,0,2.153,1.17,22.883,22.883,0,0,0,17.213-.362,3.368,3.368,0,0,1,1.727-.44,3.233,3.233,0,0,1,1.241.53c.388.226.769.446,1.164.647a4.941,4.941,0,0,1,.737,1.882A11.25,11.25,0,0,1,899.85,541.651Z" transform="translate(-314.7 -218.588)" opacity="0.1"/>
    <path id="패스_996" data-name="패스 996" d="M902.43,536.693a34.508,34.508,0,0,1-7.371-3.233,3.3,3.3,0,0,0-1.242-.53,3.471,3.471,0,0,0-1.733.44,22.871,22.871,0,0,1-17.206.362,7.482,7.482,0,0,1-2.153-1.17A19.323,19.323,0,0,0,871.017,531c-2.127-1.377-5.069.239-7.449-.647a13.188,13.188,0,0,0-1.293-.5c-1.882-.472-3.8,1.4-5.645.834a31.453,31.453,0,0,0-1.52,5.768,62.871,62.871,0,0,0-.42,6.8c0,1.364-.065,2.729,0,4.093a1.342,1.342,0,0,1,1.022,2.121,53.008,53.008,0,0,1-4.772,10.094,21.932,21.932,0,0,1,4,3.052c2.263,2.393,3.375,5.748,5.819,7.96,2.755,2.489,6.679,3.1,10.346,3.589l9.227,1.235a15.769,15.769,0,0,0,4.74.162,9.974,9.974,0,0,0,2.528-.821,4.527,4.527,0,0,0,1.41-.931,5.174,5.174,0,0,0,.834-1.293c.731-1.461,1.4-2.955,2.011-4.468.213-.537.537-1.164,1.119-1.209,3.427-3.091,6.66-6.259,10.087-9.35a22.348,22.348,0,0,0,3.679-3.88c1.7-2.515.155-6.078,0-9.117a11.51,11.51,0,0,0-.291-2.308C905.889,539.984,904.583,537.346,902.43,536.693Z" transform="translate(-311.648 -217.91)" fill="#0f4c81"/>
    <path id="패스_997" data-name="패스 997" d="M840.844,518.985c-.517,1.035-1.759,1.532-2.716,2.186l-3.278,2.25a2.186,2.186,0,0,1-1.623.556,2.134,2.134,0,0,1-1.209-1.132v-.466a4.337,4.337,0,0,1,.207-1.545,4.815,4.815,0,0,1,1.448-1.862,11.855,11.855,0,0,1,4.248-2.586,1.454,1.454,0,0,1,.776-.078,1.021,1.021,0,0,1,.284.123,3.752,3.752,0,0,1,.582.841C839.822,517.8,841.109,518.455,840.844,518.985Z" transform="translate(-304.959 -213.141)" opacity="0.1"/>
    <path id="패스_998" data-name="패스 998" d="M849,526.029a4.71,4.71,0,0,1-2.8-1.6l-2.451-2.276a2.294,2.294,0,0,1-.427-.478,3.357,3.357,0,0,1-.3-.8,9.125,9.125,0,0,0-2.38-3.414,1.553,1.553,0,0,0-.7-.5,1.416,1.416,0,0,0-.782.078,11.826,11.826,0,0,0-4.248,2.586,4.83,4.83,0,0,0-1.448,1.862,4.3,4.3,0,0,0-.207,1.545,11.873,11.873,0,0,0,1.125,4.94c.11.239.233.478.362.711a22.39,22.39,0,0,0,3.039,3.951l1.539,1.72c1.513,1.694,3.026,3.388,4.669,4.947a6.167,6.167,0,0,0,2.095,1.461,2.34,2.34,0,0,0,2.405-.388,3.48,3.48,0,0,0,.685-1.229,24.186,24.186,0,0,0,2-8.063,30.43,30.43,0,0,0-.142-3.343C850.935,526.559,850.1,526.1,849,526.029Z" transform="translate(-305.397 -213.369)" fill="#0f4c81"/>
    <path id="패스_999" data-name="패스 999" d="M875.789,654.715a149.406,149.406,0,0,1-1.384,19.444c-.129,1.041-.271,2.082-.343,3.123-.213,3.02.136,6.052-.149,9.052-.149,1.623-.485,3.233-.769,4.817a85.655,85.655,0,0,0-1.1,21.435c.892,11.917-1.843,23.841-.6,35.725a28.883,28.883,0,0,1-.382,6.912,29.3,29.3,0,0,1-1,4.177q-1.416,4.856-2.845,9.7a3.364,3.364,0,0,1-.647,1.345,3.065,3.065,0,0,1-2.425.718c-3.731-.116-7.242-1.726-10.63-3.3a3.7,3.7,0,0,1-1.067-.647c-.7-.731-.647-1.882-.957-2.845a27.078,27.078,0,0,0-1.63-2.858,9.334,9.334,0,0,1-.7-2.942q-.647-4.966-.879-9.971c-.246-4.694,2.858-9.014,3.88-13.579,1.94-8.975.3-18.6,3.744-27.112,1.086-2.69-.491-5.949-.647-8.846a28.048,28.048,0,0,0-.724-5.548c-.647-2.431-2.011-4.72-2.108-7.242a26.612,26.612,0,0,1,.821-5.4,24.269,24.269,0,0,0-.11-7.973c-.343-2.173-.867-4.345-1.39-6.466l-.116.239a73.049,73.049,0,0,0-4.054,9.537c-.517,1.584-.97,3.2-1.617,4.74-.53,1.293-1.183,2.477-1.823,3.692a106.054,106.054,0,0,0-5.981,13.288c-.8,2.237-1.507,4.526-2.2,6.77l-4.792,15.519c-1.293,4.08-2.709,8.024-3.977,12.1-1.791,5.82-3.582,11.587-5.664,17.277-1.94,5.4-4.248,10.992-3.556,16.7a12.286,12.286,0,0,1-5.71,1.157,33.434,33.434,0,0,1-9.7-2.354,7.541,7.541,0,0,1-3.349-1.992c-1.435-1.752-1.08-4.319-.647-6.55a15.827,15.827,0,0,1,.776-2.949c.492-1.19,1.293-2.244,1.8-3.421,1.015-2.257,1.08-4.811,1.481-7.261s1.293-5.037,3.388-6.369c.356-4.306,2.127-8.555,3.1-12.764.737-3.188.983-6.466,1.565-9.7a21.3,21.3,0,0,1,3.472-9.085,14.4,14.4,0,0,1,1.759-7.759,8.486,8.486,0,0,0,.769-1.649,9.479,9.479,0,0,0,.207-1.707A10.094,10.094,0,0,1,819.6,687.9c-.647-2.36.252-4.824,1.06-7.113a24.715,24.715,0,0,0,1.358-9.1,7.974,7.974,0,0,1,.123-2.586c.181-.647.537-1.2.744-1.817a10.353,10.353,0,0,0,.291-2.321,26.848,26.848,0,0,1,3.233-9.919c.931-1.823.142-4.3.336-6.33.336-3.375.7-6.867,2.379-9.809.31-.556.647-1.086.925-1.662a7.194,7.194,0,0,0,.537-2.586,9.524,9.524,0,0,0-.265-4.087c3.459-2.877,8.18-3.686,12.68-3.88s9.052.213,13.456-.744c1.293-.291,2.586-.692,3.951-.886,3.1-.453,6.24.252,9.3.95A11.076,11.076,0,0,0,871,631.618,60.181,60.181,0,0,1,875.789,654.715Z" transform="translate(-292.999 -251.53)" fill="#33313f"/>
    <path id="패스_1000" data-name="패스 1000" d="M889.776,673.29,882.347,690c-.343-2.173-.867-4.345-1.39-6.466l-.116.239v-.349l4.048-8.9Z" transform="translate(-322.214 -268.624)" opacity="0.1"/>
    <path id="패스_1001" data-name="패스 1001" d="M923.492,617.009a2.793,2.793,0,0,1-1.474.55,7.171,7.171,0,0,1-2.418-.33l-5.819-1.455a2.858,2.858,0,0,1-.53-.187c.1-1.015.291-2.192.841-2.586.821-.55,3.278.188,4.209.317,1.6.22,3.233.479,4.8.782A12.813,12.813,0,0,1,923.492,617.009Z" transform="translate(-333.668 -247.247)" opacity="0.1"/>
    <path id="패스_1002" data-name="패스 1002" d="M928.083,558.682c.123.537.3,1.067.4,1.61a12.288,12.288,0,0,1-.136,4l-.53,3.7-.53,3.718-2.05,14.309-.5,3.543-.711,4.947a3.555,3.555,0,0,1-.31,1.19,2.476,2.476,0,0,1-2.024,1.2,7.331,7.331,0,0,1-2.418-.33l-5.82-1.461a1.823,1.823,0,0,1-.711-.291,1.4,1.4,0,0,1-.375-1.364c.084-.492.3-.951.369-1.442.142-.957-.259-1.94-.116-2.89a7.186,7.186,0,0,1,.647-1.739c1.94-4.287.815-9.292,1.474-13.947a21.144,21.144,0,0,1,4.487-9.984,28.652,28.652,0,0,1,4.953-4.863,9.966,9.966,0,0,1,2.787-1.94C928.135,556.4,927.889,557.867,928.083,558.682Z" transform="translate(-333.338 -227.393)" fill="#0f4c81"/>
    <path id="패스_1003" data-name="패스 1003" d="M865.293,471.876c-.427,1.358.239,2.852-.065,4.235-.33,1.526-1.765,2.586-2.173,4.119-.647,2.334,1.332,4.462,2.78,6.4,5.367,7.2,4.662,17.174,2.826,25.961a134.05,134.05,0,0,1-6.11,20.692,15.857,15.857,0,0,1-3.291,5.774c2.974-.854,6.136-1.714,9.117-.886,3.776,1.047,7.035,4.714,10.863,3.88,2.3-.511,3.918-2.554,5.988-3.686,3.88-2.089,8.555-.776,12.88-.1a5.056,5.056,0,0,0,2.813-.142,4.674,4.674,0,0,0,1.707-1.571,15.944,15.944,0,0,0,3.324-8.6,11.031,11.031,0,0,0-3.175-8.49,18.166,18.166,0,0,1-2.722-2.586,8.032,8.032,0,0,1-1.067-3.918c-.511-7.113,1.222-14.374-.562-21.254-.647-2.451-1.7-4.8-1.985-7.307-.356-3.123.491-6.466-.75-9.324a9.144,9.144,0,0,0-5.451-4.707,29.862,29.862,0,0,0-7.268-1.293C879.428,468.772,866.774,467.253,865.293,471.876Z" transform="translate(-314.588 -196.287)" fill="#33313f"/>
    <g id="그룹_221" data-name="그룹 221" transform="translate(544.672 274.109)" opacity="0.1">
      <path id="패스_1004" data-name="패스 1004" d="M870.478,517.847a133.777,133.777,0,0,1-6.078,20.607c.446-.886.821-1.817,1.177-2.742a133.343,133.343,0,0,0,6.11-20.692c1.843-8.794,2.548-18.752-2.819-25.961-1.293-1.72-2.955-3.582-2.9-5.6a6.892,6.892,0,0,0-1.1,2.03c-.647,2.334,1.332,4.462,2.78,6.4C873.019,499.089,872.315,509.059,870.478,517.847Z" transform="translate(-861.077 -475.649)"/>
      <path id="패스_1005" data-name="패스 1005" d="M868.517,476.443a6.291,6.291,0,0,0,1.138-2.179,11.078,11.078,0,0,0-.078-2.884,3.11,3.11,0,0,0-1.073,1.481C868.123,474.005,868.562,475.247,868.517,476.443Z" transform="translate(-862.471 -471.38)"/>
      <path id="패스_1006" data-name="패스 1006" d="M903.844,568.05a4.656,4.656,0,0,1-1.707,1.565,4.939,4.939,0,0,1-2.813.142c-4.326-.647-9.053-1.979-12.88.11-2.076,1.125-3.686,3.168-5.994,3.686-3.821.854-7.08-2.813-10.857-3.88-2.677-.744-5.5-.129-8.193.647a11.3,11.3,0,0,1-2.14,3.091c2.974-.853,6.136-1.714,9.117-.886,3.776,1.047,7.035,4.714,10.863,3.88,2.3-.511,3.919-2.554,5.988-3.686,3.88-2.089,8.555-.776,12.88-.1a5.056,5.056,0,0,0,2.813-.142,4.674,4.674,0,0,0,1.707-1.571,17.382,17.382,0,0,0,2.677-5.121A18.824,18.824,0,0,1,903.844,568.05Z" transform="translate(-859.26 -504.74)"/>
    </g>
  </g>
</svg>
