<svg xmlns="http://www.w3.org/2000/svg" width="25.845" height="28.949" viewBox="0 0 25.845 28.949">
  <path id="replay" d="M12.71,6.085a12.983,12.983,0,0,1,8.919,3.3,10.344,10.344,0,0,1,0,15.884,13.038,13.038,0,0,1-8.957,3.3,13.025,13.025,0,0,1-8.956-3.3A10.288,10.288,0,0,1,0,17.29H3.2a7.7,7.7,0,0,0,2.787,5.965,9.787,9.787,0,0,0,6.727,2.472,9.787,9.787,0,0,0,6.727-2.472,7.777,7.777,0,0,0,0-11.93A9.787,9.787,0,0,0,12.71,8.853v5.669L4.757,7.469,12.71.417V6.086Z" transform="translate(0.25 0.139)" fill="none" stroke="#0f4c81" stroke-width="0.5"/>
</svg>
