<svg xmlns="http://www.w3.org/2000/svg" xmlns:xlink="http://www.w3.org/1999/xlink" width="1286" height="1080" viewBox="0 0 1286 1080">
  <defs>
    <linearGradient id="linear-gradient" x1="0.5" y1="1" x2="0.5" gradientUnits="objectBoundingBox">
      <stop offset="0" stop-color="gray" stop-opacity="0.251"/>
      <stop offset="0.54" stop-color="gray" stop-opacity="0.122"/>
      <stop offset="1" stop-color="gray" stop-opacity="0.102"/>
    </linearGradient>
    <clipPath id="clip-path">
      <rect id="사각형_136" data-name="사각형 136" width="123" height="231" transform="translate(-7523 -2488)" fill="#fff" stroke="#707070" stroke-width="1"/>
    </clipPath>
  </defs>
  <g id="그룹_236" data-name="그룹 236" transform="translate(7829 2488)">
    <g id="그룹_227" data-name="그룹 227">
      <g id="그룹_229" data-name="그룹 229">
        <path id="패스_939" data-name="패스 939" d="M0,0H1286V1080H0Z" transform="translate(-7829 -2488)" fill="#fff"/>
      </g>
    </g>
    <g id="그룹_230" data-name="그룹 230" transform="translate(-7505 -2361.744)">
      <path id="패스_568" data-name="패스 568" d="M935.255,155a17.658,17.658,0,0,0-10.046,1.073,15.1,15.1,0,0,1-12.065-.029,17.262,17.262,0,0,0-14.186.27,8.921,8.921,0,0,1-4.086,1c-5.751,0-10.538-5.67-11.532-13.153a10.99,10.99,0,0,0,2.876-3.037c3.373-5.319,8.6-8.731,14.461-8.731s11.023,3.372,14.378,8.637a11.159,11.159,0,0,0,9.585,5.137h.15C929.33,146.164,933.3,149.753,935.255,155Z" transform="translate(-407.851 -95.87)" fill="#0f4c81" opacity="0.1"/>
      <path id="패스_569" data-name="패스 569" d="M952.735,116.777l-9.3,5.776,5.643-10.051a9.349,9.349,0,0,0-5.625-1.964h-.15a11.109,11.109,0,0,1-1.929-.135l-3.139,1.953,1.354-2.4a11.166,11.166,0,0,1-5.511-4.1l-5.643,3.518,3.594-6.339A16.639,16.639,0,0,0,919.4,96.77c-5.865,0-11.089,3.419-14.462,8.737a10.844,10.844,0,0,1-9.585,5.043h-.318c-6.476,0-11.724,7.189-11.724,16.049s5.206,16.044,11.706,16.044a8.97,8.97,0,0,0,4.086-1,17.238,17.238,0,0,1,14.186-.276,15.1,15.1,0,0,0,12.065.029,17.281,17.281,0,0,1,14.066.264,8.929,8.929,0,0,0,4.038.979c6.476,0,11.724-7.183,11.724-16.049A20.035,20.035,0,0,0,952.735,116.777Z" transform="translate(-407.839 -81.137)" fill="#0f4c81" opacity="0.1"/>
      <g id="그룹_149" data-name="그룹 149" transform="translate(36.277 99.856)" opacity="0.1">
        <path id="패스_570" data-name="패스 570" d="M218.26,716.968v3.706a14.1,14.1,0,0,0,28.192,0V717a14.1,14.1,0,0,0-28.192,0Z" transform="translate(-177.474 -431.821)" fill="#0f4c81"/>
        <path id="패스_571" data-name="패스 571" d="M246.452,613.95v-3.682a14.1,14.1,0,0,0-28.192,0v3.677a13.291,13.291,0,0,0,.6,3.987,14.106,14.106,0,0,0,15.528,9.588,13.89,13.89,0,0,0,12.029-13.576Z" transform="translate(-177.474 -387.676)" fill="#0f4c81"/>
        <path id="패스_572" data-name="패스 572" d="M218.26,663.608v3.682a14.1,14.1,0,0,0,28.192,0v-3.682a14.1,14.1,0,0,0-28.192,0Z" transform="translate(-177.474 -409.738)" fill="#0f4c81"/>
        <path id="패스_573" data-name="패스 573" d="M232.356,756.48a13.991,13.991,0,0,0-14.1,13.792v3.677a14.1,14.1,0,0,0,28.192,0v-3.677a13.985,13.985,0,0,0-14.1-13.792Z" transform="translate(-177.474 -453.858)" fill="#0f4c81"/>
        <path id="패스_574" data-name="패스 574" d="M246.877,620.61v3.325a13.89,13.89,0,0,1-12.029,13.576,14.106,14.106,0,0,1-15.528-9.588Z" transform="translate(-177.899 -397.66)" fill="#0f4c81" opacity="0.1"/>
        <path id="패스_575" data-name="패스 575" d="M246.877,674v3.325A13.891,13.891,0,0,1,234.848,690.9a14.106,14.106,0,0,1-15.528-9.588Z" transform="translate(-177.899 -419.743)" fill="#0f4c81" opacity="0.1"/>
        <path id="패스_576" data-name="패스 576" d="M246.877,727.28v3.354a13.891,13.891,0,0,1-12.029,13.576,14.106,14.106,0,0,1-15.528-9.588Z" transform="translate(-177.899 -441.781)" fill="#0f4c81" opacity="0.1"/>
        <path id="패스_577" data-name="패스 577" d="M246.877,780.61v3.325a13.89,13.89,0,0,1-12.029,13.576,14.106,14.106,0,0,1-15.528-9.588Z" transform="translate(-177.899 -463.839)" fill="#0f4c81" opacity="0.1"/>
        <path id="패스_578" data-name="패스 578" d="M307.956,673.411l-1.126.85a5.412,5.412,0,0,1-6.948-.377,5.16,5.16,0,0,1,.442-7.88l1.126-.85a5.4,5.4,0,0,1,7.47.944A5.14,5.14,0,0,1,307.956,673.411Z" transform="translate(-209.546 -415.635)" fill="#0f4c81"/>
        <path id="패스_579" data-name="패스 579" d="M285.418,677.484l-1.12.85a5.166,5.166,0,0,0-2.144,4.859,5.231,5.231,0,0,0,3.3,4.19,5.417,5.417,0,0,0,5.346-.8l1.12-.844a5.14,5.14,0,0,0,.964-7.312A5.4,5.4,0,0,0,285.418,677.484Z" transform="translate(-203.074 -420.735)" fill="#0f4c81"/>
        <path id="패스_580" data-name="패스 580" d="M269.464,689.79l-1.126.844a5.166,5.166,0,0,0-2.144,4.859,5.232,5.232,0,0,0,3.3,4.19,5.418,5.418,0,0,0,5.346-.8l1.126-.844a5.14,5.14,0,0,0,.965-7.312,5.4,5.4,0,0,0-7.47-.944Z" transform="translate(-196.676 -425.823)" fill="#0f4c81"/>
        <path id="패스_581" data-name="패스 581" d="M253.582,702.043l-1.12.844a5.14,5.14,0,0,0-.965,7.312,5.4,5.4,0,0,0,7.47.944l1.12-.85a5.166,5.166,0,0,0,2.143-4.859,5.232,5.232,0,0,0-3.3-4.19A5.418,5.418,0,0,0,253.582,702.043Z" transform="translate(-190.355 -430.857)" fill="#0f4c81"/>
        <path id="패스_582" data-name="패스 582" d="M307.848,675.651l-1.018.768a5.412,5.412,0,0,1-6.948-.377,5.132,5.132,0,0,1-.636-6.783Z" transform="translate(-209.546 -417.783)" fill="#0f4c81" opacity="0.1"/>
        <path id="패스_583" data-name="패스 583" d="M291.933,687.962l-1.012.762a5.413,5.413,0,0,1-6.892-.426,5.132,5.132,0,0,1-.668-6.728Z" transform="translate(-203.192 -422.874)" fill="#0f4c81" opacity="0.1"/>
        <path id="패스_584" data-name="패스 584" d="M275.944,700.266l-1.018.768a5.412,5.412,0,0,1-6.937-.382,5.132,5.132,0,0,1-.647-6.771Z" transform="translate(-196.758 -427.966)" fill="#0f4c81" opacity="0.1"/>
        <path id="패스_585" data-name="패스 585" d="M243.591,326.863a15.642,15.642,0,1,1,0,31.278,15.641,15.641,0,1,1,0,31.275,15.635,15.635,0,0,1,0,31.269,15.643,15.643,0,1,1,0,31.278H166.533a15.643,15.643,0,1,1,0-31.278,15.641,15.641,0,1,1,0-31.275,16.055,16.055,0,0,1-14.152-7.708,15.354,15.354,0,0,1,0-15.853,16.055,16.055,0,0,1,14.152-7.708,15.642,15.642,0,1,1,0-31.278,15.641,15.641,0,1,1,0-31.275,16.055,16.055,0,0,1-14.152-7.708,15.354,15.354,0,0,1,0-15.853,16.055,16.055,0,0,1,14.152-7.708h3.522c2.025-13.452,17.553-23.919,36.417-23.919s34.392,10.467,36.417,23.919h.7a15.641,15.641,0,1,1,0,31.275,15.635,15.635,0,0,1,0,31.269Z" transform="translate(-150.177 -240.4)" fill="#0f4c81"/>
        <path id="패스_586" data-name="패스 586" d="M270.509,296.829a15.852,15.852,0,0,1-15.971,15.633H177.48l76.584-31.272h.473A15.852,15.852,0,0,1,270.509,296.829Z" transform="translate(-161.124 -257.271)" fill="#0f4c81" opacity="0.1"/>
        <path id="패스_587" data-name="패스 587" d="M151.6,350.159a15.852,15.852,0,0,0,15.977,15.633h77.051L168.044,334.52h-.467A15.858,15.858,0,0,0,151.6,350.159Z" transform="translate(-150.747 -279.329)" fill="#0f4c81" opacity="0.1"/>
        <path id="패스_588" data-name="패스 588" d="M151.6,456.823a15.858,15.858,0,0,0,15.977,15.639h77.051L168.044,441.19h-.467A15.852,15.852,0,0,0,151.6,456.823Z" transform="translate(-150.747 -323.45)" fill="#0f4c81" opacity="0.1"/>
        <path id="패스_589" data-name="패스 589" d="M151.6,563.489a15.858,15.858,0,0,0,15.977,15.639h77.051L168.044,547.85h-.467A15.858,15.858,0,0,0,151.6,563.489Z" transform="translate(-150.747 -367.566)" fill="#0f4c81" opacity="0.1"/>
        <path id="패스_590" data-name="패스 590" d="M270.509,403.489a15.852,15.852,0,0,1-15.971,15.639H177.48l76.584-31.278h.473A15.852,15.852,0,0,1,270.509,403.489Z" transform="translate(-161.124 -301.387)" fill="#0f4c81" opacity="0.1"/>
        <path id="패스_591" data-name="패스 591" d="M270.509,510.159a15.852,15.852,0,0,1-15.971,15.633H177.48l76.584-31.272h.473a15.852,15.852,0,0,1,15.971,15.639Z" transform="translate(-161.124 -345.508)" fill="#0f4c81" opacity="0.1"/>
        <path id="패스_592" data-name="패스 592" d="M298.644,681.449l-25.376-13.37a5.809,5.809,0,0,1-.575-10.416,6.1,6.1,0,0,1,6.242.119,5.809,5.809,0,0,1-.591-10.426,6.1,6.1,0,0,1,6.252.129l1.162.586c3.1-4.1,10.106-4.832,16.319-1.56s9.435,9.417,7.662,14.2l.234.123a5.8,5.8,0,0,1,2.225,7.807,6.054,6.054,0,0,1-7.868,2.525,5.809,5.809,0,0,1,.564,10.425A6.1,6.1,0,0,1,298.644,681.449Z" transform="translate(-198.107 -407.525)" fill="#0f4c81"/>
        <path id="패스_593" data-name="패스 593" d="M318.6,678.183a6.057,6.057,0,0,1-8.093,2.387L285.14,667.2l30.882,2.991.156.082A5.8,5.8,0,0,1,318.6,678.183Z" transform="translate(-204.288 -416.931)" fill="#0f4c81" opacity="0.1"/>
        <path id="패스_594" data-name="패스 594" d="M271.415,669.2a5.8,5.8,0,0,0,2.426,7.922l25.376,13.37-19.559-23.584-.15-.082a6.057,6.057,0,0,0-8.093,2.375Z" transform="translate(-198.501 -416.49)" fill="#0f4c81" opacity="0.1"/>
      </g>
      <g id="그룹_150" data-name="그룹 150" transform="translate(226.07 157.403)" opacity="0.1">
        <path id="패스_595" data-name="패스 595" d="M553.184,729.487v3.02a11.565,11.565,0,0,1-23.124,0v-3.02a11.565,11.565,0,0,1,23.124,0Z" transform="translate(-492.279 -495.56)" fill="#0f4c81"/>
        <path id="패스_596" data-name="패스 596" d="M530.06,645.014v-3a11.565,11.565,0,0,1,23.124,0v3.014a10.969,10.969,0,0,1-.5,3.272,11.566,11.566,0,0,1-12.76,7.946,11.39,11.39,0,0,1-9.867-11.219Z" transform="translate(-492.278 -459.382)" fill="#0f4c81"/>
        <path id="패스_597" data-name="패스 597" d="M553.184,685.737v3.02a11.565,11.565,0,0,1-23.124,0v-3.02a11.565,11.565,0,0,1,23.124,0Z" transform="translate(-492.279 -477.465)" fill="#0f4c81"/>
        <path id="패스_598" data-name="패스 598" d="M541.622,761.92a11.477,11.477,0,0,1,11.562,11.323v3.014a11.565,11.565,0,0,1-23.124,0v-3.014a11.477,11.477,0,0,1,11.562-11.323Z" transform="translate(-492.279 -513.656)" fill="#0f4c81"/>
        <path id="패스_599" data-name="패스 599" d="M530.06,650.46v2.727a11.39,11.39,0,0,0,9.867,11.219,11.566,11.566,0,0,0,12.76-7.947Z" transform="translate(-492.278 -467.555)" fill="#0f4c81" opacity="0.1"/>
        <path id="패스_600" data-name="패스 600" d="M530.06,694.21v2.733a11.4,11.4,0,0,0,9.872,11.185,11.574,11.574,0,0,0,12.755-7.913Z" transform="translate(-492.279 -485.65)" fill="#0f4c81" opacity="0.1"/>
        <path id="패스_601" data-name="패스 601" d="M530.06,738v2.727a11.4,11.4,0,0,0,9.872,11.185A11.574,11.574,0,0,0,552.687,744Z" transform="translate(-492.279 -503.762)" fill="#0f4c81" opacity="0.1"/>
        <path id="패스_602" data-name="패스 602" d="M530.06,781.72v2.727a11.389,11.389,0,0,0,9.852,11.246,11.567,11.567,0,0,0,12.775-7.945Z" transform="translate(-492.278 -521.846)" fill="#0f4c81" opacity="0.1"/>
        <path id="패스_603" data-name="패스 603" d="M488.622,693.8l.923.692a4.438,4.438,0,0,0,5.682-.317,4.228,4.228,0,0,0-.345-6.449l-.923-.692a4.433,4.433,0,0,0-6.128.774,4.217,4.217,0,0,0,.791,6Z" transform="translate(-474.982 -482.313)" fill="#0f4c81"/>
        <path id="패스_604" data-name="패스 604" d="M507.049,697.112l.923.7a4.217,4.217,0,0,1,.791,6,4.433,4.433,0,0,1-6.128.774l-.923-.7a4.217,4.217,0,0,1-.791-6A4.433,4.433,0,0,1,507.049,697.112Z" transform="translate(-480.231 -486.482)" fill="#0f4c81"/>
        <path id="패스_605" data-name="패스 605" d="M520.129,707.212l.923.7a4.217,4.217,0,0,1,.791,6,4.433,4.433,0,0,1-6.128.774l-.922-.7a4.217,4.217,0,0,1-.791-6A4.433,4.433,0,0,1,520.129,707.212Z" transform="translate(-485.475 -490.659)" fill="#0f4c81"/>
        <path id="패스_606" data-name="패스 606" d="M533.211,717.312l.923.7a4.217,4.217,0,0,1,.791,6,4.433,4.433,0,0,1-6.128.774l-.935-.7a4.217,4.217,0,0,1-.791-6,4.433,4.433,0,0,1,6.128-.774Z" transform="translate(-490.715 -494.837)" fill="#0f4c81"/>
        <path id="패스_607" data-name="패스 607" d="M489.9,695.616l.839.627a4.438,4.438,0,0,0,5.682-.317,4.209,4.209,0,0,0,.536-5.546Z" transform="translate(-476.177 -484.066)" fill="#0f4c81" opacity="0.1"/>
        <path id="패스_608" data-name="패스 608" d="M503,705.716l.839.627a4.438,4.438,0,0,0,5.682-.318,4.208,4.208,0,0,0,.536-5.546Z" transform="translate(-481.429 -488.244)" fill="#0f4c81" opacity="0.1"/>
        <path id="패스_609" data-name="패스 609" d="M516.08,715.816l.833.628a4.438,4.438,0,0,0,5.694-.306,4.208,4.208,0,0,0,.53-5.558Z" transform="translate(-486.673 -492.421)" fill="#0f4c81" opacity="0.1"/>
        <path id="패스_610" data-name="패스 610" d="M487.6,409.475a12.832,12.832,0,1,0,0,25.657,13.173,13.173,0,0,0-11.637,6.314,12.6,12.6,0,0,0,0,13.024,13.173,13.173,0,0,0,11.637,6.314,12.833,12.833,0,1,0,0,25.66,12.832,12.832,0,1,0,0,25.657l63.213,0a12.832,12.832,0,1,0,0-25.657,12.832,12.832,0,1,0,0-25.659,13.172,13.172,0,0,0,11.612-6.323,12.6,12.6,0,0,0,0-13.007,13.172,13.172,0,0,0-11.612-6.323,12.832,12.832,0,1,0,0-25.657,12.832,12.832,0,1,0,0-25.659,13.172,13.172,0,0,0,11.613-6.323,12.6,12.6,0,0,0,0-13.007,13.172,13.172,0,0,0-11.613-6.323h-2.888c-1.659-11.036-14.378-19.62-29.875-19.62s-28.216,8.585-29.875,19.62h-.6a12.832,12.832,0,1,0,0,25.657,12.832,12.832,0,1,0,0,25.659Z" transform="translate(-469.861 -338.54)" fill="#0f4c81"/>
        <path id="패스_611" data-name="패스 611" d="M474.72,384.824a13.007,13.007,0,0,0,13.108,12.83h63.213L488.211,372h-.383A13.007,13.007,0,0,0,474.72,384.824Z" transform="translate(-470.091 -352.38)" fill="#0f4c81" opacity="0.1"/>
        <path id="패스_612" data-name="패스 612" d="M572.3,428.58a13.042,13.042,0,0,1-13.107,12.83H496l62.836-25.66h.383A13.041,13.041,0,0,1,572.3,428.58Z" transform="translate(-478.623 -370.475)" fill="#0f4c81" opacity="0.1"/>
        <path id="패스_613" data-name="패스 613" d="M572.3,516.086A13.007,13.007,0,0,1,559.189,528.9H496l62.836-25.654h.383A13.006,13.006,0,0,1,572.3,516.086Z" transform="translate(-478.623 -406.666)" fill="#0f4c81" opacity="0.1"/>
        <path id="패스_614" data-name="패스 614" d="M572.3,603.6a13.007,13.007,0,0,1-13.107,12.824H496l62.836-25.654h.383A13.006,13.006,0,0,1,572.3,603.6Z" transform="translate(-478.623 -442.866)" fill="#0f4c81" opacity="0.1"/>
        <path id="패스_615" data-name="패스 615" d="M474.72,472.334a13.007,13.007,0,0,0,13.108,12.83h63.213l-62.83-25.654h-.383A13.007,13.007,0,0,0,474.72,472.334Z" transform="translate(-470.091 -388.575)" fill="#0f4c81" opacity="0.1"/>
        <path id="패스_616" data-name="패스 616" d="M474.72,559.836a13.042,13.042,0,0,0,13.108,12.83h63.213L488.211,547h-.383A13.042,13.042,0,0,0,474.72,559.836Z" transform="translate(-470.091 -424.762)" fill="#0f4c81" opacity="0.1"/>
        <path id="패스_617" data-name="패스 617" d="M478.864,700.391l20.818-10.971a4.747,4.747,0,0,0,1.992-6.5,4.957,4.957,0,0,0-6.641-1.95,4.746,4.746,0,0,0,1.995-6.5,4.955,4.955,0,0,0-6.638-1.953l-.953.5c-2.546-3.348-8.3-3.964-13.4-1.278s-7.734,7.723-6.284,11.646l-.186.1a4.746,4.746,0,0,0-1.995,6.5,4.955,4.955,0,0,0,6.638,1.953,4.748,4.748,0,0,0-1.992,6.5A4.957,4.957,0,0,0,478.864,700.391Z" transform="translate(-466.992 -475.664)" fill="#0f4c81"/>
        <path id="패스_618" data-name="패스 618" d="M467.612,697.639a4.973,4.973,0,0,0,6.638,1.953l20.817-10.971-25.334,2.457-.126.065A4.763,4.763,0,0,0,467.612,697.639Z" transform="translate(-467.009 -483.338)" fill="#0f4c81" opacity="0.1"/>
        <path id="패스_619" data-name="패스 619" d="M509.406,690.323a4.757,4.757,0,0,1-1.989,6.5L486.6,707.791l16.043-19.351.126-.07A4.973,4.973,0,0,1,509.406,690.323Z" transform="translate(-474.854 -483)" fill="#0f4c81" opacity="0.1"/>
      </g>
      <g id="그룹_151" data-name="그룹 151" transform="translate(167.375 341.892)" opacity="0.1">
        <path id="패스_620" data-name="패스 620" d="M393.7,765.129V766a3.323,3.323,0,0,1-6.632,0v-.862a3.232,3.232,0,0,1,1.616-2.928,3.38,3.38,0,0,1,3.4,0,3.232,3.232,0,0,1,1.616,2.928Z" transform="translate(-376.251 -698.076)" fill="#0f4c81"/>
        <path id="패스_621" data-name="패스 621" d="M387.07,741.094v-.868a3.323,3.323,0,0,1,6.632,0v.868a3.075,3.075,0,0,1-.144.938,3.316,3.316,0,0,1-3.659,2.283A3.265,3.265,0,0,1,387.07,741.094Z" transform="translate(-376.253 -687.885)" fill="#0f4c81"/>
        <path id="패스_622" data-name="패스 622" d="M393.7,752.611v.862a3.323,3.323,0,0,1-6.632,0v-.862a3.232,3.232,0,0,1,1.616-2.928,3.381,3.381,0,0,1,3.4,0A3.232,3.232,0,0,1,393.7,752.611Z" transform="translate(-376.251 -692.894)" fill="#0f4c81"/>
        <path id="패스_623" data-name="패스 623" d="M390.387,774.51a3.29,3.29,0,0,1,3.313,3.249v.862a3.232,3.232,0,0,1-1.616,2.928,3.38,3.38,0,0,1-3.4,0,3.232,3.232,0,0,1-1.616-2.928v-.862a3.29,3.29,0,0,1,3.319-3.249Z" transform="translate(-376.251 -703.352)" fill="#0f4c81"/>
        <path id="패스_624" data-name="패스 624" d="M387.07,742.57v.78a3.265,3.265,0,0,0,2.829,3.221,3.316,3.316,0,0,0,3.659-2.282Z" transform="translate(-376.253 -690.141)" fill="#0f4c81" opacity="0.1"/>
        <path id="패스_625" data-name="패스 625" d="M387.07,755.11v.78a3.266,3.266,0,0,0,2.841,3.2,3.315,3.315,0,0,0,3.647-2.284Z" transform="translate(-376.253 -695.328)" fill="#0f4c81" opacity="0.1"/>
        <path id="패스_626" data-name="패스 626" d="M387.07,767.65v.792a3.265,3.265,0,0,0,2.829,3.221,3.316,3.316,0,0,0,3.659-2.283Z" transform="translate(-376.253 -700.515)" fill="#0f4c81" opacity="0.1"/>
        <path id="패스_627" data-name="패스 627" d="M387.07,780.19v.78a3.265,3.265,0,0,0,2.829,3.221,3.316,3.316,0,0,0,3.659-2.282Z" transform="translate(-376.253 -705.701)" fill="#0f4c81" opacity="0.1"/>
        <path id="패스_628" data-name="패스 628" d="M375.2,754.98l.264.205a1.272,1.272,0,0,0,1.664-.059,1.207,1.207,0,0,0,.134-1.624,1.183,1.183,0,0,0-.252-.264l-.264-.2a1.272,1.272,0,0,0-1.758.22,1.21,1.21,0,0,0,.225,1.721Z" transform="translate(-371.305 -694.365)" fill="#0f4c81"/>
        <path id="패스_629" data-name="패스 629" d="M380.478,755.939l.264.2a1.215,1.215,0,0,1,.507,1.142,1.23,1.23,0,0,1-.777.987,1.273,1.273,0,0,1-1.258-.188l-.27-.2a1.21,1.21,0,0,1-.225-1.721A1.272,1.272,0,0,1,380.478,755.939Z" transform="translate(-372.8 -695.565)" fill="#0f4c81"/>
        <path id="패스_630" data-name="패스 630" d="M384.25,758.835l.264.2a1.22,1.22,0,0,1,.228,1.724,1.27,1.27,0,0,1-1.755.217l-.264-.2a1.208,1.208,0,0,1-.2-1.7A1.27,1.27,0,0,1,384.25,758.835Z" transform="translate(-374.326 -696.772)" fill="#0f4c81"/>
        <path id="패스_631" data-name="패스 631" d="M388,761.745l.264.2a1.214,1.214,0,0,1,.507,1.142,1.23,1.23,0,0,1-.777.987,1.274,1.274,0,0,1-1.258-.188l-.264-.2a1.208,1.208,0,0,1-.2-1.7A1.27,1.27,0,0,1,388,761.745Z" transform="translate(-375.829 -697.975)" fill="#0f4c81"/>
        <path id="패스_632" data-name="패스 632" d="M375.56,755.511l.24.182a1.272,1.272,0,0,0,1.664-.059,1.207,1.207,0,0,0,.134-1.624Z" transform="translate(-371.638 -694.873)" fill="#0f4c81" opacity="0.1"/>
        <path id="패스_633" data-name="패스 633" d="M379.32,758.4l.24.182a1.272,1.272,0,0,0,1.664-.059,1.207,1.207,0,0,0,.134-1.624Z" transform="translate(-373.146 -696.068)" fill="#0f4c81" opacity="0.1"/>
        <path id="패스_634" data-name="패스 634" d="M383.07,761.3l.24.176a1.27,1.27,0,0,0,1.755-.217,1.222,1.222,0,0,0,0-1.466Z" transform="translate(-374.65 -697.264)" fill="#0f4c81" opacity="0.1"/>
        <path id="패스_635" data-name="패스 635" d="M374.966,673.49a3.677,3.677,0,1,0,0,7.353,3.68,3.68,0,0,0,0,7.359,3.677,3.677,0,1,0,0,7.353,3.677,3.677,0,1,0,0,7.353h18.122a3.677,3.677,0,1,0,0-7.353,3.677,3.677,0,1,0,0-7.353,3.68,3.68,0,0,0,0-7.359,3.677,3.677,0,1,0,0-7.353,3.677,3.677,0,1,0,0-7.353,3.677,3.677,0,1,0,0-7.353h-.827c-.479-3.161-4.128-5.623-8.567-5.623s-8.087,2.463-8.561,5.623h-.168a3.677,3.677,0,1,0,0,7.353,3.677,3.677,0,1,0,0,7.353Z" transform="translate(-369.894 -653.16)" fill="#0f4c81"/>
        <path id="패스_636" data-name="패스 636" d="M371.21,666.407a3.729,3.729,0,0,0,3.756,3.677h18.122L375.08,662.73h-.114A3.729,3.729,0,0,0,371.21,666.407Z" transform="translate(-369.894 -657.118)" fill="#0f4c81" opacity="0.1"/>
        <path id="패스_637" data-name="패스 637" d="M399.178,678.967a3.729,3.729,0,0,1-3.756,3.677H377.3l18.008-7.353h.114A3.729,3.729,0,0,1,399.178,678.967Z" transform="translate(-372.336 -662.313)" fill="#0f4c81" opacity="0.1"/>
        <path id="패스_638" data-name="패스 638" d="M399.178,704.052a3.735,3.735,0,0,1-3.756,3.677H377.3l18.008-7.359h.114A3.735,3.735,0,0,1,399.178,704.052Z" transform="translate(-372.336 -672.687)" fill="#0f4c81" opacity="0.1"/>
        <path id="패스_639" data-name="패스 639" d="M399.178,729.137a3.729,3.729,0,0,1-3.756,3.677H377.3l18.008-7.353h.114a3.729,3.729,0,0,1,3.756,3.677Z" transform="translate(-372.336 -683.064)" fill="#0f4c81" opacity="0.1"/>
        <path id="패스_640" data-name="패스 640" d="M371.21,691.507a3.729,3.729,0,0,0,3.756,3.677h18.122L375.08,687.83h-.114A3.729,3.729,0,0,0,371.21,691.507Z" transform="translate(-369.894 -667.5)" fill="#0f4c81" opacity="0.1"/>
        <path id="패스_641" data-name="패스 641" d="M371.21,716.6a3.729,3.729,0,0,0,3.756,3.677h18.122L375.08,712.92h-.114A3.729,3.729,0,0,0,371.21,716.6Z" transform="translate(-369.894 -677.878)" fill="#0f4c81" opacity="0.1"/>
        <path id="패스_642" data-name="패스 642" d="M372.876,756.848l5.991-3.149a3.055,3.055,0,0,1-1.291-1.985,3.01,3.01,0,0,1,.53-2.3,1.394,1.394,0,0,0-.827-.683,1.43,1.43,0,0,0-1.078.1l-.27.141c-.731-.956-2.4-1.138-3.84-.363s-2.216,2.211-1.8,3.336h-.054a3.055,3.055,0,0,1,1.291,1.985,3.01,3.01,0,0,1-.53,2.3,1.422,1.422,0,0,0,1.875.622Z" transform="translate(-369.482 -692.439)" fill="#0f4c81"/>
        <path id="패스_643" data-name="패스 643" d="M369.173,756.117a1.4,1.4,0,0,0,.828.681,1.436,1.436,0,0,0,1.077-.095l5.991-3.143-7.261.7h-.036A1.364,1.364,0,0,0,369.173,756.117Z" transform="translate(-369.014 -694.687)" fill="#0f4c81" opacity="0.1"/>
        <path id="패스_644" data-name="패스 644" d="M381.14,753.995a1.369,1.369,0,0,1-.569,1.865L374.58,759l4.595-5.547h.036a1.441,1.441,0,0,1,1.079-.123A1.409,1.409,0,0,1,381.14,753.995Z" transform="translate(-371.246 -694.571)" fill="#0f4c81" opacity="0.1"/>
      </g>
      <g id="그룹_152" data-name="그룹 152" transform="translate(324.51 302.745)" opacity="0.1">
        <path id="패스_645" data-name="패스 645" d="M668.85,756.751v1.319a5.043,5.043,0,0,1-10.07,0v-1.319a5.043,5.043,0,0,1,10.07,0Z" transform="translate(-642.327 -654.891)" fill="#0f4c81"/>
        <path id="패스_646" data-name="패스 646" d="M658.778,719.721V718.4a4.908,4.908,0,0,1,2.466-4.412,5.132,5.132,0,0,1,5.138,0,4.908,4.908,0,0,1,2.466,4.412v1.313a4.7,4.7,0,0,1-.221,1.424,5.037,5.037,0,0,1-5.552,3.447,4.96,4.96,0,0,1-4.3-4.871Z" transform="translate(-642.325 -638.888)" fill="#0f4c81"/>
        <path id="패스_647" data-name="패스 647" d="M668.848,737.7v1.313a4.908,4.908,0,0,1-2.466,4.412,5.132,5.132,0,0,1-5.138,0,4.908,4.908,0,0,1-2.466-4.412V737.7a5.043,5.043,0,0,1,10.07,0Z" transform="translate(-642.325 -647.011)" fill="#0f4c81"/>
        <path id="패스_648" data-name="패스 648" d="M663.812,770.76a5,5,0,0,1,5.038,4.932V777a5.043,5.043,0,0,1-10.07,0v-1.313A5,5,0,0,1,663.812,770.76Z" transform="translate(-642.327 -662.654)" fill="#0f4c81"/>
        <path id="패스_649" data-name="패스 649" d="M658.78,722.23V723.4a4.96,4.96,0,0,0,4.3,4.871,5.037,5.037,0,0,0,5.552-3.446Z" transform="translate(-642.327 -642.581)" fill="#0f4c81" opacity="0.1"/>
        <path id="패스_650" data-name="패스 650" d="M658.78,741.28v1.173a4.96,4.96,0,0,0,4.3,4.871,5.037,5.037,0,0,0,5.552-3.446Z" transform="translate(-642.327 -650.461)" fill="#0f4c81" opacity="0.1"/>
        <path id="패스_651" data-name="패스 651" d="M658.78,760.33V761.5a4.961,4.961,0,0,0,4.3,4.866,5.037,5.037,0,0,0,5.549-3.446Z" transform="translate(-642.327 -658.34)" fill="#0f4c81" opacity="0.1"/>
        <path id="패스_652" data-name="패스 652" d="M658.78,779.38v1.173a4.96,4.96,0,0,0,4.3,4.871,5.037,5.037,0,0,0,5.552-3.446Z" transform="translate(-642.327 -666.219)" fill="#0f4c81" opacity="0.1"/>
        <path id="패스_653" data-name="패스 653" d="M640.633,741.008l.4.3a1.93,1.93,0,0,0,2.492-.124,1.83,1.83,0,0,0,.216-2.433,2.17,2.17,0,0,0-.383-.393l-.4-.3a1.936,1.936,0,0,0-1.972-.4,1.872,1.872,0,0,0-1.234,1.557,1.852,1.852,0,0,0,.881,1.771Z" transform="translate(-634.693 -648.917)" fill="#0f4c81"/>
        <path id="패스_654" data-name="패스 654" d="M648.657,742.449l.4.3a1.836,1.836,0,0,1,.194,2.5,1.933,1.933,0,0,1-2.518.436l-.4-.3a1.852,1.852,0,0,1-.881-1.771,1.872,1.872,0,0,1,1.234-1.557A1.935,1.935,0,0,1,648.657,742.449Z" transform="translate(-636.979 -650.732)" fill="#0f4c81"/>
        <path id="패스_655" data-name="패스 655" d="M654.358,746.849l.4.3a1.836,1.836,0,0,1,.194,2.5,1.933,1.933,0,0,1-2.518.436l-.4-.3a1.852,1.852,0,0,1-.881-1.771,1.872,1.872,0,0,1,1.234-1.556A1.935,1.935,0,0,1,654.358,746.849Z" transform="translate(-639.264 -652.552)" fill="#0f4c81"/>
        <path id="패스_656" data-name="패스 656" d="M660.058,751.253l.4.3a1.831,1.831,0,0,1,.249,2.538,1.927,1.927,0,0,1-2.574.394l-.4-.3a1.852,1.852,0,0,1-.881-1.771,1.872,1.872,0,0,1,1.234-1.557,1.936,1.936,0,0,1,1.972.4Z" transform="translate(-641.549 -654.376)" fill="#0f4c81"/>
        <path id="패스_657" data-name="패스 657" d="M641.29,741.887l.365.27a1.93,1.93,0,0,0,2.492-.124,1.83,1.83,0,0,0,.216-2.433Z" transform="translate(-635.314 -649.766)" fill="#0f4c81" opacity="0.1"/>
        <path id="패스_658" data-name="패스 658" d="M647,746.281l.365.276a1.93,1.93,0,0,0,2.492-.124,1.83,1.83,0,0,0,.216-2.433Z" transform="translate(-637.604 -651.586)" fill="#0f4c81" opacity="0.1"/>
        <path id="패스_659" data-name="패스 659" d="M652.69,750.681l.365.276a1.93,1.93,0,0,0,2.492-.124,1.83,1.83,0,0,0,.216-2.433Z" transform="translate(-639.885 -653.406)" fill="#0f4c81" opacity="0.1"/>
        <path id="패스_660" data-name="패스 660" d="M640.086,617.291a5.747,5.747,0,0,0-5.32,2.65,5.488,5.488,0,0,0,0,5.842,5.746,5.746,0,0,0,5.32,2.649,5.747,5.747,0,0,0-5.32,2.649,5.488,5.488,0,0,0,0,5.842,5.746,5.746,0,0,0,5.32,2.649,5.739,5.739,0,0,0-5.1,2.739,5.487,5.487,0,0,0,0,5.692,5.739,5.739,0,0,0,5.1,2.739,5.59,5.59,0,1,0,0,11.177h27.527a5.59,5.59,0,1,0,0-11.177,5.586,5.586,0,0,0,0-11.171,5.58,5.58,0,0,0,0-11.141,5.58,5.58,0,0,0,0-11.141,5.586,5.586,0,0,0,0-11.171,5.59,5.59,0,1,0,0-11.177h-1.258c-.725-4.8-6.272-8.544-13.012-8.544s-12.287,3.741-13.012,8.544h-.246a5.59,5.59,0,1,0,0,11.177,5.738,5.738,0,0,0-5.1,2.739,5.486,5.486,0,0,0,0,5.692,5.738,5.738,0,0,0,5.1,2.739Z" transform="translate(-632.361 -586.4)" fill="#0f4c81"/>
        <path id="패스_661" data-name="패스 661" d="M634.68,606.571a5.668,5.668,0,0,0,5.709,5.588h27.527L640.557,601h-.168A5.668,5.668,0,0,0,634.68,606.571Z" transform="translate(-632.664 -592.439)" fill="#0f4c81" opacity="0.1"/>
        <path id="패스_662" data-name="패스 662" d="M677.14,625.6a5.667,5.667,0,0,1-5.7,5.588H643.88L671.269,620h.168A5.661,5.661,0,0,1,677.14,625.6Z" transform="translate(-636.353 -600.297)" fill="#0f4c81" opacity="0.1"/>
        <path id="패스_663" data-name="패스 663" d="M677.14,663.739a5.667,5.667,0,0,1-5.7,5.582H643.88l27.359-11.141h.168a5.669,5.669,0,0,1,5.733,5.559Z" transform="translate(-636.353 -616.089)" fill="#0f4c81" opacity="0.1"/>
        <path id="패스_664" data-name="패스 664" d="M677.14,701.818a5.667,5.667,0,0,1-5.7,5.588H643.88l27.359-11.177h.168A5.668,5.668,0,0,1,677.14,701.818Z" transform="translate(-636.353 -631.827)" fill="#0f4c81" opacity="0.1"/>
        <path id="패스_665" data-name="패스 665" d="M634.68,644.683a5.668,5.668,0,0,0,5.709,5.588h27.527L640.557,639.13h-.168A5.662,5.662,0,0,0,634.68,644.683Z" transform="translate(-632.664 -608.21)" fill="#0f4c81" opacity="0.1"/>
        <path id="패스_666" data-name="패스 666" d="M634.68,682.768a5.662,5.662,0,0,0,5.709,5.582h27.527L640.557,677.18h-.168a5.667,5.667,0,0,0-5.709,5.588Z" transform="translate(-632.664 -623.948)" fill="#0f4c81" opacity="0.1"/>
        <path id="패스_667" data-name="패스 667" d="M637.173,743.963l9.07-4.779a4.628,4.628,0,0,1-1.156-6.509,2.169,2.169,0,0,0-2.893-.845l-.413.217c-1.108-1.46-3.594-1.724-5.829-.586s-3.373,3.36-2.738,5.072l-.084.041a4.628,4.628,0,0,1,1.156,6.509,2.122,2.122,0,0,0,1.257,1.027,2.173,2.173,0,0,0,1.63-.148Z" transform="translate(-632.006 -646.107)" fill="#0f4c81"/>
        <path id="패스_668" data-name="패스 668" d="M631.569,742.789a2.169,2.169,0,0,0,2.893.844l9.064-4.773-11.035,1.067-.054.029a2.071,2.071,0,0,0-.869,2.832Z" transform="translate(-631.315 -649.46)" fill="#0f4c81" opacity="0.1"/>
        <path id="패스_669" data-name="패스 669" d="M649.782,739.6a2.065,2.065,0,0,1-.869,2.826L639.85,747.2l6.985-8.4.06-.029a2.157,2.157,0,0,1,2.888.827Z" transform="translate(-634.737 -649.318)" fill="#0f4c81" opacity="0.1"/>
      </g>
      <g id="그룹_153" data-name="그룹 153" transform="translate(381.831 341.892)" opacity="0.1">
        <path id="패스_670" data-name="패스 670" d="M742.858,765.13V766a3.322,3.322,0,0,0,6.631,0v-.862a3.232,3.232,0,0,0-1.616-2.928,3.38,3.38,0,0,0-3.4,0,3.232,3.232,0,0,0-1.616,2.928Z" transform="translate(-733.357 -698.077)" fill="#3f3d56"/>
        <path id="패스_671" data-name="패스 671" d="M749.492,741.094v-.868a3.323,3.323,0,0,0-6.632,0v.868a3.079,3.079,0,0,0,.144.938,3.316,3.316,0,0,0,3.659,2.283,3.265,3.265,0,0,0,2.829-3.221Z" transform="translate(-733.359 -687.885)" fill="#3f3d56"/>
        <path id="패스_672" data-name="패스 672" d="M742.858,752.611v.862a3.322,3.322,0,0,0,6.631,0v-.862a3.232,3.232,0,0,0-1.616-2.928,3.381,3.381,0,0,0-3.4,0,3.232,3.232,0,0,0-1.616,2.928Z" transform="translate(-733.357 -692.894)" fill="#3f3d56"/>
        <path id="패스_673" data-name="패스 673" d="M746.171,774.51a3.29,3.29,0,0,0-3.313,3.249v.862a3.232,3.232,0,0,0,1.616,2.928,3.38,3.38,0,0,0,3.4,0,3.232,3.232,0,0,0,1.616-2.928v-.862A3.29,3.29,0,0,0,746.171,774.51Z" transform="translate(-733.357 -703.352)" fill="#3f3d56"/>
        <path id="패스_674" data-name="패스 674" d="M749.588,742.57v.78a3.265,3.265,0,0,1-2.829,3.221,3.316,3.316,0,0,1-3.659-2.283Z" transform="translate(-733.455 -690.141)" opacity="0.1"/>
        <path id="패스_675" data-name="패스 675" d="M749.588,755.11v.78a3.266,3.266,0,0,1-2.84,3.2A3.315,3.315,0,0,1,743.1,756.8Z" transform="translate(-733.455 -695.328)" opacity="0.1"/>
        <path id="패스_676" data-name="패스 676" d="M749.588,767.65v.792a3.265,3.265,0,0,1-2.829,3.221,3.316,3.316,0,0,1-3.659-2.283Z" transform="translate(-733.455 -700.515)" opacity="0.1"/>
        <path id="패스_677" data-name="패스 677" d="M749.588,780.19v.78a3.265,3.265,0,0,1-2.829,3.221,3.316,3.316,0,0,1-3.659-2.283Z" transform="translate(-733.455 -705.701)" opacity="0.1"/>
        <path id="패스_678" data-name="패스 678" d="M763.931,754.98l-.264.205a1.272,1.272,0,0,1-1.664-.059,1.207,1.207,0,0,1-.134-1.624,1.186,1.186,0,0,1,.252-.264l.263-.2a1.272,1.272,0,0,1,1.758.22,1.21,1.21,0,0,1-.225,1.721Z" transform="translate(-740.879 -694.365)" fill="#3f3d56"/>
        <path id="패스_679" data-name="패스 679" d="M758.686,755.939l-.264.2a1.208,1.208,0,0,0-.2,1.7,1.27,1.27,0,0,0,1.727.244l.269-.2a1.21,1.21,0,0,0,.225-1.721A1.272,1.272,0,0,0,758.686,755.939Z" transform="translate(-739.414 -695.565)" fill="#3f3d56"/>
        <path id="패스_680" data-name="패스 680" d="M754.918,758.835l-.264.2a1.22,1.22,0,0,0-.228,1.724,1.27,1.27,0,0,0,1.755.217l.264-.2a1.208,1.208,0,0,0,.2-1.7A1.27,1.27,0,0,0,754.918,758.835Z" transform="translate(-737.893 -696.772)" fill="#3f3d56"/>
        <path id="패스_681" data-name="패스 681" d="M751.186,761.745l-.264.2a1.208,1.208,0,0,0-.2,1.7,1.27,1.27,0,0,0,1.727.244l.264-.2a1.208,1.208,0,0,0,.2-1.7A1.27,1.27,0,0,0,751.186,761.745Z" transform="translate(-736.407 -697.975)" fill="#3f3d56"/>
        <path id="패스_682" data-name="패스 682" d="M763.907,755.511l-.24.182a1.272,1.272,0,0,1-1.664-.059,1.207,1.207,0,0,1-.134-1.624Z" transform="translate(-740.879 -694.873)" opacity="0.1"/>
        <path id="패스_683" data-name="패스 683" d="M760.147,758.4l-.24.182a1.272,1.272,0,0,1-1.664-.059,1.207,1.207,0,0,1-.134-1.624Z" transform="translate(-739.372 -696.068)" opacity="0.1"/>
        <path id="패스_684" data-name="패스 684" d="M756.431,761.3l-.24.176a1.27,1.27,0,0,1-1.755-.217,1.222,1.222,0,0,1,0-1.466Z" transform="translate(-737.902 -697.264)" opacity="0.1"/>
        <path id="패스_685" data-name="패스 685" d="M748.878,673.49a3.677,3.677,0,1,1,0,7.353,3.68,3.68,0,0,1,0,7.359,3.677,3.677,0,1,1,0,7.353,3.677,3.677,0,1,1,0,7.353H730.756a3.677,3.677,0,1,1,0-7.353,3.677,3.677,0,1,1,0-7.353,3.68,3.68,0,0,1,0-7.359,3.677,3.677,0,1,1,0-7.353,3.677,3.677,0,1,1,0-7.353,3.677,3.677,0,1,1,0-7.353h.827c.479-3.161,4.128-5.623,8.567-5.623s8.087,2.463,8.561,5.623h.168a3.677,3.677,0,1,1,0,7.353,3.677,3.677,0,1,1,0,7.353Z" transform="translate(-727 -653.16)" fill="#0f4c81"/>
        <path id="패스_686" data-name="패스 686" d="M755.148,666.407a3.729,3.729,0,0,1-3.756,3.677H733.27l18.008-7.353h.114A3.729,3.729,0,0,1,755.148,666.407Z" transform="translate(-729.514 -657.118)" opacity="0.1"/>
        <path id="패스_687" data-name="패스 687" d="M727.18,678.967a3.729,3.729,0,0,0,3.756,3.677h18.122L731.05,675.29h-.114A3.729,3.729,0,0,0,727.18,678.967Z" transform="translate(-727.072 -662.313)" opacity="0.1"/>
        <path id="패스_688" data-name="패스 688" d="M727.18,704.052a3.735,3.735,0,0,0,3.756,3.677h18.122L731.05,700.37h-.114A3.735,3.735,0,0,0,727.18,704.052Z" transform="translate(-727.072 -672.687)" opacity="0.1"/>
        <path id="패스_689" data-name="패스 689" d="M727.18,729.137a3.729,3.729,0,0,0,3.756,3.677h18.122L731.05,725.46h-.114a3.729,3.729,0,0,0-3.756,3.677Z" transform="translate(-727.072 -683.064)" opacity="0.1"/>
        <path id="패스_690" data-name="패스 690" d="M755.148,691.507a3.729,3.729,0,0,1-3.756,3.677H733.27l18.008-7.353h.114A3.729,3.729,0,0,1,755.148,691.507Z" transform="translate(-729.514 -667.5)" opacity="0.1"/>
        <path id="패스_691" data-name="패스 691" d="M755.148,716.6a3.729,3.729,0,0,1-3.756,3.677H733.27l18.008-7.353h.114A3.729,3.729,0,0,1,755.148,716.6Z" transform="translate(-729.514 -677.878)" opacity="0.1"/>
        <path id="패스_692" data-name="패스 692" d="M762.311,756.848,756.32,753.7a3.055,3.055,0,0,0,1.291-1.985,3.01,3.01,0,0,0-.53-2.3,1.4,1.4,0,0,1,.827-.683,1.43,1.43,0,0,1,1.078.1l.27.141c.731-.956,2.4-1.138,3.84-.363s2.217,2.211,1.8,3.336h.054a3.055,3.055,0,0,0-1.291,1.985,3.01,3.01,0,0,0,.53,2.3,1.422,1.422,0,0,1-1.875.622Z" transform="translate(-738.755 -692.439)" fill="#6c63ff"/>
        <path id="패스_693" data-name="패스 693" d="M766.456,756.117a1.4,1.4,0,0,1-.828.681,1.436,1.436,0,0,1-1.077-.095l-5.961-3.143,7.261.7h.036a1.363,1.363,0,0,1,.569,1.859Z" transform="translate(-739.666 -694.687)" opacity="0.1"/>
        <path id="패스_694" data-name="패스 694" d="M755.359,753.995a1.369,1.369,0,0,0,.569,1.865L761.918,759l-4.595-5.547h-.036a1.441,1.441,0,0,0-1.079-.123,1.409,1.409,0,0,0-.85.663Z" transform="translate(-738.303 -694.571)" opacity="0.1"/>
      </g>
      <g id="그룹_154" data-name="그룹 154" transform="translate(480.362 153.299)" opacity="0.1">
        <path id="패스_695" data-name="패스 695" d="M947.34,722.487v3.02a11.565,11.565,0,0,0,23.124,0v-3.02a11.565,11.565,0,0,0-23.124,0Z" transform="translate(-913.874 -488.56)" fill="#3f3d56"/>
        <path id="패스_696" data-name="패스 696" d="M970.464,638.014v-3a11.565,11.565,0,0,0-23.124,0v3.014a10.965,10.965,0,0,0,.5,3.272,11.566,11.566,0,0,0,12.76,7.947,11.39,11.39,0,0,0,9.867-11.219Z" transform="translate(-913.874 -452.382)" fill="#3f3d56"/>
        <path id="패스_697" data-name="패스 697" d="M947.34,678.737v3.02a11.565,11.565,0,0,0,23.124,0v-3.02a11.565,11.565,0,0,0-23.124,0Z" transform="translate(-913.874 -470.465)" fill="#3f3d56"/>
        <path id="패스_698" data-name="패스 698" d="M958.9,754.92a11.477,11.477,0,0,0-11.562,11.323v3.014a11.565,11.565,0,0,0,23.124,0v-3.014A11.477,11.477,0,0,0,958.9,754.92Z" transform="translate(-913.874 -506.656)" fill="#3f3d56"/>
        <path id="패스_699" data-name="패스 699" d="M970.8,643.46v2.727a11.39,11.39,0,0,1-9.867,11.219,11.567,11.567,0,0,1-12.76-7.947Z" transform="translate(-914.206 -460.555)" opacity="0.1"/>
        <path id="패스_700" data-name="패스 700" d="M970.8,687.21v2.733a11.4,11.4,0,0,1-9.872,11.184,11.573,11.573,0,0,1-12.754-7.912Z" transform="translate(-914.206 -478.65)" opacity="0.1"/>
        <path id="패스_701" data-name="패스 701" d="M970.8,731v2.727a11.4,11.4,0,0,1-9.872,11.185A11.574,11.574,0,0,1,948.17,737Z" transform="translate(-914.206 -496.762)" opacity="0.1"/>
        <path id="패스_702" data-name="패스 702" d="M970.8,774.72v2.727a11.389,11.389,0,0,1-9.852,11.246,11.567,11.567,0,0,1-12.775-7.945Z" transform="translate(-914.206 -514.846)" opacity="0.1"/>
        <path id="패스_703" data-name="패스 703" d="M1020.924,686.8l-.922.692a4.438,4.438,0,0,1-5.682-.318,4.228,4.228,0,0,1,.344-6.449l.923-.692a4.433,4.433,0,0,1,6.128.774,4.217,4.217,0,0,1-.791,6Z" transform="translate(-940.192 -475.313)" fill="#3f3d56"/>
        <path id="패스_704" data-name="패스 704" d="M1002.484,690.112l-.923.7a4.217,4.217,0,0,0-.791,6,4.433,4.433,0,0,0,6.128.774l.922-.7a4.217,4.217,0,0,0,.791-6,4.433,4.433,0,0,0-6.128-.774Z" transform="translate(-934.931 -479.482)" fill="#3f3d56"/>
        <path id="패스_705" data-name="패스 705" d="M989.4,700.2l-.923.68a4.217,4.217,0,0,0-.791,6,4.433,4.433,0,0,0,6.129.774l.922-.7a4.217,4.217,0,0,0,.791-6,4.433,4.433,0,0,0-6.128-.774Z" transform="translate(-929.687 -483.647)" fill="#3f3d56"/>
        <path id="패스_706" data-name="패스 706" d="M976.314,710.312l-.923.7a4.217,4.217,0,0,0-.791,6,4.433,4.433,0,0,0,6.128.774l.923-.7a4.217,4.217,0,0,0,.791-6A4.433,4.433,0,0,0,976.314,710.312Z" transform="translate(-924.439 -487.837)" fill="#3f3d56"/>
        <path id="패스_707" data-name="패스 707" d="M1020.841,688.616l-.839.628a4.438,4.438,0,0,1-5.682-.318,4.208,4.208,0,0,1-.536-5.546Z" transform="translate(-940.192 -477.066)" opacity="0.1"/>
        <path id="패스_708" data-name="패스 708" d="M1007.741,698.716l-.839.627a4.438,4.438,0,0,1-5.682-.317,4.208,4.208,0,0,1-.536-5.546Z" transform="translate(-934.94 -481.244)" opacity="0.1"/>
        <path id="패스_709" data-name="패스 709" d="M994.656,708.816l-.833.627a4.438,4.438,0,0,1-5.694-.306,4.209,4.209,0,0,1-.53-5.558Z" transform="translate(-929.691 -485.421)" opacity="0.1"/>
        <path id="패스_710" data-name="패스 710" d="M968.11,402.475a12.832,12.832,0,1,1,0,25.657,13.173,13.173,0,0,1,11.637,6.314,12.6,12.6,0,0,1,0,13.024,13.173,13.173,0,0,1-11.637,6.314,12.833,12.833,0,1,1,0,25.66,12.832,12.832,0,1,1,0,25.657l-63.213,0a12.832,12.832,0,1,1,0-25.657,12.832,12.832,0,1,1,0-25.659,13.171,13.171,0,0,1-11.612-6.323,12.6,12.6,0,0,1,0-13.007,13.171,13.171,0,0,1,11.612-6.323,12.832,12.832,0,1,1,0-25.657,12.832,12.832,0,1,1,0-25.659,13.172,13.172,0,0,1-11.613-6.323,12.6,12.6,0,0,1,0-13.007A13.172,13.172,0,0,1,904.9,351.16h2.888c1.659-11.036,14.377-19.62,29.875-19.62s28.216,8.585,29.875,19.62h.6a12.832,12.832,0,1,1,0,25.657,12.832,12.832,0,1,1,0,25.659Z" transform="translate(-891.476 -331.54)" fill="#0f4c81"/>
        <path id="패스_711" data-name="패스 711" d="M990.2,377.824a13.007,13.007,0,0,1-13.108,12.83H913.88L976.71,365h.383A13.007,13.007,0,0,1,990.2,377.824Z" transform="translate(-900.458 -345.38)" opacity="0.1"/>
        <path id="패스_712" data-name="패스 712" d="M892.64,421.58a13.042,13.042,0,0,0,13.107,12.83h63.219l-62.836-25.66h-.384A13.042,13.042,0,0,0,892.64,421.58Z" transform="translate(-891.943 -363.475)" opacity="0.1"/>
        <path id="패스_713" data-name="패스 713" d="M892.64,509.09a13.007,13.007,0,0,0,13.107,12.818h63.219L906.131,496.26h-.383a13.007,13.007,0,0,0-13.108,12.83Z" transform="translate(-891.942 -399.671)" opacity="0.1"/>
        <path id="패스_714" data-name="패스 714" d="M892.64,596.6a13.007,13.007,0,0,0,13.107,12.824h63.219L906.131,583.77h-.383A13.007,13.007,0,0,0,892.64,596.6Z" transform="translate(-891.942 -435.866)" opacity="0.1"/>
        <path id="패스_715" data-name="패스 715" d="M990.2,465.334a13.007,13.007,0,0,1-13.108,12.83H913.88l62.83-25.654h.383A13.007,13.007,0,0,1,990.2,465.334Z" transform="translate(-900.458 -381.575)" opacity="0.1"/>
        <path id="패스_716" data-name="패스 716" d="M990.2,552.836a13.042,13.042,0,0,1-13.108,12.83H913.88L976.71,540h.383A13.042,13.042,0,0,1,990.2,552.836Z" transform="translate(-900.458 -417.762)" opacity="0.1"/>
        <path id="패스_717" data-name="패스 717" d="M1013.531,693.391l-20.817-10.971a4.747,4.747,0,0,1-1.992-6.5,4.957,4.957,0,0,1,6.641-1.95,4.746,4.746,0,0,1-1.995-6.5,4.955,4.955,0,0,1,6.638-1.953l.952.5c2.546-3.348,8.3-3.964,13.4-1.278s7.734,7.723,6.284,11.646l.186.1a4.746,4.746,0,0,1,1.995,6.5,4.955,4.955,0,0,1-6.637,1.953,4.748,4.748,0,0,1,1.992,6.5,4.957,4.957,0,0,1-6.641,1.95Z" transform="translate(-931.032 -468.664)" fill="#0f4c81"/>
        <path id="패스_718" data-name="패스 718" d="M1029.625,690.639a4.973,4.973,0,0,1-6.638,1.953L1002.17,681.62l25.334,2.457.126.064A4.763,4.763,0,0,1,1029.625,690.639Z" transform="translate(-935.857 -476.338)" opacity="0.1"/>
        <path id="패스_719" data-name="패스 719" d="M990.94,683.323a4.757,4.757,0,0,0,1.989,6.5l20.817,10.971L997.7,681.44l-.126-.07A4.973,4.973,0,0,0,990.94,683.323Z" transform="translate(-931.121 -476)" opacity="0.1"/>
      </g>
      <path id="ellipse6" d="M506.452,474.69a5.279,5.279,0,1,0,5.392,5.277h0A5.335,5.335,0,0,0,506.452,474.69Zm.725,1.906h0a.461.461,0,0,1,.419.287,1.483,1.483,0,0,1,0,1.173,2.97,2.97,0,0,1-.258.586s-.066.094.15.094h1.384a.429.429,0,0,1,.3.153.41.41,0,0,1,.091.322.44.44,0,0,1-.294.428v.029h0a.5.5,0,0,1,.288.4.371.371,0,0,1-.329.41v.029h0a.408.408,0,0,1,.216.393.342.342,0,0,1-.276.34v.029h0a.355.355,0,0,1,.144.323.33.33,0,0,1-.078.217.358.358,0,0,1-.276.123h-3s-.156,0-.156-.205v-1.912a2.436,2.436,0,0,1,.389-1.331,5.883,5.883,0,0,1,.695-.833c.042-.047.2-.176.2-.252v-.522a.315.315,0,0,1,.126-.228A.329.329,0,0,1,507.176,476.6Zm-3.409,2.791h1.2a.172.172,0,0,1,.168.164v2.668a.156.156,0,0,1-.047.118.163.163,0,0,1-.12.046h-1.2a.166.166,0,0,1-.168-.164v-2.656a.168.168,0,0,1,.047-.122A.175.175,0,0,1,503.768,479.387Z" transform="translate(-254.581 -237.45)" fill="#5e90ff"/>
      <path id="패스_720" data-name="패스 720" d="M493.834,464.139a.608.608,0,0,1-.851,0l-.33-.287c-2.666-2.4-4.193-3.952-4.193-5.893a2.609,2.609,0,0,1,2.63-2.809,3.067,3.067,0,0,0,4.661,0,2.612,2.612,0,0,1,2.63,2.809c0,1.941-1.54,3.518-4.193,5.893Z" transform="translate(-249.529 -229.368)" fill="#e62153"/>
      <ellipse id="타원_205" data-name="타원 205" cx="305.75" cy="11.839" rx="305.75" ry="11.839" transform="translate(0 421.846)" fill="#3f3d56"/>
      <ellipse id="타원_206" data-name="타원 206" cx="305.75" cy="11.839" rx="305.75" ry="11.839" transform="translate(0 421.846)" opacity="0.1"/>
      <ellipse id="타원_207" data-name="타원 207" cx="305.75" cy="11.839" rx="305.75" ry="11.839" transform="translate(0 415.923)" fill="#3f3d56"/>
      <path id="패스_721" data-name="패스 721" d="M573.852,437.187q-2.085-4.961-4.253-9.881c-1.378-3.125-2.822-6.309-5.2-8.8a9.341,9.341,0,0,0-3.109-2.246,13.5,13.5,0,0,0-3.966-.768,32.351,32.351,0,0,0-6.254-.17c-.8-.24-1.719-.539-2.63-.9a21.433,21.433,0,0,0,16.229-19.767v-.921a21.7,21.7,0,0,0-33.014-18.172,20.49,20.49,0,0,0-22.866,10.807A24.429,24.429,0,0,0,501,404.719v.944c.4,11.581,8.057,20.934,17.714,21.819a10.505,10.505,0,0,0-2.8,1.835c-2.959,2.8-3.445,7.218-3.756,11.253l-.234,3-5.05,1.759a.931.931,0,0,0-.606.744.918.918,0,0,0,.384.874l4.894,3.419a6.817,6.817,0,0,0,.036.862c.036.276.06.639.1.962a6.7,6.7,0,0,0-1.869,2.645,11.743,11.743,0,0,0-.449,4.838l.18,4.175a32.725,32.725,0,0,0,1.3,9.259c.641,1.859,3.415,6.315,5.421,6.339-1.851,8.209-2.342,25.514-2.342,25.514-.228.223.407.434,1.582.586,1.108,8.244,4.679,31.354,11.041,41.5a85.7,85.7,0,0,1,2.4,10.08s1.8,21.948,4.193,28.475c2.043,5.547,3.654,19.251,4.092,23.221a2.276,2.276,0,0,0-1.69,1.689c-1.2,3.559-8.986,8.9-8.986,8.9a38.638,38.638,0,0,0-6.733,4.222c-2.45,2.17-2.4,4.1,8.537,2.9,21.027-2.346,24.633-8.9,24.633-8.9s-.341-1.1-.839-2.539c-.809-2.346-2.025-5.623-2.768-6.356-.3-.3-.6.182-.977.932a125.973,125.973,0,0,1-1.432-28.756s.6-10.08-2.4-17.2c0,0-1.2-6.526,0-11.27s-4.793-27.877-4.793-27.877L536.231,507.5a4.814,4.814,0,0,1,.958,1.982q.042.17.09.352c.03.158.066.317.1.493a.9.9,0,0,0,.246.463c2.348,9.546,8.77,35.992,8.77,39.874,0,4.75,5.991,16.612,5.991,16.612s2.4,19.574,6.59,27.285c3.193,5.864,3.271,14.46,3.121,18.248h0s-.713,4.885-1.917,6.069a14.6,14.6,0,0,0-2.276,3.87c-.084.176-.126.281-.126.281s-1.8,3.559-.6,4.152c0,0,7.189,2.967,14.419,1.759,0,0,2.4-2.967,2.4-4.152a20.582,20.582,0,0,0-.264-2.111c-.443-2.8-1.276-7.23-1.282-7.277.5-1.906-1.456-7.224-1.456-7.224l-.6-16.606a75.322,75.322,0,0,0-4.193-33.219s-3-10.672-2.4-13.639-1.2-34.4-1.2-34.4l-.174-.452a32.255,32.255,0,0,1,.174-6.667c.6-7.119-1.8-21.948-2.4-22.541-.312-.3-.6-2.686-.851-4.908.138-1.237.545-4.861,1.108-9.382a173.9,173.9,0,0,0,17.714-1.525,1.681,1.681,0,0,0,1.364-.465,1.6,1.6,0,0,0,.475-1.335C580.675,454.134,577.315,445.455,573.852,437.187ZM561.835,456.01c.6-4.257,1.294-8.379,1.953-11.435l.108.276a84.762,84.762,0,0,1,2.893,9.382A34.367,34.367,0,0,1,561.835,456.01Z" transform="translate(-254.557 -195.133)" fill="url(#linear-gradient)"/>
      <path id="패스_722" data-name="패스 722" d="M524.5,596.073s3.594,31.665,11.382,43.979a84.557,84.557,0,0,1,2.4,9.969s1.8,21.7,4.193,28.147,4.193,24.042,4.193,24.042,8.387,9.382,11.382,1.759a121.287,121.287,0,0,1-1.8-30.492s.6-9.969-2.4-17.005c0,0-1.2-6.45,0-11.141s-4.793-27.56-4.793-27.56L544.269,594.9Z" transform="translate(-263.979 -287.171)" fill="#be6f72"/>
      <path id="패스_723" data-name="패스 723" d="M564.5,784.634s-3.594,6.45-24.562,8.8c-10.873,1.214-10.951-.721-8.507-2.867a38.523,38.523,0,0,1,6.709-4.169s7.788-5.277,8.986-8.8,5.391-.586,5.391-.586c5.991,8.8,7.189-2.346,8.387-1.173.743.727,1.953,3.952,2.762,6.286C564.156,783.52,564.5,784.634,564.5,784.634Z" transform="translate(-266.236 -361.973)" fill="#ff6f61"/>
      <path id="패스_724" data-name="패스 724" d="M564.5,789.13s-3.594,6.45-24.562,8.8c-10.873,1.214-10.951-.721-8.507-2.867,1.713,1.067,5.164,1.542,12.1-1.237,9.98-4,17.211-6.31,20.135-7.2C564.156,788.016,564.5,789.13,564.5,789.13Z" transform="translate(-266.236 -366.469)" opacity="0.1"/>
      <path id="패스_725" data-name="패스 725" d="M566.711,673.476s.6-9.969-2.4-17.005c0,0-1.2-6.45,0-11.141s-4.792-27.56-4.792-27.56L554.729,594.9l-4.139.246,4.739,22.623s5.991,22.869,4.792,27.56,0,11.141,0,11.141c3,7.037,2.4,17.005,2.4,17.005a121.285,121.285,0,0,0,1.8,30.492,5.085,5.085,0,0,1-1.737,2.428c2.234.991,4.607.938,5.931-2.428A121.284,121.284,0,0,1,566.711,673.476Z" transform="translate(-274.44 -287.171)" opacity="0.1"/>
      <path id="패스_726" data-name="패스 726" d="M542.935,377.4a21.793,21.793,0,0,0-11.322,3.149,20.475,20.475,0,0,0-22.824,10.69A24.046,24.046,0,0,0,501,409.376c0,12.472,8.585,22.576,19.17,22.576,7.68,0,14.3-5.313,17.373-12.988A21.843,21.843,0,0,0,559.551,412a20.753,20.753,0,0,0,2.915-22.459,21.6,21.6,0,0,0-19.531-12.126Z" transform="translate(-254.557 -197.21)" fill="#3f3d56"/>
      <path id="패스_727" data-name="패스 727" d="M584.463,601.9l1.8,4.691s1.8,31.078,1.2,34.01,2.4,13.487,2.4,13.487a73.683,73.683,0,0,1,4.194,32.838l.6,16.419s2.4,6.45,1.2,7.623-10.184-1.173-10.184-1.173,1.2-12.314-3-19.937-6.59-26.974-6.59-26.974-5.991-11.728-5.991-16.419-9.585-42.806-9.585-42.806Z" transform="translate(-278.413 -290.066)" fill="#be6f72"/>
      <path id="패스_728" data-name="패스 728" d="M522.469,574.884s.6-21.11,3-27.56,2.7-9.324,2.7-9.324,36.273,6.415,39.269,4.07c0,0,.6,8.209,1.2,8.8s3,15.246,2.4,22.283,0,7.037,0,7.037-24.561,3.518-25.161,0-2.4-3.518-2.4-3.518S521.271,576.056,522.469,574.884Z" transform="translate(-263.146 -263.636)" fill="#3f3d56"/>
      <g id="그룹_155" data-name="그룹 155" transform="translate(259.276 278.41)" opacity="0.1">
        <path id="패스_729" data-name="패스 729" d="M542.238,600.073s-15.162-.4-19.727-1.173c-.03.762-.042,1.173-.042,1.173-1.2,1.173,20.967,1.759,20.967,1.759a1.6,1.6,0,0,1,.827.334C543.5,600.085,542.238,600.073,542.238,600.073Z" transform="translate(-522.422 -567.235)"/>
        <path id="패스_730" data-name="패스 730" d="M584.14,553.7c-.6-.586-1.2-8.8-1.2-8.8a2.382,2.382,0,0,1-1.024.358c.222,2.475.6,6.286,1.024,6.679.6.586,3,15.246,2.4,22.283s0,7.037,0,7.037-19.428,2.785-24.148.926c.072.258.132.528.186.833.6,3.518,25.161,0,25.161,0s-.6,0,0-7.037S584.739,554.282,584.14,553.7Z" transform="translate(-537.965 -544.9)"/>
        <path id="패스_731" data-name="패스 731" d="M542.238,600.073s-15.162-.4-19.727-1.173c-.03.762-.042,1.173-.042,1.173-1.2,1.173,20.967,1.759,20.967,1.759a1.6,1.6,0,0,1,.827.334C543.5,600.085,542.238,600.073,542.238,600.073Z" transform="translate(-522.422 -567.235)"/>
        <path id="패스_732" data-name="패스 732" d="M584.14,553.7c-.6-.586-1.2-8.8-1.2-8.8a2.382,2.382,0,0,1-1.024.358c.222,2.475.6,6.286,1.024,6.679.6.586,3,15.246,2.4,22.283s0,7.037,0,7.037-19.428,2.785-24.148.926c.072.258.132.528.186.833.6,3.518,25.161,0,25.161,0s-.6,0,0-7.037S584.739,554.282,584.14,553.7Z" transform="translate(-537.965 -544.9)"/>
      </g>
      <path id="패스_733" data-name="패스 733" d="M557.89,436.092a7.907,7.907,0,0,0,2.289,2.932,5.306,5.306,0,0,0,2.157.9c-1.348.756-2.8,1.325-4.152,2.088a69.424,69.424,0,0,0-6.14,4.4,12.258,12.258,0,0,1-6.991,2.65,8.255,8.255,0,0,0,.977-8.327,7.707,7.707,0,0,1-1.078-2.932c0-1.677,1.522-2.932,2.941-3.876q1.731-1.143,3.5-2.217c.935-.586,2.336-1.759,3.511-1.718,1.312.047,1.312,1.061,1.552,2.105A17.016,17.016,0,0,0,557.89,436.092Z" transform="translate(-272.178 -218.965)" fill="#be6f72"/>
      <path id="패스_734" data-name="패스 734" d="M557.89,436.092a7.907,7.907,0,0,0,2.289,2.932,5.306,5.306,0,0,0,2.157.9c-1.348.756-2.8,1.325-4.152,2.088a69.424,69.424,0,0,0-6.14,4.4,12.258,12.258,0,0,1-6.991,2.65,8.255,8.255,0,0,0,.977-8.327,7.707,7.707,0,0,1-1.078-2.932c0-1.677,1.522-2.932,2.941-3.876q1.731-1.143,3.5-2.217c.935-.586,2.336-1.759,3.511-1.718,1.312.047,1.312,1.061,1.552,2.105A17.016,17.016,0,0,0,557.89,436.092Z" transform="translate(-272.178 -218.965)" opacity="0.1"/>
      <ellipse id="타원_208" data-name="타원 208" cx="13.778" cy="13.487" rx="13.778" ry="13.487" transform="translate(285.981 224.762)" fill="#be6f72"/>
      <path id="패스_735" data-name="패스 735" d="M611,793.03c0,1.173-2.4,4.1-2.4,4.1-7.189,1.173-14.378-1.759-14.378-1.759-1.2-.586.6-4.1.6-4.1s.042-.105.126-.281a14.372,14.372,0,0,1,2.27-3.823c1.2-1.173,1.911-6,1.911-6,3.714-6,10.322,2.58,10.322,2.58s.839,4.41,1.282,7.195A20.183,20.183,0,0,1,611,793.03Z" transform="translate(-291.769 -363.333)" fill="#ff6f61"/>
      <path id="패스_736" data-name="패스 736" d="M611,801.427c0,1.173-2.4,4.1-2.4,4.1-7.189,1.173-14.378-1.759-14.378-1.759-1.2-.586.6-4.1.6-4.1s.042-.106.126-.281C597.7,800.56,603,802.424,608,802.014l2.732-2.674A20.186,20.186,0,0,1,611,801.427Z" transform="translate(-291.769 -371.73)" opacity="0.1"/>
      <ellipse id="타원_209" data-name="타원 209" cx="13.479" cy="13.194" rx="13.479" ry="13.194" transform="translate(258.724 196.908)" fill="#be6f72"/>
      <path id="패스_737" data-name="패스 737" d="M522.923,470.891c-2.947,2.762-3.433,7.136-3.744,11.141l-.449,5.829a30.419,30.419,0,0,0-.126,4.726c.078.985.252,1.959.347,2.932.114,1.173.12,2.346.126,3.518l.054,8.626a9.926,9.926,0,0,0,.97,5.178c.923,1.531,3.049,2.516,4.607,1.607a5.1,5.1,0,0,0,1.9-2.856,43.318,43.318,0,0,0,3-10.924c.126-1.3.138-2.6.258-3.894s.348-2.65.551-3.97c.851-5.494,1.234-11.042,1.611-16.577.114-1.642,1.624-8.1-.569-8.8-1.072-.352-3.289.727-4.3,1.091A12.114,12.114,0,0,0,522.923,470.891Z" transform="translate(-261.599 -234.419)" fill="#be6f72"/>
      <path id="패스_738" data-name="패스 738" d="M522.923,470.891c-2.947,2.762-3.433,7.136-3.744,11.141l-.449,5.829a30.419,30.419,0,0,0-.126,4.726c.078.985.252,1.959.347,2.932.114,1.173.12,2.346.126,3.518l.054,8.626a9.926,9.926,0,0,0,.97,5.178c.923,1.531,3.049,2.516,4.607,1.607a5.1,5.1,0,0,0,1.9-2.856,43.318,43.318,0,0,0,3-10.924c.126-1.3.138-2.6.258-3.894s.348-2.65.551-3.97c.851-5.494,1.234-11.042,1.611-16.577.114-1.642,1.624-8.1-.569-8.8-1.072-.352-3.289.727-4.3,1.091A12.114,12.114,0,0,0,522.923,470.891Z" transform="translate(-261.599 -234.419)" opacity="0.1"/>
      <path id="패스_739" data-name="패스 739" d="M555.418,442.9s-10.184,7.623-16.175,9.382c0,0-3.552,3.97-4.193,4.92s-1.8,11.5-3,13.845-4.194,7.623,0,12.9c0,0,1.2,5.277.6,7.037s-2.774,8.209-.785,8.508,7.974,4.392,13.365,3.219,25.46,4.4,25.46,4.4,3.295-30.2,5.691-35.476l-5.392-1.759s-14.977-8.8-5.991-22.283C565,447.591,556.616,445.832,555.418,442.9Z" transform="translate(-266.142 -224.301)" fill="#ff6f61"/>
      <path id="패스_740" data-name="패스 740" d="M510.17,500.434l12.371,8.573a.945.945,0,0,0,1.09,0l3.343-2.457a.885.885,0,0,0,.06-1.4l-9.519-8.309a.956.956,0,0,0-.929-.176l-6.194,2.17a.919.919,0,0,0-.6.735A.906.906,0,0,0,510.17,500.434Z" transform="translate(-258.078 -246.518)" fill="#3f3d56"/>
      <path id="패스_741" data-name="패스 741" d="M516.354,530.935a31.813,31.813,0,0,1-1.294-9.153l-.18-4.1a11.871,11.871,0,0,1,.443-4.779,7.912,7.912,0,0,1,5.134-4.4,18.151,18.151,0,0,1,7-.493,1.637,1.637,0,0,1,.887.246,1.669,1.669,0,0,1,.491.809c.509,1.4,1.007,3,.282,4.31a4.492,4.492,0,0,1-1.408,1.407c-1.659,1.173-3.594,1.947-5.17,3.213a1.434,1.434,0,0,0-.641,1.806,14.744,14.744,0,0,0,.8,2.4,2.437,2.437,0,0,0,.683,1.014c.294.229.677.328.971.551.659.516,2.019,1.208,1.959,2.029-.228,3.037-2.061,6.321-2.786,9.277C522.123,540.827,517.234,533.45,516.354,530.935Z" transform="translate(-260.104 -251.17)" fill="#be6f72"/>
      <g id="그룹_156" data-name="그룹 156" transform="translate(275.168 246.452)" opacity="0.1">
        <path id="패스_742" data-name="패스 742" d="M549.279,544.784a3.227,3.227,0,0,1-.329.053,10.509,10.509,0,0,0,3.924-.053l.372-.059A14.769,14.769,0,0,0,549.279,544.784Z" transform="translate(-548.95 -512.826)"/>
        <path id="패스_743" data-name="패스 743" d="M598.059,490.4c-2.145,4.732-5.314,30.346-5.889,35.435,2.121.539,3.492.921,3.492.921s3.295-30.2,5.691-35.476Z" transform="translate(-566.278 -490.4)"/>
      </g>
      <path id="패스_744" data-name="패스 744" d="M573.844,465.8c.042,1.2,1.048,2.123,1.971,2.932a25.64,25.64,0,0,1,3.481,3.466,24.3,24.3,0,0,1,3.469,6.779,82.989,82.989,0,0,1,2.888,9.288c-7.7,3.46-16.295,3.3-24.442,5.582A19.662,19.662,0,0,0,552,499.12a12.305,12.305,0,0,0-3.367,9.722,1.021,1.021,0,0,0,1.252,1,9.221,9.221,0,0,0,5.6-1.876,25.866,25.866,0,0,0,4.277-4.1,6.941,6.941,0,0,1,3.061-2.2c4.415-1.319,9.118-1.237,13.737-1.319a175.037,175.037,0,0,0,20.428-1.583,2.237,2.237,0,0,0,1.486-.586,2.085,2.085,0,0,0,.347-1.173c.671-8.8-2.666-17.4-6.122-25.566q-2.079-4.9-4.235-9.769c-1.372-3.09-2.816-6.239-5.182-8.684a9.331,9.331,0,0,0-3.1-2.222,13.839,13.839,0,0,0-3.954-.756,30.893,30.893,0,0,0-6.7-.123,14.079,14.079,0,0,0-.641,3.4c.126,4.028,1.923,7.8,3.69,11.44C572.843,465.244,573.49,465.262,573.844,465.8Z" transform="translate(-273.617 -227.137)" fill="#be6f72"/>
      <path id="패스_745" data-name="패스 745" d="M549.033,490a10.728,10.728,0,0,0-1.534,5.706,6.9,6.9,0,0,0,5.248,6.773" transform="translate(-273.2 -243.783)" fill="none" stroke="#000" stroke-miterlimit="10" stroke-width="1" opacity="0.1"/>
      <path id="패스_746" data-name="패스 746" d="M544.557,403.091a7.453,7.453,0,0,0-2.217.346c-1.995-2.932-6.685-5.037-12.161-5.037-7.279,0-13.179,3.677-13.179,8.209s5.9,8.209,13.179,8.209a18.913,18.913,0,0,0,7.908-1.636,7.245,7.245,0,0,0,8.6,3.668,7.031,7.031,0,0,0,4.986-7.776,7.143,7.143,0,0,0-7.114-5.983Z" transform="translate(-260.972 -205.895)" fill="#3f3d56"/>
      <path id="패스_747" data-name="패스 747" d="M545.156,419.384a7.2,7.2,0,0,1-6.47-3.982,18.914,18.914,0,0,1-7.908,1.636c-7.279,0-13.179-3.671-13.179-8.209a5.2,5.2,0,0,1,.066-.809,5.419,5.419,0,0,0-.665,2.568c0,4.539,5.9,8.209,13.179,8.209a18.914,18.914,0,0,0,7.908-1.636,7.225,7.225,0,0,0,7.412,3.9,7.125,7.125,0,0,0,6.115-5.658,7.2,7.2,0,0,1-6.458,3.982Z" transform="translate(-260.972 -209.874)" opacity="0.1"/>
      <path id="패스_748" data-name="패스 748" d="M508.788,394.773A20.476,20.476,0,0,1,531.642,384.1a21.972,21.972,0,0,1,21.034-.879A21.11,21.11,0,0,1,564.453,400.3c.048-.586.078-1.173.078-1.759a21.041,21.041,0,0,0-11.059-18.429,21.968,21.968,0,0,0-21.83.468,20.476,20.476,0,0,0-22.854,10.672A24.046,24.046,0,0,0,501,409.392a15.709,15.709,0,0,0,.066,1.759A23.6,23.6,0,0,1,508.788,394.773Z" transform="translate(-254.557 -197.226)" opacity="0.1"/>
      <path id="ellipse6-2" data-name="ellipse6" d="M480.451,427.69a5.279,5.279,0,1,0,5.392,5.277h0A5.335,5.335,0,0,0,480.451,427.69Zm.725,1.906h0a.461.461,0,0,1,.419.287,1.483,1.483,0,0,1,0,1.173,2.969,2.969,0,0,1-.258.586s-.066.094.15.094h1.384a.428.428,0,0,1,.3.153.41.41,0,0,1,.091.322.44.44,0,0,1-.293.428v.029h0a.5.5,0,0,1,.288.4.371.371,0,0,1-.329.41v.029h0a.408.408,0,0,1,.216.393.342.342,0,0,1-.276.34v.029h0a.355.355,0,0,1,.144.323.33.33,0,0,1-.078.217.357.357,0,0,1-.276.123h-3s-.156,0-.156-.205v-1.912a2.435,2.435,0,0,1,.389-1.331,5.887,5.887,0,0,1,.695-.833c.042-.047.2-.176.2-.252v-.522a.315.315,0,0,1,.126-.228A.329.329,0,0,1,481.176,429.6Zm-3.409,2.791h1.2a.172.172,0,0,1,.168.164v2.668a.156.156,0,0,1-.047.118.163.163,0,0,1-.12.046h-1.2a.166.166,0,0,1-.168-.164v-2.656a.168.168,0,0,1,.047-.122A.175.175,0,0,1,477.768,432.387Z" transform="translate(-244.157 -218.01)" fill="#5e90ff"/>
      <path id="패스_749" data-name="패스 749" d="M501.834,420.139a.608.608,0,0,1-.851,0l-.329-.287c-2.666-2.4-4.193-3.952-4.193-5.893a2.609,2.609,0,0,1,2.63-2.809,3.067,3.067,0,0,0,4.661,0,2.612,2.612,0,0,1,2.63,2.809c0,1.941-1.54,3.518-4.193,5.893Z" transform="translate(-252.737 -211.169)" fill="#e62153"/>
      <path id="ellipse6-3" data-name="ellipse6" d="M478.971,315.4a9.472,9.472,0,1,0,9.669,9.468v0a9.568,9.568,0,0,0-9.669-9.47Zm1.294,3.407h0a.838.838,0,0,1,.749.522,2.674,2.674,0,0,1,.03,2.082,5.739,5.739,0,0,1-.461,1.044s-.12.176.27.17h2.474a.778.778,0,0,1,.545.281.745.745,0,0,1,.162.581.78.78,0,0,1-.521.756.035.035,0,0,0,0,.053h0a.9.9,0,0,1,.515.727.653.653,0,0,1-.144.488.681.681,0,0,1-.455.245.041.041,0,0,0-.03.047h0a.73.73,0,0,1,.4.692.642.642,0,0,1-.5.616.047.047,0,0,0-.03.053h0a.69.69,0,0,1,.07,1.014.607.607,0,0,1-.447.159h-5.308s-.288,0-.288-.381v-3.413a4.473,4.473,0,0,1,.695-2.381,13.161,13.161,0,0,1,1.246-1.489c.078-.076.359-.317.359-.446v-.932A.6.6,0,0,1,480.265,318.807Zm-6.092,5H476.3a.3.3,0,0,1,.306.3v4.767a.3.3,0,0,1-.306.3h-2.127a.3.3,0,0,1-.214-.088.29.29,0,0,1-.086-.211V324.1a.3.3,0,0,1,.294-.293Z" transform="translate(-241.844 -171.565)" fill="#5e90ff"/>
      <path id="ellipse6-4" data-name="ellipse6" d="M460.466,184a15.25,15.25,0,1,0,15.576,15.246h0A15.413,15.413,0,0,0,460.466,184Zm2.085,5.489h0a1.34,1.34,0,0,1,1.2.844,4.3,4.3,0,0,1,.054,3.354,9.643,9.643,0,0,1-.743,1.689s-.2.281.431.27h3.984a1.249,1.249,0,0,1,.881.447,1.2,1.2,0,0,1,.263.936,1.267,1.267,0,0,1-.845,1.226.06.06,0,0,0-.037.033.058.058,0,0,0,0,.049.037.037,0,0,0,.03.035,1.461,1.461,0,0,1,.833,1.173,1.079,1.079,0,0,1-.959,1.173.07.07,0,0,0-.048.082.053.053,0,0,0,.036.035,1.166,1.166,0,0,1,.6,1.126,1.042,1.042,0,0,1-.8.991.066.066,0,0,0-.042.031.063.063,0,0,0-.006.051.089.089,0,0,0,.03.035,1.011,1.011,0,0,1,.413.915.978.978,0,0,1-.228.639,1.034,1.034,0,0,1-.8.358h-8.549s-.467,0-.467-.586v-5.506a7.158,7.158,0,0,1,1.121-3.842,19.62,19.62,0,0,1,2.012-2.392c.12-.135.6-.516.6-.721s.03-.7.042-1.507a.923.923,0,0,1,.3-.67.965.965,0,0,1,.7-.256Zm-9.807,8.069h3.427a.486.486,0,0,1,.491.475v7.693a.486.486,0,0,1-.491.481h-3.427a.486.486,0,0,1-.491-.481v-7.693a.486.486,0,0,1,.491-.475Z" transform="translate(-232.061 -117.217)" fill="#5e90ff"/>
      <path id="패스_750" data-name="패스 750" d="M461.541,386.2a1.157,1.157,0,0,1-1.522,0l-.6-.516c-4.793-4.286-7.53-7.072-7.53-10.555,0-2.832,1.827-5.02,4.7-5.02a5.524,5.524,0,0,1,4.193,1.912,5.536,5.536,0,0,1,4.193-1.912c2.875,0,4.7,2.187,4.7,5.02,0,3.466-2.756,6.251-7.53,10.555Z" transform="translate(-234.867 -194.194)" fill="#e62153"/>
      <path id="패스_751" data-name="패스 751" d="M509.764,293.346a1.826,1.826,0,0,1-2.45,0l-.941-.833c-7.7-6.914-12.143-11.405-12.143-17.005,0-4.568,2.953-8.1,7.584-8.1a8.932,8.932,0,0,1,6.728,3.09,8.92,8.92,0,0,1,6.721-3.09c4.637,0,7.584,3.518,7.584,8.1,0,5.588-4.445,10.08-12.143,17.005Z" transform="translate(-251.843 -151.716)" fill="#e62153"/>
      <path id="패스_752" data-name="패스 752" d="M785.5,677.7v4.691a17.976,17.976,0,0,0,35.944,0V677.7a17.976,17.976,0,0,0-35.944,0Z" transform="translate(-368.624 -314.142)" fill="#3f3d56"/>
      <path id="패스_753" data-name="패스 753" d="M821.444,546.393V541.7a17.976,17.976,0,0,0-35.944,0v4.691a17.033,17.033,0,0,0,.773,5.084,17.99,17.99,0,0,0,19.825,12.3,17.716,17.716,0,0,0,15.346-17.384Z" transform="translate(-368.624 -257.891)" fill="#3f3d56"/>
      <path id="패스_754" data-name="패스 754" d="M785.5,609.7v4.691a17.976,17.976,0,0,0,35.944,0V609.7a17.976,17.976,0,0,0-35.944,0Z" transform="translate(-368.624 -286.017)" fill="#3f3d56"/>
      <path id="패스_755" data-name="패스 755" d="M803.472,728.11A17.838,17.838,0,0,0,785.5,745.7v4.691a17.976,17.976,0,0,0,35.944,0V745.7A17.838,17.838,0,0,0,803.472,728.11Z" transform="translate(-368.624 -342.268)" fill="#3f3d56"/>
      <path id="패스_756" data-name="패스 756" d="M821.961,554.88v4.24A17.716,17.716,0,0,1,806.615,576.5a17.99,17.99,0,0,1-19.825-12.3Z" transform="translate(-369.141 -270.618)" opacity="0.1"/>
      <path id="패스_757" data-name="패스 757" d="M821.961,622.88v4.24A17.716,17.716,0,0,1,806.615,644.5a17.99,17.99,0,0,1-19.825-12.3Z" transform="translate(-369.141 -298.744)" opacity="0.1"/>
      <path id="패스_758" data-name="패스 758" d="M821.961,690.88v4.24A17.716,17.716,0,0,1,806.615,712.5a17.99,17.99,0,0,1-19.825-12.3Z" transform="translate(-369.141 -326.869)" opacity="0.1"/>
      <path id="패스_759" data-name="패스 759" d="M821.961,758.88v4.24A17.716,17.716,0,0,1,806.615,780.5a17.99,17.99,0,0,1-19.825-12.3Z" transform="translate(-369.141 -354.995)" opacity="0.1"/>
      <path id="패스_760" data-name="패스 760" d="M899.845,622.222l-1.432,1.085a6.9,6.9,0,0,1-8.871-.469,6.541,6.541,0,0,1-.8-8.661,6.627,6.627,0,0,1,1.372-1.4l1.438-1.085a6.9,6.9,0,0,1,9.537,1.22,6.564,6.564,0,0,1-1.246,9.335Z" transform="translate(-409.506 -293.547)" fill="#3f3d56"/>
      <path id="패스_761" data-name="패스 761" d="M871.306,627.457l-1.432,1.085a6.554,6.554,0,0,0-1.088,9.218,6.892,6.892,0,0,0,9.385,1.307l1.432-1.085a6.554,6.554,0,0,0,1.088-9.218A6.892,6.892,0,0,0,871.306,627.457Z" transform="translate(-401.449 -300.107)" fill="#3f3d56"/>
      <path id="패스_762" data-name="패스 762" d="M850.865,643.085l-1.432,1.079a6.565,6.565,0,0,0-1.243,9.338,6.9,6.9,0,0,0,9.54,1.217l1.432-1.079A6.565,6.565,0,0,0,860.4,644.3a6.9,6.9,0,0,0-9.54-1.217Z" transform="translate(-393.192 -306.529)" fill="#3f3d56"/>
      <path id="패스_763" data-name="패스 763" d="M830.532,658.755l-1.432,1.085a6.552,6.552,0,0,0-1.231,9.321,6.888,6.888,0,0,0,9.522,1.205l1.438-1.085a6.565,6.565,0,0,0,1.243-9.338,6.9,6.9,0,0,0-9.54-1.217Z" transform="translate(-385.045 -312.998)" fill="#3f3d56"/>
      <path id="패스_764" data-name="패스 764" d="M899.708,625.051l-1.294.979a6.9,6.9,0,0,1-8.871-.469,6.541,6.541,0,0,1-.8-8.661Z" transform="translate(-409.506 -296.27)" opacity="0.1"/>
      <path id="패스_765" data-name="패스 765" d="M879.374,640.745l-1.294.979a6.9,6.9,0,0,1-8.86-.475,6.541,6.541,0,0,1-.809-8.649Z" transform="translate(-401.358 -302.764)" opacity="0.1"/>
      <path id="패스_766" data-name="패스 766" d="M859.025,656.435l-1.294.979a6.9,6.9,0,0,1-8.872-.463,6.541,6.541,0,0,1-.8-8.661Z" transform="translate(-393.193 -309.254)" opacity="0.1"/>
      <path id="패스_767" data-name="패스 767" d="M818.115,180.35a19.942,19.942,0,1,1,0,39.874,19.942,19.942,0,1,1,0,39.874,19.942,19.942,0,1,1,0,39.874,19.942,19.942,0,1,1,0,39.874H719.868a19.942,19.942,0,1,1,0-39.874,19.942,19.942,0,1,1,0-39.874,19.942,19.942,0,1,1,0-39.874,19.942,19.942,0,1,1,0-39.874,19.942,19.942,0,1,1,0-39.874,19.942,19.942,0,1,1,0-39.874h4.493c2.582-17.152,22.381-30.492,46.433-30.492s43.852,13.34,46.433,30.492h.893a19.942,19.942,0,1,1,0,39.874,19.942,19.942,0,1,1,0,39.874Z" transform="translate(-334.143 -70.11)" fill="#0f4c81"/>
      <path id="패스_768" data-name="패스 768" d="M852.115,142.047a20.215,20.215,0,0,1-20.368,19.937H733.5l97.647-39.874h.6A20.215,20.215,0,0,1,852.115,142.047Z" transform="translate(-347.775 -91.618)" opacity="0.1"/>
      <path id="패스_769" data-name="패스 769" d="M700.5,210.047a20.215,20.215,0,0,0,20.368,19.937h98.246L721.467,190.11h-.6A20.215,20.215,0,0,0,700.5,210.047Z" transform="translate(-334.544 -119.744)" opacity="0.1"/>
      <path id="패스_770" data-name="패스 770" d="M700.5,346.047a20.215,20.215,0,0,0,20.368,19.937h98.246L721.467,326.11h-.6A20.215,20.215,0,0,0,700.5,346.047Z" transform="translate(-334.544 -175.995)" opacity="0.1"/>
      <path id="패스_771" data-name="패스 771" d="M700.5,482.047a20.215,20.215,0,0,0,20.368,19.937h98.246L721.467,462.11h-.6A20.215,20.215,0,0,0,700.5,482.047Z" transform="translate(-334.544 -232.247)" opacity="0.1"/>
      <path id="패스_772" data-name="패스 772" d="M852.115,278.047a20.215,20.215,0,0,1-20.368,19.937H733.5l97.647-39.874h.6A20.215,20.215,0,0,1,852.115,278.047Z" transform="translate(-347.775 -147.869)" opacity="0.1"/>
      <path id="패스_773" data-name="패스 773" d="M852.115,414.047a20.215,20.215,0,0,1-20.368,19.937H733.5l97.647-39.874h.6A20.215,20.215,0,0,1,852.115,414.047Z" transform="translate(-347.775 -204.121)" opacity="0.1"/>
      <path id="패스_774" data-name="패스 774" d="M888.532,632.472l-32.349-17.046a7.368,7.368,0,0,1-2.872-9.957,7.7,7.7,0,0,1,10.06-3.172,7.384,7.384,0,0,1-.509-13.037,7.762,7.762,0,0,1,7.734-.092l1.474.774c3.96-5.2,12.892-6.157,20.818-1.982s12.023,12,9.765,18.1l.293.158a7.375,7.375,0,0,1,3.1,10.1,7.7,7.7,0,0,1-10.316,3.032,7.375,7.375,0,0,1,2.922,10.01,7.7,7.7,0,0,1-10.147,3.119Z" transform="translate(-395.449 -283.221)" fill="#0f4c81"/>
      <path id="패스_775" data-name="패스 775" d="M913.445,628.265a7.723,7.723,0,0,1-10.316,3.032L870.78,614.25l39.376,3.811.2.106a7.4,7.4,0,0,1,3.091,10.1Z" transform="translate(-402.816 -295.174)" opacity="0.1"/>
      <path id="패스_776" data-name="패스 776" d="M853.261,616.829a7.4,7.4,0,0,0,3.073,10.1l32.349,17.046L863.775,613.9l-.2-.106A7.729,7.729,0,0,0,853.261,616.829Z" transform="translate(-395.427 -294.622)" opacity="0.1"/>
      <path id="패스_777" data-name="패스 777" d="M226.774,745.045l-66.933.065a13.588,13.588,0,1,1,0-27.17,13.582,13.582,0,0,1-.03-27.164h3.061c1.743-11.687,15.228-20.787,31.613-20.8s29.887,9.06,31.655,20.74h.6a13.588,13.588,0,1,1,0,27.17,13.95,13.95,0,0,1,12.322,6.676,13.339,13.339,0,0,1,.015,13.786,13.948,13.948,0,0,1-12.307,6.7Z" transform="translate(-112.209 -318.221)" fill="#0f4c81"/>
      <path id="패스_778" data-name="패스 778" d="M249.926,718.949a13.771,13.771,0,0,1-13.862,13.6l-66.933.065,66.5-27.232h.407A13.772,13.772,0,0,1,249.926,718.949Z" transform="translate(-121.498 -332.867)" opacity="0.1"/>
      <path id="패스_779" data-name="패스 779" d="M146.62,765.4a13.772,13.772,0,0,0,13.892,13.569l66.933-.082-66.556-27.1h-.407A13.77,13.77,0,0,0,146.62,765.4Z" transform="translate(-112.473 -352.059)" opacity="0.1"/>
      <path id="패스_780" data-name="패스 780" d="M597.679,218.273a12.416,12.416,0,0,0-7.033.751,10.55,10.55,0,0,1-8.447,0,12.094,12.094,0,0,0-9.933.188,6.271,6.271,0,0,1-2.858.7c-4.026,0-7.375-3.97-8.07-9.212a7.654,7.654,0,0,0,2.013-2.123c2.36-3.724,5.991-6.11,10.118-6.11s7.722,2.346,10.082,6.046a7.829,7.829,0,0,0,6.685,3.595h.108C593.522,212.093,596.3,214.608,597.679,218.273Z" transform="translate(-278.75 -124.856)" fill="#0f4c81" opacity="0.1"/>
      <path id="패스_781" data-name="패스 781" d="M609.9,191.509l-6.506,4.04,3.948-7.037a6.49,6.49,0,0,0-3.936-1.378h-.1a7.338,7.338,0,0,1-1.348-.094l-2.211,1.366.947-1.683a7.849,7.849,0,0,1-3.858-2.867l-3.96,2.457,2.492-4.439a11.6,11.6,0,0,0-8.842-4.374c-4.1,0-7.788,2.387-10.124,6.11a7.621,7.621,0,0,1-6.692,3.518h-.2c-4.529,0-8.207,5.031-8.207,11.235s3.678,11.235,8.207,11.235a6.2,6.2,0,0,0,2.858-.7,12.094,12.094,0,0,1,9.932-.188,10.675,10.675,0,0,0,4.247.891,10.548,10.548,0,0,0,4.193-.874,12.088,12.088,0,0,1,9.843.188,6.241,6.241,0,0,0,2.828.686c4.535,0,8.207-5.031,8.207-11.235a14.038,14.038,0,0,0-1.719-6.855Z" transform="translate(-278.734 -114.528)" fill="#0f4c81" opacity="0.1"/>
      <path id="패스_782" data-name="패스 782" d="M323.62,169.265a12.416,12.416,0,0,1,7.033.751,10.532,10.532,0,0,0,8.441,0,12.094,12.094,0,0,1,9.915.176,6.29,6.29,0,0,0,2.858.7c4.026,0,7.38-3.97,8.075-9.212a7.565,7.565,0,0,1-2.013-2.123c-2.36-3.724-6.021-6.11-10.124-6.11s-7.716,2.346-10.076,6.046a7.829,7.829,0,0,1-6.692,3.589h-.1C327.748,163.084,324.968,165.6,323.62,169.265Z" transform="translate(-183.439 -104.581)" fill="#0f4c81" opacity="0.1"/>
      <path id="패스_783" data-name="패스 783" d="M302,142.525l6.506,4.04-3.954-7.037a6.5,6.5,0,0,1,3.936-1.378h.108a7.344,7.344,0,0,0,1.348-.094l2.2,1.366-.947-1.683a7.861,7.861,0,0,0,3.864-2.867l3.948,2.451-2.492-4.41a11.658,11.658,0,0,1,8.848-4.374c4.1,0,7.788,2.387,10.124,6.11a7.615,7.615,0,0,0,6.692,3.518h.216c4.535,0,8.207,5.031,8.207,11.235s-3.672,11.235-8.207,11.235a6.234,6.234,0,0,1-2.858-.7,12.094,12.094,0,0,0-9.932-.188,10.646,10.646,0,0,1-4.241.891,10.506,10.506,0,0,1-4.194-.874,12.1,12.1,0,0,0-9.849.188,6.223,6.223,0,0,1-2.828.686c-4.529,0-8.207-5.031-8.207-11.235A14.035,14.035,0,0,1,302,142.525Z" transform="translate(-174.085 -94.277)" fill="#0f4c81" opacity="0.1"/>
    </g>
    <g id="마스크_그룹_3" data-name="마스크 그룹 3" clip-path="url(#clip-path)">
      <path id="패스_941" data-name="패스 941" d="M.088,0c-.2,188.255,0,154.172,0,205.563,0,20.094,6.235,26.593,25.835,29.684,5.839.92-2.244-.354,0,0,7.491,1.181,248.881.654,285.838.654h0" transform="translate(-7183.541 -2572.465) rotate(90)" fill="none" stroke="#b1b1b1" stroke-width="0.5"/>
    </g>
  </g>
</svg>
