<svg xmlns="http://www.w3.org/2000/svg" xmlns:xlink="http://www.w3.org/1999/xlink" width="1286" height="1080" viewBox="0 0 1286 1080">
  <defs>
    <linearGradient id="linear-gradient" x1="0.5" y1="1" x2="0.5" gradientUnits="objectBoundingBox">
      <stop offset="0" stop-color="gray" stop-opacity="0.251"/>
      <stop offset="0.54" stop-color="gray" stop-opacity="0.122"/>
      <stop offset="1" stop-color="gray" stop-opacity="0.102"/>
    </linearGradient>
    <clipPath id="clip-path">
      <rect id="사각형_135" data-name="사각형 135" width="393" height="137" transform="translate(-7491 -4983)" fill="#fff" stroke="#707070" stroke-width="1"/>
    </clipPath>
  </defs>
  <g id="그룹_220" data-name="그룹 220" transform="translate(7829 5926)">
    <path id="패스_933" data-name="패스 933" d="M0,0H1286V1080H0Z" transform="translate(-7829 -5926)" fill="#fff"/>
    <path id="패스_934" data-name="패스 934" d="M-1277.723,20837.047c.174,194.191,0,159.033,0,212.045,0,20.727-5.5,27.432-22.771,30.619-5.147.949,1.978-.365,0,0-6.6,1.219-219.365.676-251.94.676h0" transform="translate(-5681.77 -26002.996)" fill="none" stroke="#b1b1b1" stroke-width="0.5"/>
    <g id="그룹_219" data-name="그룹 219" transform="translate(-7060.008 -5004.478)">
      <g id="그룹_129" data-name="그룹 129" transform="translate(27.295 0.003)" opacity="0.136">
        <path id="패스_229" data-name="패스 229" d="M410.588,22.571a6.088,6.088,0,0,0-1.647,3.008q-1.176,3.722-2.2,7.494c-.994,3.653-1.9,7.387-3.718,10.71a42.675,42.675,0,0,1-7.1,8.8l-9.452,9.8c-2.921,3.029-6.037,6.526-5.981,10.734.048,3.651,2.6,6.89,5.722,8.775s6.772,2.657,10.343,3.4c1.813.377,3.737.747,5.476.12,2.089-.751,3.45-2.764,5.359-3.9,3.425-2.034,7.765-.89,11.6.177s8.359,1.875,11.471-.609c4.516-3.606,2.569-10.87,4.586-16.285,1.914-5.139,7.206-8.095,10.679-12.337,7.759-9.476,4.367-22.639-6.341-27.952-3.509-1.736-6.968-1.647-10.773-1.921C423.872,22.245,414.678,19.211,410.588,22.571Z" transform="translate(-380.492 -21.003)" fill="#0b3458"/>
      </g>
      <g id="그룹_130" data-name="그룹 130" transform="translate(0.008 6.248)" opacity="0.5">
        <path id="패스_230" data-name="패스 230" d="M124.631,136.137s-15.872-8.032-9.089-25.973S97.767,86,97.767,86s-4.811,17.469,4.227,29.1S114.519,146.049,124.631,136.137Z" transform="translate(-96.488 -86)" fill="#0c385f"/>
        <path id="패스_231" data-name="패스 231" d="M109.8,86a105.464,105.464,0,0,1,10.076,26.7c3.379,15.094,8.881,27.55,16.707,23.155" transform="translate(-108.521 -86)" fill="none" stroke="#fff" stroke-miterlimit="10" stroke-width="1"/>
      </g>
      <g id="그룹_131" data-name="그룹 131" transform="translate(17.979 22.227)" opacity="0.5">
        <path id="패스_232" data-name="패스 232" d="M290.3,289.4a14.166,14.166,0,0,1,2.073-17.894c8.42-8.783-3.058-19.2-3.058-19.2s-7.24,9.043-5.511,18.417S282.241,292.508,290.3,289.4Z" transform="translate(-283.534 -252.31)" fill="#0c385f"/>
        <path id="패스_233" data-name="패스 233" d="M312.861,252.31a75.793,75.793,0,0,1-1.739,18.593c-2.219,9.877-2.607,18.772,2.755,18.31" transform="translate(-307.082 -252.31)" fill="none" stroke="#fff" stroke-miterlimit="10" stroke-width="1"/>
      </g>
      <g id="그룹_132" data-name="그룹 132" transform="translate(5.998 70.197)" opacity="0.1">
        <path id="패스_234" data-name="패스 234" d="M158.867,755.079a3.71,3.71,0,0,0,.885,1.685l4.482,5.682a2.686,2.686,0,0,0,1.232,1.057c1.012.268,1.826-1.031,2.69-1.791,3.074-2.7,7.276,1.411,10.751-.161,1.39-.629,2.516-2.124,3.933-2.631,3.752-1.345,6.931,4.6,10.8,4.9a8.214,8.214,0,0,0,3.736-.946l8.107-3.47a4.8,4.8,0,0,1,1.729-.495A6.755,6.755,0,0,1,210.082,760c3.779,1.862,7.975.857,11.856-.553s7.791-3.225,11.8-2.925c1.044.079,2.424.013,2.709-1.358.17-.815-2.125.039-2.657-.4s.733-2.271.113-2.349a24.86,24.86,0,0,0-10.8.673,27.469,27.469,0,0,1-5.5,1.667,16.061,16.061,0,0,1-5.817-.938,47.52,47.52,0,0,0-14.761-2.191c-8.816.384-17.5,4.733-26.272,3.472a22.358,22.358,0,0,1-7.436-2.49c-1.184-.639-1.131,1.624-2.339,2.386-.393.248-1.422-2.064-1.729-1.619A2.26,2.26,0,0,0,158.867,755.079Z" transform="translate(-158.832 -751.595)" fill="#051624"/>
      </g>
      <path id="패스_235" data-name="패스 235" d="M233.842,128.577l-14.013-18.351c-1.094-5.152-2.737-5.152-2.737-5.152-11.166-1.5-14.231-3.435-14.231-3.435l-2.5-.978-.208-.123c-.01-.055-.02-.11-.03-.166s-.019-.132-.027-.2a12.053,12.053,0,0,0,5.476-7.379c.02-.081.038-.163.058-.245a3.155,3.155,0,0,0,1.306-1.164c1.073-1.759.054-3.986.077-6.036.014-1.3.461-2.564.41-3.859a9.051,9.051,0,0,0-.854-3.125,3.7,3.7,0,0,0-.826-1.345c-1.044-.948-2.735-.542-4.077-1.009-1.735-.6-2.543-2.487-3.546-4-.384-.584-1.084-1.2-1.715-.881-.741.375-.54,1.657-1.288,2.018a1.188,1.188,0,0,1-1.332-.437c-.324-.38-.509-.858-.828-1.242a2.435,2.435,0,0,0-2.363-.792.82.82,0,0,0-.449.23c-.239.279-.089.694-.073,1.057.057,1.223-1.441,1.9-2.679,2.032s-2.7.145-3.437,1.13a8.653,8.653,0,0,0-.74,1.795c-.613,1.377-2.1,2.131-3.4,2.922s-2.644,1.944-2.633,3.446c.012,1.441,1.284,2.609,1.507,4.035.119.756-.066,1.537.082,2.29.272,1.38,1.561,2.306,2.751,3.089.081.053.162.106.246.156.021.085.042.168.065.252a12.1,12.1,0,0,0,6.184,7.494c.019.081.037.162.056.246.057.257.11.526.157.8l-.037.01v-.027l-13.84,3.529a.6.6,0,0,0-.26-.033c-.567-.046-2.34.565-4.408,8.852l-8.866,15.669s-5.145,4.937-1.2,9.127a8,8,0,0,0,6.013,2.643,8.3,8.3,0,0,0,2.961-.5s-.071-.11-.181-.3l1.172.143c2.306,2.563,6.234,1.663,6.234,1.663s5.587-.063,5.793-2.985l10.041,3.08.04.549h5.273l-.009-.35,11.093-3.342a6.3,6.3,0,0,0,2.978,2.389s6.51.274,8.557-.912a9.144,9.144,0,0,1,2.773-1.067l.057-.006-.013.013,12.534-1.345C240.629,133.514,233.842,128.577,233.842,128.577Zm-63.092,4.364-.276-.159a10.189,10.189,0,0,1,1.515-.448l2.438-3.01.422,2.969A5.546,5.546,0,0,0,170.75,132.941Zm47.162-.024a5.113,5.113,0,0,0-3.156-1.033l.1-7.308a4.691,4.691,0,0,1,1.912,1.853c.657,1.825,3.832,4.722,3.832,4.722l-1.649,1.355h0l-.257.21c-.069.016-.138.033-.208.051Z" transform="translate(-152.202 -65.852)" fill="url(#linear-gradient)"/>
      <path id="패스_236" data-name="패스 236" d="M142.209,699.752l2.559.32,1.492-7.356-2.879-1.706-3.731,4.052Z" transform="translate(-126.226 -624.616)" fill="#efb7b9"/>
      <path id="패스_237" data-name="패스 237" d="M142.209,699.752l2.559.32,1.492-7.356-2.879-1.706-3.731,4.052Z" transform="translate(-126.226 -624.616)" opacity="0.03"/>
      <path id="패스_238" data-name="패스 238" d="M473.079,320.819l-6.183,5.544s-11.94,2.665-8.954-1.066c1.691-2.114,1.466-5.322.953-7.706a19.991,19.991,0,0,0-.953-3.171s15.353-9.271,13.221-2.234a11.236,11.236,0,0,0-.533,4.926A4.584,4.584,0,0,0,473.079,320.819Z" transform="translate(-422.773 -281.822)" fill="#efb7b9"/>
      <path id="패스_239" data-name="패스 239" d="M475.689,312.189a11.236,11.236,0,0,0-.533,4.926,11.953,11.953,0,0,1-11.733.48,20,20,0,0,0-.953-3.171S477.821,305.152,475.689,312.189Z" transform="translate(-427.299 -281.825)" opacity="0.1"/>
      <path id="패스_240" data-name="패스 240" d="M428.659,168.069a11.905,11.905,0,1,1-3.489-8.454A11.94,11.94,0,0,1,428.659,168.069Z" transform="translate(-375.152 -143.144)" fill="#efb7b9"/>
      <path id="패스_241" data-name="패스 241" d="M347.13,400.232v21.853l21-1.705-3.517-22.28-9.274,5.543Z" transform="translate(-313.771 -359.848)" fill="#e1e7ef"/>
      <path id="패스_242" data-name="패스 242" d="M511.222,478.793l-2.338-6.609h.1c2.452-2.665,1.385-4.264,1.385-4.264h-3.4c-2.167,1.537-.663,3.529-.153,4.1l-1.02,6.771Z" transform="translate(-466.457 -424.978)" opacity="0.1"/>
      <path id="패스_243" data-name="패스 243" d="M511.222,476.573l-2.338-6.609h.1c2.452-2.665,1.385-4.264,1.385-4.264h-3.4c-2.167,1.537-.663,3.529-.153,4.1l-1.02,6.771Z" transform="translate(-466.457 -422.971)" fill="#444053"/>
      <path id="패스_244" data-name="패스 244" d="M544.4,392.2s-.673,3.117-5.358,7.274c0,0,1.441.48,1.653,4.318l1.759,2.4s1.385-5.01,3.837-6.716,0-6.183,0-6.183Z" transform="translate(-496.512 -356.533)" opacity="0.1"/>
      <path id="패스_245" data-name="패스 245" d="M544.4,390s-.673,3.117-5.358,7.274c0,0,1.441.48,1.653,4.318l1.759,2.4s1.385-5.01,3.837-6.716,0-6.183,0-6.183Z" transform="translate(-496.512 -354.544)" fill="#e1e7ef"/>
      <path id="패스_246" data-name="패스 246" d="M463.138,410.213a6.122,6.122,0,0,0-2.127,4.158c-.109,2.559-1.172,2.559-1.172,2.559s-2.665-8.208-3.517-8.955,1.537-3.9,1.537-3.9S459.2,408.507,463.138,410.213Z" transform="translate(-421.576 -367.271)" opacity="0.1"/>
      <path id="패스_247" data-name="패스 247" d="M463.081,407.994a6.12,6.12,0,0,0-2.127,4.16c-.109,2.561-1.172,2.559-1.172,2.559s-2.666-8.212-3.522-8.957,1.537-3.9,1.537-3.9S459.142,406.287,463.081,407.994Z" transform="translate(-421.518 -365.265)" fill="#e1e7ef"/>
      <path id="패스_248" data-name="패스 248" d="M593.4,390.25l2.665,1.066s2.985,1.922,13.858,3.412c0,0,1.6,0,2.665,5.117l13.643,18.229s6.609,4.9,1.066,9.808l-12.2,1.333s7.036-6.716-3.624-6.929l1.97-1.654s-3.092-2.882-3.731-4.691-5.861-3.837-5.861-3.837l.64,15.35-9.6,1.491-1.384-28.564a18.971,18.971,0,0,1,.231-4.029C594.1,394.186,594.482,390.754,593.4,390.25Z" transform="translate(-545.65 -354.77)" opacity="0.1"/>
      <path id="패스_249" data-name="패스 249" d="M594.51,390.25l2.665,1.066s2.985,1.922,13.858,3.412c0,0,1.6,0,2.665,5.117l13.643,18.229s6.609,4.9,1.067,9.808l-12.2,1.333s7.036-6.716-3.624-6.929l1.972-1.653s-3.092-2.882-3.731-4.691-5.861-3.837-5.861-3.837l.64,15.35-9.6,1.49-1.384-28.564a18.971,18.971,0,0,1,.231-4.029C595.21,394.186,595.592,390.754,594.51,390.25Z" transform="translate(-546.653 -354.77)" fill="#67647e"/>
      <path id="패스_250" data-name="패스 250" d="M199.306,401.34l-13.538,3.522s-2.025-1.279-4.477,8.743l-8.635,15.565s-5.01,4.9-1.172,9.061a7.892,7.892,0,0,0,8.637,2.125s-4.371-6.822,3.305-8.528l2.882-3.624,13.005,1.492-.328-18.762.364-2.187a21.715,21.715,0,0,0,0-7.14Z" transform="translate(-162.962 -364.795)" opacity="0.1"/>
      <path id="패스_251" data-name="패스 251" d="M198.183,401.34l-13.538,3.522s-2.025-1.279-4.477,8.743l-8.635,15.565s-5.014,4.9-1.171,9.054A7.911,7.911,0,0,0,179,440.356s-4.371-6.822,3.305-8.528l2.882-3.624,13.005,1.492-.326-18.762.361-2.187a21.713,21.713,0,0,0,0-7.14Z" transform="translate(-161.946 -364.795)" fill="#67647e"/>
      <path id="패스_252" data-name="패스 252" d="M226.36,489.08l-1.28.959,19.3,4.9v-1.919Z" transform="translate(-203.448 -442.087)" fill="#e4e6ed"/>
      <path id="패스_253" data-name="패스 253" d="M445.205,485.75l1.279.96-20.574,5.223v-1.919Z" transform="translate(-384.982 -439.077)" fill="#e4e6ed"/>
      <path id="패스_254" data-name="패스 254" d="M212.88,489.08l17.909,4.157,1.279,26.011-15.67-4.9Z" transform="translate(-192.42 -442.087)" fill="#0f4c81"/>
      <path id="패스_255" data-name="패스 255" d="M469.4,489.08l-19.082,4.371,1.066,26.118,17.7-5.437Z" transform="translate(-407.047 -442.087)" fill="#0f4c81"/>
      <path id="패스_256" data-name="패스 256" d="M489.1,553.35a6.558,6.558,0,0,0,6.413,0l.64,26.545H491.02Z" transform="translate(-451.371 -502.2)" fill="#0f4c81"/>
      <path id="패스_257" data-name="패스 257" d="M489.1,553.35a6.558,6.558,0,0,0,6.413,0l.64,26.545H491.02Z" transform="translate(-451.514 -502.2)" opacity="0.1"/>
      <path id="패스_258" data-name="패스 258" d="M339.32,506.75v.747l17.589,3.517A86.681,86.681,0,0,0,339.32,506.75Z" transform="translate(-315.981 -460.077)" fill="#d8d9e5"/>
      <path id="패스_259" data-name="패스 259" d="M541.365,502.31v.747L522.39,507S532.729,503.27,541.365,502.31Z" transform="translate(-481.462 -456.064)" fill="#d8d9e5"/>
      <path id="패스_260" data-name="패스 260" d="M681.644,714.934l-.556.15s-3.623-3.171-8.242,1.633,1.537,7.155,1.537,7.155,6.341.272,8.333-.906a8.768,8.768,0,0,1,2.776-1.075,2.836,2.836,0,0,0,1.555-.877h0a3.71,3.71,0,0,0,.928-3.059h0a3.709,3.709,0,0,0-2.729-3.038h0A7.029,7.029,0,0,0,681.644,714.934Z" transform="translate(-615.91 -647.466)" fill="#efb7b9"/>
      <path id="패스_261" data-name="패스 261" d="M272.07,717.919s4.264-3.837,9.488,2.559-4.052,6.505-4.052,6.505-5.014,1.169-6.929-2.988S272.07,717.919,272.07,717.919Z" transform="translate(-253.315 -649.925)" fill="#efb7b9"/>
      <path id="패스_262" data-name="패스 262" d="M785.28,710.31a5.94,5.94,0,0,1,3.894,7.167l3-.327.632-2.908-1.279-4.051-2.452-.961Z" transform="translate(-719.094 -643.103)" opacity="0.1"/>
      <path id="패스_263" data-name="패스 263" d="M786.39,710.31a5.94,5.94,0,0,1,3.894,7.167l3-.327.632-2.908-1.279-4.051-2.452-.961Z" transform="translate(-720.097 -643.103)" fill="#67647e"/>
      <path id="패스_264" data-name="패스 264" d="M428.646,168.02a11.906,11.906,0,0,1-.34,2.836,4.147,4.147,0,0,1-2.408.354,7.08,7.08,0,0,1-3.692-2.044c-1.033-.987-1.9-2.135-2.9-3.161A5.108,5.108,0,0,0,416,164.168c-1.176-.035-2.247.623-3.381.934-1.188.327-3.58-.565-4.159.442-.34.592-.22,1.894-.421,2.594a10.177,10.177,0,0,1-.916,2.2c-.288.506-.712,1.043-1.293,1.039a1.308,1.308,0,0,1-.638-.2,11.941,11.941,0,1,1,23.458-3.151Z" transform="translate(-375.139 -143.094)" opacity="0.1"/>
      <path id="패스_265" data-name="패스 265" d="M373.967,96.8c1.135-.311,2.21-.968,3.381-.934a5.106,5.106,0,0,1,3.313,1.837c1,1.025,1.862,2.173,2.9,3.161a7.09,7.09,0,0,0,3.692,2.044,3.714,3.714,0,0,0,3.736-1.537c1.044-1.747.053-3.959.075-5.994.014-1.286.449-2.547.4-3.833a9.121,9.121,0,0,0-.831-3.1,3.7,3.7,0,0,0-.805-1.335c-1.017-.942-2.663-.538-3.97-1-1.689-.6-2.477-2.471-3.453-3.975-.377-.576-1.057-1.192-1.67-.875-.722.373-.526,1.647-1.255,2a1.146,1.146,0,0,1-1.3-.434c-.315-.378-.5-.852-.806-1.234a2.344,2.344,0,0,0-2.306-.787.793.793,0,0,0-.437.228c-.232.277-.087.689-.071,1.05.056,1.214-1.4,1.889-2.609,2.018s-2.626.144-3.346,1.123A8.548,8.548,0,0,0,367.882,87c-.6,1.368-2.041,2.114-3.31,2.9s-2.575,1.931-2.563,3.423c.012,1.434,1.249,2.594,1.468,4.009.115.751-.064,1.528.08,2.274.264,1.37,1.52,2.29,2.679,3.068a1.8,1.8,0,0,0,.942.4c.576,0,1.008-.532,1.293-1.039a10.186,10.186,0,0,0,.916-2.2c.2-.7.081-2,.421-2.594C370.387,96.232,372.78,97.123,373.967,96.8Z" transform="translate(-336.49 -75.001)" fill="#585268"/>
    </g>
    <g id="마스크_그룹_2" data-name="마스크 그룹 2" clip-path="url(#clip-path)">
      <path id="패스_935" data-name="패스 935" d="M.083,0c-.186,188.255,0,154.172,0,205.563,0,20.094,5.881,26.593,24.367,29.684,5.507.92-2.117-.354,0,0,7.065,1.181,234.73.654,269.587.654h0" transform="translate(-7183.541 -4922.188) rotate(90)" fill="none" stroke="#b1b1b1" stroke-width="0.5"/>
    </g>
  </g>
</svg>
