<svg xmlns="http://www.w3.org/2000/svg" xmlns:xlink="http://www.w3.org/1999/xlink" width="1286" height="1080" viewBox="0 0 1286 1080">
  <defs>
    <linearGradient id="linear-gradient" x1="-0.356" y1="1" x2="-0.356" gradientUnits="objectBoundingBox">
      <stop offset="0" stop-color="gray" stop-opacity="0.251"/>
      <stop offset="0.54" stop-color="gray" stop-opacity="0.122"/>
      <stop offset="1" stop-color="gray" stop-opacity="0.102"/>
    </linearGradient>
    <clipPath id="clip-path">
      <rect id="사각형_135" data-name="사각형 135" width="370" height="165" transform="translate(-7539 -2356)" fill="#fff" stroke="#707070" stroke-width="1"/>
    </clipPath>
  </defs>
  <g id="그룹_225" data-name="그룹 225" transform="translate(7829 3271)">
    <g id="그룹_221" data-name="그룹 221">
      <rect id="사각형_131" data-name="사각형 131" width="1286" height="1080" transform="translate(-7829 -3271)" fill="#fff"/>
      <line id="선_21" data-name="선 21" y2="279" transform="translate(-6959.5 -3270.5)" fill="none" stroke="#b1b1b1" stroke-width="0.5"/>
      <path id="패스_937" data-name="패스 937" d="M-1331.272,20837.045c.14,194.6,0,159.363,0,212.486,0,20.768-4.437,27.486-18.382,30.68-4.155.953,1.6-.365,0,0-5.33,1.223-177.083.68-203.379.68h0" transform="translate(-5628.206 -23372)" fill="none" stroke="#b1b1b1" stroke-width="0.5"/>
      <g id="그룹_220" data-name="그룹 220" transform="translate(-7235.999 -3090.961)">
        <path id="패스_444" data-name="패스 444" d="M205.31,745.357c5.264,2.713,10.78,5.057,16.222,7.394,20.1,8.488,40.51,17.05,62.107,19.963,40.532,5.464,82.4-9.331,122.24-.126,33.382,7.7,60.99,31.312,93.6,41.826,15.164,4.887,30.943,6.8,46.861,6.8H548.4q2.958-.037,5.871-.148c16.14-.606,32.347-2.994,48.17-6.048,49.959-9.612,100.805-27.231,139-59.667C630.254,735,401.161,703.812,205.31,745.357Z" transform="translate(-150.641 -222.11)" fill="#0f4c81" opacity="0.1"/>
        <path id="패스_445" data-name="패스 445" d="M237.5,679.954s18.24-61.929-3.423-107.511a97.794,97.794,0,0,1-7.911-61.368,164.508,164.508,0,0,1,8.688-28.835" transform="translate(-155.591 -158.873)" fill="none" stroke="#535461" stroke-miterlimit="10" stroke-width="2"/>
        <path id="패스_446" data-name="패스 446" d="M220.35,438.6c0,7.593,13.745,29.575,13.745,29.575S247.84,446.161,247.84,438.6a13.745,13.745,0,0,0-27.482,0Z" transform="translate(-154.561 -143.999)" fill="#0f4c81"/>
        <path id="패스_447" data-name="패스 447" d="M188.775,492.608c4.126,6.373,27.623,17.375,27.623,17.375s-.429-25.944-4.555-32.318A13.745,13.745,0,1,0,188.775,492.6Z" transform="translate(-145.707 -155.969)" fill="#0f4c81"/>
        <path id="패스_448" data-name="패스 448" d="M188.226,588.135c6.78,3.416,32.614,1.057,32.614,1.057s-13.464-22.181-20.244-25.6a13.745,13.745,0,1,0-12.37,24.54Z" transform="translate(-144.137 -179.652)" fill="#0f4c81"/>
        <path id="패스_449" data-name="패스 449" d="M206.576,661.909c6.1,4.51,31.97,6.551,31.97,6.551s-9.523-24.133-15.623-28.651a13.745,13.745,0,1,0-16.348,22.1Z" transform="translate(-149.519 -199.238)" fill="#0f4c81"/>
        <path id="패스_450" data-name="패스 450" d="M255.139,517.359c-5.442,5.286-30.809,10.765-30.809,10.765s6.211-25.19,11.652-30.484a13.746,13.746,0,0,1,19.157,19.719Z" transform="translate(-155.599 -161.874)" fill="#0f4c81"/>
        <path id="패스_451" data-name="패스 451" d="M273.974,602.489c-6.78,3.416-32.613,1.057-32.613,1.057s13.464-22.181,20.244-25.6a13.743,13.743,0,1,1,12.378,24.542Z" transform="translate(-160.037 -183.433)" fill="#0f4c81"/>
        <path id="패스_452" data-name="패스 452" d="M281.65,689.069c-6.1,4.51-31.97,6.551-31.97,6.551S259.2,671.487,265.3,666.97a13.745,13.745,0,1,1,16.348,22.1Z" transform="translate(-162.206 -206.317)" fill="#0f4c81"/>
        <path id="패스_453" data-name="패스 453" d="M220.35,438.6c0,7.593,13.745,29.575,13.745,29.575S247.84,446.161,247.84,438.6a13.745,13.745,0,0,0-27.482,0Z" transform="translate(-154.561 -143.999)" opacity="0.25"/>
        <path id="패스_454" data-name="패스 454" d="M188.775,492.608c4.126,6.373,27.623,17.375,27.623,17.375s-.429-25.944-4.555-32.318A13.745,13.745,0,1,0,188.775,492.6Z" transform="translate(-145.707 -155.969)" opacity="0.25"/>
        <path id="패스_455" data-name="패스 455" d="M188.226,588.135c6.78,3.416,32.614,1.057,32.614,1.057s-13.464-22.181-20.244-25.6a13.745,13.745,0,1,0-12.37,24.54Z" transform="translate(-144.137 -179.652)" opacity="0.25"/>
        <path id="패스_456" data-name="패스 456" d="M206.576,661.909c6.1,4.51,31.97,6.551,31.97,6.551s-9.523-24.133-15.623-28.651a13.745,13.745,0,1,0-16.348,22.1Z" transform="translate(-149.519 -199.238)" opacity="0.25"/>
        <path id="패스_457" data-name="패스 457" d="M255.139,517.359c-5.442,5.286-30.809,10.765-30.809,10.765s6.211-25.19,11.652-30.484a13.746,13.746,0,0,1,19.157,19.719Z" transform="translate(-155.599 -161.874)" opacity="0.25"/>
        <path id="패스_458" data-name="패스 458" d="M273.974,602.489c-6.78,3.416-32.613,1.057-32.613,1.057s13.464-22.181,20.244-25.6a13.743,13.743,0,1,1,12.378,24.542Z" transform="translate(-160.037 -183.433)" opacity="0.25"/>
        <path id="패스_459" data-name="패스 459" d="M281.65,689.069c-6.1,4.51-31.97,6.551-31.97,6.551S259.2,671.487,265.3,666.97a13.745,13.745,0,1,1,16.348,22.1Z" transform="translate(-162.206 -206.317)" opacity="0.25"/>
        <path id="패스_460" data-name="패스 460" d="M366.931,686.416s9.878-33.53-1.848-58.2a52.954,52.954,0,0,1-4.281-33.22,89.062,89.062,0,0,1,4.7-15.593" transform="translate(-190.91 -184.196)" fill="none" stroke="#535461" stroke-miterlimit="10" stroke-width="2"/>
        <path id="패스_461" data-name="패스 461" d="M357.637,555.677c0,4.111,7.438,16.022,7.438,16.022s7.438-11.919,7.438-16.022a7.442,7.442,0,1,0-14.883,0Z" transform="translate(-190.341 -176.074)" fill="#0f4c81"/>
        <path id="패스_462" data-name="패스 462" d="M340.579,585.031c2.218,3.445,14.957,9.4,14.957,9.4s-.229-14.048-2.462-17.493a7.442,7.442,0,0,0-12.5,8.089Z" transform="translate(-185.585 -182.67)" fill="#0f4c81"/>
        <path id="패스_463" data-name="패스 463" d="M340.284,636.725c3.7,1.848,17.656.569,17.656.569s-7.29-12.007-10.957-13.856a7.45,7.45,0,1,0-6.7,13.309Z" transform="translate(-184.751 -195.466)" fill="#0f4c81"/>
        <path id="패스_464" data-name="패스 464" d="M350.171,676.631c3.3,2.44,17.309,3.549,17.309,3.549s-5.176-13.065-8.458-15.527a7.447,7.447,0,1,0-8.872,11.963Z" transform="translate(-187.606 -206.034)" fill="#0f4c81"/>
        <path id="패스_465" data-name="패스 465" d="M376.48,598.327c-2.957,2.861-16.68,5.826-16.68,5.826s3.364-13.641,6.307-16.5a7.438,7.438,0,1,1,10.351,10.676Z" transform="translate(-190.907 -185.762)" fill="#0f4c81"/>
        <path id="패스_466" data-name="패스 466" d="M386.666,644.466c-3.7,1.848-17.656.569-17.656.569s7.29-12.007,10.957-13.856a7.45,7.45,0,1,1,6.7,13.309Z" transform="translate(-193.307 -197.484)" fill="#0f4c81"/>
        <path id="패스_467" data-name="패스 467" d="M390.829,691.331c-3.3,2.44-17.309,3.549-17.309,3.549s5.176-13.065,8.458-15.527a7.447,7.447,0,0,1,8.872,11.963Z" transform="translate(-194.482 -209.865)" fill="#0f4c81"/>
        <path id="패스_468" data-name="패스 468" d="M357.637,555.677c0,4.111,7.438,16.022,7.438,16.022s7.438-11.919,7.438-16.022a7.442,7.442,0,1,0-14.883,0Z" transform="translate(-190.341 -176.074)" fill="#fff" opacity="0.5"/>
        <path id="패스_469" data-name="패스 469" d="M340.579,585.031c2.218,3.445,14.957,9.4,14.957,9.4s-.229-14.048-2.462-17.493a7.442,7.442,0,0,0-12.5,8.089Z" transform="translate(-185.585 -182.67)" fill="#fff" opacity="0.5"/>
        <path id="패스_470" data-name="패스 470" d="M340.284,636.725c3.7,1.848,17.656.569,17.656.569s-7.29-12.007-10.957-13.856a7.45,7.45,0,1,0-6.7,13.309Z" transform="translate(-184.751 -195.466)" fill="#fff" opacity="0.5"/>
        <path id="패스_471" data-name="패스 471" d="M350.171,676.631c3.3,2.44,17.309,3.549,17.309,3.549s-5.176-13.065-8.458-15.527a7.447,7.447,0,1,0-8.872,11.963Z" transform="translate(-187.606 -206.034)" fill="#fff" opacity="0.5"/>
        <path id="패스_472" data-name="패스 472" d="M376.48,598.327c-2.957,2.861-16.68,5.826-16.68,5.826s3.364-13.641,6.307-16.5a7.438,7.438,0,1,1,10.351,10.676Z" transform="translate(-190.907 -185.762)" fill="#fff" opacity="0.5"/>
        <path id="패스_473" data-name="패스 473" d="M386.666,644.466c-3.7,1.848-17.656.569-17.656.569s7.29-12.007,10.957-13.856a7.45,7.45,0,1,1,6.7,13.309Z" transform="translate(-193.307 -197.484)" fill="#fff" opacity="0.5"/>
        <path id="패스_474" data-name="패스 474" d="M390.829,691.331c-3.3,2.44-17.309,3.549-17.309,3.549s5.176-13.065,8.458-15.527a7.447,7.447,0,0,1,8.872,11.963Z" transform="translate(-194.482 -209.865)" fill="#fff" opacity="0.5"/>
        <g id="그룹_144" data-name="그룹 144" transform="translate(151.58 23.62)" opacity="0.6">
          <path id="패스_475" data-name="패스 475" d="M339.545,93.318a8.643,8.643,0,0,0-3.113,7.608c1.013,9.4,4.059,30.795,11.652,42.839q.673,1.072,1.4,2.048h41.042s8.37-31.135,8.924-44.857a10.351,10.351,0,0,0-3.7-8.355c-6.152-5.109-20.591-16.266-28.784-15.527h-.163S363.663,73.547,339.545,93.318Z" transform="translate(-336.383 -76.83)" fill="#d6dbe6"/>
          <path id="패스_476" data-name="패스 476" d="M336.433,100.945c1.013,9.4,4.059,30.795,11.652,42.839,1.634.739,3.3,1.4,4.961,2.048,10.351,4.044,20.133,6.432,18.551,0a14.553,14.553,0,0,0-1.582-3.616c-9.412-16.377-5.057-52.088-3.061-65.064h-.163s-3.12-3.564-27.238,16.207A8.643,8.643,0,0,0,336.433,100.945Z" transform="translate(-336.384 -76.849)" fill="none"/>
          <path id="패스_477" data-name="패스 477" d="M336.433,100.945c1.013,9.4,4.059,30.795,11.652,42.839,1.634.739,3.3,1.4,4.961,2.048,10.351,4.044,20.133,6.432,18.551,0a14.553,14.553,0,0,0-1.582-3.616c-9.412-16.377-5.057-52.088-3.061-65.064h-.163s-3.12-3.564-27.238,16.207A8.643,8.643,0,0,0,336.433,100.945Z" transform="translate(-336.384 -76.849)" opacity="0.05"/>
          <path id="패스_478" data-name="패스 478" d="M353.77,165.808c0,1.8,1.538,3.468,4.133,4.813a25.374,25.374,0,0,0,5.582,2,47.363,47.363,0,0,0,11.091,1.235A44.466,44.466,0,0,0,387.833,172a18.61,18.61,0,0,0,4.954-2.322c1.627-1.146,2.558-2.462,2.558-3.867,0-2.048-1.974-3.911-5.22-5.331q-.784-.347-1.671-.651a43.5,43.5,0,0,0-13.871-2.055c-6.6,0-12.466,1.19-16.266,3.046a14.3,14.3,0,0,0-1.841,1.065C354.739,163.043,353.77,164.381,353.77,165.808Z" transform="translate(-340.914 -97.927)" fill="#d6dbe6"/>
          <path id="패스_479" data-name="패스 479" d="M353.18,165.808c0,1.8,1.538,3.468,4.133,4.813a25.375,25.375,0,0,0,5.582,2,47.363,47.363,0,0,0,11.091,1.235A44.466,44.466,0,0,0,387.243,172a18.61,18.61,0,0,0,4.954-2.322c1.627-1.146,2.558-2.462,2.558-3.867,0-2.048-1.974-3.911-5.22-5.331q-.784-.347-1.671-.651a43.5,43.5,0,0,0-13.871-2.055c-6.6,0-12.466,1.19-16.266,3.046a14.3,14.3,0,0,0-1.841,1.065C354.141,163.043,353.18,164.381,353.18,165.808Z" transform="translate(-340.761 -97.927)" opacity="0.1"/>
          <path id="패스_480" data-name="패스 480" d="M384.91,168.037a5.368,5.368,0,0,0-1.427-6.847s-1.42-1.708-.547-3.261c0,0-7.253,4.791-3.556,10.3Z" transform="translate(-347.316 -97.967)" fill="#ffd865"/>
          <path id="패스_481" data-name="패스 481" d="M383.8,170.212a2.418,2.418,0,0,0-.643-3.083,1.479,1.479,0,0,1-.244-1.479s-3.268,2.159-1.6,4.636Z" transform="translate(-347.969 -99.979)" fill="#ffd865"/>
          <path id="패스_482" data-name="패스 482" d="M383.8,170.212a2.418,2.418,0,0,0-.643-3.083,1.479,1.479,0,0,1-.244-1.479s-3.268,2.159-1.6,4.636Z" transform="translate(-347.969 -99.979)" opacity="0.1"/>
          <path id="패스_483" data-name="패스 483" d="M359.36,171.347a25.376,25.376,0,0,0,5.582,2c5.915-1.375,22.92-5.8,26.617-12.133q-.784-.348-1.671-.651C387.493,163.333,377.874,172.937,359.36,171.347Z" transform="translate(-342.371 -98.653)" fill="#565387"/>
          <path id="패스_484" data-name="패스 484" d="M357.36,162.942c2.218,4,22.92,8.458,31.371,10.122a18.61,18.61,0,0,0,4.954-2.322A75.267,75.267,0,0,1,359.2,161.87a14.3,14.3,0,0,0-1.841,1.072Z" transform="translate(-341.85 -98.994)" fill="#565387"/>
          <path id="패스_485" data-name="패스 485" d="M384.209,98.124c1.22,1.2.88,3.179.739,4.88a14.58,14.58,0,0,0,2.314,9.028c1.079,1.649,2.566,3.335,2.3,5.286s-2.3,3.261-3.379,4.983a9.11,9.11,0,0,0-.85,6.107c.318,2.078.961,4.1,1.124,6.2a2.8,2.8,0,0,1-.155,1.42,3.852,3.852,0,0,1-1.028,1.124,7.955,7.955,0,0,0-1.693,2.144,5.317,5.317,0,0,1-.858,1.36,3.3,3.3,0,0,1-1.035.628,12.848,12.848,0,0,1-8.828.044,38.226,38.226,0,0,1-8.03-4.052,6.566,6.566,0,0,1-1.878-1.479,5.375,5.375,0,0,1-.9-3.039c-.118-2.314.318-4.643.044-6.95s-1.346-4.628-2-6.95a21.841,21.841,0,0,1,.518-13.456,10.085,10.085,0,0,1,3.091-4.658c3.224-2.455,7.911-1.479,11.645-3.039C378.139,96.519,381.651,95.6,384.209,98.124Z" transform="translate(-342.348 -81.961)" fill="#ffd865" opacity="0.35"/>
        </g>
        <g id="그룹_145" data-name="그룹 145" transform="translate(89.464 141.685)" opacity="0.6">
          <path id="패스_486" data-name="패스 486" d="M254.2,246.037a5,5,0,0,0-1.8,4.4c.584,5.434,2.344,17.8,6.736,24.769q.392.621.813,1.183h23.726s4.835-18,5.176-25.93a5.967,5.967,0,0,0-2.152-4.828c-3.556-2.957-11.9-9.39-16.636-8.961h-.1S268.149,234.606,254.2,246.037Z" transform="translate(-252.372 -236.516)" fill="#d6dbe6"/>
          <path id="패스_487" data-name="패스 487" d="M252.41,250.433c.584,5.434,2.344,17.8,6.736,24.769.946.407,1.908.806,2.869,1.183,5.967,2.336,11.638,3.7,10.721,0a8.406,8.406,0,0,0-.917-2.092c-5.442-9.464-2.957-30.107-1.767-37.634h-.1s-1.8-2.063-15.741,9.368a5,5,0,0,0-1.8,4.407Z" transform="translate(-252.374 -236.514)" fill="none"/>
          <path id="패스_488" data-name="패스 488" d="M252.41,250.433c.584,5.434,2.344,17.8,6.736,24.769.946.407,1.908.806,2.869,1.183,5.967,2.336,11.638,3.7,10.721,0a8.406,8.406,0,0,0-.917-2.092c-5.442-9.464-2.957-30.107-1.767-37.634h-.1s-1.8-2.063-15.741,9.368a5,5,0,0,0-1.8,4.407Z" transform="translate(-252.374 -236.514)" opacity="0.05"/>
          <path id="패스_489" data-name="패스 489" d="M262.43,287.935c0,1.043.887,2,2.388,2.78a14.666,14.666,0,0,0,3.224,1.153,27.355,27.355,0,0,0,6.388.739,25.7,25.7,0,0,0,7.645-1.094,10.758,10.758,0,0,0,2.869-1.346,2.891,2.891,0,0,0,1.479-2.218c0-1.183-1.139-2.262-3.017-3.083q-.458-.2-.969-.377a25.139,25.139,0,0,0-8.022-1.19,22.591,22.591,0,0,0-9.4,1.76,8.265,8.265,0,0,0-1.065.614A2.957,2.957,0,0,0,262.43,287.935Z" transform="translate(-254.993 -248.707)" fill="#d6dbe6"/>
          <path id="패스_490" data-name="패스 490" d="M262.09,287.943c0,1.043.887,2,2.388,2.78a14.667,14.667,0,0,0,3.224,1.153,27.356,27.356,0,0,0,6.388.739,25.7,25.7,0,0,0,7.66-1.072,10.758,10.758,0,0,0,2.869-1.346,2.891,2.891,0,0,0,1.479-2.218c0-1.183-1.139-2.262-3.017-3.083q-.458-.2-.969-.377a25.138,25.138,0,0,0-8.022-1.19,22.592,22.592,0,0,0-9.4,1.76,8.263,8.263,0,0,0-1.065.614A2.958,2.958,0,0,0,262.09,287.943Z" transform="translate(-254.905 -248.715)" opacity="0.1"/>
          <path id="패스_491" data-name="패스 491" d="M280.44,289.221a3.1,3.1,0,0,0-.821-3.956,1.848,1.848,0,0,1-.318-1.885s-4.192,2.773-2.055,5.952Z" transform="translate(-258.697 -248.729)" fill="#ffd865"/>
          <path id="패스_492" data-name="패스 492" d="M279.788,290.482a1.4,1.4,0,0,0-.37-1.782.836.836,0,0,1-.14-.85s-1.885,1.25-.924,2.677Z" transform="translate(-259.072 -249.894)" fill="#ffd865"/>
          <path id="패스_493" data-name="패스 493" d="M279.788,290.482a1.4,1.4,0,0,0-.37-1.782.836.836,0,0,1-.14-.85s-1.885,1.25-.924,2.677Z" transform="translate(-259.072 -249.894)" opacity="0.1"/>
          <path id="패스_494" data-name="패스 494" d="M265.66,291.14a14.668,14.668,0,0,0,3.224,1.153c3.423-.791,13.242-3.349,15.379-7.017q-.458-.2-.969-.377C281.926,286.5,276.366,292.057,265.66,291.14Z" transform="translate(-255.835 -249.125)" fill="#565387"/>
          <path id="패스_495" data-name="패스 495" d="M264.51,286.281c1.279,2.314,13.257,4.887,18.137,5.848a10.757,10.757,0,0,0,2.869-1.346,43.5,43.5,0,0,1-19.963-5.124,8.264,8.264,0,0,0-1.043.621Z" transform="translate(-255.535 -249.323)" fill="#565387"/>
          <path id="패스_496" data-name="패스 496" d="M280.03,248.812c.739.688.51,1.841.429,2.824a8.428,8.428,0,0,0,1.338,5.22c.621.954,1.479,1.93,1.331,3.054s-1.331,1.885-1.952,2.884a5.176,5.176,0,0,0-.5,3.527c.185,1.2.555,2.373.651,3.579a1.612,1.612,0,0,1-.089.821,2.219,2.219,0,0,1-.591.651,4.6,4.6,0,0,0-.976,1.242,3.076,3.076,0,0,1-.5.784,1.908,1.908,0,0,1-.6.362,7.394,7.394,0,0,1-5.1,0,22.093,22.093,0,0,1-4.643-2.344,3.793,3.793,0,0,1-1.087-.858,3.105,3.105,0,0,1-.525-1.752c-.067-1.338.185-2.684,0-4.015a26.815,26.815,0,0,0-1.161-4.022,12.621,12.621,0,0,1,.3-7.778,5.834,5.834,0,0,1,1.789-2.691c1.863-1.42,4.577-.843,6.736-1.76C276.511,247.888,278.544,247.356,280.03,248.812Z" transform="translate(-255.817 -239.477)" fill="#ffd865" opacity="0.35"/>
        </g>
        <g id="그룹_146" data-name="그룹 146" transform="translate(466.542 127.385)" opacity="0.6">
          <path id="패스_497" data-name="패스 497" d="M764.2,226.737a5,5,0,0,0-1.8,4.4c.584,5.434,2.344,17.8,6.736,24.769q.392.621.813,1.183h23.726s4.835-18,5.176-25.93a5.967,5.967,0,0,0-2.152-4.828c-3.556-2.957-11.9-9.39-16.636-8.961h-.1S778.148,215.306,764.2,226.737Z" transform="translate(-762.372 -217.187)" fill="#d6dbe6"/>
          <path id="패스_498" data-name="패스 498" d="M762.41,231.093c.584,5.434,2.344,17.8,6.736,24.769.946.407,1.908.806,2.869,1.183,5.967,2.336,11.638,3.7,10.721,0a8.406,8.406,0,0,0-.917-2.092c-5.442-9.464-2.958-30.107-1.767-37.634h-.1s-1.8-2.063-15.741,9.368a5,5,0,0,0-1.8,4.407Z" transform="translate(-762.374 -217.174)" fill="none"/>
          <path id="패스_499" data-name="패스 499" d="M762.41,231.093c.584,5.434,2.344,17.8,6.736,24.769.946.407,1.908.806,2.869,1.183,5.967,2.336,11.638,3.7,10.721,0a8.406,8.406,0,0,0-.917-2.092c-5.442-9.464-2.958-30.107-1.767-37.634h-.1s-1.8-2.063-15.741,9.368a5,5,0,0,0-1.8,4.407Z" transform="translate(-762.374 -217.174)" opacity="0.05"/>
          <path id="패스_500" data-name="패스 500" d="M772.43,268.635c0,1.043.887,2,2.388,2.78a14.666,14.666,0,0,0,3.224,1.153,27.357,27.357,0,0,0,6.388.739,25.7,25.7,0,0,0,7.645-1.094,10.759,10.759,0,0,0,2.869-1.346,2.891,2.891,0,0,0,1.479-2.218c0-1.183-1.139-2.262-3.017-3.083q-.458-.2-.969-.377a25.14,25.14,0,0,0-8-1.19,22.592,22.592,0,0,0-9.4,1.76,8.271,8.271,0,0,0-1.065.614A2.957,2.957,0,0,0,772.43,268.635Z" transform="translate(-764.993 -229.377)" fill="#d6dbe6"/>
          <path id="패스_501" data-name="패스 501" d="M772.09,268.635c0,1.043.887,2,2.388,2.78a14.671,14.671,0,0,0,3.224,1.153,27.359,27.359,0,0,0,6.388.739,25.7,25.7,0,0,0,7.66-1.072,10.759,10.759,0,0,0,2.869-1.346,2.891,2.891,0,0,0,1.479-2.218c0-1.183-1.139-2.262-3.017-3.083q-.458-.2-.969-.377A25.138,25.138,0,0,0,784.1,264a22.592,22.592,0,0,0-9.4,1.76,8.266,8.266,0,0,0-1.065.614A2.957,2.957,0,0,0,772.09,268.635Z" transform="translate(-764.904 -229.378)" opacity="0.1"/>
          <path id="패스_502" data-name="패스 502" d="M790.44,269.941a3.1,3.1,0,0,0-.821-3.956,1.848,1.848,0,0,1-.318-1.885s-4.192,2.773-2.056,5.952Z" transform="translate(-768.696 -229.404)" fill="#ffd865"/>
          <path id="패스_503" data-name="패스 503" d="M789.788,271.182a1.4,1.4,0,0,0-.37-1.782.835.835,0,0,1-.141-.85s-1.885,1.25-.924,2.677Z" transform="translate(-769.072 -230.564)" fill="#ffd865"/>
          <path id="패스_504" data-name="패스 504" d="M789.788,271.182a1.4,1.4,0,0,0-.37-1.782.835.835,0,0,1-.141-.85s-1.885,1.25-.924,2.677Z" transform="translate(-769.072 -230.564)" opacity="0.1"/>
          <path id="패스_505" data-name="패스 505" d="M775.66,271.8a14.669,14.669,0,0,0,3.224,1.153c3.423-.791,13.242-3.349,15.379-7.017q-.458-.2-.969-.377C791.926,267.194,786.366,272.739,775.66,271.8Z" transform="translate(-765.835 -229.785)" fill="#565387"/>
          <path id="패스_506" data-name="패스 506" d="M774.51,266.971c1.279,2.314,13.257,4.887,18.137,5.848a10.759,10.759,0,0,0,2.869-1.346,43.5,43.5,0,0,1-19.963-5.124A8.272,8.272,0,0,0,774.51,266.971Z" transform="translate(-765.535 -229.991)" fill="#565387"/>
          <path id="패스_507" data-name="패스 507" d="M790.03,229.5c.739.688.51,1.841.429,2.824a8.428,8.428,0,0,0,1.338,5.22c.621.954,1.479,1.93,1.331,3.054s-1.331,1.885-1.952,2.884a5.176,5.176,0,0,0-.5,3.527c.185,1.2.555,2.373.651,3.579a1.611,1.611,0,0,1-.089.821,2.217,2.217,0,0,1-.591.651,4.6,4.6,0,0,0-.976,1.242,3.077,3.077,0,0,1-.5.784,1.908,1.908,0,0,1-.6.362,7.394,7.394,0,0,1-5.1,0,22.092,22.092,0,0,1-4.643-2.344,3.794,3.794,0,0,1-1.087-.858,3.106,3.106,0,0,1-.525-1.752c-.067-1.338.185-2.684,0-4.015a26.82,26.82,0,0,0-1.161-4.022,12.621,12.621,0,0,1,.3-7.778,5.834,5.834,0,0,1,1.789-2.691c1.863-1.42,4.577-.843,6.736-1.76C786.511,228.578,788.544,228.046,790.03,229.5Z" transform="translate(-765.817 -220.145)" fill="#ffd865" opacity="0.35"/>
        </g>
        <g id="그룹_147" data-name="그룹 147" transform="translate(530.875 -0.04)" opacity="0.6">
          <path id="패스_508" data-name="패스 508" d="M852.545,61.318a8.643,8.643,0,0,0-3.113,7.608c1.013,9.4,4.059,30.795,11.652,42.839q.673,1.072,1.4,2.048h41.042s8.37-31.15,8.924-44.857a10.351,10.351,0,0,0-3.7-8.355c-6.152-5.109-20.591-16.266-28.784-15.527h-.163S876.663,41.547,852.545,61.318Z" transform="translate(-849.383 -44.83)" fill="#d6dbe6"/>
          <path id="패스_509" data-name="패스 509" d="M849.433,68.945c1.013,9.4,4.059,30.795,11.652,42.839,1.634.739,3.3,1.4,4.961,2.048,10.351,4.044,20.133,6.432,18.551,0a14.547,14.547,0,0,0-1.582-3.616c-9.412-16.377-5.057-52.088-3.061-65.064h-.163s-3.12-3.564-27.238,16.207A8.643,8.643,0,0,0,849.433,68.945Z" transform="translate(-849.384 -44.849)" fill="none"/>
          <path id="패스_510" data-name="패스 510" d="M849.433,68.945c1.013,9.4,4.059,30.795,11.652,42.839,1.634.739,3.3,1.4,4.961,2.048,10.351,4.044,20.133,6.432,18.551,0a14.547,14.547,0,0,0-1.582-3.616c-9.412-16.377-5.057-52.088-3.061-65.064h-.163s-3.12-3.564-27.238,16.207A8.643,8.643,0,0,0,849.433,68.945Z" transform="translate(-849.384 -44.849)" opacity="0.05"/>
          <path id="패스_511" data-name="패스 511" d="M866.77,133.808c0,1.8,1.538,3.468,4.133,4.813a25.375,25.375,0,0,0,5.582,2,47.365,47.365,0,0,0,11.091,1.235A44.466,44.466,0,0,0,900.833,140a18.61,18.61,0,0,0,4.954-2.322c1.627-1.146,2.558-2.462,2.558-3.867,0-2.048-1.974-3.911-5.22-5.331q-.784-.348-1.671-.651a43.5,43.5,0,0,0-13.871-2.055c-6.6,0-12.466,1.19-16.266,3.046a14.307,14.307,0,0,0-1.841,1.065C867.739,131.043,866.77,132.381,866.77,133.808Z" transform="translate(-853.914 -65.927)" fill="#d6dbe6"/>
          <path id="패스_512" data-name="패스 512" d="M866.18,133.808c0,1.8,1.538,3.468,4.133,4.813a25.376,25.376,0,0,0,5.582,2,47.365,47.365,0,0,0,11.091,1.235A44.466,44.466,0,0,0,900.243,140a18.61,18.61,0,0,0,4.954-2.322c1.627-1.146,2.558-2.462,2.558-3.867,0-2.048-1.974-3.911-5.22-5.331q-.784-.348-1.671-.651a43.5,43.5,0,0,0-13.871-2.055c-6.6,0-12.466,1.19-16.266,3.046a14.3,14.3,0,0,0-1.841,1.065C867.141,131.043,866.18,132.381,866.18,133.808Z" transform="translate(-853.761 -65.927)" opacity="0.1"/>
          <path id="패스_513" data-name="패스 513" d="M897.91,136.037a5.368,5.368,0,0,0-1.427-6.847s-1.42-1.708-.547-3.261c0,0-7.253,4.791-3.556,10.3Z" transform="translate(-860.315 -65.967)" fill="#ffd865"/>
          <path id="패스_514" data-name="패스 514" d="M896.8,138.212a2.418,2.418,0,0,0-.643-3.083,1.479,1.479,0,0,1-.244-1.479s-3.268,2.159-1.6,4.636Z" transform="translate(-860.969 -67.979)" fill="#ffd865"/>
          <path id="패스_515" data-name="패스 515" d="M896.8,138.212a2.418,2.418,0,0,0-.643-3.083,1.479,1.479,0,0,1-.244-1.479s-3.268,2.159-1.6,4.636Z" transform="translate(-860.969 -67.979)" opacity="0.1"/>
          <path id="패스_516" data-name="패스 516" d="M872.36,139.347a25.376,25.376,0,0,0,5.582,2c5.915-1.375,22.92-5.8,26.617-12.133q-.784-.348-1.671-.651C900.493,131.333,890.874,140.937,872.36,139.347Z" transform="translate(-855.371 -66.653)" fill="#565387"/>
          <path id="패스_517" data-name="패스 517" d="M870.36,130.942c2.218,4,22.92,8.458,31.371,10.122a18.609,18.609,0,0,0,4.954-2.322A75.267,75.267,0,0,1,872.2,129.87a14.293,14.293,0,0,0-1.841,1.072Z" transform="translate(-854.85 -66.994)" fill="#565387"/>
          <path id="패스_518" data-name="패스 518" d="M897.209,66.124c1.22,1.2.88,3.179.739,4.88a14.581,14.581,0,0,0,2.314,9.028c1.079,1.649,2.566,3.335,2.3,5.286s-2.3,3.261-3.379,4.983a9.11,9.11,0,0,0-.85,6.107c.318,2.078.961,4.1,1.124,6.2a2.8,2.8,0,0,1-.155,1.42,3.853,3.853,0,0,1-1.028,1.124,7.955,7.955,0,0,0-1.693,2.144,5.315,5.315,0,0,1-.858,1.36,3.3,3.3,0,0,1-1.035.628,12.848,12.848,0,0,1-8.828.044,38.224,38.224,0,0,1-8.029-4.052,6.565,6.565,0,0,1-1.878-1.479,5.375,5.375,0,0,1-.9-3.039c-.118-2.314.318-4.643.044-6.95s-1.346-4.628-2-6.95a21.841,21.841,0,0,1,.518-13.456,10.085,10.085,0,0,1,3.091-4.658c3.224-2.455,7.911-1.479,11.645-3.039C891.139,64.519,894.651,63.6,897.209,66.124Z" transform="translate(-855.348 -49.961)" fill="#ffd865" opacity="0.35"/>
        </g>
        <path id="패스_519" data-name="패스 519" d="M569.7,139.1a14.521,14.521,0,0,0-5.235,12.784c1.7,15.8,6.81,51.756,19.571,71.963q1.139,1.8,2.359,3.431h68.946s14.048-52.3,14.994-75.349a17.338,17.338,0,0,0-6.255-14.048c-10.351-8.584-34.588-27.29-48.355-26.048h-.281S610.205,105.9,569.7,139.1Z" transform="translate(-244.226 -62.226)" fill="#d6dbe6"/>
        <path id="패스_520" data-name="패스 520" d="M564.458,151.891c1.7,15.8,6.81,51.756,19.571,71.963,2.743,1.183,5.545,2.344,8.325,3.431,17.331,6.795,33.826,10.8,31.157,0a24.438,24.438,0,0,0-2.654-6.07c-15.815-27.5-8.5-87.489-5.176-109.352H615.4s-5.242-5.989-45.752,27.216A14.521,14.521,0,0,0,564.458,151.891Z" transform="translate(-244.224 -62.231)" fill="none"/>
        <path id="패스_521" data-name="패스 521" d="M564.458,151.891c1.7,15.8,6.81,51.756,19.571,71.963,2.743,1.183,5.545,2.344,8.325,3.431,17.331,6.795,33.826,10.8,31.157,0a24.438,24.438,0,0,0-2.654-6.07c-15.815-27.5-8.5-87.489-5.176-109.352H615.4s-5.242-5.989-45.752,27.216A14.521,14.521,0,0,0,564.458,151.891Z" transform="translate(-244.224 -62.231)" opacity="0.05"/>
        <path id="패스_522" data-name="패스 522" d="M593.6,260.868c0,3.031,2.58,5.834,6.935,8.081a42.623,42.623,0,0,0,9.375,3.349,79.56,79.56,0,0,0,18.573,2.07,74.78,74.78,0,0,0,22.262-3.105,31.262,31.262,0,0,0,8.325-3.9c2.736-1.93,4.3-4.14,4.3-6.5,0-3.431-3.312-6.573-8.769-8.954q-1.323-.577-2.81-1.094a72.971,72.971,0,0,0-23.3-3.453c-11.091,0-20.946,2-27.357,5.116a24.014,24.014,0,0,0-3.1,1.782C595.212,256.218,593.6,258.473,593.6,260.868Z" transform="translate(-251.842 -97.656)" fill="#d6dbe6"/>
        <path id="패스_523" data-name="패스 523" d="M592.6,260.868c0,3.031,2.58,5.834,6.935,8.081a42.624,42.624,0,0,0,9.375,3.349,79.561,79.561,0,0,0,18.573,2.07,74.781,74.781,0,0,0,22.262-3.105,31.262,31.262,0,0,0,8.325-3.9c2.736-1.93,4.3-4.14,4.3-6.5,0-3.431-3.312-6.573-8.769-8.954q-1.323-.577-2.81-1.094a72.971,72.971,0,0,0-23.3-3.453c-11.091,0-20.946,2-27.357,5.116a24.015,24.015,0,0,0-3.1,1.782C594.212,256.218,592.6,258.473,592.6,260.868Z" transform="translate(-251.582 -97.656)" opacity="0.1"/>
        <path id="패스_524" data-name="패스 524" d="M645.912,264.616s3.741-6.181-2.4-11.5c0,0-2.381-2.869-.924-5.471,0,0-12.185,8.044-5.974,17.3Z" transform="translate(-262.595 -97.729)" fill="#ffd865"/>
        <path id="패스_525" data-name="패스 525" d="M644.035,268.308a4.059,4.059,0,0,0-1.079-5.176,2.414,2.414,0,0,1-.414-2.462s-5.486,3.623-2.691,7.786Z" transform="translate(-263.69 -101.125)" fill="#ffd865"/>
        <path id="패스_526" data-name="패스 526" d="M644.035,268.308a4.059,4.059,0,0,0-1.079-5.176,2.414,2.414,0,0,1-.414-2.462s-5.486,3.623-2.691,7.786Z" transform="translate(-263.69 -101.125)" opacity="0.1"/>
        <path id="패스_527" data-name="패스 527" d="M603,270.169a42.627,42.627,0,0,0,9.375,3.349c9.945-2.307,38.447-9.737,44.68-20.384q-1.323-.577-2.81-1.094C650.246,256.713,634.053,272.838,603,270.169Z" transform="translate(-254.292 -98.876)" fill="#565387"/>
        <path id="패스_528" data-name="패스 528" d="M599.62,256.072c3.7,6.721,38.514,14.2,52.695,17.005a31.26,31.26,0,0,0,8.325-3.9,126.432,126.432,0,0,1-57.922-14.884A24.023,24.023,0,0,0,599.62,256.072Z" transform="translate(-253.411 -99.462)" fill="#565387"/>
        <path id="패스_529" data-name="패스 529" d="M644.768,147.178c2.048,2,1.479,5.346,1.257,8.2a24.488,24.488,0,0,0,3.889,15.164c1.811,2.773,4.318,5.6,3.859,8.872s-3.867,5.479-5.678,8.377-1.959,6.773-1.434,10.262,1.612,6.891,1.893,10.4a4.687,4.687,0,0,1-.266,2.388,6.469,6.469,0,0,1-1.693,1.893,13.362,13.362,0,0,0-2.847,3.6,8.93,8.93,0,0,1-1.442,2.285,5.538,5.538,0,0,1-1.745,1.057c-4.651,1.959-10.018,1.612-14.832.067s-9.176-4.185-13.486-6.81a11.023,11.023,0,0,1-3.157-2.5,9.02,9.02,0,0,1-1.523-5.1c-.2-3.889.54-7.808.074-11.675-.488-4.03-2.255-7.778-3.372-11.682a36.688,36.688,0,0,1,.872-22.6c1.1-2.957,2.669-5.915,5.176-7.815,5.42-4.126,13.309-2.462,19.564-5.109C634.542,144.487,640.435,142.934,644.768,147.178Z" transform="translate(-254.264 -70.841)" fill="#ffd865" opacity="0.35"/>
        <path id="패스_530" data-name="패스 530" d="M588.5,669.393c4.872,2.758,16.909.68,24.4-1.02a4.532,4.532,0,0,0,2.765-6.965l-2.033-3.009-.784-.118h.7l7.63-32.732c4.436-14.787,1.967-26.085,0-34.943-.939-4.237,1.272-13.649,3.83-22.314a44.167,44.167,0,0,0,11.919,3.616c2.174.244,4.569.481,7.076.665,2.691,7.076,5.028,13.309,5.227,14.1,3.172,12.688,18.7,18.7,18.7,18.7l39.615,45.035s-2.462,6.4-7.394,8.37c0,0-12.3,2.957-4.436,5.915,5.257,1.974,16.88-1.982,24.022-4.828a4.5,4.5,0,0,0,1.619-7.253l-2.506-2.684h-.229l-12.325-26.344c-1.479-7.394-15.253-28.052-23.66-31.992-4.88-2.292-9.079-12.946-11.749-21.442a22.662,22.662,0,0,0,9.774-6.617c9.353-11.32,13.309-4.924,31.5-9.353,23.1-5.619,14.225-21.442,11.512-21.508-12.325-5.649-44.362-35.253-47.66-38.284.614-.311.954-.5.954-.5l-1.183.288-.044-.044a43.108,43.108,0,0,0-2.159-6.447,45.1,45.1,0,0,0,4.784,3.608c5.73,3.741,12.924,6.2,19.431,4.074l-.155-.17c.377-.1.739-.2,1.139-.318a25.8,25.8,0,0,1-6.691-15.135,29.951,29.951,0,0,0,9.072-3.068c11.275-5.427,19.394-17.612,18.965-30.233-.163-4.821-1.4-9.715-.288-14.4,1.042-4.347,2.092-6.1,2.906-10.492,2.462-13.309,4.924-10.824,2.706-20.806-1.139-5.124-7.194-7.712-9.9-12.207-3.956-6.573-4.081-14.647-5.176-22.248s-3.815-15.874-10.617-19.416c-9.7-5.057-16.436-17.39-26.122-15.919-.518.081-1.035.141-1.545.192a21.619,21.619,0,0,0-12.044-2.684c-2.477.185-4.917.8-7.394.784a14.787,14.787,0,0,1-7.682-2.218c-.118.288-.214.584-.3.88-.229-.126-.458-.251-.68-.392a11.829,11.829,0,0,0-.739,5.242,19.179,19.179,0,0,0-9.863,6.011c-.555-3.963-.88-6.484-.88-6.484l-.983-48.724s11.32-19.224.5-19.224-10.351,17.227-10.351,17.227l-2.957,37.4c-1.967,13.309,0,22.181,0,22.181,5.094,13.464,8.037,33.39,9.227,42.883C613,395.324,608.837,405.32,609,413.6c-.185,8.51,4.266,15.32,6.75,20.066.606,1.153.887,3.579.909,6.98-.185,28.1-15.919,114.343-15.919,114.343l.163.067-.163.917.821.34c-.939,2.957-1.959,5.915-3.039,8.769-5.412,14.27,0,24.118,0,24.118l5.1,67.733-.421-.067s-4.259,6.225-9.427,7.394C593.8,664.247,581.185,665.252,588.5,669.393Zm70.617-204.687-.044-.044a28.836,28.836,0,0,1-7.335-18.98,35.394,35.394,0,0,1,3.4-14.484,130.121,130.121,0,0,0,3.372-19.238,88.63,88.63,0,0,1,.155,10.706c-.591,14.092-3.194,28.48.458,42.04Z" transform="translate(-249.919 -102.079)" fill="url(#linear-gradient)"/>
        <path id="패스_531" data-name="패스 531" d="M659.371,436.209c4.244,7.179,3.475,20.3-2.418,44.3,0,0-6.736,18.285,6.736,33.678s16.355,28.835,16.355,28.835,42.292,26.2,47.63,38c-7.941-17.56,18.129,7.578-12.029,14.913-17.8,4.333-21.649-1.922-30.787,9.139s-29.826,9.612-42.817,8.177-35.12-16.835-35.12-16.835,24.532-103.43,19.224-113.537c-5.006-9.56-23.009-27.726,12.259-51.253A14.851,14.851,0,0,1,659.371,436.209Z" transform="translate(-255.314 -145.027)" fill="#f0898b"/>
        <path id="패스_532" data-name="패스 532" d="M659.371,436.209c4.244,7.179,3.475,20.3-2.418,44.3,0,0-6.736,18.285,6.736,33.678s16.355,28.835,16.355,28.835,42.565,26.085,47.63,38c-7.46-17.56,18.129,7.578-12.029,14.913-17.8,4.333-21.649-1.922-30.787,9.139s-29.826,9.612-42.817,8.177-35.12-16.835-35.12-16.835,24.532-103.43,19.224-113.537c-5.006-9.56-23.009-27.726,12.259-51.253A14.851,14.851,0,0,1,659.371,436.209Z" transform="translate(-255.314 -145.027)" fill="#ffdf9c"/>
        <path id="패스_533" data-name="패스 533" d="M659.371,436.209c4.244,7.179,3.475,20.3-2.418,44.3,0,0-6.736,18.285,6.736,33.678s16.355,28.835,16.355,28.835,42.565,26.085,47.63,38c-7.46-17.56,18.129,7.578-12.029,14.913-17.8,4.333-21.649-1.922-30.787,9.139s-29.826,9.612-42.817,8.177-35.12-16.835-35.12-16.835,24.532-103.43,19.224-113.537c-5.006-9.56-23.009-27.726,12.259-51.253A14.851,14.851,0,0,1,659.371,436.209Z" transform="translate(-255.314 -145.027)" opacity="0.03"/>
        <path id="패스_534" data-name="패스 534" d="M684.215,658.238s6.255,27.9,14.432,31.748,21.649,24.052,23.09,31.268L734,747.487H722.914l-38.728-44.022s-15.179-5.915-18.285-18.285c-.481-1.922-13.471-35.6-13.471-35.6Z" transform="translate(-267.175 -202.487)" fill="#fec2be"/>
        <path id="패스_535" data-name="패스 535" d="M634.6,643.645s-11.549,30.787-9.612,39.453,4.333,19.726,0,34.159l-7.468,31.985-9.612-.481-5.057-67.1s-5.294-9.612,0-23.571a264.93,264.93,0,0,0,9.109-31.283Z" transform="translate(-253.64 -196.553)" fill="#fec2be"/>
        <path id="패스_536" data-name="패스 536" d="M639.681,393.735s-2.884-29.346-9.612-47.149c0,0-1.922-8.658,0-21.649l2.884-36.562s-.481-16.835,10.1-16.835-.481,18.765-.481,18.765l.961,47.63s6.255,48.591,10.58,53.885Z" transform="translate(-261.125 -103.958)" fill="#fec2be"/>
        <path id="패스_537" data-name="패스 537" d="M639.681,393.735s-2.884-29.346-9.612-47.149c0,0-1.922-8.658,0-21.649l2.884-36.562s-.481-16.835,10.1-16.835-.481,18.765-.481,18.765l.961,47.63s6.255,48.591,10.58,53.885Z" transform="translate(-261.125 -103.958)" opacity="0.05"/>
        <path id="패스_538" data-name="패스 538" d="M645.262,390s1.922,23.09-3.852,30.787c0,0,13.471-7.216,25.013-.961,0,0-7.216-19.726-4.813-28.384Z" transform="translate(-264.303 -134.832)" fill="#fec2be"/>
        <path id="패스_539" data-name="패스 539" d="M659.29,428.4c4.244,7.179,6.366,20.3.473,44.3,0,0-9.612,18.285,3.852,33.678s16.355,28.835,16.355,28.835,35.6,33.2,47.63,38c0,0,5.774,10.58-12.029,14.913s-21.649-1.922-30.787,9.139-29.826,9.612-42.817,8.177-35.357-10.824-35.357-10.824S626.573,485.2,621.286,475.076c-5.006-9.56-18.2-27.726,17.065-51.253A14.823,14.823,0,0,1,659.29,428.4Z" transform="translate(-255.233 -142.992)" fill="#ffdf9c"/>
        <circle id="타원_203" data-name="타원 203" cx="16.355" cy="16.355" r="16.355" transform="translate(373.262 280.639)" fill="#fec2be"/>
        <path id="패스_540" data-name="패스 540" d="M659.627,453.377l3.364,50.514L651.9,557.776s10.1,35.6,0,32.229-10.58-32.717-10.58-32.717L648.056,501s-8.177-42.336-6.736-51.016S659.627,453.377,659.627,453.377Z" transform="translate(-264.235 -149.648)" opacity="0.1"/>
        <path id="패스_541" data-name="패스 541" d="M659.627,452.077l3.364,50.514L651.9,556.476s10.1,35.6,0,32.229-10.58-32.717-10.58-32.717l6.736-56.288s-8.177-42.336-6.736-51.016S659.627,452.077,659.627,452.077Z" transform="translate(-264.235 -149.309)" fill="#fec2be"/>
        <path id="패스_542" data-name="패스 542" d="M663.229,405.929c-6.81,0-13.005-1.945-16.266-7.394-.044-4.251-.3-7.3-.3-7.3l16.355,1.479c-1.035,3.7-.466,6.891.739,12.266C663.407,404.982,663.532,405.929,663.229,405.929Z" transform="translate(-265.672 -135.153)" opacity="0.03"/>
        <circle id="타원_204" data-name="타원 204" cx="18.765" cy="18.765" r="18.765" transform="translate(378.549 233.97)" fill="#fec2be"/>
        <path id="패스_543" data-name="패스 543" d="M637.274,484.64s-1.479,7.216-10.824,7.941" transform="translate(-260.404 -159.499)" opacity="0.03"/>
        <path id="패스_544" data-name="패스 544" d="M695.516,597.31c9.139-11.091,12.991-4.813,30.787-9.139s12.03-14.913,12.03-14.913c-12.03-4.813-47.63-38-47.63-38s-2.884-13.471-16.355-28.835-3.852-33.678-3.852-33.678c5.915-23.992,3.778-37.124-.473-44.3a14.462,14.462,0,0,0-11.142-7.017,14.58,14.58,0,0,1,14.048,7.017c4.244,7.179,6.366,20.3.473,44.3,0,0-9.612,18.285,3.852,33.678s16.355,28.835,16.355,28.835,35.6,33.2,47.63,38c0,0,5.775,10.58-12.03,14.913s-21.649-1.922-30.787,9.139c-6.322,7.652-18.159,9.323-29.161,9.146C679.375,606.293,689.749,604.3,695.516,597.31Z" transform="translate(-268.856 -143.001)" opacity="0.03"/>
        <path id="패스_545" data-name="패스 545" d="M659.4,400.246c.606-1.346,1.9-2.218,2.876-3.335,3.172-3.6,2.625-9,2.81-13.8a37.589,37.589,0,0,1,3.024-13.309,11.3,11.3,0,0,1-3.054-2.218A11.978,11.978,0,0,1,662.6,355.13a14.455,14.455,0,0,0,7.5,2.122c2.425,0,4.813-.584,7.238-.739a21.138,21.138,0,0,1,11.778,2.625c.5-.052,1.005-.111,1.479-.192,9.471-1.434,16.052,10.625,25.53,15.564,6.654,3.468,9.338,11.556,10.351,18.98s1.168,15.32,5.028,21.745c2.647,4.392,8.569,6.928,9.678,11.933,2.166,9.76-.237,7.349-2.64,20.34-.8,4.3-1.826,6.011-2.839,10.255-1.094,4.584.118,9.368.281,14.048.525,15.468-12.081,30.277-27.438,32.222a25.22,25.22,0,0,0,6.654,15.142c-6.359,2.085-13.39-.325-18.994-3.985a45.508,45.508,0,0,1-18.713-25.493c-3.778-13.412-1.176-27.667-.577-41.589s-1.6-29.4-12.185-38.447C661.745,407.115,657.812,403.788,659.4,400.246Z" transform="translate(-268.897 -125.744)" opacity="0.1"/>
        <path id="패스_546" data-name="패스 546" d="M660.7,399.6c.606-1.346,1.9-2.218,2.876-3.335,3.172-3.6,2.625-9,2.81-13.8a37.587,37.587,0,0,1,3.024-13.309,11.3,11.3,0,0,1-3.054-2.218A11.978,11.978,0,0,1,663.9,354.48a14.454,14.454,0,0,0,7.512,2.174c2.425,0,4.813-.584,7.238-.739a21.139,21.139,0,0,1,11.756,2.573c.5-.052,1.005-.111,1.479-.192,9.471-1.434,16.052,10.625,25.53,15.564,6.654,3.468,9.338,11.556,10.351,18.98s1.168,15.32,5.028,21.745c2.647,4.392,8.569,6.928,9.678,11.933,2.166,9.76-.237,7.349-2.64,20.34-.8,4.3-1.826,6.011-2.839,10.255-1.094,4.584.118,9.368.281,14.048.525,15.468-12.081,30.277-27.438,32.222a25.22,25.22,0,0,0,6.573,15.127c-6.359,2.085-13.39-.325-18.994-3.985a45.509,45.509,0,0,1-18.743-25.516c-3.778-13.412-1.176-27.667-.577-41.589s-1.6-29.4-12.185-38.447C663.045,406.465,659.111,403.138,660.7,399.6Z" transform="translate(-269.236 -125.575)" fill="#af637c"/>
        <path id="패스_547" data-name="패스 547" d="M742.822,781.831s-2.4,6.255-7.216,8.177c0,0-12.03,2.884-4.333,5.774,5.176,1.93,16.5-1.937,23.482-4.717a4.436,4.436,0,0,0,1.582-7.091l-2.447-2.625Z" transform="translate(-287.054 -236.831)" fill="#4c4981"/>
        <path id="패스_548" data-name="패스 548" d="M604,790.45s-4.163,6.085-9.213,7.238c0,0-12.333.983-5.176,5.028,4.762,2.691,16.532.665,23.867-1a4.436,4.436,0,0,0,2.7-6.81l-1.989-2.958Z" transform="translate(-250.221 -239.203)" fill="#4c4981"/>
        <path id="패스_549" data-name="패스 549" d="M699.151,575.08s-11.091,6.255-23.571,5.774" transform="translate(-273.209 -183.07)" opacity="0.03"/>
        <path id="패스_550" data-name="패스 550" d="M787.719,808.09a11.774,11.774,0,0,1-3.845-5.8c-.5-2.3.481-5.065,2.684-5.915,2.462-.946,5.1.739,7.1,2.492s4.288,3.7,6.9,3.327a10.507,10.507,0,0,1-3.246-9.834,4.112,4.112,0,0,1,.9-2c1.368-1.479,3.852-.836,5.486.318,5.176,3.7,6.654,10.743,6.691,17.116.525-2.3.081-4.695.1-7.054s.658-4.969,2.647-6.24a7.977,7.977,0,0,1,4.074-.939c2.344-.089,4.954.148,6.551,1.863,1.989,2.129,1.479,5.7-.259,8.044s-4.362,3.815-6.78,5.434a15.04,15.04,0,0,0-4.843,4.621,4.582,4.582,0,0,0-.362.828H796.8a40.93,40.93,0,0,1-9.079-6.27Z" transform="translate(-301.4 -238.957)" fill="#0f4c81"/>
        <path id="패스_551" data-name="패스 551" d="M948.937,655.3s54.957,40.007-56.606,84.621c0,0-19.763-45.767,9.368-79.164a35.238,35.238,0,0,1,46.41-6.033Z" transform="translate(-327.994 -202.239)" fill="#0f4c81"/>
        <path id="패스_552" data-name="패스 552" d="M950.64,656.57s-52.917,33.671-56,85.412" transform="translate(-330.303 -204.309)" fill="none" stroke="#535461" stroke-miterlimit="10" stroke-width="1"/>
        <path id="패스_553" data-name="패스 553" d="M888.448,694.3s18.24-61.929-3.423-107.511a97.794,97.794,0,0,1-7.911-61.367A164.5,164.5,0,0,1,885.8,496.59" transform="translate(-325.25 -162.613)" fill="none" stroke="#535461" stroke-miterlimit="10" stroke-width="2"/>
        <path id="패스_554" data-name="패스 554" d="M871.29,452.967c0,7.593,13.745,29.575,13.745,29.575s13.745-22.011,13.745-29.575a13.745,13.745,0,0,0-27.482,0Z" transform="translate(-324.217 -147.744)" fill="#0f4c81"/>
        <path id="패스_555" data-name="패스 555" d="M839.856,507.181c4.126,6.373,27.623,17.375,27.623,17.375s-.429-25.944-4.555-32.318a13.745,13.745,0,0,0-23.068,14.935Z" transform="translate(-315.497 -159.918)" fill="#0f4c81"/>
        <path id="패스_556" data-name="패스 556" d="M839.243,602.559c6.78,3.416,32.613,1.057,32.613,1.057s-13.464-22.181-20.244-25.6a13.743,13.743,0,1,0-12.378,24.542Z" transform="translate(-313.893 -183.451)" fill="#0f4c81"/>
        <path id="패스_557" data-name="패스 557" d="M857.516,676.259c6.1,4.51,31.97,6.551,31.97,6.551s-9.523-24.133-15.623-28.651a13.745,13.745,0,1,0-16.348,22.1Z" transform="translate(-319.175 -202.978)" fill="#0f4c81"/>
        <path id="패스_558" data-name="패스 558" d="M906.139,531.729c-5.442,5.286-30.809,10.765-30.809,10.765s6.211-25.19,11.652-30.484a13.746,13.746,0,0,1,19.157,19.719Z" transform="translate(-325.27 -165.619)" fill="#0f4c81"/>
        <path id="패스_559" data-name="패스 559" d="M924.924,616.775c-6.78,3.416-32.613,1.057-32.613,1.057s13.464-22.181,20.244-25.6a13.745,13.745,0,1,1,12.37,24.54Z" transform="translate(-329.696 -187.116)" fill="#0f4c81"/>
        <path id="패스_560" data-name="패스 560" d="M932.6,703.439c-6.1,4.51-31.97,6.551-31.97,6.551s9.523-24.133,15.623-28.651a13.745,13.745,0,1,1,16.348,22.1Z" transform="translate(-331.864 -210.062)" fill="#0f4c81"/>
        <path id="패스_561" data-name="패스 561" d="M871.29,452.967c0,7.593,13.745,29.575,13.745,29.575s13.745-22.011,13.745-29.575a13.745,13.745,0,0,0-27.482,0Z" transform="translate(-324.217 -147.744)" opacity="0.25"/>
        <path id="패스_562" data-name="패스 562" d="M839.856,507.181c4.126,6.373,27.623,17.375,27.623,17.375s-.429-25.944-4.555-32.318a13.745,13.745,0,0,0-23.068,14.935Z" transform="translate(-315.497 -159.918)" opacity="0.25"/>
        <path id="패스_563" data-name="패스 563" d="M839.243,602.559c6.78,3.416,32.613,1.057,32.613,1.057s-13.464-22.181-20.244-25.6a13.743,13.743,0,1,0-12.378,24.542Z" transform="translate(-313.893 -183.451)" opacity="0.25"/>
        <path id="패스_564" data-name="패스 564" d="M857.516,676.259c6.1,4.51,31.97,6.551,31.97,6.551s-9.523-24.133-15.623-28.651a13.745,13.745,0,1,0-16.348,22.1Z" transform="translate(-319.175 -202.978)" opacity="0.25"/>
        <path id="패스_565" data-name="패스 565" d="M906.139,531.729c-5.442,5.286-30.809,10.765-30.809,10.765s6.211-25.19,11.652-30.484a13.746,13.746,0,0,1,19.157,19.719Z" transform="translate(-325.27 -165.619)" opacity="0.25"/>
        <path id="패스_566" data-name="패스 566" d="M924.924,616.775c-6.78,3.416-32.613,1.057-32.613,1.057s13.464-22.181,20.244-25.6a13.745,13.745,0,1,1,12.37,24.54Z" transform="translate(-329.696 -187.116)" opacity="0.25"/>
        <path id="패스_567" data-name="패스 567" d="M932.6,703.439c-6.1,4.51-31.97,6.551-31.97,6.551s9.523-24.133,15.623-28.651a13.745,13.745,0,1,1,16.348,22.1Z" transform="translate(-331.864 -210.062)" opacity="0.25"/>
        <path id="패스_443" data-name="패스 443" d="M784.446,325.193c-23.527,29.915-14.388,73.619.562,108.613,5.013,11.719,10.669,24.089,8.562,36.658-2.58,15.364-16.266,26.617-30.7,32.532a91.379,91.379,0,0,1-81.781-6.736c-20.843-12.969-35.771-34.055-56.968-46.432-35.49-20.7-80.635-12.887-119.156,1.375-27.253,10.092-57.05,23.224-84.133,12.673-19.053-7.394-32.229-25.486-39.408-44.636-3.468-9.249-5.982-19.224-12.569-26.617-3.933-4.355-9.065-7.453-14.329-10.055C306.467,358.753,245.839,371.478,199.2,345.1c-31.5-17.834-51.674-51.482-60.628-86.565s-7.889-71.874-5.619-108c1.612-25.678,4.5-53.087,20.909-72.909C171.207,56.743,201,48.951,227.953,52.936s51.327,18.188,72.791,34.913c26.832,20.9,51.711,46.935,84.658,55.408,22.432,5.767,46.033,2.61,69.175,1.523,38.684-1.826,77.375,2.218,115.844,6.654,36.828,4.259,73.937,8.946,109,20.924,24.828,8.481,44.732,23.867,68.177,34.617,15.283,7.009,31.948,8.946,46.41,17.871,17.826,10.994,34.159,30.122,29.575,52.5C819.233,298.642,796.941,309.282,784.446,325.193Z" transform="translate(-131.37 -46.721)" fill="#0f4c81" opacity="0.1"/>
      </g>
      <g id="마스크_그룹_2" data-name="마스크 그룹 2" clip-path="url(#clip-path)">
        <path id="패스_938" data-name="패스 938" d="M.086,0c-.194,188.255,0,154.172,0,205.563,0,20.094,6.141,26.593,25.446,29.684,5.751.92-2.211-.354,0,0,7.378,1.181,245.128.654,281.528.654h0" transform="translate(-7183.541 -2291.191) rotate(90)" fill="none" stroke="#b1b1b1" stroke-width="0.5"/>
      </g>
      <g id="그룹_224" data-name="그룹 224" transform="translate(-7101.699 -2388.499)">
        <path id="패스_806" data-name="패스 806" d="M180.166,594.86s17.6-8.078,11.419-13.68S180.166,594.86,180.166,594.86Z" transform="translate(-55.8 -511.998)" fill="#e6e6e6"/>
        <path id="패스_807" data-name="패스 807" d="M250.624,549.808s8.091-26.5-3.823-25.233S250.624,549.808,250.624,549.808Z" transform="translate(-125.952 -465.062)" fill="#e6e6e6"/>
        <path id="패스_808" data-name="패스 808" d="M232.157,671.266l-.34,4.433-.005.077a20.3,20.3,0,0,1-.105,2.073c-.461,4.522-2.442,6.582-4.757,6.582s-4.21-2.061-4.671-6.582a20.3,20.3,0,0,1-.105-2.073l0-.062V675.7l-.341-4.433Z" transform="translate(-101.586 -588.87)" fill="#e6e6e6"/>
        <path id="패스_809" data-name="패스 809" d="M224,699.637v.015l0,.062a20.3,20.3,0,0,0,.105,2.073h9.428a20.3,20.3,0,0,0,.105-2.073l.005-.077Z" transform="translate(-103.411 -612.808)" fill="#fff"/>
        <path id="패스_810" data-name="패스 810" d="M931,630.134s13.628-6.254,8.841-10.591S931,630.134,931,630.134Z" transform="translate(-921.444 -544.562)" fill="#e6e6e6"/>
        <path id="패스_811" data-name="패스 811" d="M985.55,595.255s6.264-20.517-2.96-19.536S985.55,595.255,985.55,595.255Z" transform="translate(-975.757 -508.223)" fill="#e6e6e6"/>
        <path id="패스_812" data-name="패스 812" d="M971.252,689.289l-.263,3.432,0,.059a15.711,15.711,0,0,1-.081,1.6c-.357,3.5-1.891,5.1-3.683,5.1s-3.259-1.6-3.616-5.1a15.728,15.728,0,0,1-.082-1.6l0-.048v-.011l-.264-3.432Z" transform="translate(-956.892 -604.077)" fill="#e6e6e6"/>
        <path id="패스_813" data-name="패스 813" d="M964.934,711.255v.011l0,.048a15.746,15.746,0,0,0,.081,1.6h7.3a15.693,15.693,0,0,0,.081-1.6l0-.059Z" transform="translate(-958.305 -622.611)" fill="#fff"/>
        <path id="패스_814" data-name="패스 814" d="M441.024,293.955v-6.029h.94v6.029a1.253,1.253,0,1,1-.94,0Z" transform="translate(-346.41 -265.426)" fill="#e6e6e6"/>
        <path id="패스_815" data-name="패스 815" d="M336.04,295.738h6.426V217.926h2.508v77.812H351.4a5.79,5.79,0,0,1,5.8,5.781H330.24A5.79,5.79,0,0,1,336.04,295.738Z" transform="translate(-243.621 -206.364)" fill="#e6e6e6"/>
        <path id="패스_816" data-name="패스 816" d="M357.257,167.051H330.323l1.647-20.522a2.849,2.849,0,0,1,2.828-2.6h17.982a2.849,2.849,0,0,1,2.829,2.6Z" transform="translate(-243.691 -143.926)" fill="#0f4c81"/>
        <path id="패스_817" data-name="패스 817" d="M552.1,522.3h0a1.938,1.938,0,0,1,2.235,1.615l.758,4.961-2.58.682-1.89-4.622A1.932,1.932,0,0,1,552.1,522.3Z" transform="translate(-476.04 -463.161)" fill="#a0616a"/>
        <path id="패스_818" data-name="패스 818" d="M455.1,556.422c-1.432,5.672-.816,10.86,4.516,14.934,6.395-1.757,10.648-6,13.243-12.159a3.073,3.073,0,0,0-1.779-4.077h0a3.09,3.09,0,0,0-3.395.872l-6.275,7.219-2.944-7.279Z" transform="translate(-378.985 -490.712)" fill="#0f4c81"/>
        <path id="패스_819" data-name="패스 819" d="M714.557,711.058c5.839-.309,9.466-2.308,10.345-6.406l-.94-1.719-10.767,4.89a1.5,1.5,0,0,0,.106,2.776Z" transform="translate(-671.209 -615.589)" fill="#e6e6e6"/>
        <path id="패스_820" data-name="패스 820" d="M666.14,704.349c3.034-.092,5.951-.063,8.716.123a1.845,1.845,0,0,0,1.967-1.69l.166-2.068,2.351-3.75-2.038-2.031a33.66,33.66,0,0,1-11.64,7.953.8.8,0,0,0,.478,1.463Z" transform="translate(-618.28 -608.839)" fill="#e6e6e6"/>
        <path id="패스_821" data-name="패스 821" d="M485.038,617.456c3.874,6.91,7.684,11.569,12.7,14.062,6.166,2.029,10.672-.659,14.185-6.172l-10.188-6.719-1.489,1.484-13.495-10.237a1.727,1.727,0,0,0-2.424.054l-11.511,14.09,1.411,2.344Z" transform="translate(-420.687 -536.674)" fill="#2f2e41"/>
        <path id="패스_822" data-name="패스 822" d="M476.766,512.476l5.329-8.125-1.254-2.344-7.053,7.344Z" transform="translate(-415.863 -423.569)" fill="#2f2e41"/>
        <ellipse id="타원_211" data-name="타원 211" cx="5.329" cy="5.312" rx="5.329" ry="5.312" transform="translate(86.295 52.344)" fill="#a0616a"/>
        <path id="패스_823" data-name="패스 823" d="M441.312,539.652l5.956-2.031a7.356,7.356,0,0,1-1.1-4.687h-4.859A25.407,25.407,0,0,1,441.312,539.652Z" transform="translate(-351.099 -472.151)" fill="#a0616a"/>
        <path id="패스_824" data-name="패스 824" d="M419.161,573.276c.893.365.958,1.55,1.8,1.953,4.081,1.947,8.4,3.526,11.364,6.328,6.927-4.689,13.347-19.253,5.016-25.625-2.844,1.659-5.384,2.846-5.329,0Z" transform="translate(-341.643 -491.558)" fill="#0f4c81"/>
        <path id="패스_825" data-name="패스 825" d="M427.144,592.075l2.9-1.016,5.721,4.453,2.565-9.2c.178-.638.466-.315.88.129a3.084,3.084,0,0,1,5.173,2.118c.305,6.676-1.714,12.324-6.736,16.644-6.569-1.4-9.356-5.826-10.5-11.562l.31-.206Q427.283,592.766,427.144,592.075Z" transform="translate(-346.021 -516.606)" opacity="0.2"/>
        <path id="패스_826" data-name="패스 826" d="M430.567,467.4c-1.758.4-3.759.968-3.871,1.495a4.194,4.194,0,0,0-3.452,3.2.994.994,0,0,0,1,1.152,10.372,10.372,0,0,0,3.434-.512c2.832,1.819,3.307,6.55,2.07,9.77l1.946-.178,2.013-5.875.514,5.644,4.441-.585-.572-7.2a10.7,10.7,0,0,0-1.689-4.755,4.056,4.056,0,0,0-.318-.41A5.655,5.655,0,0,0,430.567,467.4Z" transform="translate(-339.66 -416.732)" fill="#2f2e41"/>
        <path id="패스_827" data-name="패스 827" d="M392.478,390.529l-4.877,5.716-7.316-8.607,4.943-5.979Z" transform="translate(-311.59 -322.025)" fill="#3f3d56"/>
        <path id="패스_828" data-name="패스 828" d="M572.663,536.5l5.8-4.731c-.33-.788-1.911-.526-1.911-.526l-4.54,4.588a2.478,2.478,0,0,0-.4.536h0Z" transform="translate(-502.716 -470.692)" fill="#f2f2f2"/>
        <path id="패스_829" data-name="패스 829" d="M522.59,535.336l6.591-5.125,7.316,11.038-6.888,4.632a1.544,1.544,0,0,1-1.318-.2l-6.723-10.25Z" transform="translate(-452.907 -469.855)" fill="#3f3d56"/>
        <path id="패스_910" data-name="패스 910" d="M.112,5.194H.219L.226,0H.12Z" transform="translate(71.362 65.165) rotate(-125.701)" fill="#6c63ff"/>
        <path id="패스_911" data-name="패스 911" d="M.007.328,10.021.313V.207L.007.221Z" transform="matrix(-0.552, -0.834, 0.834, -0.552, 76.444, 74.64)" fill="#6c63ff"/>
        <path id="패스_912" data-name="패스 912" d="M.121,5.562H.228L.236.005H.129Z" transform="translate(77.434 74.896) rotate(-126.344)" fill="#6c63ff"/>
        <path id="패스_913" data-name="패스 913" d="M.007.332,10.024.318V.211L.007.226Z" transform="matrix(-0.571, -0.821, 0.821, -0.571, 81.717, 70.509)" fill="#6c63ff"/>
        <path id="패스_914" data-name="패스 914" d="M.16,7.074H.225L.236.005H.171Z" transform="matrix(-0.676, -0.737, 0.737, -0.676, 69.421, 65.438)" fill="#b3b3b3"/>
        <path id="패스_915" data-name="패스 915" d="M.164,7.266H.229L.241.005H.175Z" transform="translate(69.619 65.51) rotate(-131.439)" fill="#b3b3b3"/>
        <path id="패스_916" data-name="패스 916" d="M.164,7.362H.23L.242.005H.176Z" transform="matrix(-0.64, -0.768, 0.768, -0.64, 69.749, 65.516)" fill="#b3b3b3"/>
        <path id="패스_830" data-name="패스 830" d="M521.144,591.224h0a1.943,1.943,0,0,1,2.714.5l2.818,4.158-2.038,1.719-3.7-3.368a1.929,1.929,0,0,1,.2-3.013Z" transform="translate(-442.889 -521.043)" fill="#a0616a"/>
        <path id="패스_831" data-name="패스 831" d="M427.144,587.639c1.145,5.736,3.933,10.16,10.5,11.562,5.022-4.32,7.041-9.968,6.736-16.644a3.082,3.082,0,0,0-3.361-2.923h0a3.081,3.081,0,0,0-2.692,2.239l-2.565,9.2-5.79-5.319Z" transform="translate(-346.021 -511.545)" fill="#0f4c81"/>
        <path id="패스_833" data-name="패스 833" d="M638.5,235.433a.313.313,0,0,1,.313.313V260.12a.313.313,0,0,1-.313.313H618.126a.313.313,0,0,1-.313-.312V235.745a.313.313,0,0,1,.313-.312Z" transform="translate(-570.311 -221.135)" fill="#e6e6e6"/>
        <path id="패스_834" data-name="패스 834" d="M649.457,271.089H633.313V250.933h16.144Z" transform="translate(-583.381 -234.213)" fill="#fff"/>
        <path id="패스_835" data-name="패스 835" d="M849.836,276.433a.187.187,0,0,1,.187.187v12.127a.187.187,0,0,1-.187.187h-14.6a.187.187,0,0,1-.187-.187V276.62a.187.187,0,0,1,.187-.187Z" transform="translate(-815.568 -255.729)" fill="#e6e6e6"/>
        <path id="패스_836" data-name="패스 836" d="M856.376,285.687v9.608H844.3v-9.608Z" transform="translate(-823.372 -263.537)" fill="#fff"/>
        <path id="패스_837" data-name="패스 837" d="M662.4,211.417h5.7a.779.779,0,0,0,.679-1.172l-2.851-4.922-.007-.012a.775.775,0,0,0-.594-.375h0q-.037,0-.074,0a.776.776,0,0,0-.679.391l-2.851,4.922a.781.781,0,0,0,.679,1.172Zm5.858-.782a.161.161,0,0,1-.022.079.154.154,0,0,1-.136.078h-5.7a.154.154,0,0,1-.136-.078.162.162,0,0,1-.022-.079.155.155,0,0,1,.022-.077l2.851-4.922a.157.157,0,0,1,.271,0l2.851,4.922A.152.152,0,0,1,668.26,210.635Z" transform="translate(-607.249 -195.401)" fill="#e6e6e6"/>
        <ellipse id="타원_212" data-name="타원 212" cx="0.47" cy="0.469" rx="0.47" ry="0.469" transform="translate(57.533 10.079)" fill="#e6e6e6"/>
        <path id="패스_838" data-name="패스 838" d="M870.662,259.949h3.091a.423.423,0,0,0,.368-.635l-1.545-2.668,0-.007a.42.42,0,0,0-.322-.2h0l-.04,0a.421.421,0,0,0-.368.212l-1.546,2.668a.424.424,0,0,0,.368.635Zm3.176-.424a.085.085,0,0,1-.012.043.083.083,0,0,1-.074.042h-3.091a.084.084,0,0,1-.074-.042.088.088,0,0,1-.012-.043.084.084,0,0,1,.012-.042l1.546-2.668a.085.085,0,0,1,.147,0l1.545,2.668A.082.082,0,0,1,873.838,259.525Z" transform="translate(-845.238 -238.854)" fill="#e6e6e6"/>
        <ellipse id="타원_213" data-name="타원 213" cx="0.255" cy="0.254" rx="0.255" ry="0.254" transform="translate(26.714 17.875)" fill="#e6e6e6"/>
        <path id="패스_839" data-name="패스 839" d="M649.087,314.7a4.232,4.232,0,0,0-5.811-2.027c-1.223.647-2.2,1.665-3.443,2.284a8.829,8.829,0,0,1-3.885.912,8.717,8.717,0,0,1-4.356-1.127.235.235,0,0,1,.237-.4,8.384,8.384,0,0,0,7.9.145c1.246-.651,2.234-1.7,3.5-2.314a4.54,4.54,0,0,1,3.484-.195,4.672,4.672,0,0,1,2.819,2.6c.114.279-.341.4-.453.125Z" transform="translate(-583.196 -285.499)" fill="#e6e6e6"/>
        <path id="패스_840" data-name="패스 840" d="M647.881,350.786a17.955,17.955,0,0,0-7.922.027c-2.315.535-4.7,1.5-7.09.78a4.309,4.309,0,0,1-2.591-1.949c-.147-.264.259-.5.406-.237,1.031,1.859,3.447,2.173,5.355,1.868,1.275-.2,2.5-.612,3.759-.9a18.375,18.375,0,0,1,8.208-.036C648.3,350.4,648.177,350.852,647.881,350.786Z" transform="translate(-581.619 -317.204)" fill="#e6e6e6"/>
        <path id="패스_841" data-name="패스 841" d="M646.75,287.855a18.652,18.652,0,0,0-7.53.267c-2.3.563-4.555,1.848-6.99,1.626a4.509,4.509,0,0,1-3.01-1.376c-.2-.225.131-.558.333-.331a3.982,3.982,0,0,0,2.589,1.23,8.252,8.252,0,0,0,3.3-.443c1.186-.366,2.338-.829,3.544-1.131a19.1,19.1,0,0,1,7.886-.293C647.172,287.453,647.046,287.905,646.75,287.855Z" transform="translate(-580.318 -264.75)" fill="#e6e6e6"/>
        <path id="패스_842" data-name="패스 842" d="M860.07,282.505a8.163,8.163,0,0,0-2.151,4,8.052,8.052,0,0,0,1.75,6.853c.195.229-.136.562-.333.331a8.644,8.644,0,0,1-1.99-4.48,8.529,8.529,0,0,1,2.391-7.034C859.95,281.958,860.282,282.29,860.07,282.505Z" transform="translate(-829.168 -260.514)" fill="#e6e6e6"/>
        <path id="패스_843" data-name="패스 843" d="M889.6,278.032a6.035,6.035,0,0,1,2.361,4.513,7.393,7.393,0,0,1-1.71,5.019,9.78,9.78,0,0,1-2.327,2.094c-.254.166-.49-.24-.237-.4a8.653,8.653,0,0,0,3.326-3.874,6.25,6.25,0,0,0,.014-4.8,5.133,5.133,0,0,0-1.664-2.141c-.241-.177-.007-.583.237-.4Z" transform="translate(-865.753 -257.041)" fill="#e6e6e6"/>
        <ellipse id="타원_214" data-name="타원 214" cx="2.194" cy="2.187" rx="2.194" ry="2.187" transform="translate(54.712 21.329)" fill="#e6e6e6"/>
      </g>
    </g>
  </g>
</svg>
