<svg id="그룹_217" data-name="그룹 217" xmlns="http://www.w3.org/2000/svg" xmlns:xlink="http://www.w3.org/1999/xlink" width="1920" height="1079" viewBox="0 0 1920 1079">
  <defs>
    <clipPath id="clip-path">
      <rect id="사각형_131" data-name="사각형 131" width="1920" height="1079" fill="#fff" stroke="#707070" stroke-width="1"/>
    </clipPath>
  </defs>
  <g id="마스크_그룹_1" data-name="마스크 그룹 1" clip-path="url(#clip-path)">
    <path id="패스_62" data-name="패스 62" d="M613.271,295.237c28.454-19.19-28.454-19.19,0,0l580.048,859.956c32.046,21.612,18.294-28.511,5.474,8.115l1.758-3.944c-11.59,33.113,48.329,22.765-4.2-6.219-1.3-.717,3.405,10.164,2.437,10.164L469.744,1652.3c-8.377,0,16.469-10.846,0,0-35.07,23.1-86.741,56.066-119.383,78.386-2.016,1.379-4.632,3.256-6.453,4.353-6.69,4.031-9.081,6.111-15.49,10.448-2.44,1.653-9.274,6.31-13.665,9.217-1.731,1.149-2.674,2.989-3.009,2.03L16.863,728.149a85.383,85.383,0,0,1,32.668-98.957L415.046,312.174Z" transform="translate(1652.178 -550.405) rotate(34)" fill="#1b4971"/>
  </g>
  <g id="그룹_162" data-name="그룹 162">
    <g id="그룹_161" data-name="그룹 161" transform="translate(-579.954 47.354) rotate(-56)">
      <path id="패스_802" data-name="패스 802" d="M367.439,85.873l-13.929,16.9L374.124,127.1l13.743-16.157Z" transform="translate(171.368 1877.6)" opacity="0.1"/>
      <path id="패스_803" data-name="패스 803" d="M439.739,284.323h0a7,7,0,0,1,1.136-1.516l12.793-12.969s4.457-.743,5.386,1.486L442.71,284.694Z" transform="translate(85.696 1696.236)" fill="#f2f2f2"/>
      <path id="패스_804" data-name="패스 804" d="M434.805,281.156l18.943,28.971a4.34,4.34,0,0,0,3.714.557l19.407-13.093-20.614-31.2-18.571,14.486Z" transform="translate(89.98 1699.124)" fill="#0f4c81"/>
      <rect id="사각형_95" data-name="사각형 95" width="14.637" height="0.301" transform="matrix(0.812, -0.584, 0.584, 0.812, 532.032, 1978.578)" fill="#3f3d56"/>
      <rect id="사각형_96" data-name="사각형 96" width="0.301" height="28.278" transform="matrix(0.834, -0.552, 0.552, 0.834, 531.624, 1981.941)" fill="#3f3d56"/>
      <rect id="사각형_97" data-name="사각형 97" width="15.675" height="0.301" transform="translate(549.118 2006.068) rotate(-36.344)" fill="#3f3d56"/>
      <rect id="사각형_98" data-name="사각형 98" width="0.301" height="28.283" transform="translate(545.926 1970.615) rotate(-34.838)" fill="#3f3d56"/>
      <rect id="사각형_99" data-name="사각형 99" width="19.946" height="0.186" transform="translate(526.487 1979.376) rotate(-42.545)" fill="#3f3d56"/>
      <rect id="사각형_100" data-name="사각형 100" width="20.487" height="0.186" transform="translate(527.048 1979.563) rotate(-41.439)" fill="#3f3d56"/>
      <rect id="사각형_101" data-name="사각형 101" width="20.756" height="0.186" transform="matrix(0.768, -0.64, 0.64, 0.768, 527.423, 1979.564)" fill="#3f3d56"/>
    </g>
    <g id="그룹_134" data-name="그룹 134" transform="translate(1021 336)">
      <ellipse id="타원_21" data-name="타원 21" cx="85.564" cy="174.586" rx="85.564" ry="174.586" transform="translate(25.299 121.969)" fill="#07345c"/>
      <path id="패스_266" data-name="패스 266" d="M267.9,378.926c4.268-76,12.868-127.329,12.954-127.838l-1.866-.316c-.086.51-8.7,51.925-12.976,128.019-3.945,70.23-4.9,176.458,12.976,283.694l1.867-.31C263.009,555.12,263.958,449.054,267.9,378.926Z" transform="translate(-157.819 -80.561)" fill="#3f3d56"/>
      <rect id="사각형_70" data-name="사각형 70" width="87.748" height="1.893" transform="translate(109.975 302.556) rotate(-28.157)" fill="#3f3d56"/>
      <rect id="사각형_71" data-name="사각형 71" width="1.893" height="87.748" transform="translate(28.302 283.571) rotate(-61.858)" fill="#3f3d56"/>
      <ellipse id="타원_22" data-name="타원 22" cx="111.005" cy="226.495" rx="111.005" ry="226.495" transform="translate(593.169 0)" fill="#07345c"/>
      <path id="패스_267" data-name="패스 267" d="M928.522,297.046c5.538-98.608,16.7-165.213,16.809-165.875l-1.769-.3c-.112.662-11.285,67.346-16.83,166.046-5.118,91.1-6.352,228.881,16.83,367.972l1.77-.294C922.179,525.676,923.411,388.044,928.522,297.046Z" transform="translate(-225.696 -68.231)" fill="#3f3d56"/>
      <rect id="사각형_72" data-name="사각형 72" width="113.838" height="1.794" transform="translate(703.179 234.574) rotate(-28.157)" fill="#3f3d56"/>
      <rect id="사각형_73" data-name="사각형 73" width="1.794" height="113.838" transform="translate(597.221 209.363) rotate(-61.858)" fill="#3f3d56"/>
      <ellipse id="타원_23" data-name="타원 23" cx="41.474" cy="84.625" rx="41.474" ry="84.625" transform="translate(528.957 345.086)" fill="#e6e6e6" opacity="0.763"/>
      <path id="패스_268" data-name="패스 268" d="M776.861,536.636l.245.459,37.5-20.071-.846-1.582-36.82,19.708c2.038-37.5,6.2-62.678,6.289-63.174l-1.769-.3c-.092.541-5.043,30.438-6.8,73.7L737.522,525.5l-.846,1.582,37.5,20.071.448-.837c-1.406,35.7-.618,80.349,6.836,125.073l1.77-.294C775.1,622.328,774.923,573.657,776.861,536.636Z" transform="translate(-206.466 -103.279)" fill="#3f3d56"/>
      <path id="패스_269" data-name="패스 269" d="M926.268,739.714c-220.91-69.931-421.224-66.206-550.366-50.766-139.909,16.727-228.689,50.41-229.569,50.748l-.644-1.675c.883-.339,89.871-34.1,230-50.855A1333.989,1333.989,0,0,1,624.1,680.812,1295.786,1295.786,0,0,1,926.81,738Z" transform="translate(-145.688 -124.473)" fill="#3f3d56"/>
      <path id="패스_270" data-name="패스 270" d="M462.2,723.458s.62-12.982,13.32-11.473" transform="translate(-178.239 -127.981)" fill="#3f3d56"/>
      <circle id="타원_24" data-name="타원 24" cx="6.357" cy="6.357" r="6.357" transform="translate(274.016 570.41)" fill="#073b69"/>
      <rect id="사각형_74" data-name="사각형 74" width="1.794" height="12.56" transform="translate(279.338 587.471)" fill="#3f3d56"/>
      <path id="패스_271" data-name="패스 271" d="M720.2,726.458s.62-12.982,13.32-11.473" transform="translate(-204.772 -128.289)" fill="#3f3d56"/>
      <circle id="타원_25" data-name="타원 25" cx="6.357" cy="6.357" r="6.357" transform="translate(505.483 573.102)" fill="#073b69"/>
      <rect id="사각형_75" data-name="사각형 75" width="1.794" height="12.56" transform="translate(510.805 590.162)" fill="#3f3d56"/>
      <path id="패스_272" data-name="패스 272" d="M295.2,701.458s.62-12.982,13.32-11.473" transform="translate(-161.064 -125.718)" fill="#3f3d56"/>
      <circle id="타원_26" data-name="타원 26" cx="6.357" cy="6.357" r="6.357" transform="translate(124.191 550.673)" fill="#073b69"/>
      <rect id="사각형_76" data-name="사각형 76" width="1.794" height="12.56" transform="translate(129.513 567.734)" fill="#3f3d56"/>
      <path id="패스_273" data-name="패스 273" d="M404.2,682.458s.62-12.982,13.32-11.473" transform="translate(-172.274 -123.764)" fill="#3f3d56"/>
      <circle id="타원_27" data-name="타원 27" cx="6.357" cy="6.357" r="6.357" transform="translate(221.981 533.627)" fill="#073b69"/>
      <rect id="사각형_77" data-name="사각형 77" width="1.794" height="12.56" transform="translate(227.303 550.688)" fill="#3f3d56"/>
      <path id="패스_274" data-name="패스 274" d="M677.2,709.458s.62-12.982,13.32-11.473" transform="translate(-200.35 -126.541)" fill="#3f3d56"/>
      <circle id="타원_28" data-name="타원 28" cx="6.357" cy="6.357" r="6.357" transform="translate(466.905 557.85)" fill="#073b69"/>
      <rect id="사각형_78" data-name="사각형 78" width="1.794" height="12.56" transform="translate(472.228 574.911)" fill="#3f3d56"/>
      <path id="패스_275" data-name="패스 275" d="M981.929,681.78l36.925,54.752L984.475,770.91,980.019,762l7.64-17.826s-1.273-16.553-5.73-21.009-24.193-31.2-24.193-31.2Z" transform="translate(-229.2 -124.887)" fill="#ffb8b8"/>
      <path id="패스_276" data-name="패스 276" d="M925.184,484.5s7,11.082-7.641,58.83c0,0,68.3,115.274,57.478,122.914S934.909,690.8,927.27,685.7s-63.2-177.642-63.2-177.642Z" transform="translate(-219.567 -104.599)" fill="#2f2e41"/>
      <path id="패스_277" data-name="패스 277" d="M1012.154,731.808,1023.3,742.95c5.73,5.73,9.55,14.006-1.273,21.009s-48.385,33.106-61.118,24.829,15.28-15.916,15.28-15.916,4.632-17.174,7.091-13.362,2.459,11.452,2.459,11.452Z" transform="translate(-229.185 -130.032)" fill="#2f2e41"/>
      <path id="패스_278" data-name="패스 278" d="M860.15,714.475s-20.373,37.562-20.373,42.019,1.273,17.19,1.273,17.19l-38.835,9.55-13.37-6.367,4.457-11.46s24.193-8.276,29.286-24.193,10.823-32.469,10.823-32.469Z" transform="translate(-211.831 -127.66)" fill="#ffb8b8"/>
      <circle id="타원_29" data-name="타원 29" cx="26.739" cy="26.739" r="26.739" transform="translate(645.135 159.625)" fill="#ffb8b8"/>
      <path id="패스_279" data-name="패스 279" d="M886.774,293.3l12.766,36.68L927.519,317.5s-19.1-29.286-19.1-33.106Z" transform="translate(-221.902 -84.019)" fill="#ffb8b8"/>
      <path id="패스_280" data-name="패스 280" d="M877.22,439.8h33.742s24.193,36.926,10.186,75.761a201.308,201.308,0,0,0-6.4,24.127c-4.887,22.65-9.753,53.332-14.74,81.526-7,39.6-14.247,74.3-22.12,74.926-15.916,1.273-46.866,1.061-46.866-5.306s20.732-190.553,20.732-190.553l4.457-7.64.842-33.278A20.072,20.072,0,0,1,877.22,439.8Z" transform="translate(-216.169 -100.001)" fill="#2f2e41"/>
      <path id="패스_281" data-name="패스 281" d="M836.613,761.613s7.321,12.415,5.411,21.328-5.093,7.64-19.1,8.913-61.755,1.273-61.755-7.64,37.248-20.488,37.405-16.929,1.43,10.562-2.39,11.836-.318.318-.318.318Z" transform="translate(-208.985 -133.097)" fill="#2f2e41"/>
      <path id="패스_282" data-name="패스 282" d="M883.579,527.68s-2.77,45.225-21.241,31.761,7.2-37.784,7.2-37.784Z" transform="translate(-218.702 -108.42)" fill="#ffb9b9"/>
      <path id="패스_283" data-name="패스 283" d="M920.326,445.5a5.362,5.362,0,0,0,5.489-.65A5.624,5.624,0,0,0,927.9,441.3c2.67-15.4,5.922-58.077,7.795-79.659a90.978,90.978,0,0,0-9.487-48.185l-6.917-9.512a5.429,5.429,0,0,0-6.5-1.825s-21.6,22.406-21.676,23.271c-.339,3.715-2.909,11.947-16.306,25.344-14.658,14.658-14.74,27.452-14.415,31.024q.032.352.033.7a15.7,15.7,0,0,0,.646,4.737c6.14,19.357,1.332,42.531-6.39,66.721a5.456,5.456,0,0,0,2.2,5.92c2.255,1.534-.449-.742.355.243,5.321,6.521,12.979-2.567,21.739-12.484,3.051-3.454,6.51-7.37,10.586-11.446,5.6-5.6,16.313,7.184,21.291,7.184A23.119,23.119,0,0,1,920.326,445.5Z" transform="translate(-218.583 -85.798)" fill="#575a89"/>
      <path id="패스_284" data-name="패스 284" d="M924.364,325.792s13.985,11.794,6.04,27.091-6.889,26.578-6.889,26.578S921.4,484.54,896.573,479.434L885.28,510.613l-20.4-7.361,11.794-27.5s-9.446-.587-6.686-7.024c1.939-4.521,12.383-53.577,18.429-82.379,2.562-12.205,4.334-20.773,4.334-20.773S900.79,322.609,924.364,325.792Z" transform="translate(-219.651 -88.259)" fill="#575a89"/>
      <path id="패스_285" data-name="패스 285" d="M787.862,323.871,780,375.466l4.243-55.169Z" transform="translate(-80.216 -32.94)" opacity="0.2"/>
      <path id="패스_286" data-name="패스 286" d="M862.042,252.612s-4.5-34.985,32.184-23.513c0,0,26.2-4.807,34.787,27.961l8.7,34.349-4.239-2.307-1.976,4.32-6.87,1.74-2.94-5.835-1.422,7.086L864,302.022s25.2-14.9,25.6-41.614l-4.8,5.073Z" transform="translate(-219.341 -78.095)" fill="#2f2e41"/>
      <path id="패스_287" data-name="패스 287" d="M763.014,573.616l12.547-83.6-10.2,90.252Z" transform="translate(-78.469 -50.393)" opacity="0.2"/>
      <circle id="타원_30" data-name="타원 30" cx="14.148" cy="14.148" r="14.148" transform="translate(690.901 137.199)" fill="#2f2e41"/>
      <path id="패스_288" data-name="패스 288" d="M915.1,224.355a14.137,14.137,0,0,1,14.142-13.224c-.292-.037-.582-.082-.88-.1a14.148,14.148,0,1,0-1.815,28.238c.3.019.591.012.885.012A14.137,14.137,0,0,1,915.1,224.355Z" transform="translate(-224.631 -76.471)" fill="#2f2e41"/>
      <path id="패스_289" data-name="패스 289" d="M739.438,341.4,726.99,408.12l16.135-73.69Z" transform="translate(-74.764 -34.393)" opacity="0.2"/>
      <ellipse id="타원_31" data-name="타원 31" cx="4.421" cy="6.19" rx="4.421" ry="6.19" transform="translate(665.258 182.297)" fill="#ffb8b8"/>
      <path id="패스_293" data-name="패스 293" d="M399.191,226.008l47.088,10.776,19.9-37.524-40.264-15.72Z" transform="translate(-41.053 -18.875)" fill="#2f2e41"/>
      <path id="패스_294" data-name="패스 294" d="M568.717,515.92S553.58,550.608,553.58,560.7c0,0,5.992,27.435,4.1,35l-6.622,14.19-13.875-5.676L533.4,566.375l.631-60.546Z" transform="translate(-185.561 -106.792)" fill="#ffb9b9"/>
      <path id="패스_295" data-name="패스 295" d="M582.071,285.145s1.261,20.813-1.261,27.12,9.46,18.29,9.46,18.29l18.921-24.6s-12.614-12.614-9.46-26.489Z" transform="translate(-190.401 -83.513)" fill="#ffb9b9"/>
      <path id="패스_296" data-name="패스 296" d="M537.366,446.348s-18.29,35.1-.631,32.5S548.4,445.373,548.4,445.373" transform="translate(-185.113 -101.574)" fill="#ffb9b9"/>
      <path id="패스_297" data-name="패스 297" d="M403.668,373.334l5.991-59.6-.315-36.264-13.875,2.522v33.426l-2.838,60.861" transform="translate(-40.379 -28.535)" fill="#ffb9b9"/>
      <path id="패스_298" data-name="패스 298" d="M532.013,609.345l27.12-10.722,3.153,53.608s5.676,16.4,3.784,22.7c0,0,1.261,10.722-1.892,11.352s-11.983,1.892-12.614,1.261-.631-2.523-.631-2.523-6.307,4.415-6.938,9.46c0,0-26.489,8.2-27.12.631s13.244-13.875,13.244-13.875l10.722-16.4Z" transform="translate(-183.86 -116.335)" fill="#2f2e41"/>
      <path id="패스_299" data-name="패스 299" d="M631.634,515.92S616.5,550.608,616.5,560.7c0,0,5.992,27.435,4.1,35l-6.622,14.19L600.1,604.216l-3.784-37.841.631-60.546Z" transform="translate(-192.031 -106.792)" fill="#ffb9b9"/>
      <path id="패스_300" data-name="패스 300" d="M595.984,609.345l27.12-10.722,3.153,53.608s5.676,16.4,3.784,22.7c0,0,1.261,10.722-1.892,11.352s-11.983,1.892-12.614,1.261-.631-2.523-.631-2.523-6.307,4.415-6.938,9.46c0,0-26.489,8.2-27.12.631s13.244-13.875,13.244-13.875l10.722-16.4Z" transform="translate(-190.438 -116.335)" fill="#2f2e41"/>
      <path id="패스_301" data-name="패스 301" d="M607.158,267.317a20.183,20.183,0,0,1-39.875,4.416,19.553,19.553,0,0,1-.494-4.416,20.185,20.185,0,1,1,40.369,0Z" transform="translate(-188.995 -80.187)" fill="#ffb9b9"/>
      <path id="패스_302" data-name="패스 302" d="M586.6,313.686l15.661-8.133,7.043,5.61s17.029-.631,23.335,6.938,9.776,26.8,9.776,26.8-20.813-4.415-18.29,13.244l-3.784-10.091-3.469,8.514L574.62,371.079,555.7,338.914s-12.614-3.784-17.029,5.046c0,0,.946-31.85,13.244-32.8,8.271-.636,14.506-.631,14.506-.631l6.938-1.261,4.443-1.577Z" transform="translate(-186.103 -86.195)" fill="#575a89"/>
      <path id="패스_303" data-name="패스 303" d="M612.54,390.869S645.651,490.2,636.19,504.077c0,0-35.318,17.659-105.955-6.307l28.7-111.316Q585.372,381.047,612.54,390.869Z" transform="translate(-185.236 -94.318)" fill="#2f2e41"/>
      <path id="패스_304" data-name="패스 304" d="M615.359,383.028,624.678,351c-11.179-12.157-1.53-39.114-1.53-39.114L609.659,309s-13.536,36.5-27.411,32.087-6.307-32.8-6.307-32.8l-12.614,1.261-5.676,22.074,4.1,46.986C578.848,377.147,596.779,378.853,615.359,383.028Z" transform="translate(-188.055 -86.477)" fill="#575a89"/>
      <path id="패스_305" data-name="패스 305" d="M493.3,373.334l4.415-59.916,1.261-35.948L485.1,279.992v33.426l-2.839,60.861" transform="translate(-49.596 -28.535)" fill="#ffb9b9"/>
      <path id="패스_306" data-name="패스 306" d="M627,446.367s-18.29,35.776-.631,33.126,11.668-34.12,11.668-34.12" transform="translate(-194.331 -102.221)" fill="#ffb9b9"/>
      <path id="패스_307" data-name="패스 307" d="M651.906,345.716s-2.242-32.389-20.988-32.277V350.9S644.968,342.563,651.906,345.716Z" transform="translate(-195.59 -87.006)" fill="#575a89"/>
      <path id="패스_310" data-name="패스 310" d="M573.318,237.818s-10.431,1.962-12.843,14.972a23.882,23.882,0,0,0-.2,6.643c.241,2.5-.108,7.793-5.546,14.021a136.337,136.337,0,0,0-9.9,12.715h0l10.9,2.9,4.87-18.059A92.38,92.38,0,0,1,571.388,246.2l.1-.161s3.62,9.673,13.323,11L581.82,253.1s11.343,6.557,17.769,8.56A4.222,4.222,0,0,1,600.951,269l-.139.108c-4.727,3.59-14.37,12.156-10.56,20.443s-.633,9.8-.633,9.8l8.192-3.117,3.749-1.606-.379,2.772,18.3.383s4.946-.03-3.84-13.233c0,0-2.12-4.951-.38-8.733a20.089,20.089,0,0,0,2.029-9.206C616.742,253.3,611.135,226.223,573.318,237.818Z" transform="translate(-186.736 -78.939)" fill="#2f2e41"/>
      <path id="패스_311" data-name="패스 311" d="M282.337,644.508s0,85.645-19.656,108.109c0,0-4.212,11.232-5.616,15.444a59.03,59.03,0,0,1-2.808,7.02V780.7s-37.908-4.212-42.12-14.04l7.02-8.424s1.4-1.4,0-5.616,2.808-4.212,2.808-4.212l9.828-22.464-1.4-92.665,7.02-127.765,60.372-2.808Z" transform="translate(-152.522 -106.47)" fill="#2f2e41"/>
      <path id="패스_312" data-name="패스 312" d="M245.17,802.53s9.828,29.484,0,30.888-95.473,2.808-94.069-8.424,29.484-9.828,29.484-9.828l29.484-18.252Z" transform="translate(-146.243 -136.727)" fill="#2f2e41"/>
      <path id="패스_313" data-name="패스 313" d="M341.395,505.833s2.808,18.252-8.424,37.908-4.212,85.645-4.212,85.645l99.685,87.048s-19.656,33.7-26.676,32.292S283.83,657.466,283.83,657.466L240.306,511.449Z" transform="translate(-155.419 -106.792)" fill="#2f2e41"/>
      <path id="패스_314" data-name="패스 314" d="M444.588,736.429s30.165,7.483,26.089,16.536-48.739,82.142-57.475,74.943,7.483-30.165,7.483-30.165l.368-34.674Z" transform="translate(-172.934 -130.507)" fill="#2f2e41"/>
      <path id="패스_315" data-name="패스 315" d="M320.54,211.054A32.3,32.3,0,0,1,282,242.73a31.332,31.332,0,0,1-8.3-2.855,32.272,32.272,0,0,1-16.81-21.1,31.807,31.807,0,0,1-.938-7.721,32.293,32.293,0,0,1,64.586,0Z" transform="translate(-157.028 -73.156)" fill="#a0616a"/>
      <path id="패스_316" data-name="패스 316" d="M316.225,227.453,314.8,269.007l-27.171,10.736s-2.665-42.549-6.426-44.907S316.225,227.453,316.225,227.453Z" transform="translate(-159.598 -78.163)" fill="#a0616a"/>
      <path id="패스_317" data-name="패스 317" d="M275.62,287.246s37.908-37.908,47.736-36.5,9.828,5.616,9.828,8.424-2.808,4.212,0,5.616,5.616,0,5.616,4.212,25.272,46.332,16.848,92.665-18.252,68.8-14.04,94.069,1.4,30.888,1.4,30.888-105.3,8.424-106.7-1.4S240.52,481,233.5,473.979s-4.212-7.02-4.212-11.232S260.176,287.246,275.62,287.246Z" transform="translate(-154.229 -80.554)" fill="#575a89"/>
      <path id="패스_319" data-name="패스 319" d="M340.079,294.536s32.987,3.777,20.706,64.367-60.018,130.79-60.018,130.79l-32.292-15.444,42.12-82.836-9.828-51.948S295.151,290.324,340.079,294.536Z" transform="translate(-158.316 -85.036)" fill="#575a89"/>
      <path id="패스_320" data-name="패스 320" d="M165.207,342.279,118.874,419.5l4.212,4.212Z" transform="translate(-12.225 -35.2)" opacity="0.2"/>
      <path id="패스_321" data-name="패스 321" d="M193.593,382.389l-37.16,60.891h12.636Z" transform="translate(-16.088 -39.325)" opacity="0.2"/>
      <rect id="사각형_79" data-name="사각형 79" width="1.998" height="103.677" transform="translate(91.698 454.433) rotate(-20.877)" opacity="0.2"/>
      <circle id="타원_32" data-name="타원 32" cx="1.997" cy="1.997" r="1.997" transform="translate(119.593 210.406)" fill="#d0cde1"/>
      <line id="선_16" data-name="선 16" x1="16.977" y2="54.926" transform="translate(104.613 212.403)" fill="none"/>
      <path id="패스_322" data-name="패스 322" d="M262.179,353.611a1,1,0,0,0,.954-.7l16.977-54.925a1,1,0,1,0-1.908-.59l-16.977,54.926a1,1,0,0,0,.954,1.293Z" transform="translate(-157.566 -85.284)" fill="#d0cde1"/>
      <path id="패스_326" data-name="패스 326" d="M302.912,228.732c-2.614-1.382-5.651-1.667-8.481-2.526-10.124-3.074-16.905-14.518-14.74-24.874a12.693,12.693,0,0,0,.532-4.1c-.378-3.067-3.517-5.046-6.526-5.749s-6.211-.6-9.088-1.731c-4.441-1.745-7.391-6.309-8.031-11.038s.764-9.551,3.046-13.742l1.087,3.128a11.6,11.6,0,0,0,3.552-5.312,7.318,7.318,0,0,1,5.575,4.484c1.745,1.029,2-3.2,3.924-3.82a3.462,3.462,0,0,1,2.406.593c3.884,1.811,8.4.263,12.562-.741a47.288,47.288,0,0,1,21.952-.026c4.8,1.144,9.542,3.136,12.973,6.675,2.818,2.907,4.574,6.666,6.069,10.429,3.68,9.262,6.112,19.285,4.9,29.177a41.3,41.3,0,0,1-9.733,21.882c-2.779,3.2-11.845,14.371-16.816,12.467C301.824,241.515,310.271,232.623,302.912,228.732Z" transform="translate(-157.076 -71.432)" fill="#2f2e41"/>
      <path id="패스_318" data-name="패스 318" d="M299.013,502.82s-16.848,40.716-29.484,30.888,5.616-43.524,5.616-43.524Z" transform="translate(-157.966 -105.183)" fill="#ffb9b9"/>
    </g>
    <g id="그룹_163" data-name="그룹 163" transform="translate(-290.996 114.659) rotate(-56)">
      <path id="패스_802-2" data-name="패스 802" d="M371.25,85.873,353.51,107.4l26.255,30.986,17.5-20.578Z" transform="translate(171.393 1877.6)" opacity="0.1"/>
      <path id="패스_803-2" data-name="패스 803" d="M439.739,288.319h0a8.914,8.914,0,0,1,1.446-1.931l16.294-16.518s5.677-.946,6.859,1.892l-20.815,17.031Z" transform="translate(85.874 1696.915)" fill="#f2f2f2"/>
      <path id="패스_804-2" data-name="패스 804" d="M434.805,285.2l24.127,36.9a5.527,5.527,0,0,0,4.731.71l24.718-16.676-26.255-39.738-23.654,18.45Z" transform="translate(89.979 1699.683)" fill="#0f4c81"/>
      <rect id="사각형_95-2" data-name="사각형 95" width="18.643" height="0.383" transform="matrix(0.812, -0.584, 0.584, 0.812, 534.016, 1982.711)" fill="#3f3d56"/>
      <rect id="사각형_96-2" data-name="사각형 96" width="0.383" height="36.016" transform="matrix(0.834, -0.552, 0.552, 0.834, 533.496, 1986.995)" fill="#3f3d56"/>
      <rect id="사각형_97-2" data-name="사각형 97" width="19.964" height="0.383" transform="translate(555.777 2017.724) rotate(-36.344)" fill="#3f3d56"/>
      <rect id="사각형_98-2" data-name="사각형 98" width="0.383" height="36.023" transform="translate(551.711 1972.569) rotate(-34.838)" fill="#3f3d56"/>
      <rect id="사각형_99-2" data-name="사각형 99" width="25.405" height="0.236" transform="translate(526.952 1983.728) rotate(-42.545)" fill="#3f3d56"/>
      <rect id="사각형_100-2" data-name="사각형 100" width="26.094" height="0.237" transform="translate(527.667 1983.966) rotate(-41.439)" fill="#3f3d56"/>
      <rect id="사각형_101-2" data-name="사각형 101" width="26.436" height="0.237" transform="matrix(0.768, -0.64, 0.64, 0.768, 528.145, 1983.968)" fill="#3f3d56"/>
    </g>
    <g id="그룹_164" data-name="그룹 164" transform="translate(-819.996 93.66) rotate(-56)">
      <path id="패스_802-3" data-name="패스 802" d="M371.25,85.873,353.51,107.4l26.255,30.986,17.5-20.578Z" transform="translate(171.393 1877.6)" opacity="0.1"/>
      <path id="패스_803-3" data-name="패스 803" d="M439.739,288.319h0a8.914,8.914,0,0,1,1.446-1.931l16.294-16.518s5.677-.946,6.859,1.892l-20.815,17.031Z" transform="translate(85.874 1696.915)" fill="#f2f2f2"/>
      <path id="패스_804-3" data-name="패스 804" d="M434.805,285.2l24.127,36.9a5.527,5.527,0,0,0,4.731.71l24.718-16.676-26.255-39.738-23.654,18.45Z" transform="translate(89.979 1699.683)" fill="#0f4c81"/>
      <rect id="사각형_95-3" data-name="사각형 95" width="18.643" height="0.383" transform="matrix(0.812, -0.584, 0.584, 0.812, 534.016, 1982.711)" fill="#3f3d56"/>
      <rect id="사각형_96-3" data-name="사각형 96" width="0.383" height="36.016" transform="matrix(0.834, -0.552, 0.552, 0.834, 533.496, 1986.995)" fill="#3f3d56"/>
      <rect id="사각형_97-3" data-name="사각형 97" width="19.964" height="0.383" transform="translate(555.777 2017.724) rotate(-36.344)" fill="#3f3d56"/>
      <rect id="사각형_98-3" data-name="사각형 98" width="0.383" height="36.023" transform="translate(551.711 1972.569) rotate(-34.838)" fill="#3f3d56"/>
      <rect id="사각형_99-3" data-name="사각형 99" width="25.405" height="0.236" transform="translate(526.952 1983.728) rotate(-42.545)" fill="#3f3d56"/>
      <rect id="사각형_100-3" data-name="사각형 100" width="26.094" height="0.237" transform="translate(527.667 1983.966) rotate(-41.439)" fill="#3f3d56"/>
      <rect id="사각형_101-3" data-name="사각형 101" width="26.436" height="0.237" transform="matrix(0.768, -0.64, 0.64, 0.768, 528.145, 1983.968)" fill="#3f3d56"/>
    </g>
  </g>
</svg>
