<svg xmlns="http://www.w3.org/2000/svg" xmlns:xlink="http://www.w3.org/1999/xlink" width="1286" height="1080" viewBox="0 0 1286 1080">
  <defs>
    <linearGradient id="linear-gradient" x1="0.5" y1="1" x2="0.5" gradientUnits="objectBoundingBox">
      <stop offset="0" stop-color="gray" stop-opacity="0.251"/>
      <stop offset="0.54" stop-color="gray" stop-opacity="0.122"/>
      <stop offset="1" stop-color="gray" stop-opacity="0.102"/>
    </linearGradient>
    <linearGradient id="linear-gradient-2" x1="3.193" x2="3.193" y2="0" xlink:href="#linear-gradient"/>
    <linearGradient id="linear-gradient-3" x1="0.499" x2="0.499" y2="0" xlink:href="#linear-gradient"/>
    <clipPath id="clip-path">
      <rect id="사각형_134" data-name="사각형 134" width="289" height="111" transform="translate(-7213 -3642)" fill="#fff" stroke="#707070" stroke-width="1"/>
    </clipPath>
  </defs>
  <g id="그룹_222" data-name="그룹 222" transform="translate(7829 4611)">
    <rect id="사각형_133" data-name="사각형 133" width="1286" height="1080" transform="translate(-7829 -4611)" fill="#fff"/>
    <path id="패스_931" data-name="패스 931" d="M-1555.476,20837.047c-.147,271.926,0,222.693,0,296.926,0,29.023,4.666,38.412,19.331,42.877,4.369,1.33-1.679-.512,0,0,5.6,1.707,186.225.945,213.879.945h0" transform="translate(-5864.018 -24758)" fill="none" stroke="#b1b1b1" stroke-width="0.5"/>
    <g id="그룹_218" data-name="그룹 218" transform="translate(-7406.997 -3675.849)">
      <ellipse id="타원_215" data-name="타원 215" cx="13.307" cy="3.327" rx="13.307" ry="3.327" transform="translate(84.327 91.954)" fill="#0f4c81" opacity="0.1"/>
      <path id="패스_844" data-name="패스 844" d="M32.5,81.589c-1.505.516-3.332,1.569-3.024,3.242a3.651,3.651,0,0,0,1.494,2.007,42.322,42.322,0,0,0,9.119,5.648,12.553,12.553,0,0,1,4.4,2.663,10.552,10.552,0,0,1,2.106,4.889,39.743,39.743,0,0,1,.657,12.687c4.7.09,9.907-.016,13.233-3.4,1.991-2.028,3.059-5.037,5.4-6.606a11.891,11.891,0,0,1,5.346-1.525q13.2-1.543,26.536-1.868c3.725-.091,7.532-.123,11.011-1.421s6.636-4.137,7.343-7.985a3.108,3.108,0,0,1,.586-1.66,2.305,2.305,0,0,1,1.411-.525l30.554-4.137a11.169,11.169,0,0,0,4.814-1.42,11.844,11.844,0,0,0,3.161-3.82c2.014-3.277,4.1-7.239,2.71-10.987-1.116-2.995-4.115-4.719-6.981-5.79s-5.951-1.824-8.281-3.923c-3.544-3.195-4.33-8.5-5.328-13.256a77.615,77.615,0,0,0-3.792-12.628,31.574,31.574,0,0,0-5.765-9.954c-2.595-2.8-6.165-4.79-9.8-4.647-4.746.188-8.921,3.887-13.674,3.428-4.015-.385-7.282-3.6-10.9-5.6-6.418-3.557-13.993-3.244-21.015-2.135C66.372,14.032,58.88,16.085,52.847,20.7a11.806,11.806,0,0,0-3.508,3.868c-1.241,2.44-1.134,5.412-1.756,8.123C45.078,43.611,31.647,48.165,28.886,59a16.781,16.781,0,0,0,1.546,11.575c1.936,3.828,5.826,5.459,7.82,8.745C36.918,80.539,34.263,80.984,32.5,81.589Z" transform="translate(-28.45 -12.11)" fill="#0f4c81" opacity="0.1"/>
      <path id="패스_845" data-name="패스 845" d="M897.118,653.652s-1.2-8.3,2.413-13.757a12.7,12.7,0,0,0,2.147-7.743,21.314,21.314,0,0,0-.586-3.862" transform="translate(-797.131 -557.487)" fill="none" stroke="#535461" stroke-miterlimit="10" stroke-width="2"/>
      <path id="패스_846" data-name="패스 846" d="M925.639,582.5c-.139.976-2.311,3.552-2.311,3.552s-1.357-3.083-1.221-4.059a1.784,1.784,0,1,1,3.533.507Z" transform="translate(-819.41 -515.156)" fill="#0f4c81"/>
      <path id="패스_847" data-name="패스 847" d="M941.781,626.081c-.648.742-3.871,1.724-3.871,1.724s.533-3.332,1.18-4.07a1.785,1.785,0,0,1,2.691,2.345Z" transform="translate(-833.406 -552.913)" fill="#0f4c81"/>
      <path id="패스_848" data-name="패스 848" d="M926.553,702.549c-.934.315-4.213-.46-4.213-.46s2.14-2.6,3.074-2.918a1.785,1.785,0,0,1,1.139,3.377Z" transform="translate(-819.625 -620.166)" fill="#0f4c81"/>
      <path id="패스_849" data-name="패스 849" d="M903.18,761.763c-.868.468-4.23.253-4.23.253s1.669-2.927,2.536-3.395a1.785,1.785,0,0,1,1.694,3.142Z" transform="translate(-798.923 -672.652)" fill="#0f4c81"/>
      <path id="패스_850" data-name="패스 850" d="M902.528,638.742c.6.78,3.762,1.953,3.762,1.953s-.336-3.353-.938-4.137a1.785,1.785,0,0,0-2.825,2.183Z" transform="translate(-801.76 -564.192)" fill="#0f4c81"/>
      <path id="패스_851" data-name="패스 851" d="M873.237,704.682c.8.564,4.172.737,4.172.737s-1.321-3.1-2.13-3.663a1.784,1.784,0,1,0-2.042,2.927Z" transform="translate(-775.489 -622.226)" fill="#0f4c81"/>
      <path id="패스_852" data-name="패스 852" d="M858.661,776.572c.7.689,3.989,1.431,3.989,1.431s-.779-3.278-1.481-3.968a1.784,1.784,0,1,0-2.507,2.54Z" transform="translate(-762.793 -686.029)" fill="#0f4c81"/>
      <path id="패스_853" data-name="패스 853" d="M925.639,582.5c-.139.976-2.311,3.552-2.311,3.552s-1.357-3.083-1.221-4.059a1.784,1.784,0,1,1,3.533.507Z" transform="translate(-819.41 -515.156)" opacity="0.25"/>
      <path id="패스_854" data-name="패스 854" d="M941.781,626.081c-.648.742-3.871,1.724-3.871,1.724s.533-3.332,1.18-4.07a1.785,1.785,0,0,1,2.691,2.345Z" transform="translate(-833.406 -552.913)" opacity="0.25"/>
      <path id="패스_855" data-name="패스 855" d="M926.553,702.549c-.934.315-4.213-.46-4.213-.46s2.14-2.6,3.074-2.918a1.785,1.785,0,0,1,1.139,3.377Z" transform="translate(-819.625 -620.166)" opacity="0.25"/>
      <path id="패스_856" data-name="패스 856" d="M903.18,761.763c-.868.468-4.23.253-4.23.253s1.669-2.927,2.536-3.395a1.785,1.785,0,0,1,1.694,3.142Z" transform="translate(-798.923 -672.652)" opacity="0.25"/>
      <path id="패스_857" data-name="패스 857" d="M902.528,638.742c.6.78,3.762,1.953,3.762,1.953s-.336-3.353-.938-4.137a1.785,1.785,0,0,0-2.825,2.183Z" transform="translate(-801.76 -564.192)" opacity="0.25"/>
      <path id="패스_858" data-name="패스 858" d="M873.237,704.682c.8.564,4.172.737,4.172.737s-1.321-3.1-2.13-3.663a1.784,1.784,0,1,0-2.042,2.927Z" transform="translate(-775.489 -622.226)" opacity="0.25"/>
      <path id="패스_859" data-name="패스 859" d="M858.661,776.572c.7.689,3.989,1.431,3.989,1.431s-.779-3.278-1.481-3.968a1.784,1.784,0,1,0-2.507,2.54Z" transform="translate(-762.793 -686.029)" opacity="0.25"/>
      <path id="패스_860" data-name="패스 860" d="M848.346,655.7s-4.463-7.1-3.363-13.56a12.7,12.7,0,0,0-1.171-7.946,21.323,21.323,0,0,0-2.1-3.293" transform="translate(-748.26 -559.797)" fill="none" stroke="#535461" stroke-miterlimit="10" stroke-width="2"/>
      <path id="패스_861" data-name="패스 861" d="M820.552,585.386c.267.949-.674,4.184-.674,4.184s-2.494-2.266-2.758-3.218a1.785,1.785,0,1,1,3.436-.97Z" transform="translate(-726.435 -518.359)" fill="#0f4c81"/>
      <path id="패스_862" data-name="패스 862" d="M858.362,616.381c-.291.941-2.839,3.145-2.839,3.145s-.862-3.257-.575-4.2a1.785,1.785,0,1,1,3.411,1.054Z" transform="translate(-759.925 -544.9)" fill="#0f4c81"/>
      <path id="패스_863" data-name="패스 863" d="M874.959,688.79c-.726.665-4.039,1.281-4.039,1.281s.9-3.246,1.627-3.907a1.785,1.785,0,0,1,2.413,2.631Z" transform="translate(-774.113 -608.295)" fill="#0f4c81"/>
      <path id="패스_864" data-name="패스 864" d="M879.574,753.079c-.6.779-3.764,1.945-3.764,1.945s.345-3.352.942-4.137a1.785,1.785,0,1,1,2.822,2.183Z" transform="translate(-778.442 -665.354)" fill="#0f4c81"/>
      <path id="패스_865" data-name="패스 865" d="M822.27,646.165c.866.47,4.229.26,4.229.26s-1.664-2.929-2.528-3.4a1.785,1.785,0,1,0-1.7,3.138Z" transform="translate(-730.227 -570.339)" fill="#0f4c81"/>
      <path id="패스_866" data-name="패스 866" d="M821.883,718.264c.968.188,4.114-1.017,4.114-1.017s-2.465-2.3-3.432-2.486a1.785,1.785,0,1,0-.681,3.5Z" transform="translate(-729.398 -633.985)" fill="#0f4c81"/>
      <path id="패스_867" data-name="패스 867" d="M838.673,790.173c.919.345,4.226-.309,4.226-.309s-2.041-2.68-2.962-3.029a1.785,1.785,0,0,0-1.264,3.332Z" transform="translate(-744.63 -697.737)" fill="#0f4c81"/>
      <path id="패스_868" data-name="패스 868" d="M285.63,57.83V138.9h58.306V57.83Z" transform="translate(-252.811 -51.188)" fill="url(#linear-gradient)"/>
      <rect id="사각형_109" data-name="사각형 109" width="57.283" height="3.09" transform="translate(33.331 7.354)" fill="#f6f7f9"/>
      <g id="그룹_166" data-name="그룹 166" transform="translate(33.331 7.354)" opacity="0.2">
        <rect id="사각형_110" data-name="사각형 110" width="57.283" height="3.09" fill="#0f4c81"/>
      </g>
      <rect id="사각형_111" data-name="사각형 111" width="57.283" height="76.553" transform="translate(33.331 10.443)" fill="#f6f7f9"/>
      <circle id="타원_216" data-name="타원 216" cx="0.524" cy="0.524" r="0.524" transform="translate(34.313 8.375)" fill="#f6f7f9"/>
      <circle id="타원_217" data-name="타원 217" cx="0.524" cy="0.524" r="0.524" transform="translate(35.733 8.375)" fill="#f6f7f9"/>
      <circle id="타원_218" data-name="타원 218" cx="0.524" cy="0.524" r="0.524" transform="translate(37.154 8.375)" fill="#f6f7f9"/>
      <g id="그룹_167" data-name="그룹 167" transform="translate(43.554 15.163)" opacity="0.2">
        <rect id="사각형_112" data-name="사각형 112" width="36.835" height="1.442" fill="#0f4c81"/>
      </g>
      <rect id="사각형_113" data-name="사각형 113" width="4.894" height="1.442" transform="translate(75.495 15.163)" fill="#0f4c81"/>
      <g id="그룹_168" data-name="그룹 168" transform="translate(38.792 23.378)" opacity="0.2">
        <rect id="사각형_114" data-name="사각형 114" width="46.36" height="16.604" fill="#0f4c81"/>
      </g>
      <rect id="사각형_115" data-name="사각형 115" width="26.741" height="1.442" transform="translate(51.803 29.429)" fill="#f6f7f9"/>
      <rect id="사각형_116" data-name="사각형 116" width="13.873" height="1.442" transform="translate(51.803 32.488)" fill="#f6f7f9"/>
      <rect id="사각형_117" data-name="사각형 117" width="4.894" height="1.442" transform="translate(75.495 36.857)" fill="#0f4c81"/>
      <circle id="타원_219" data-name="타원 219" cx="2.621" cy="2.621" r="2.621" transform="translate(41.764 29.058)" fill="#f6f7f9"/>
      <g id="그룹_169" data-name="그룹 169" transform="translate(38.792 44.635)" opacity="0.2">
        <rect id="사각형_118" data-name="사각형 118" width="46.36" height="16.604" fill="#0f4c81"/>
      </g>
      <rect id="사각형_119" data-name="사각형 119" width="26.741" height="1.442" transform="translate(51.803 50.687)" fill="#f6f7f9"/>
      <rect id="사각형_120" data-name="사각형 120" width="13.873" height="1.442" transform="translate(51.803 53.746)" fill="#f6f7f9"/>
      <rect id="사각형_121" data-name="사각형 121" width="4.894" height="1.442" transform="translate(75.495 58.115)" fill="#0f4c81"/>
      <circle id="타원_220" data-name="타원 220" cx="2.621" cy="2.621" r="2.621" transform="translate(41.764 50.315)" fill="#f6f7f9"/>
      <g id="그룹_170" data-name="그룹 170" transform="translate(38.792 65.893)" opacity="0.2">
        <rect id="사각형_122" data-name="사각형 122" width="46.36" height="16.604" fill="#0f4c81"/>
      </g>
      <rect id="사각형_123" data-name="사각형 123" width="26.741" height="1.442" transform="translate(51.803 71.944)" fill="#f6f7f9"/>
      <rect id="사각형_124" data-name="사각형 124" width="13.873" height="1.442" transform="translate(51.803 75.003)" fill="#f6f7f9"/>
      <rect id="사각형_125" data-name="사각형 125" width="4.894" height="1.442" transform="translate(75.495 79.372)" fill="#0f4c81"/>
      <circle id="타원_221" data-name="타원 221" cx="2.621" cy="2.621" r="2.621" transform="translate(41.764 71.573)" fill="#f6f7f9"/>
      <path id="패스_869" data-name="패스 869" d="M180.1,228.676c-.445,2.024-1.247,4.517-1.247,4.517.793.925,4.252,1.09,4.252,1.09l.006-.007h.054c.024.128.052.251.085.368q-.009.173-.017.352a.959.959,0,0,0-.049.432.973.973,0,0,0,.025.1c-.083,1.832-.141,3.785-.091,4.914a4.729,4.729,0,0,0,.1.951,3.426,3.426,0,0,1,.1.73,32.918,32.918,0,0,1-.345,4.425l.016.057c-.007.047-.011.075-.011.075a1.309,1.309,0,0,1,.059.345,23.821,23.821,0,0,1-.769,4.423,54.7,54.7,0,0,0-.554,6.435,4.093,4.093,0,0,0,.031.424c.2,1.477.46,5.6.46,5.6a1.852,1.852,0,0,0,.151.194c-.023.092-.051.185-.08.277a7.768,7.768,0,0,0-.385,2.887c.008.115.017.24.029.367.132,1.521,3.813.575,4.055.4a3.3,3.3,0,0,0-.09-1.312l3.792.937a12.511,12.511,0,0,0,3.968,0c1.279-.4,1.234-1.494-.6-1.674a4.449,4.449,0,0,1-2.8-2.021,38.51,38.51,0,0,0,1.918-7.039,35.236,35.236,0,0,1,.849-4.771l.286-3.7.508-2.183.606-2.887a29.1,29.1,0,0,0,.893-5.655l.529-3.471a6.721,6.721,0,0,0,.123-1.145,12.839,12.839,0,0,1,1.465.392c.827-.643-.345-6.844-.345-6.844s-.564-3.916-1.042-7.487a7.317,7.317,0,0,1,2.282.093l6.944.153a3.53,3.53,0,0,0,.372-.607h.3a.637.637,0,0,0,.086-.168l.123.023a10.272,10.272,0,0,1,1.328.4,1.617,1.617,0,0,0,1.859-2.033c-.246-1.712-2.195-1.091-3.169-.665l-.123.056c-.009-.064-.015-.1-.015-.1l-.314.057a1.519,1.519,0,0,0-.066-.14s-3.406-.132-6.167-.546a8.282,8.282,0,0,1-4.145-2.04,4.527,4.527,0,0,0-1.889-3.2,4.205,4.205,0,0,1-1.916-.648,4.046,4.046,0,0,1-.448-.31l-.076.044-.009-.008c.468-.434.953-.833,1.379-1.168l.192-.148a4.26,4.26,0,0,0,3.48-5.965c-.018-.041-.04-.083-.06-.123a.956.956,0,0,0,.843-.831c.043-.481-.29-.994-.072-1.426a1.387,1.387,0,0,0,.1-.2.543.543,0,0,0,.016-.2,1.424,1.424,0,0,0-.575-1.034c-.493-.357-.931-.176-1.47-.207a17.747,17.747,0,0,1-1.854-.287,6.41,6.41,0,0,0-2.129-.07,2.744,2.744,0,0,0-1.8,1.054c-.175.251-.293.537-.46.8-.187.3-.43.557-.645.835a2.534,2.534,0,0,0-.626,1.619c.016.334.134.656.157.991a6.034,6.034,0,0,1-.069.931,4.075,4.075,0,0,0,.068,1.187.735.735,0,0,0,.136.338.721.721,0,0,0,.3.192,2.674,2.674,0,0,0,.367.115,5.251,5.251,0,0,1-.514.925l-.186-.193-.5.786-.02-.053c-.024.049-.052.1-.08.144l-.052-.144a3.022,3.022,0,0,1-1.127,1.128,10.577,10.577,0,0,1-3.154,1.17c-2.96.43-2.413,3.488-2.413,3.488s-1.256,5.456-1.609,8.829a9.419,9.419,0,0,0,.958,5.521Zm14.117-9.972c.115.376.216.732.3,1.043l-.055.022c-.063-.288-.149-.658-.244-1.065Zm-3.257-9.155-.016.01.015-.015Zm-5.106,57.011c-.145-.865-.361-1.91-.494-2.534.094-.307.219-.776.367-1.473.331-1.564.529-7.1.529-7.1l.772-4.649a15.335,15.335,0,0,0,.86-3.907c.284-.749.94-5.335,1.045-6.072-.03.509-.1,1.8-.139,3.23v.039c-.029,1.081-.037,2.241,0,3.2h0c.01.27.024.526.043.763.006.061.009.124.011.186a18.568,18.568,0,0,1-1.034,5.631,18.5,18.5,0,0,0-.424,3.625,2.392,2.392,0,0,0,.1.689,1.22,1.22,0,0,1,.056.319,21.586,21.586,0,0,1-.9,4.493A16.62,16.62,0,0,0,185.855,266.56Z" transform="translate(-161.31 -176.463)" fill="url(#linear-gradient-2)"/>
      <path id="패스_870" data-name="패스 870" d="M246.6,760.9s1.289,2.337,3.1,2.512,1.857,1.264.589,1.66a12.325,12.325,0,0,1-3.932,0l-3.8-.939s.46-3.758,1.07-3.954S246.6,760.9,246.6,760.9Z" transform="translate(-217.959 -674.195)" fill="#4c4c78"/>
      <path id="패스_871" data-name="패스 871" d="M211.692,764.923s.962,4.325.722,4.5-3.889,1.113-4.022-.394c-.011-.125-.021-.247-.028-.363a7.658,7.658,0,0,1,.382-2.861,2.37,2.37,0,0,0,.148-.882C208.831,764.316,211.692,764.923,211.692,764.923Z" transform="translate(-187.682 -678.18)" fill="#4c4c78"/>
      <path id="패스_872" data-name="패스 872" d="M247.79,250.039s2.949,7.239,2.425,4.918c-.345-1.542,1.9-3.589,3.447-4.792.789-.614,1.4-1.008,1.4-1.008s-5.539-6.456-5.146-3.67a4.194,4.194,0,0,1-.3,2.248A5.893,5.893,0,0,1,247.79,250.039Z" transform="translate(-222.588 -218.055)" fill="#ffb9b9"/>
      <path id="패스_873" data-name="패스 873" d="M411.77,359.224a1.693,1.693,0,0,1,.674.043,9.946,9.946,0,0,1,1.316.4,1.6,1.6,0,0,0,1.839-2.014c-.244-1.7-2.174-1.082-3.141-.66-.329.144-.547.265-.547.265Z" transform="translate(-367.725 -316.952)" fill="#ffb9b9"/>
      <path id="패스_874" data-name="패스 874" d="M411.77,362.812a1.7,1.7,0,0,1,.674.043,6.341,6.341,0,0,0,.018-2.274c-.329.144-.547.265-.547.265Z" transform="translate(-367.725 -320.54)" opacity="0.1"/>
      <path id="패스_875" data-name="패스 875" d="M410.325,360.325l.568-.1s.292,1.953-.088,2.464h-.654Z" transform="translate(-366.291 -320.221)" fill="#cbcdda"/>
      <path id="패스_876" data-name="패스 876" d="M308.944,389.128s1.737-1.034,1.944.272.481,3.551.481,3.551l.48,2.851.623,5.713-.087.972s-1.847-.618-2.283-.4-.787-2.4-.787-2.4l-.72-2.71-.115-5.746Z" transform="translate(-276.304 -345.464)" fill="#4c4c78"/>
      <path id="패스_877" data-name="패스 877" d="M308.944,389.128s1.737-1.034,1.944.272.481,3.551.481,3.551l.48,2.851.623,5.713-.087.972s-1.847-.618-2.283-.4-.787-2.4-.787-2.4l-.72-2.71-.115-5.746Z" transform="translate(-276.304 -345.464)" opacity="0.1"/>
      <path id="패스_878" data-name="패스 878" d="M320.65,333.56A8.344,8.344,0,0,0,325.189,336c2.736.41,6.112.54,6.112.54a2.963,2.963,0,0,1-.377,3.146l-6.882-.152a6.652,6.652,0,0,0-2.7,0Z" transform="translate(-287.076 -296.625)" fill="#4c4c78"/>
      <path id="패스_879" data-name="패스 879" d="M320.65,333.56A8.344,8.344,0,0,0,325.189,336c2.736.41,6.112.54,6.112.54a2.963,2.963,0,0,1-.377,3.146l-6.882-.152a6.652,6.652,0,0,0-2.7,0Z" transform="translate(-287.076 -296.625)" opacity="0.05"/>
      <path id="패스_880" data-name="패스 880" d="M450.84,406.14" transform="translate(-402.306 -360.865)" fill="none" stroke="blue" stroke-miterlimit="10" stroke-width="1"/>
      <path id="패스_881" data-name="패스 881" d="M266.156,247.707a3.869,3.869,0,0,0,3.535,2.5h.221c.789-.614,1.4-1.008,1.4-1.008s-5.539-6.456-5.146-3.67A4.1,4.1,0,0,1,266.156,247.707Z" transform="translate(-238.835 -218.09)" opacity="0.1"/>
      <path id="패스_882" data-name="패스 882" d="M260.25,221.221a4.213,4.213,0,1,0,1.235-2.988A4.222,4.222,0,0,0,260.25,221.221Z" transform="translate(-233.617 -193.459)" fill="#ffb9b9"/>
      <path id="패스_883" data-name="패스 883" d="M237.8,312.091s9.416.831,9.767-.371-.961-4.456-.961-4.456l.421-4.545.016-.175s-1.177-4.916-1.138-5.3a53.075,53.075,0,0,0-2.3-5.322l-.072-.152-.075.044-.032.02-.46.269-1.824-.43-2.195-1.149-.208,12.571Z" transform="translate(-213.746 -258.531)" fill="#cbcdda"/>
      <path id="패스_884" data-name="패스 884" d="M277.283,302.494a.75.75,0,0,1,.9.47,6.626,6.626,0,0,0,.345.8l.252,1.494.46,2.359.338,10.457-.152,1.862-.841-1.494-.153-9.767V307.46a8.816,8.816,0,0,0-.7-3.052l-.115-.275-.732-.939Z" transform="translate(-248.336 -269.109)" opacity="0.1"/>
      <path id="패스_885" data-name="패스 885" d="M278.406,301.354a.75.75,0,0,1,.9.47,6.624,6.624,0,0,0,.345.8l.252,1.494.46,2.359.339,10.457-.154,1.857L279.7,317.3l-.153-9.767v-1.218a8.814,8.814,0,0,0-.7-3.052l-.115-.275-.734-.935Z" transform="translate(-249.327 -268.1)" fill="#4c4c78"/>
      <path id="패스_886" data-name="패스 886" d="M250.844,278a17.216,17.216,0,0,0,3.014,2.643,6.862,6.862,0,0,1-.786,2.141,32.452,32.452,0,0,0-2.758-2.577l-.345-.849Z" transform="translate(-224.518 -247.449)" opacity="0.1"/>
      <path id="패스_887" data-name="패스 887" d="M250.844,276.9a17.216,17.216,0,0,0,3.014,2.643,6.862,6.862,0,0,1-.786,2.141,32.457,32.457,0,0,0-2.758-2.577l-.345-.849Z" transform="translate(-224.518 -246.476)" fill="#cbcdda"/>
      <path id="패스_888" data-name="패스 888" d="M286.58,301.35l.023.061.715,1.914,1.276,3.615s.013.037.034.106c.211.657,1.349,4.225,1.573,5.263l.016-.175s-1.176-4.921-1.136-5.309a53.088,53.088,0,0,0-2.3-5.322c-.063-.044-.115-.08-.147-.108Z" transform="translate(-256.921 -268.116)" opacity="0.1"/>
      <path id="패스_889" data-name="패스 889" d="M287.71,301.33l.738,1.978,1.277,3.615s.013.037.034.106c.224.7,1.5,4.7,1.609,5.432.115.8,1.724,5.146,1.724,5.146l.919,7.521c.819-.639-.345-6.78-.345-6.78s-1.311-9.11-1.621-12.14-1.991-3.927-1.991-3.927a4.172,4.172,0,0,1-1.9-.642A4.059,4.059,0,0,1,287.71,301.33Z" transform="translate(-257.921 -268.098)" fill="#4c4c78"/>
      <path id="패스_890" data-name="패스 890" d="M206.937,492.662c.2,1.464.46,5.55.46,5.55.919,1.379,2.95.633,2.95.633a9.389,9.389,0,0,0,.545-1.967c.327-1.551.525-7.035.525-7.035l.765-4.609a15.2,15.2,0,0,0,.851-3.867c.306-.8,1.049-6.118,1.049-6.118a71.167,71.167,0,0,0-.115,7.275,17.85,17.85,0,0,1-1,5.9s-.678,3.168-.327,4.151-.874,5.047-.874,5.047c.109,1.18,3.583.7,3.583.7a38.927,38.927,0,0,0,1.922-7.035,34.92,34.92,0,0,1,.842-4.73l.283-3.67.5-2.163.6-2.861a28.907,28.907,0,0,0,.885-5.6l.524-3.44a10.894,10.894,0,0,0-.4-4.745c-.129-.452-.23-.729-.23-.729a21.29,21.29,0,0,1-2.916.668,5.075,5.075,0,0,1-1.494.115,33.191,33.191,0,0,1-6.653-1.217l-.23-.069-.046.393-.108.938-.191,1.663s-.591,8.87-.241,10.072-.24,5.239-.24,5.239c.327.958-.7,4.854-.7,4.854A46.866,46.866,0,0,0,206.937,492.662Z" transform="translate(-186.4 -411.049)" opacity="0.1"/>
      <path id="패스_891" data-name="패스 891" d="M206.938,491.522c.2,1.464.46,5.55.46,5.55.919,1.379,2.95.633,2.95.633a9.39,9.39,0,0,0,.545-1.967c.327-1.551.525-7.035.525-7.035l.765-4.609a15.2,15.2,0,0,0,.851-3.867c.306-.8,1.049-6.118,1.049-6.118a71.157,71.157,0,0,0-.115,7.275,17.85,17.85,0,0,1-1,5.9s-.678,3.168-.327,4.151-.874,5.047-.874,5.047c.109,1.18,3.583.7,3.583.7a38.927,38.927,0,0,0,1.922-7.035,34.912,34.912,0,0,1,.842-4.73l.283-3.67.5-2.163.6-2.861a28.906,28.906,0,0,0,.885-5.6l.524-3.442a10.891,10.891,0,0,0-.4-4.744c-.129-.452-.23-.729-.23-.729a21.29,21.29,0,0,1-2.916.668,5.076,5.076,0,0,1-1.494.115,33.19,33.19,0,0,1-6.653-1.217l-.23-.069-.046.393-.108.938-.191,1.663s-.591,8.87-.241,10.072-.237,5.24-.237,5.24c.327.958-.7,4.854-.7,4.854A46.741,46.741,0,0,0,206.938,491.522Z" transform="translate(-186.401 -410.04)" fill="#474463"/>
      <path id="패스_892" data-name="패스 892" d="M260.25,221.177a4.212,4.212,0,0,0,.56,2.1,2.226,2.226,0,0,0,1.855-.447,9.1,9.1,0,0,0,.843-1.046,6.144,6.144,0,0,1,.6-.6,1.868,1.868,0,0,1,.476-.345.646.646,0,0,1,.575-.007c.23.13.313.418.444.649a.866.866,0,0,0,.484.422.512.512,0,0,0,.575-.2c.142-.246.038-.63.278-.779a1.445,1.445,0,0,1,.2-.079c.309-.14.345-.555.37-.893a.559.559,0,0,1,.19-.445.855.855,0,0,1,.49-.04.689.689,0,0,0,.147-.013,4.222,4.222,0,0,0-8.082,1.711Z" transform="translate(-233.617 -193.415)" opacity="0.1"/>
      <path id="패스_893" data-name="패스 893" d="M264.234,201.146a1.4,1.4,0,0,1,.569,1.02.537.537,0,0,1-.015.2,1.5,1.5,0,0,1-.1.2c-.216.427.115.935.071,1.413a.94.94,0,0,1-.919.825.9.9,0,0,0-.49.04.545.545,0,0,0-.19.445c-.026.339-.061.754-.37.893a1.62,1.62,0,0,0-.2.08c-.24.149-.134.534-.278.778a.511.511,0,0,1-.575.2.871.871,0,0,1-.484-.422c-.132-.23-.211-.519-.444-.649a.649.649,0,0,0-.575.006,1.872,1.872,0,0,0-.476.345,6.27,6.27,0,0,0-.6.6,8.892,8.892,0,0,1-.845,1.046,2.348,2.348,0,0,1-2.39.3.731.731,0,0,1-.3-.19.742.742,0,0,1-.138-.34,4.083,4.083,0,0,1-.068-1.177,5.941,5.941,0,0,0,.069-.919c-.022-.331-.14-.65-.156-.981a2.531,2.531,0,0,1,.621-1.609c.214-.276.454-.532.639-.827.161-.256.278-.54.452-.788a2.76,2.76,0,0,1,1.783-1.045,6.241,6.241,0,0,1,2.111.069,17.368,17.368,0,0,0,1.839.285C263.311,200.966,263.745,200.786,264.234,201.146Z" transform="translate(-229.265 -178.869)" fill="#472727"/>
      <path id="패스_894" data-name="패스 894" d="M287.71,301.33l.738,1.978,1.277,3.615s.013.037.034.106h0l-1.609-5.39A4.056,4.056,0,0,1,287.71,301.33Z" transform="translate(-257.921 -268.098)" opacity="0.1"/>
      <path id="패스_895" data-name="패스 895" d="M218.3,490.943s-.077,2.391.568,2.988l1.714-3.234-1.441-.7Z" transform="translate(-196.483 -435.088)" fill="#ffb9b9"/>
      <path id="패스_896" data-name="패스 896" d="M183.48,308.825c.787.919,4.21,1.081,4.21,1.081l3.393-5.341a10.927,10.927,0,0,0,2.309-3.065,9.346,9.346,0,0,0,1.379-5.882,56.307,56.307,0,0,0-1.034-5.588c-.146-.933-2.259-6.78-2.259-6.78a3,3,0,0,1-1.118,1.118,10.442,10.442,0,0,1-3.128,1.151c-2.934.426-2.392,3.458-2.392,3.458s-.036,11.786.148,13.2S183.48,308.825,183.48,308.825Z" transform="translate(-165.668 -252.096)" opacity="0.1"/>
      <path id="패스_897" data-name="패스 897" d="M189.49,479.318l.1.873,1.192-.437.873-1.321L191,477.92Z" transform="translate(-167.718 -423.005)" fill="#cbcdda"/>
      <path id="패스_898" data-name="패스 898" d="M218.3,463.5l.623.063,6.008.6a9.73,9.73,0,0,0,2.887-.141l2.784-.557c-.129-.452-.23-.729-.23-.729a21.288,21.288,0,0,1-2.916.668,5.075,5.075,0,0,1-1.494.115A33.192,33.192,0,0,1,219.3,462.3l-.271.324Z" transform="translate(-196.487 -410.571)" opacity="0.1"/>
      <g id="그룹_171" data-name="그룹 171" transform="translate(20.492 51.66)" opacity="0.1">
        <path id="패스_899" data-name="패스 899" d="M322.75,466.113a.62.62,0,0,0,.059-.033l.006.016Z" transform="translate(-309.426 -465.577)"/>
        <path id="패스_900" data-name="패스 900" d="M207.367,484.858s1.027-3.9.7-4.854c0,0,.591-4.037.24-5.239s.241-10.072.241-10.072l.194-1.663.115-.938.046-.393s.078.025.23.069l.139.041-.032.154-.109.938-.194,1.663s-.589,8.869-.241,10.072-.239,5.239-.239,5.239c.327.958-.7,4.854-.7,4.854a46.729,46.729,0,0,0-.525,6.665c.2,1.464.46,5.549.46,5.549a2.364,2.364,0,0,0,2.567.739c-.007.017-.012.026-.012.026s-2.032.742-2.95-.633c0,0-.262-4.086-.46-5.55A46.456,46.456,0,0,1,207.367,484.858Z" transform="translate(-206.804 -461.7)"/>
        <path id="패스_901" data-name="패스 901" d="M250.008,586.006c-.345-.982.329-4.151.329-4.151a17.727,17.727,0,0,0,1-5.9c-.082-1.047-.076-2.483-.041-3.8.279-1.7.545-3.6.545-3.6a70.013,70.013,0,0,0-.109,7.275,17.683,17.683,0,0,1-1,5.9s-.678,3.168-.328,4.151-.874,5.047-.874,5.047c.087.946,2.333.825,3.218.739l-.033.091s-3.474.481-3.582-.7C249.135,591.053,250.357,586.988,250.008,586.006Z" transform="translate(-244.266 -556.272)"/>
      </g>
      <path id="패스_902" data-name="패스 902" d="M182.34,308.825c.787.919,4.21,1.081,4.21,1.081l3.392-5.341a10.938,10.938,0,0,0,2.31-3.065,9.338,9.338,0,0,0,1.379-5.882,56.308,56.308,0,0,0-1.034-5.588c-.146-.933-2.259-6.78-2.259-6.78a3,3,0,0,1-1.118,1.118,10.452,10.452,0,0,1-3.127,1.151c-2.934.426-2.392,3.458-2.392,3.458s-.032,11.782.148,13.191S182.34,308.825,182.34,308.825Z" transform="translate(-164.659 -252.096)" fill="#4c4c78"/>
      <path id="패스_903" data-name="패스 903" d="M242.668,286.147l.738.278-.492.345,3.668,8.848c-.085-1.442-1.034-5.588-1.034-5.588-.146-.933-2.259-6.78-2.259-6.78a3,3,0,0,1-1.118,1.118Z" transform="translate(-217.614 -252.096)" opacity="0.1"/>
      <path id="패스_904" data-name="패스 904" d="M177.665,426.076l-3.753-.966-.492,1.524,3.835.934Z" transform="translate(-153.495 -376.263)" opacity="0.1"/>
      <path id="패스_905" data-name="패스 905" d="M185.517,312.2s1.7,1.609,1.065,5.178-1.671,7.455-1.671,7.455l2.775,7.685s-1.934,2.016-2.884,2.26l-2.769-6.144a9.391,9.391,0,0,1-.95-5.472c.344-3.342,1.589-8.751,1.589-8.751S182.666,311.12,185.517,312.2Z" transform="translate(-163.495 -277.527)" opacity="0.1"/>
      <path id="패스_906" data-name="패스 906" d="M184.335,312.2s1.7,1.609,1.065,5.178-1.671,7.455-1.671,7.455l2.766,7.685s-1.931,2.016-2.883,2.26l-2.769-6.144a9.391,9.391,0,0,1-.95-5.472c.344-3.342,1.589-8.75,1.589-8.75S181.482,311.12,184.335,312.2Z" transform="translate(-162.442 -277.527)" fill="#4c4c78"/>
      <path id="패스_907" data-name="패스 907" d="M221.54,492.027s-2.163,2.988-2,3.792.8.371.8.371l.856-1.17.765-2.183S221.884,491.9,221.54,492.027Z" transform="translate(-197.578 -436.871)" opacity="0.1"/>
      <path id="패스_908" data-name="패스 908" d="M223.861,492.027s-2.164,2.988-2,3.792.8.371.8.371l.851-1.169.765-2.183S224.2,491.9,223.861,492.027Z" transform="translate(-199.631 -436.871)" opacity="0.1"/>
      <path id="패스_909" data-name="패스 909" d="M222.72,492.027s-2.163,2.988-2,3.792.8.371.8.371l.852-1.169.765-2.183S223.061,491.9,222.72,492.027Z" transform="translate(-198.622 -436.871)" fill="#474463"/>
    </g>
    <line id="선_19" data-name="선 19" y2="287" transform="translate(-7419.5 -4610.5)" fill="none" stroke="#b1b1b1" stroke-width="0.5"/>
    <line id="선_20" data-name="선 20" y2="134" transform="translate(-7419.5 -4024.5)" fill="none" stroke="#b1b1b1" stroke-width="0.5"/>
    <g id="그룹_217" data-name="그룹 217" transform="translate(-7828.996 -4381.998)">
      <path id="패스_327" data-name="패스 327" d="M496.7,167.269c-44.3-1.54-86.489-15.839-126.777-31.486S289.734,102.8,246.5,94.51c-27.81-5.332-59.617-6.085-82.02,8.816-21.568,14.374-28.535,39.117-32.279,62.1-2.82,17.29-4.476,35.483,3.244,51.67,5.366,11.239,14.88,20.685,21.465,31.451,22.909,37.454,6.715,83.642-18.1,120.213-11.636,17.16-25.154,33.539-34.141,51.787s-13.142,39.186-5.277,57.817c7.789,18.481,26.359,32.334,46.475,42.088,40.856,19.808,88.981,25.483,135.942,28.693,103.923,7.112,208.393,4.031,312.589.951,38.563-1.143,77.29-2.3,115.223-8.262,21.068-3.313,42.813-8.57,58.111-21.219,19.411-16.106,24.223-43.382,11.212-63.573C757.116,423.171,696.8,414.759,681.53,378.4c-8.392-20.007.226-42.3,12.43-60.856C720.134,277.735,764,242.807,766.308,197.3c1.588-31.26-19.5-62.56-52.109-77.345-34.175-15.5-81.575-13.552-106.777,12.108C581.447,158.46,535.82,168.624,496.7,167.269Z" transform="translate(-95.23 -91.02)" fill="#0f4c81" opacity="0.1"/>
      <g id="그룹_135" data-name="그룹 135" transform="translate(35.488 230.634)" opacity="0.2">
        <path id="패스_328" data-name="패스 328" d="M336.144,715.086a16.575,16.575,0,0,1,1.027,2.444q-8.214,3.1-16.427,6.5c-.116-.2-.233-.411-.342-.623a13.99,13.99,0,0,1-1.7-7.153c.144-3.21,1.567-5.975,4.107-7.31s5.619-.965,8.351.684a14.128,14.128,0,0,1,4.99,5.455Z" transform="translate(-201.228 -516.374)" fill="#0f4c81"/>
        <ellipse id="타원_33" data-name="타원 33" cx="8.912" cy="11.67" rx="8.912" ry="11.67" transform="translate(107.048 184.101) rotate(-27.84)" fill="#0f4c81"/>
        <ellipse id="타원_34" data-name="타원 34" cx="8.912" cy="11.67" rx="8.912" ry="11.67" transform="translate(100.391 171.49) rotate(-27.84)" fill="#0f4c81"/>
        <ellipse id="타원_35" data-name="타원 35" cx="8.912" cy="11.67" rx="8.912" ry="11.67" transform="translate(93.731 158.88) rotate(-27.84)" fill="#0f4c81"/>
        <ellipse id="타원_36" data-name="타원 36" cx="8.912" cy="11.67" rx="8.912" ry="11.67" transform="translate(87.067 146.269) rotate(-27.84)" fill="#0f4c81"/>
        <path id="패스_329" data-name="패스 329" d="M172.4,509.7a43.736,43.736,0,0,1-5.216-2.738l18.912-14.374-22.307,12a42.752,42.752,0,0,1-16.516-29.535l38.275-.281L147.08,469.06a42.7,42.7,0,1,1,84.662,9.322,42.475,42.475,0,0,1,7.94,4.613l-19.5,28.159,23.58-24.757A42.752,42.752,0,0,1,256.4,525.063,42.7,42.7,0,1,1,197.053,556.4a42.7,42.7,0,0,1-24.641-46.674Z" transform="translate(-147.08 -427.975)" fill="#0f4c81"/>
        <path id="패스_330" data-name="패스 330" d="M274.814,529.36a42.519,42.519,0,0,1,4.251,27.6A42.7,42.7,0,1,1,219.721,588.3C211.268,584.549,272.576,525.124,274.814,529.36Z" transform="translate(-169.748 -459.897)" fill="#0f4c81" opacity="0.1"/>
      </g>
      <g id="그룹_136" data-name="그룹 136" transform="translate(461.219 48.575)" opacity="0.2">
        <path id="패스_331" data-name="패스 331" d="M786.335,582.429a21.757,21.757,0,0,0-.945,3.559q11.924,2.676,23.854,5.811c.123-.294.246-.609.363-.924a19.535,19.535,0,0,0,.951-10.178c-.814-4.381-3.3-7.912-7.057-9.275s-7.912-.253-11.348,2.574A19.568,19.568,0,0,0,786.335,582.429Z" transform="translate(-774.218 -290.995)" fill="#3f3d56"/>
        <ellipse id="타원_37" data-name="타원 37" cx="16.201" cy="12.375" rx="16.201" ry="12.375" transform="matrix(0.341, -0.94, 0.94, 0.341, 13.341, 288.038)" fill="#3f3d56"/>
        <ellipse id="타원_38" data-name="타원 38" cx="16.201" cy="12.375" rx="16.201" ry="12.375" transform="matrix(0.34, -0.94, 0.94, 0.34, 19.381, 268.895)" fill="#3f3d56"/>
        <ellipse id="타원_39" data-name="타원 39" cx="16.201" cy="12.375" rx="16.201" ry="12.375" transform="matrix(0.341, -0.94, 0.94, 0.341, 26.861, 250.81)" fill="#3f3d56"/>
        <ellipse id="타원_40" data-name="타원 40" cx="16.201" cy="12.375" rx="16.201" ry="12.375" transform="matrix(0.341, -0.94, 0.94, 0.341, 33.618, 232.2)" fill="#3f3d56"/>
        <path id="패스_332" data-name="패스 332" d="M909.685,271.641a58.986,58.986,0,0,0,6.653-4.791l-28.748-16.119,32.971,12.252a59.378,59.378,0,0,0,17.112-43.765l-52.7,6.9,51.821-15.209a59.289,59.289,0,1,0-114.682,28.932,59.546,59.546,0,0,0-10.041,7.851l32.17,35.024L807.091,253.14a59.316,59.316,0,0,0-9.993,55.592,59.282,59.282,0,1,0,87.612,31.814,59.3,59.3,0,0,0,25.024-68.905Z" transform="translate(-769.081 -161.988)" fill="#0f4c81"/>
        <path id="패스_333" data-name="패스 333" d="M797.646,319.528a59.056,59.056,0,0,0-.589,38.789,59.282,59.282,0,1,0,87.612,31.814C895.559,383.382,799.918,313.279,797.646,319.528Z" transform="translate(-769.068 -211.573)" opacity="0.1"/>
      </g>
      <path id="패스_441" data-name="패스 441" d="M46.065,0C71.505,0,92.129,3.965,92.129,8.857s-20.624,8.857-46.065,8.857S0,13.749,0,8.857,20.624,0,46.065,0Z" transform="translate(77.46 430.892)" fill="#0f4c81"/>
      <ellipse id="타원_42" data-name="타원 42" cx="5.366" cy="7.023" rx="5.366" ry="7.023" transform="translate(117.385 428.962)" fill="#3f3d56"/>
      <ellipse id="타원_43" data-name="타원 43" cx="5.366" cy="7.023" rx="5.366" ry="7.023" transform="translate(117.385 420.379)" fill="#3f3d56"/>
      <ellipse id="타원_44" data-name="타원 44" cx="5.366" cy="7.023" rx="5.366" ry="7.023" transform="translate(117.385 411.795)" fill="#3f3d56"/>
      <ellipse id="타원_45" data-name="타원 45" cx="5.366" cy="7.023" rx="5.366" ry="7.023" transform="translate(117.385 403.219)" fill="#3f3d56"/>
      <ellipse id="타원_46" data-name="타원 46" cx="5.366" cy="7.023" rx="5.366" ry="7.023" transform="translate(117.385 394.636)" fill="#3f3d56"/>
      <ellipse id="타원_47" data-name="타원 47" cx="5.366" cy="7.023" rx="5.366" ry="7.023" transform="translate(117.385 386.053)" fill="#3f3d56"/>
      <ellipse id="타원_48" data-name="타원 48" cx="5.366" cy="7.023" rx="5.366" ry="7.023" transform="translate(117.385 377.476)" fill="#3f3d56"/>
      <path id="패스_334" data-name="패스 334" d="M282.75,547.825a25.224,25.224,0,0,0,1.992-2.943l-14.086-2.313,15.236.116a25.715,25.715,0,0,0,.493-20.356l-20.445,10.6L284.8,519.078a25.695,25.695,0,1,0-42.437,28.748,25.635,25.635,0,0,0-2.936,4.682l18.3,9.507-19.507-6.55a25.7,25.7,0,0,0,4.148,24.128,25.688,25.688,0,1,0,40.383,0,25.7,25.7,0,0,0,0-31.766Z" transform="translate(-139.917 -222.033)" fill="#0f4c81"/>
      <path id="패스_335" data-name="패스 335" d="M236.86,590a25.558,25.558,0,0,0,5.476,15.887,25.688,25.688,0,1,0,40.384,0C286.19,601.518,236.86,587.144,236.86,590Z" transform="translate(-139.914 -248.347)" opacity="0.1"/>
      <rect id="사각형_80" data-name="사각형 80" width="331.015" height="71.424" rx="7.42" transform="translate(183.717 122.088)" fill="#35323e"/>
      <path id="패스_336" data-name="패스 336" d="M402.895,143.17s4.7,127.879-3.635,142.848H681.083s-11.971-98.365,0-142.848Z" transform="translate(-191.163 -107.476)" fill="#fff"/>
      <path id="패스_337" data-name="패스 337" d="M402.895,143.17s4.7,127.879-3.635,142.848H681.083s-11.971-98.365,0-142.848Z" transform="translate(-191.163 -107.476)" opacity="0.03"/>
      <rect id="사각형_81" data-name="사각형 81" width="206.565" height="25.661" transform="translate(240.596 173.094)" fill="#35323e"/>
      <path id="패스_338" data-name="패스 338" d="M696.994,644.139H314.13a20.411,20.411,0,0,1-20.288-22.669l7.83-70.562q.773-7.036,1.116-14.107l1.472-47.844q.506-16.215,2.19-32.348.876-8.364,2.053-16.694l10.069-70.144a36.961,36.961,0,0,1,36.551-31.622h15.291a35.935,35.935,0,0,1,21.5,7.235c15.839,11.821,60.835,20.349,113.882,20.349s98.05-8.528,113.923-20.377a35.934,35.934,0,0,1,21.5-7.235h24.771a22.143,22.143,0,0,1,21.807,18.3l13.518,76.66q2.053,11.691,3.484,23.477,2.382,19.6,2.991,39.364l1.369,44.456a250.1,250.1,0,0,0,2.4,27.7l7.262,50.863a22.047,22.047,0,0,1-21.828,25.2Z" transform="translate(-157.86 -168.989)" fill="#464353"/>
      <rect id="사각형_82" data-name="사각형 82" width="365.656" height="157.174" rx="19.96" transform="translate(165.332 297.66)" opacity="0.1"/>
      <ellipse id="타원_49" data-name="타원 49" cx="10.479" cy="8.768" rx="10.479" ry="8.768" transform="translate(178.371 307.277)" fill="#0a375d"/>
      <path id="패스_442" data-name="패스 442" d="M10.479,0c5.788,0,10.479,3.926,10.479,8.768s-4.692,8.768-10.479,8.768S0,13.61,0,8.768,4.692,0,10.479,0Z" transform="translate(178.371 307.277)" fill="#0f4c81" opacity="0.1"/>
      <ellipse id="타원_51" data-name="타원 51" cx="10.479" cy="8.768" rx="10.479" ry="8.768" transform="translate(178.371 305.354)" fill="#0f4c81"/>
      <ellipse id="타원_52" data-name="타원 52" cx="10.479" cy="8.768" rx="10.479" ry="8.768" transform="translate(190.774 337.859)" fill="#35323e"/>
      <ellipse id="타원_53" data-name="타원 53" cx="10.479" cy="8.768" rx="10.479" ry="8.768" transform="translate(190.774 337.859)" opacity="0.1"/>
      <ellipse id="타원_54" data-name="타원 54" cx="10.479" cy="8.768" rx="10.479" ry="8.768" transform="translate(190.774 335.936)" fill="#35323e"/>
      <ellipse id="타원_55" data-name="타원 55" cx="10.479" cy="8.768" rx="10.479" ry="8.768" transform="translate(197.618 368.441)" fill="#35323e"/>
      <ellipse id="타원_56" data-name="타원 56" cx="10.479" cy="8.768" rx="10.479" ry="8.768" transform="translate(197.618 368.441)" opacity="0.1"/>
      <ellipse id="타원_57" data-name="타원 57" cx="10.479" cy="8.768" rx="10.479" ry="8.768" transform="translate(197.618 366.518)" fill="#35323e"/>
      <ellipse id="타원_58" data-name="타원 58" cx="10.479" cy="8.768" rx="10.479" ry="8.768" transform="translate(171.102 372.076)" fill="#35323e"/>
      <ellipse id="타원_59" data-name="타원 59" cx="10.479" cy="8.768" rx="10.479" ry="8.768" transform="translate(171.102 372.076)" opacity="0.1"/>
      <ellipse id="타원_60" data-name="타원 60" cx="10.479" cy="8.768" rx="10.479" ry="8.768" transform="translate(171.102 370.152)" fill="#35323e"/>
      <ellipse id="타원_61" data-name="타원 61" cx="10.479" cy="8.768" rx="10.479" ry="8.768" transform="translate(210.445 399.016)" fill="#35323e"/>
      <ellipse id="타원_62" data-name="타원 62" cx="10.479" cy="8.768" rx="10.479" ry="8.768" transform="translate(210.445 399.016)" opacity="0.1"/>
      <ellipse id="타원_63" data-name="타원 63" cx="10.479" cy="8.768" rx="10.479" ry="8.768" transform="translate(210.445 397.093)" fill="#35323e"/>
      <ellipse id="타원_64" data-name="타원 64" cx="10.479" cy="8.768" rx="10.479" ry="8.768" transform="translate(175.38 400.091)" fill="#35323e"/>
      <ellipse id="타원_65" data-name="타원 65" cx="10.479" cy="8.768" rx="10.479" ry="8.768" transform="translate(175.38 400.091)" opacity="0.1"/>
      <ellipse id="타원_66" data-name="타원 66" cx="10.479" cy="8.768" rx="10.479" ry="8.768" transform="translate(175.38 398.161)" fill="#35323e"/>
      <ellipse id="타원_67" data-name="타원 67" cx="10.479" cy="8.768" rx="10.479" ry="8.768" transform="translate(239.316 399.016)" fill="#35323e"/>
      <ellipse id="타원_68" data-name="타원 68" cx="10.479" cy="8.768" rx="10.479" ry="8.768" transform="translate(239.316 399.016)" opacity="0.1"/>
      <ellipse id="타원_69" data-name="타원 69" cx="10.479" cy="8.768" rx="10.479" ry="8.768" transform="translate(239.316 397.093)" fill="#35323e"/>
      <ellipse id="타원_70" data-name="타원 70" cx="10.479" cy="8.768" rx="10.479" ry="8.768" transform="translate(269.891 399.016)" fill="#35323e"/>
      <ellipse id="타원_71" data-name="타원 71" cx="10.479" cy="8.768" rx="10.479" ry="8.768" transform="translate(269.891 399.016)" opacity="0.1"/>
      <ellipse id="타원_72" data-name="타원 72" cx="10.479" cy="8.768" rx="10.479" ry="8.768" transform="translate(269.891 397.093)" fill="#35323e"/>
      <ellipse id="타원_73" data-name="타원 73" cx="10.479" cy="8.768" rx="10.479" ry="8.768" transform="translate(298.119 399.016)" fill="#35323e"/>
      <ellipse id="타원_74" data-name="타원 74" cx="10.479" cy="8.768" rx="10.479" ry="8.768" transform="translate(298.119 399.016)" opacity="0.1"/>
      <ellipse id="타원_75" data-name="타원 75" cx="10.479" cy="8.768" rx="10.479" ry="8.768" transform="translate(298.119 397.093)" fill="#35323e"/>
      <ellipse id="타원_76" data-name="타원 76" cx="10.479" cy="8.768" rx="10.479" ry="8.768" transform="translate(329.337 399.016)" fill="#35323e"/>
      <ellipse id="타원_77" data-name="타원 77" cx="10.479" cy="8.768" rx="10.479" ry="8.768" transform="translate(329.337 399.016)" opacity="0.1"/>
      <ellipse id="타원_78" data-name="타원 78" cx="10.479" cy="8.768" rx="10.479" ry="8.768" transform="translate(329.337 397.093)" fill="#35323e"/>
      <ellipse id="타원_79" data-name="타원 79" cx="10.479" cy="8.768" rx="10.479" ry="8.768" transform="translate(357.565 399.016)" fill="#35323e"/>
      <ellipse id="타원_80" data-name="타원 80" cx="10.479" cy="8.768" rx="10.479" ry="8.768" transform="translate(357.565 399.016)" opacity="0.1"/>
      <ellipse id="타원_81" data-name="타원 81" cx="10.479" cy="8.768" rx="10.479" ry="8.768" transform="translate(357.565 397.093)" fill="#35323e"/>
      <ellipse id="타원_82" data-name="타원 82" cx="10.479" cy="8.768" rx="10.479" ry="8.768" transform="translate(385.573 399.016)" fill="#35323e"/>
      <ellipse id="타원_83" data-name="타원 83" cx="10.479" cy="8.768" rx="10.479" ry="8.768" transform="translate(385.573 399.016)" opacity="0.1"/>
      <ellipse id="타원_84" data-name="타원 84" cx="10.479" cy="8.768" rx="10.479" ry="8.768" transform="translate(385.573 397.093)" fill="#35323e"/>
      <ellipse id="타원_85" data-name="타원 85" cx="10.479" cy="8.768" rx="10.479" ry="8.768" transform="translate(415.943 399.016)" fill="#35323e"/>
      <ellipse id="타원_86" data-name="타원 86" cx="10.479" cy="8.768" rx="10.479" ry="8.768" transform="translate(415.943 399.016)" opacity="0.1"/>
      <ellipse id="타원_87" data-name="타원 87" cx="10.479" cy="8.768" rx="10.479" ry="8.768" transform="translate(415.943 397.093)" fill="#35323e"/>
      <ellipse id="타원_88" data-name="타원 88" cx="10.479" cy="8.768" rx="10.479" ry="8.768" transform="translate(444.382 399.016)" fill="#35323e"/>
      <ellipse id="타원_89" data-name="타원 89" cx="10.479" cy="8.768" rx="10.479" ry="8.768" transform="translate(444.382 399.016)" opacity="0.1"/>
      <ellipse id="타원_90" data-name="타원 90" cx="10.479" cy="8.768" rx="10.479" ry="8.768" transform="translate(444.382 397.093)" fill="#35323e"/>
      <ellipse id="타원_91" data-name="타원 91" cx="10.479" cy="8.768" rx="10.479" ry="8.768" transform="translate(475.813 399.016)" fill="#35323e"/>
      <ellipse id="타원_92" data-name="타원 92" cx="10.479" cy="8.768" rx="10.479" ry="8.768" transform="translate(475.813 399.016)" opacity="0.1"/>
      <ellipse id="타원_93" data-name="타원 93" cx="10.479" cy="8.768" rx="10.479" ry="8.768" transform="translate(475.813 397.093)" fill="#35323e"/>
      <ellipse id="타원_94" data-name="타원 94" cx="10.479" cy="8.768" rx="10.479" ry="8.768" transform="translate(508.106 399.016)" fill="#35323e"/>
      <ellipse id="타원_95" data-name="타원 95" cx="10.479" cy="8.768" rx="10.479" ry="8.768" transform="translate(508.106 399.016)" opacity="0.1"/>
      <ellipse id="타원_96" data-name="타원 96" cx="10.479" cy="8.768" rx="10.479" ry="8.768" transform="translate(508.106 397.093)" fill="#35323e"/>
      <ellipse id="타원_97" data-name="타원 97" cx="10.479" cy="8.768" rx="10.479" ry="8.768" transform="translate(226.701 368.441)" fill="#35323e"/>
      <ellipse id="타원_98" data-name="타원 98" cx="10.479" cy="8.768" rx="10.479" ry="8.768" transform="translate(226.701 368.441)" opacity="0.1"/>
      <ellipse id="타원_99" data-name="타원 99" cx="10.479" cy="8.768" rx="10.479" ry="8.768" transform="translate(226.701 366.518)" fill="#35323e"/>
      <ellipse id="타원_100" data-name="타원 100" cx="10.479" cy="8.768" rx="10.479" ry="8.768" transform="translate(255.777 368.441)" fill="#35323e"/>
      <ellipse id="타원_101" data-name="타원 101" cx="10.479" cy="8.768" rx="10.479" ry="8.768" transform="translate(255.777 368.441)" opacity="0.1"/>
      <ellipse id="타원_102" data-name="타원 102" cx="10.479" cy="8.768" rx="10.479" ry="8.768" transform="translate(255.777 366.518)" fill="#35323e"/>
      <ellipse id="타원_103" data-name="타원 103" cx="10.479" cy="8.768" rx="10.479" ry="8.768" transform="translate(285.716 368.441)" fill="#35323e"/>
      <ellipse id="타원_104" data-name="타원 104" cx="10.479" cy="8.768" rx="10.479" ry="8.768" transform="translate(285.716 368.441)" opacity="0.1"/>
      <ellipse id="타원_105" data-name="타원 105" cx="10.479" cy="8.768" rx="10.479" ry="8.768" transform="translate(285.716 366.518)" fill="#35323e"/>
      <ellipse id="타원_106" data-name="타원 106" cx="10.479" cy="8.768" rx="10.479" ry="8.768" transform="translate(314.368 368.441)" fill="#35323e"/>
      <ellipse id="타원_107" data-name="타원 107" cx="10.479" cy="8.768" rx="10.479" ry="8.768" transform="translate(314.368 368.441)" opacity="0.1"/>
      <ellipse id="타원_108" data-name="타원 108" cx="10.479" cy="8.768" rx="10.479" ry="8.768" transform="translate(314.368 366.518)" fill="#35323e"/>
      <ellipse id="타원_109" data-name="타원 109" cx="10.479" cy="8.768" rx="10.479" ry="8.768" transform="translate(343.663 368.441)" fill="#35323e"/>
      <ellipse id="타원_110" data-name="타원 110" cx="10.479" cy="8.768" rx="10.479" ry="8.768" transform="translate(343.663 368.441)" opacity="0.1"/>
      <ellipse id="타원_111" data-name="타원 111" cx="10.479" cy="8.768" rx="10.479" ry="8.768" transform="translate(343.663 366.518)" fill="#35323e"/>
      <ellipse id="타원_112" data-name="타원 112" cx="10.479" cy="8.768" rx="10.479" ry="8.768" transform="translate(371.678 368.441)" fill="#35323e"/>
      <ellipse id="타원_113" data-name="타원 113" cx="10.479" cy="8.768" rx="10.479" ry="8.768" transform="translate(371.678 368.441)" opacity="0.1"/>
      <ellipse id="타원_114" data-name="타원 114" cx="10.479" cy="8.768" rx="10.479" ry="8.768" transform="translate(371.678 366.518)" fill="#35323e"/>
      <ellipse id="타원_115" data-name="타원 115" cx="10.479" cy="8.768" rx="10.479" ry="8.768" transform="translate(402.041 368.441)" fill="#35323e"/>
      <ellipse id="타원_116" data-name="타원 116" cx="10.479" cy="8.768" rx="10.479" ry="8.768" transform="translate(402.041 368.441)" opacity="0.1"/>
      <ellipse id="타원_117" data-name="타원 117" cx="10.479" cy="8.768" rx="10.479" ry="8.768" transform="translate(402.041 366.518)" fill="#35323e"/>
      <ellipse id="타원_118" data-name="타원 118" cx="10.479" cy="8.768" rx="10.479" ry="8.768" transform="translate(430.912 368.441)" fill="#35323e"/>
      <ellipse id="타원_119" data-name="타원 119" cx="10.479" cy="8.768" rx="10.479" ry="8.768" transform="translate(430.912 368.441)" opacity="0.1"/>
      <ellipse id="타원_120" data-name="타원 120" cx="10.479" cy="8.768" rx="10.479" ry="8.768" transform="translate(430.912 366.518)" fill="#35323e"/>
      <ellipse id="타원_121" data-name="타원 121" cx="10.479" cy="8.768" rx="10.479" ry="8.768" transform="translate(460.42 368.441)" fill="#35323e"/>
      <ellipse id="타원_122" data-name="타원 122" cx="10.479" cy="8.768" rx="10.479" ry="8.768" transform="translate(460.42 368.441)" opacity="0.1"/>
      <ellipse id="타원_123" data-name="타원 123" cx="10.479" cy="8.768" rx="10.479" ry="8.768" transform="translate(460.42 366.518)" fill="#35323e"/>
      <ellipse id="타원_124" data-name="타원 124" cx="10.479" cy="8.768" rx="10.479" ry="8.768" transform="translate(489.927 368.441)" fill="#35323e"/>
      <ellipse id="타원_125" data-name="타원 125" cx="10.479" cy="8.768" rx="10.479" ry="8.768" transform="translate(489.927 368.441)" opacity="0.1"/>
      <ellipse id="타원_126" data-name="타원 126" cx="10.479" cy="8.768" rx="10.479" ry="8.768" transform="translate(489.927 366.518)" fill="#35323e"/>
      <ellipse id="타원_127" data-name="타원 127" cx="10.479" cy="8.768" rx="10.479" ry="8.768" transform="translate(220.281 337.859)" fill="#35323e"/>
      <ellipse id="타원_128" data-name="타원 128" cx="10.479" cy="8.768" rx="10.479" ry="8.768" transform="translate(220.281 337.859)" opacity="0.1"/>
      <ellipse id="타원_129" data-name="타원 129" cx="10.479" cy="8.768" rx="10.479" ry="8.768" transform="translate(220.281 335.936)" fill="#35323e"/>
      <ellipse id="타원_130" data-name="타원 130" cx="10.479" cy="8.768" rx="10.479" ry="8.768" transform="translate(249.795 337.859)" fill="#35323e"/>
      <ellipse id="타원_131" data-name="타원 131" cx="10.479" cy="8.768" rx="10.479" ry="8.768" transform="translate(249.795 337.859)" opacity="0.1"/>
      <ellipse id="타원_132" data-name="타원 132" cx="10.479" cy="8.768" rx="10.479" ry="8.768" transform="translate(249.795 335.936)" fill="#35323e"/>
      <ellipse id="타원_133" data-name="타원 133" cx="10.479" cy="8.768" rx="10.479" ry="8.768" transform="translate(278.235 337.859)" fill="#35323e"/>
      <ellipse id="타원_134" data-name="타원 134" cx="10.479" cy="8.768" rx="10.479" ry="8.768" transform="translate(278.235 337.859)" opacity="0.1"/>
      <ellipse id="타원_135" data-name="타원 135" cx="10.479" cy="8.768" rx="10.479" ry="8.768" transform="translate(278.235 335.936)" fill="#35323e"/>
      <ellipse id="타원_136" data-name="타원 136" cx="10.479" cy="8.768" rx="10.479" ry="8.768" transform="translate(306.674 337.859)" fill="#35323e"/>
      <ellipse id="타원_137" data-name="타원 137" cx="10.479" cy="8.768" rx="10.479" ry="8.768" transform="translate(306.674 337.859)" opacity="0.1"/>
      <ellipse id="타원_138" data-name="타원 138" cx="10.479" cy="8.768" rx="10.479" ry="8.768" transform="translate(306.674 335.936)" fill="#35323e"/>
      <ellipse id="타원_139" data-name="타원 139" cx="10.479" cy="8.768" rx="10.479" ry="8.768" transform="translate(335.326 337.859)" fill="#35323e"/>
      <ellipse id="타원_140" data-name="타원 140" cx="10.479" cy="8.768" rx="10.479" ry="8.768" transform="translate(335.326 337.859)" opacity="0.1"/>
      <ellipse id="타원_141" data-name="타원 141" cx="10.479" cy="8.768" rx="10.479" ry="8.768" transform="translate(335.326 335.936)" fill="#35323e"/>
      <ellipse id="타원_142" data-name="타원 142" cx="10.479" cy="8.768" rx="10.479" ry="8.768" transform="translate(363.554 337.859)" fill="#35323e"/>
      <ellipse id="타원_143" data-name="타원 143" cx="10.479" cy="8.768" rx="10.479" ry="8.768" transform="translate(363.554 337.859)" opacity="0.1"/>
      <ellipse id="타원_144" data-name="타원 144" cx="10.479" cy="8.768" rx="10.479" ry="8.768" transform="translate(363.554 335.936)" fill="#35323e"/>
      <ellipse id="타원_145" data-name="타원 145" cx="10.479" cy="8.768" rx="10.479" ry="8.768" transform="translate(393.485 337.859)" fill="#35323e"/>
      <ellipse id="타원_146" data-name="타원 146" cx="10.479" cy="8.768" rx="10.479" ry="8.768" transform="translate(393.485 337.859)" opacity="0.1"/>
      <ellipse id="타원_147" data-name="타원 147" cx="10.479" cy="8.768" rx="10.479" ry="8.768" transform="translate(393.485 335.936)" fill="#35323e"/>
      <ellipse id="타원_148" data-name="타원 148" cx="10.479" cy="8.768" rx="10.479" ry="8.768" transform="translate(421.713 337.859)" fill="#35323e"/>
      <ellipse id="타원_149" data-name="타원 149" cx="10.479" cy="8.768" rx="10.479" ry="8.768" transform="translate(421.713 337.859)" opacity="0.1"/>
      <ellipse id="타원_150" data-name="타원 150" cx="10.479" cy="8.768" rx="10.479" ry="8.768" transform="translate(421.713 335.936)" fill="#35323e"/>
      <ellipse id="타원_151" data-name="타원 151" cx="10.479" cy="8.768" rx="10.479" ry="8.768" transform="translate(451.864 337.859)" fill="#35323e"/>
      <ellipse id="타원_152" data-name="타원 152" cx="10.479" cy="8.768" rx="10.479" ry="8.768" transform="translate(451.864 337.859)" opacity="0.1"/>
      <ellipse id="타원_153" data-name="타원 153" cx="10.479" cy="8.768" rx="10.479" ry="8.768" transform="translate(451.864 335.936)" fill="#35323e"/>
      <ellipse id="타원_154" data-name="타원 154" cx="10.479" cy="8.768" rx="10.479" ry="8.768" transform="translate(481.371 337.859)" fill="#35323e"/>
      <ellipse id="타원_155" data-name="타원 155" cx="10.479" cy="8.768" rx="10.479" ry="8.768" transform="translate(481.371 337.859)" opacity="0.1"/>
      <ellipse id="타원_156" data-name="타원 156" cx="10.479" cy="8.768" rx="10.479" ry="8.768" transform="translate(481.371 335.936)" fill="#35323e"/>
      <ellipse id="타원_157" data-name="타원 157" cx="10.479" cy="8.768" rx="10.479" ry="8.768" transform="translate(205.743 307.277)" fill="#35323e"/>
      <ellipse id="타원_158" data-name="타원 158" cx="10.479" cy="8.768" rx="10.479" ry="8.768" transform="translate(205.743 307.277)" opacity="0.1"/>
      <ellipse id="타원_159" data-name="타원 159" cx="10.479" cy="8.768" rx="10.479" ry="8.768" transform="translate(205.743 305.354)" fill="#35323e"/>
      <ellipse id="타원_160" data-name="타원 160" cx="10.479" cy="8.768" rx="10.479" ry="8.768" transform="translate(234.826 307.277)" fill="#35323e"/>
      <ellipse id="타원_161" data-name="타원 161" cx="10.479" cy="8.768" rx="10.479" ry="8.768" transform="translate(234.826 307.277)" opacity="0.1"/>
      <ellipse id="타원_162" data-name="타원 162" cx="10.479" cy="8.768" rx="10.479" ry="8.768" transform="translate(234.826 305.354)" fill="#35323e"/>
      <ellipse id="타원_163" data-name="타원 163" cx="10.479" cy="8.768" rx="10.479" ry="8.768" transform="translate(262.834 307.277)" fill="#35323e"/>
      <ellipse id="타원_164" data-name="타원 164" cx="10.479" cy="8.768" rx="10.479" ry="8.768" transform="translate(262.834 307.277)" opacity="0.1"/>
      <ellipse id="타원_165" data-name="타원 165" cx="10.479" cy="8.768" rx="10.479" ry="8.768" transform="translate(262.834 305.354)" fill="#35323e"/>
      <ellipse id="타원_166" data-name="타원 166" cx="10.479" cy="8.768" rx="10.479" ry="8.768" transform="translate(291.705 307.277)" fill="#35323e"/>
      <ellipse id="타원_167" data-name="타원 167" cx="10.479" cy="8.768" rx="10.479" ry="8.768" transform="translate(291.705 307.277)" opacity="0.1"/>
      <ellipse id="타원_168" data-name="타원 168" cx="10.479" cy="8.768" rx="10.479" ry="8.768" transform="translate(291.705 305.354)" fill="#35323e"/>
      <ellipse id="타원_169" data-name="타원 169" cx="10.479" cy="8.768" rx="10.479" ry="8.768" transform="translate(320.145 307.277)" fill="#35323e"/>
      <ellipse id="타원_170" data-name="타원 170" cx="10.479" cy="8.768" rx="10.479" ry="8.768" transform="translate(320.145 307.277)" opacity="0.1"/>
      <ellipse id="타원_171" data-name="타원 171" cx="10.479" cy="8.768" rx="10.479" ry="8.768" transform="translate(320.145 305.354)" fill="#35323e"/>
      <ellipse id="타원_172" data-name="타원 172" cx="10.479" cy="8.768" rx="10.479" ry="8.768" transform="translate(349.228 307.277)" fill="#35323e"/>
      <ellipse id="타원_173" data-name="타원 173" cx="10.479" cy="8.768" rx="10.479" ry="8.768" transform="translate(349.228 307.277)" opacity="0.1"/>
      <ellipse id="타원_174" data-name="타원 174" cx="10.479" cy="8.768" rx="10.479" ry="8.768" transform="translate(349.228 305.354)" fill="#35323e"/>
      <ellipse id="타원_175" data-name="타원 175" cx="10.479" cy="8.768" rx="10.479" ry="8.768" transform="translate(377.667 307.277)" fill="#35323e"/>
      <ellipse id="타원_176" data-name="타원 176" cx="10.479" cy="8.768" rx="10.479" ry="8.768" transform="translate(377.667 307.277)" opacity="0.1"/>
      <ellipse id="타원_177" data-name="타원 177" cx="10.479" cy="8.768" rx="10.479" ry="8.768" transform="translate(377.667 305.354)" fill="#35323e"/>
      <ellipse id="타원_178" data-name="타원 178" cx="10.479" cy="8.768" rx="10.479" ry="8.768" transform="translate(406.531 307.277)" fill="#35323e"/>
      <ellipse id="타원_179" data-name="타원 179" cx="10.479" cy="8.768" rx="10.479" ry="8.768" transform="translate(406.531 307.277)" opacity="0.1"/>
      <ellipse id="타원_180" data-name="타원 180" cx="10.479" cy="8.768" rx="10.479" ry="8.768" transform="translate(406.531 305.354)" fill="#35323e"/>
      <ellipse id="타원_181" data-name="타원 181" cx="10.479" cy="8.768" rx="10.479" ry="8.768" transform="translate(436.258 307.277)" fill="#35323e"/>
      <ellipse id="타원_182" data-name="타원 182" cx="10.479" cy="8.768" rx="10.479" ry="8.768" transform="translate(436.258 307.277)" opacity="0.1"/>
      <ellipse id="타원_183" data-name="타원 183" cx="10.479" cy="8.768" rx="10.479" ry="8.768" transform="translate(436.258 305.354)" fill="#35323e"/>
      <ellipse id="타원_184" data-name="타원 184" cx="10.479" cy="8.768" rx="10.479" ry="8.768" transform="translate(465.334 307.277)" fill="#35323e"/>
      <ellipse id="타원_185" data-name="타원 185" cx="10.479" cy="8.768" rx="10.479" ry="8.768" transform="translate(465.334 307.277)" opacity="0.1"/>
      <ellipse id="타원_186" data-name="타원 186" cx="10.479" cy="8.768" rx="10.479" ry="8.768" transform="translate(465.334 305.354)" fill="#35323e"/>
      <ellipse id="타원_187" data-name="타원 187" cx="10.479" cy="8.768" rx="10.479" ry="8.768" transform="translate(493.774 307.277)" fill="#0f4c81"/>
      <ellipse id="타원_188" data-name="타원 188" cx="10.479" cy="8.768" rx="10.479" ry="8.768" transform="translate(493.774 307.277)" opacity="0.1"/>
      <ellipse id="타원_189" data-name="타원 189" cx="10.479" cy="8.768" rx="10.479" ry="8.768" transform="translate(493.774 305.354)" fill="#0f4c81"/>
      <rect id="사각형_83" data-name="사각형 83" width="320.112" height="16.893" rx="8.446" transform="translate(188.85 428.319)" fill="#35323e"/>
      <rect id="사각형_84" data-name="사각형 84" width="320.112" height="16.893" rx="8.446" transform="translate(188.85 428.319)" opacity="0.1"/>
      <rect id="사각형_85" data-name="사각형 85" width="320.112" height="16.893" rx="8.446" transform="translate(188.85 427.032)" fill="#35323e"/>
      <path id="패스_339" data-name="패스 339" d="M667.25,409.565c0,18.07-57.194,37.42-121.678,37.42S433.32,426.136,433.32,408.066,481.1,381.55,545.573,381.55,667.25,391.5,667.25,409.565Z" transform="translate(-201.91 -182.692)" opacity="0.1"/>
      <ellipse id="타원_190" data-name="타원 190" cx="7.057" cy="17.427" rx="7.057" ry="17.427" transform="translate(514.944 138.987)" fill="#464353"/>
      <ellipse id="타원_191" data-name="타원 191" cx="7.057" cy="17.427" rx="7.057" ry="17.427" transform="translate(169.391 138.987)" fill="#464353"/>
      <rect id="사각형_86" data-name="사각형 86" width="340.42" height="5.134" transform="translate(181.581 152.245)" opacity="0.1"/>
      <rect id="사각형_87" data-name="사각형 87" width="340.42" height="5.134" transform="translate(181.581 151.39)" fill="#464353"/>
      <path id="패스_340" data-name="패스 340" d="M613.352,321.556c-2.786-.856-7.912,16.037-7.912,16.037h15.606S616.138,322.411,613.352,321.556Zm-.219,2.136a1.5,1.5,0,1,0,.007,0Zm.178,4.832c1.828.445,5.065,8.426,5.065,8.426H608.109s3.381-8.878,5.243-8.426Z" transform="translate(-256.219 -163.752)" fill="#464353"/>
      <path id="패스_341" data-name="패스 341" d="M710.66,456.581H312.3q.876-8.364,2.053-16.694l10.068-70.144a36.961,36.961,0,0,1,36.551-31.622h15.291a35.935,35.935,0,0,1,21.5,7.235C413.6,357.176,458.6,365.7,511.644,365.7s98.064-8.5,113.936-20.349a35.934,35.934,0,0,1,21.5-7.235h24.771a22.142,22.142,0,0,1,21.807,18.3l13.518,76.66Q709.23,444.815,710.66,456.581Z" transform="translate(-163.724 -168.989)" fill="#fff" opacity="0.03"/>
      <g id="woman" transform="translate(289.761 313.081)">
        <path id="패스_342" data-name="패스 342" d="M564.525,610.422s-7.851-14.374-6.523-16.687a31.222,31.222,0,0,0,2.293-5.715s2.9-1.985,2.9-2.806,2.293-2.683,3.5-3.5.6-4.668,0-5.133a10.356,10.356,0,0,1-1.56-2.1s.835-2.334,0-3.032.123-1.369,0-2.1a29.815,29.815,0,0,1,0-3.265,5.283,5.283,0,0,0-3.087-2.245l-.089-.37-.52-2.177s2.505-4.791-1.561-7.337a7.945,7.945,0,0,0-.9-.479v-.315a20.4,20.4,0,0,0-.6-3.689c-.212-.684-.486-1.129-.849-1.027a.561.561,0,0,0-.226.13,2.488,2.488,0,0,0-.431.513h0a8.747,8.747,0,0,0-.958,2.669,15.357,15.357,0,0,0-.274,1.677h0a9.07,9.07,0,0,0-.465,1.04c-.493,1.28-1.075,3.5,0,5.147.9,1.369,2.094,3.313,2.971,4.709v.048l.055.082-.089.062v.212l.075,1.177.685,10.164a4.111,4.111,0,0,0-.616-.13,5.065,5.065,0,0,0-.9-.062c-.589-2.313-2.211-4.476-2.5-6.893a5.15,5.15,0,0,1-.048-.726c0-1.526.4-3.053.37-4.572a6.919,6.919,0,0,0,0-.842h0v-.233a6.844,6.844,0,0,0-3.737-5.2c-.684-.349-1.458-.582-2.142-.965-1.574-.883-2.58-2.478-4.011-3.566a4.415,4.415,0,0,0-3.84-.835,17.561,17.561,0,0,0-1.875.39h0a16.862,16.862,0,0,0-4.278,1.773c-.178.109-.363.219-.534.349a2.388,2.388,0,0,0-.862,1.006,2.671,2.671,0,0,0-.137,1.088v.8c-.082,4.463-4.894,7.933-5.291,12.32v.794h0v.349c.068,1.917,1.061,3.7,1.246,5.606v.506a8.485,8.485,0,0,1-.493,2.567,7.373,7.373,0,0,0-1.738.684c-1.458.938-4.107,2.567-5.065,5.674a8.249,8.249,0,0,0-.37,2.491,52.053,52.053,0,0,1-.815,8.9,17.512,17.512,0,0,1-.513,2.19.5.5,0,0,0,0,.212l-.575,7.529-.11,1.328L519.9,610.5s.041.116.1.308.157.52.233.869a4.743,4.743,0,0,1,.075,1.958,1.369,1.369,0,0,1-.411.684l-.048.055a5.8,5.8,0,0,0-.438,1.917c-.055.4-.1.828-.144,1.307-.281,2.971-.459,7.427-.561,11.109s-.137,6.5-.137,6.5a7.36,7.36,0,0,0,1.5.739,3.221,3.221,0,0,0-.116.308,14.333,14.333,0,0,0-.91,3.833c-.239,2.738.527,5.8,4.36,7.372a6.094,6.094,0,0,0,.753.253,2.375,2.375,0,0,0,1.91-.116v.486c.041.684.075,1.3.089,1.828.123,3.265.931,8.98.931,8.98a11.794,11.794,0,0,1,.034,3.039,16.22,16.22,0,0,0,0,3.5s.849,1.369,0,2.1-1.081,4.2-.842,4.668a.3.3,0,0,0,0,.055c.185,1.157-.862,18.385-.862,18.385s-.986,2.635-1.766,5.373-1.369,5.428-.637,5.941a5.817,5.817,0,0,0,2.211.6v.349a10.18,10.18,0,0,1-.486,2.9c-.335.472-.685,4.155-.856,6.16v.219a20.1,20.1,0,0,0-.9,2.615s-2.669,6.687-1.766,8.44a1.368,1.368,0,0,0,.335.411h0a.508.508,0,0,0,.089.082c1.287,1.027,4.511,1.246,5.681,1.294l-.041,1.656v.116H528.8v-.041c0-.212.034-1.17.082-2.457V723.01a10.268,10.268,0,0,0,.684-3.73,16.242,16.242,0,0,1,.589-4.326,11.636,11.636,0,0,1,.773-2.108,9.616,9.616,0,0,0-.192-4.292,2.977,2.977,0,0,0-.548-.965,1.546,1.546,0,0,0,0-.178v-.383a15.785,15.785,0,0,1,.356-3.58.131.131,0,0,1,0-.055,1.042,1.042,0,0,1,.068-.287v-.062h.493c1.513.048,2.628.048,2.628.048s1.211-6.16,1.088-8.9v-.363a34.67,34.67,0,0,1,.732-6.29l.965-9.446a5.058,5.058,0,0,1,0-2.806c.3-.684.917-2.053,1.369-2.977.2-.431.363-.767.431-.91v-.075a2.054,2.054,0,0,1-.431-.219h0c-.4-.267-.746-.78.431-1.533,1.814-1.17,1.212-4.107,1.212-4.107a2.1,2.1,0,0,1,.1-1.985c.63-.931,0-4.435,0-4.435a14.455,14.455,0,0,0,1.239-2.916c.452-1.369,1.588-8.214,2.122-11.52.178-1.081.288-1.78.288-1.78v.356h0l.151,1.554v.205l.274,2.943a90.466,90.466,0,0,1,.212,10.767.13.13,0,0,1,0,.055,3.339,3.339,0,0,1-.205.917c-.637,1.458-.52,7.228-.486,8.5v.26a4.5,4.5,0,0,0-.342,1.971h0a1.3,1.3,0,0,0,.219.589,1.479,1.479,0,0,1,.219.91h0v.4a7.767,7.767,0,0,1-.424,1.581,5.318,5.318,0,0,0-.4,2.594h0a.917.917,0,0,0,.164.315.774.774,0,0,1,.089.335h0c.226,1.882-.356,10.185-.684,14.723-.137,1.793-.24,3-.24,3l-.958,9.918.1.062c.109.082.315.212.589.376h0l-.041.3c-.137.958-.322,2.053-.52,2.916a1.842,1.842,0,0,0-.048.185,2.683,2.683,0,0,0-1.027.411c-2.053,3.614-1.136,6.475,0,7.31a2.909,2.909,0,0,1,.684,1.7l.281,3.6v.417a1.068,1.068,0,0,0,.055.329l.089,1.088.116,1.519h.924v-1.732h.055c1.465.055,3.819.116,4.853.034h.274a.53.53,0,0,0,.164-.048c.541-.26,1.9-4.107.684-4.983s-1.492-3.34-1.492-3.34c-.109-.329-.212-.637-.322-.931a1.7,1.7,0,0,1,0-.185,15.394,15.394,0,0,1,.144-3.2,25.4,25.4,0,0,0,.322-3.826v-.356a4.115,4.115,0,0,0,.623-.2h.048a4.422,4.422,0,0,0,1.04-.616l3.388-15.168.356-1.766,2.053-10.027s-.719-3.5,0-4.107c.267-.212.342-1.109.322-2.163a35.147,35.147,0,0,0-.322-4.107s.965-1.513,1.451-2.45,0-3.381,0-3.381l.965-5.6a52.888,52.888,0,0,1,3.751-12.259c1.958-4.107.684-15.243-.568-21.171l-.1-.445,2.115-1.027.294-.137c.993-.465,2.053-.945,2.984-1.369h.062q1.007-.438,2.053-.773a2.981,2.981,0,0,1,.637-.13C569.6,619.279,564.525,610.422,564.525,610.422Zm-37.8,18.987h.5c-.062.109-.116.219-.171.335a1.767,1.767,0,0,0-.1.2,11.291,11.291,0,0,0-.493,1.157c.055-.418.123-.869.2-1.369Zm-1.369,7.283v-.041a.15.15,0,0,0-.048-.13l-.082-.267c.171-.055.349-.109.527-.178h0v.1c0,.034-.034.26-.048.39h0v.363c0,.1-.055.39-.075.582l-.164-.52c-.041-.123-.069-.219-.1-.308Z" transform="translate(-518.57 -548.429)" fill="url(#linear-gradient-3)"/>
        <path id="패스_343" data-name="패스 343" d="M578.005,565.89l-3.012,1.075-1.1-1.821c-.842-1.369-2.006-3.306-2.861-4.7-1.513-2.443.465-6.16.465-6.16s.349-3.724,1.629-4.887,1.629,4.887,1.629,4.887c5.113,2.32,2.375,7.789,2.375,7.789l.493,2.17Z" transform="translate(-534.945 -548.689)" fill="#be6f72"/>
        <path id="패스_344" data-name="패스 344" d="M579.587,572.765l-3.012,1.075-1.1-1.821v-.157a5.27,5.27,0,0,1,3.744-.739Z" transform="translate(-536.527 -555.564)" opacity="0.1"/>
        <path id="패스_345" data-name="패스 345" d="M574.36,585.166l1.513-1.28-.76-11.513a4.791,4.791,0,0,1,6.8,1.54,29.645,29.645,0,0,0,0,3.258c.116.684-.815,1.369,0,2.053s0,3.025,0,3.025a10.5,10.5,0,0,0,1.5,2.095c.582.465,1.164,4.305,0,5.12s-3.374,2.676-3.374,3.491-2.786,2.786-2.786,2.786L574.8,592.5Z" transform="translate(-536.173 -555.726)" fill="#6c63ff"/>
        <path id="패스_346" data-name="패스 346" d="M524.655,686.732c-5.64-2.389-4.387-8.214-3.326-11.171a16.768,16.768,0,0,1,.746-1.738l3.162-1.923s.643,1.65,1.335,3.86C528.174,680.867,530.015,689,524.655,686.732Z" transform="translate(-519.152 -587.388)" fill="#be6f72"/>
        <path id="패스_347" data-name="패스 347" d="M534.532,770.743a9.479,9.479,0,0,0-.842,2.355,16.747,16.747,0,0,0-.349,4,15.248,15.248,0,0,0,.1,1.54l-6.283,4.319s.034-.507.1-1.253c.164-1.978.5-5.647.821-6.119a10.262,10.262,0,0,0,.472-2.888c.1-1.2.137-2.307.137-2.307S536.229,767.561,534.532,770.743Z" transform="translate(-521.28 -618.099)" fill="#be6f72"/>
        <path id="패스_348" data-name="패스 348" d="M556.754,775.716s0,1.2-.041,2.6a26.685,26.685,0,0,1-.3,3.813,15.229,15.229,0,0,0-.144,3.19c.041,1.369.144,2.649.144,2.649s-6.413-6.057-5.763-6.537a3.033,3.033,0,0,0,.513-1.369c.192-.849.37-1.958.5-2.909.157-1.13.253-2.053.253-2.053Z" transform="translate(-528.677 -619.951)" fill="#be6f72"/>
        <path id="패스_349" data-name="패스 349" d="M535.172,770.743a9.479,9.479,0,0,0-.842,2.355,50.674,50.674,0,0,1-5.14-.4c.1-1.2.137-2.307.137-2.307S536.87,767.561,535.172,770.743Z" transform="translate(-521.921 -618.099)" opacity="0.1"/>
        <path id="패스_350" data-name="패스 350" d="M557.242,775.732s0,1.2-.041,2.6a6.974,6.974,0,0,1-5.051-1.129c.157-1.129.253-2.053.253-2.053Z" transform="translate(-529.165 -619.967)" opacity="0.1"/>
        <path id="패스_351" data-name="패스 351" d="M562.044,677.651a54.189,54.189,0,0,0-3.607,12.218l-.931,5.578s.466,2.444,0,3.374-1.369,2.444-1.369,2.444.685,5.7,0,6.283,0,4.066,0,4.066l-2.327,11.752-3.251,15.1c-3.142,2.56-7.317-.684-7.317-.684l.924-9.891s1.369-17.331.815-18.029.233-2.9.233-2.9.815-2.095.233-2.909.116-2.56.116-2.56-.233-7.1.465-8.727,0-11.7,0-11.7l-.294-3.135-.157-1.739v-.171l-.281,1.78c-.513,3.279-1.608,10.082-2.053,11.485a14.478,14.478,0,0,1-1.2,2.9s.609,3.491,0,4.422a2.163,2.163,0,0,0-.089,1.978s.582,2.909-1.164,4.107,0,1.745,0,1.745-1.28,2.793-1.745,3.956a5.128,5.128,0,0,0,0,2.786l-.931,9.425a34.218,34.218,0,0,0-.684,6.633,58.47,58.47,0,0,1-1.047,8.836s-8.953,0-10.335-1.047,2.314-11.28,2.314-11.28,1.047-17.912.814-18.378,0-3.956.815-4.654,0-2.094,0-2.094a17.106,17.106,0,0,1,0-3.491,12.622,12.622,0,0,0-.041-3.025s-.773-5.695-.89-8.953-.684-10.589-.684-10.589.6-4.524.684-6.687a7.768,7.768,0,0,1,.828-2.738,25.035,25.035,0,0,1,1.725-3.046s27.57-8.138,28.748-7.324c.3.212.753,1.663,1.191,3.792C562.721,662.49,563.926,673.544,562.044,677.651Z" transform="translate(-520.832 -581.332)" fill="#6c63ff"/>
        <path id="패스_352" data-name="패스 352" d="M562.044,677.651a54.189,54.189,0,0,0-3.607,12.218l-.931,5.578s.466,2.444,0,3.374-1.369,2.444-1.369,2.444.685,5.7,0,6.283,0,4.066,0,4.066l-2.327,11.752-3.251,15.1c-3.142,2.56-7.317-.684-7.317-.684l.924-9.891s1.369-17.331.815-18.029.233-2.9.233-2.9.815-2.095.233-2.909.116-2.56.116-2.56-.233-7.1.465-8.727,0-11.7,0-11.7l-.294-3.135-.157-1.739v-.171l-.281,1.78c-.513,3.279-1.608,10.082-2.053,11.485a14.478,14.478,0,0,1-1.2,2.9s.609,3.491,0,4.422a2.163,2.163,0,0,0-.089,1.978s.582,2.909-1.164,4.107,0,1.745,0,1.745-1.28,2.793-1.745,3.956a5.128,5.128,0,0,0,0,2.786l-.931,9.425a34.218,34.218,0,0,0-.684,6.633,58.47,58.47,0,0,1-1.047,8.836s-8.953,0-10.335-1.047,2.314-11.28,2.314-11.28,1.047-17.912.814-18.378,0-3.956.815-4.654,0-2.094,0-2.094a17.106,17.106,0,0,1,0-3.491,12.622,12.622,0,0,0-.041-3.025s-.773-5.695-.89-8.953-.684-10.589-.684-10.589.6-4.524.684-6.687a7.768,7.768,0,0,1,.828-2.738,25.035,25.035,0,0,1,1.725-3.046s27.57-8.138,28.748-7.324c.3.212.753,1.663,1.191,3.792C562.721,662.49,563.926,673.544,562.044,677.651Z" transform="translate(-520.832 -581.332)" opacity="0.15"/>
        <circle id="타원_192" data-name="타원 192" cx="8.029" cy="8.029" r="8.029" transform="translate(16.202 9.18)" fill="#a1616a"/>
        <path id="패스_353" data-name="패스 353" d="M563.41,656.556c-.924.472-1.54.8-1.54.8s-13,6.16-16.742,5.818c-2.868-.274-10.185-.123-13.368-.041a25.043,25.043,0,0,1,1.725-3.046s27.57-8.138,28.748-7.324A12,12,0,0,1,563.41,656.556Z" transform="translate(-522.732 -581.332)" opacity="0.1"/>
        <path id="패스_354" data-name="패스 354" d="M538.562,591.351s-7.447,1.164-9.186,2.327-5.236,3.374-5.236,8.138a46.315,46.315,0,0,1-1.28,11.054c-.465,1.369,7.331,12.676,7.331,12.676L527.4,642.659s11.177-.349,14.894,0,16.742-5.818,16.742-5.818,7.673-4.066,9.3-4.182-3.258-8.96-3.258-8.96-7.529-14.305-6.277-16.633a31.8,31.8,0,0,0,2.211-5.7L559.644,589.5a4.565,4.565,0,0,0-3.84.582c-1.745,1.28-7.68.582-7.68.582Z" transform="translate(-519.917 -561.329)" fill="#6c63ff"/>
        <path id="패스_355" data-name="패스 355" d="M525.067,619.892l-2.909.815-.808,10.951s1.04,2.909,0,3.84-1.28,20.822-1.28,20.822a7.591,7.591,0,0,0,7.324.582s-.582-2.211,1.164-10.267a63.331,63.331,0,0,0,1.732-12.053s0-10,.815-11.636,0-5.7,0-5.7-1.629-2.211-1.513-3.025S525.067,619.892,525.067,619.892Z" transform="translate(-519.043 -569.165)" opacity="0.1"/>
        <path id="패스_356" data-name="패스 356" d="M526.993,675.76a7.413,7.413,0,0,1-5.243-.2,16.755,16.755,0,0,1,.746-1.738l3.162-1.923S526.3,673.55,526.993,675.76Z" transform="translate(-519.573 -587.388)" opacity="0.1"/>
        <path id="패스_357" data-name="패스 357" d="M524.813,619.892l-2.909.815-.815,10.951s1.047,2.909,0,3.84-1.28,20.822-1.28,20.822a7.6,7.6,0,0,0,7.331.582s-.582-2.211,1.164-10.267a63.831,63.831,0,0,0,1.739-12.053s0-10,.815-11.636,0-5.7,0-5.7-1.622-2.211-1.506-3.025S524.813,619.892,524.813,619.892Z" transform="translate(-518.961 -569.165)" fill="#6c63ff"/>
        <path id="패스_358" data-name="패스 358" d="M567.884,625.09s-1.513,13-5.934,15.469C561.984,640.559,571.841,637.766,567.884,625.09Z" transform="translate(-532.258 -572.618)" opacity="0.1"/>
        <path id="패스_359" data-name="패스 359" d="M538.16,626.79s5.476,2.676,4.189,4.531S538.16,626.79,538.16,626.79Z" transform="translate(-524.751 -573.154)" opacity="0.1"/>
        <path id="패스_360" data-name="패스 360" d="M538.16,634.6s3.491,3.607,2.793,4.887S538.16,634.6,538.16,634.6Z" transform="translate(-524.751 -575.619)" opacity="0.1"/>
        <path id="패스_361" data-name="패스 361" d="M579.29,590.93a12.24,12.24,0,0,1,1.492,3.84C580.905,596.283,579.29,590.93,579.29,590.93Z" transform="translate(-537.729 -561.839)" opacity="0.1"/>
        <path id="패스_362" data-name="패스 362" d="M579.29,586.221s.684-.582,2.437,0S579.29,586.221,579.29,586.221Z" transform="translate(-537.729 -560.272)" opacity="0.1"/>
        <path id="패스_363" data-name="패스 363" d="M564.8,684.518a16.133,16.133,0,0,1-8.5-1.088l-1.472,3.751-.157-1.738c.24-1.458.684-3.019,1.629-3.422A14.08,14.08,0,0,0,564.8,684.518Z" transform="translate(-529.961 -590.581)" opacity="0.1"/>
        <path id="패스_364" data-name="패스 364" d="M534.62,692.81s7.153,1.5,9.158,1.218Z" transform="translate(-523.634 -593.986)" opacity="0.1"/>
        <path id="패스_365" data-name="패스 365" d="M535.7,695.545a14.852,14.852,0,0,1,4.579.479Z" transform="translate(-523.975 -594.845)" opacity="0.1"/>
        <path id="패스_366" data-name="패스 366" d="M536.21,697.39a26.7,26.7,0,0,0,4.23.568Z" transform="translate(-524.136 -595.431)" opacity="0.1"/>
        <path id="패스_367" data-name="패스 367" d="M536,720.393c.137-.089,6.112-1.478,6.845-.479Z" transform="translate(-524.07 -602.424)" opacity="0.1"/>
        <path id="패스_368" data-name="패스 368" d="M536,723.335s5.2-.609,5.325,0S536,723.335,536,723.335Z" transform="translate(-524.07 -603.532)" opacity="0.1"/>
        <path id="패스_369" data-name="패스 369" d="M536,725.461s5.544-1.136,6.16-.869S536,725.461,536,725.461Z" transform="translate(-524.07 -604.001)" opacity="0.1"/>
        <path id="패스_370" data-name="패스 370" d="M533.443,781.927l-6.283,4.319s.034-.506.1-1.253a17.226,17.226,0,0,1,3.217-5.25,2.628,2.628,0,0,1,2.868.643A15.264,15.264,0,0,0,533.443,781.927Z" transform="translate(-521.28 -621.371)" opacity="0.1"/>
        <path id="패스_371" data-name="패스 371" d="M532.808,785.867a15.6,15.6,0,0,0-1.307,6.414,9.891,9.891,0,0,1-1.369,5.168,4.983,4.983,0,0,1-.438.63s-4.367,0-5.893-1.3a1.484,1.484,0,0,1-.4-.486c-.876-1.745,1.7-8.419,1.7-8.419a18.528,18.528,0,0,1,4.107-7.892C534.115,778.714,532.808,785.867,532.808,785.867Z" transform="translate(-520.035 -621.443)" fill="#35323e"/>
        <path id="패스_372" data-name="패스 372" d="M530.451,801.171a4.97,4.97,0,0,1-.438.63s-4.367,0-5.893-1.3c.753-2.485,3.148-10.007,4.271-8.727S530.2,798.727,530.451,801.171Z" transform="translate(-520.321 -625.166)" opacity="0.1"/>
        <path id="패스_373" data-name="패스 373" d="M532.351,792.241l-.3,11.28h1.465s.233-9.884.89-11.266S532.351,792.241,532.351,792.241Z" transform="translate(-522.823 -625.169)" fill="#35323e"/>
        <path id="패스_374" data-name="패스 374" d="M556.412,790.207s-6.413-6.057-5.763-6.537a3.032,3.032,0,0,0,.513-1.369c1.232-.219,3.34.3,5.106,5.223C556.309,788.927,556.412,790.207,556.412,790.207Z" transform="translate(-528.677 -622.21)" opacity="0.1"/>
        <path id="패스_375" data-name="패스 375" d="M556.631,797.068a.889.889,0,0,1-.157.048,44.678,44.678,0,0,1-5.086,0,1.1,1.1,0,0,1-1.068-1.1v-1.479c-.075-1.718-.287-3.765-.9-4.23-1.088-.828-1.958-3.682,0-7.283,0,0,3.751-2.861,6.454,5.743,0,0,.26,2.457,1.437,3.333S557.151,796.808,556.631,797.068Z" transform="translate(-527.938 -622.309)" fill="#35323e"/>
        <path id="패스_376" data-name="패스 376" d="M557.423,800.458a44.651,44.651,0,0,1-5.086,0,1.1,1.1,0,0,1-1.068-1.1v-1.479c.472-2.053,1.15-4.23,2.053-4.716C553.262,793.162,555.911,792.861,557.423,800.458Z" transform="translate(-528.888 -625.651)" opacity="0.1"/>
        <path id="패스_377" data-name="패스 377" d="M455.38,701.4l.7,9.377h.9V700.61Z" transform="translate(-433.45 -534.146)" fill="#35323e"/>
        <path id="패스_378" data-name="패스 378" d="M546.451,554.88a16,16,0,0,0-7.16,2.3,2.97,2.97,0,0,0-1.369,1.369,4.545,4.545,0,0,0-.11,1.67c.075,4.791-5.291,8.453-5.12,13.258.068,1.91,1.027,3.682,1.2,5.585.294,3.169-1.581,6.092-3.381,8.72a7.208,7.208,0,0,0,5.1-1.691,38.651,38.651,0,0,1,.684,19.494h2.574a1.986,1.986,0,0,1,.753.1,1.786,1.786,0,0,1,.6.445c2.4,2.389,4.018,5.927,3.094,9.2l5.476-2.053a16.429,16.429,0,0,0,3.785-1.8A5.476,5.476,0,0,0,554.9,608.1c.144-.835.1-1.841.787-2.327a4.445,4.445,0,0,1,1.081-.4c1.506-.534,2.17-2.272,2.471-3.833a21.9,21.9,0,0,0,.349-5.832c-.24-3.265-1.2-6.585-.411-9.767.452-1.786,1.451-3.422,1.533-5.3.13-3.046-2.252-5.674-2.608-8.706-.246-2.108.513-4.244.267-6.359a6.845,6.845,0,0,0-3.593-5.188c-.684-.349-1.41-.582-2.053-.958-1.52-.883-2.485-2.471-3.86-3.559s-3.676-1.5-4.709-.082Z" transform="translate(-522.337 -550.464)" opacity="0.1"/>
        <path id="패스_379" data-name="패스 379" d="M546.451,554.37a16,16,0,0,0-7.16,2.3,2.97,2.97,0,0,0-1.369,1.369,4.545,4.545,0,0,0-.11,1.67c.075,4.791-5.291,8.453-5.12,13.258.068,1.91,1.027,3.689,1.2,5.585.294,3.176-1.581,6.092-3.381,8.72a7.207,7.207,0,0,0,5.127-1.67,38.652,38.652,0,0,1,.685,19.494h2.574a1.982,1.982,0,0,1,.753.1,1.785,1.785,0,0,1,.6.445c2.4,2.389,4.018,5.927,3.094,9.2l5.476-2.053a16.43,16.43,0,0,0,3.785-1.8,5.476,5.476,0,0,0,2.334-3.368c.144-.835.1-1.841.787-2.327a4.444,4.444,0,0,1,1.081-.4c1.506-.534,2.17-2.272,2.471-3.833a21.906,21.906,0,0,0,.349-5.832c-.24-3.265-1.2-6.585-.411-9.767.452-1.786,1.451-3.457,1.533-5.3.13-3.046-2.252-5.674-2.608-8.706-.246-2.108.513-4.244.267-6.359a6.845,6.845,0,0,0-3.593-5.188c-.685-.349-1.41-.582-2.053-.958-1.52-.883-2.485-2.471-3.86-3.559s-3.676-1.5-4.709-.082Z" transform="translate(-522.337 -550.303)" fill="#a26565"/>
        <g id="그룹_137" data-name="그룹 137" transform="translate(8.214 8.235)" opacity="0.1">
          <path id="패스_380" data-name="패스 380" d="M541.2,560.46v.322C541.192,560.679,541.2,560.57,541.2,560.46Z" transform="translate(-533.923 -560.46)"/>
          <path id="패스_381" data-name="패스 381" d="M570.88,574.752a29.493,29.493,0,0,0,.308-4.442,29.383,29.383,0,0,0-.308,4.442Z" transform="translate(-543.289 -563.568)"/>
          <path id="패스_382" data-name="패스 382" d="M534.926,585.209c-.157-1.732-.965-3.361-1.157-5.079a6.287,6.287,0,0,0-.041.951c.068,1.889,1.006,3.648,1.191,5.531a6.841,6.841,0,0,0,.007-1.4Z" transform="translate(-531.566 -566.667)"/>
          <path id="패스_383" data-name="패스 383" d="M572.336,595.372a11.857,11.857,0,0,0-.287,3.47,10.729,10.729,0,0,1,.287-2.012c.452-1.786,1.451-3.456,1.533-5.3a5.947,5.947,0,0,0-.048-.986C573.616,592.224,572.747,593.736,572.336,595.372Z" transform="translate(-543.65 -569.951)"/>
          <path id="패스_384" data-name="패스 384" d="M535.656,597.83a7.276,7.276,0,0,1-4.107,1.684c-.322.493-.684.986-.979,1.458a7.208,7.208,0,0,0,5.086-1.656,38.619,38.619,0,0,1,1.622,10.445,38.445,38.445,0,0,0-1.622-11.93Z" transform="translate(-530.57 -572.252)"/>
          <path id="패스_385" data-name="패스 385" d="M565.231,618.784c-.308,1.568-.972,3.306-2.478,3.833a4.189,4.189,0,0,0-1.081.4c-.684.486-.643,1.492-.787,2.32a5.475,5.475,0,0,1-2.334,3.368,16.428,16.428,0,0,1-3.785,1.8l-5.223,1.958a7.149,7.149,0,0,1-.253,1.554l5.476-2.053a16.426,16.426,0,0,0,3.785-1.8,5.476,5.476,0,0,0,2.334-3.368c.144-.835.1-1.841.787-2.327a4.443,4.443,0,0,1,1.081-.4c1.506-.534,2.17-2.272,2.478-3.833a22.172,22.172,0,0,0,.39-4.942A22.9,22.9,0,0,1,565.231,618.784Z" transform="translate(-536.477 -577.764)"/>
          <path id="패스_386" data-name="패스 386" d="M542.962,626.829a1.889,1.889,0,0,0-.6-.445,1.985,1.985,0,0,0-.753-.1h-2.279c-.089.486-.185.972-.294,1.451h2.574a1.983,1.983,0,0,1,.753.1,1.786,1.786,0,0,1,.6.445,11.034,11.034,0,0,1,3.32,6.537C546.576,631.914,545.077,628.93,542.962,626.829Z" transform="translate(-533.243 -581.23)"/>
        </g>
        <path id="패스_387" data-name="패스 387" d="M526.12,640.82s2.053-.876,2.546,0S526.12,640.82,526.12,640.82Z" transform="translate(-520.952 -577.458)" opacity="0.1"/>
        <path id="패스_388" data-name="패스 388" d="M527.17,642.98s2.053-.876,2.546,0S527.17,642.98,527.17,642.98Z" transform="translate(-521.283 -578.14)" opacity="0.1"/>
      </g>
      <path id="패스_389" data-name="패스 389" d="M311.82,145.939l.185,1.437,6.249.883s.513-.383,1.314-.9a19.579,19.579,0,0,1,6.085-2.827c3.265-.643,13.689-5.318,10.322-5.626s-3,.39-3,.39-3.7-3.628-7.529-.308c-2.9,2.519-9.268,5.222-12.163,6.379Z" transform="translate(-163.572 -105.714)" fill="#efb7b9"/>
      <path id="패스_390" data-name="패스 390" d="M344.011,125.218a10.876,10.876,0,0,1,2.991-.767,3.669,3.669,0,0,1,2.854.951c.4.418.684.951,1.054,1.369,1.9,2.053,5.6.513,7.892,2.1,1.41.972,1.848,2.82,2.348,4.463s1.41,3.457,3.094,3.806a9.18,9.18,0,0,0,2.444-.1,2.4,2.4,0,0,1,2.19.808c.78,1.177-.294,3.162.835,4,1.006.746,2.841-.3,3.546.746a1.554,1.554,0,0,1-.24,1.711,11.893,11.893,0,0,0-1.15,1.437,2.183,2.183,0,0,0,2.149,3.19c.684-.068,1.472-.479,2.094-.123a1.5,1.5,0,0,1,.63,1.17A3.073,3.073,0,0,1,374,153.24a6.95,6.95,0,0,1-3.422-1.136,4.317,4.317,0,0,0-3.484-.568,5.559,5.559,0,0,0-1.4.992,15.468,15.468,0,0,1-4.305,2.553,5.361,5.361,0,0,1-4.3.192c-1.485-.76-2.252-2.615-3.826-3.176s-3.374.486-4.88,1.369-3.525,1.643-4.887.541-1.013-3.559-1.91-5.216a5.071,5.071,0,0,0-1.431-1.574c-1.006-.78-2.149-1.369-3.155-2.122a5.277,5.277,0,0,1-2.163-3.025,6.18,6.18,0,0,1,1.232-4.3,12.658,12.658,0,0,0,2.053-4.066c.192-1.123,0-2.293.253-3.422a4.2,4.2,0,0,1,2.738-2.875c.739-.253.876-.192,1.246-.842A2.69,2.69,0,0,1,344.011,125.218Z" transform="translate(-170.814 -101.564)" fill="#f86d70"/>
      <g id="그룹_138" data-name="그룹 138" transform="translate(163.996 36.755)" opacity="0.1">
        <path id="패스_391" data-name="패스 391" d="M384.839,144.72a5.715,5.715,0,0,1,.116,2.005A5.318,5.318,0,0,1,384.839,144.72Z" transform="translate(-350.593 -144.72)"/>
        <path id="패스_392" data-name="패스 392" d="M388.822,154.29a2.156,2.156,0,0,0-.219.732,2.225,2.225,0,0,1,.075-1.855,11.893,11.893,0,0,1,1.15-1.437,2.252,2.252,0,0,0,.335-.65.49.49,0,0,1,.048.062,1.526,1.526,0,0,1-.24,1.711,12.745,12.745,0,0,0-1.15,1.437Z" transform="translate(-351.743 -146.727)"/>
        <path id="패스_393" data-name="패스 393" d="M336.89,151.934c1.006.767,2.149,1.369,3.155,2.122a5.161,5.161,0,0,1,1.431,1.574c.9,1.656.445,4.032,1.91,5.216s3.388.363,4.887-.541,3.231-1.964,4.88-1.369,2.341,2.416,3.826,3.176a5.306,5.306,0,0,0,4.3-.192,15.469,15.469,0,0,0,4.305-2.553,5.559,5.559,0,0,1,1.4-.992,4.257,4.257,0,0,1,3.484.568,6.751,6.751,0,0,0,3.422,1.136,3.094,3.094,0,0,0,2.738-2.738,2.177,2.177,0,0,1,.144.589,3.066,3.066,0,0,1-2.738,3.251,6.906,6.906,0,0,1-3.422-1.136,4.329,4.329,0,0,0-3.491-.568,5.649,5.649,0,0,0-1.369.992,15.564,15.564,0,0,1-4.305,2.553,5.362,5.362,0,0,1-4.3.192c-1.492-.76-2.252-2.615-3.833-3.176s-3.374.486-4.873,1.369-3.525,1.636-4.887.541c-1.472-1.184-1.02-3.559-1.917-5.216a4.99,4.99,0,0,0-1.431-1.574c-1-.78-2.142-1.369-3.155-2.122a5.236,5.236,0,0,1-2.156-3.025,3.52,3.52,0,0,1-.069-.8A5.538,5.538,0,0,0,336.89,151.934Z" transform="translate(-334.828 -146.137)"/>
      </g>
      <path id="패스_394" data-name="패스 394" d="M340.706,203.3l-2.266.486s2.238,3.676,5.681,1.266S340.706,203.3,340.706,203.3Z" transform="translate(-171.972 -126.424)" fill="#4c4981"/>
      <path id="패스_395" data-name="패스 395" d="M340.706,203.3l-2.266.486s2.238,3.676,5.681,1.266S340.706,203.3,340.706,203.3Z" transform="translate(-171.972 -126.424)" opacity="0.1"/>
      <path id="패스_396" data-name="패스 396" d="M413.65,250.919s3.142,1.622,6.071,3.5c2.1,1.369,4.107,2.82,4.743,3.929,1.561,2.649,9.138,5.51,9.138,5.51l7.529,5.729c1.773.589,3.5,2.738,4.2,3.7.219.294.335.479.335.479l3.019-.39,1.588-2.053s.4-4.552-2.738-4.5a4.484,4.484,0,0,1-1.766-.452c-3.368-1.492-8.084-6.16-8.084-6.16s-8.015-10.014-10.411-10.342a3.929,3.929,0,0,1-.753-.192c-2.437-.856-5.927-4-5.927-4Z" transform="translate(-195.703 -139.824)" fill="#efb7b9"/>
      <path id="패스_397" data-name="패스 397" d="M368.178,290.233a71.611,71.611,0,0,0,5.613,15.907c1.451,2.375,2.218,7.125,2.218,7.125l.424,3.3a3.936,3.936,0,0,0,.472,1.321,7.524,7.524,0,0,0,.418.684l6.037-1.855s-.349-1.369-.876-2.984a13.607,13.607,0,0,0-2.053-4.333c-1.472-1.451-1.7-6.557-1.7-6.557s-1.225-9.829-1.6-11.061a16.81,16.81,0,0,1-.684-3.628c-.055-.684-.1-1.41-.1-2.266a46.54,46.54,0,0,0-.951-7.3l-7.043,1.28-.185,7.865a5.271,5.271,0,0,0,.014,2.5Z" transform="translate(-181.306 -150.205)" fill="#efb7b9"/>
      <path id="패스_398" data-name="패스 398" d="M459.93,282.813c.219.294.335.479.335.479l3.019-.39,1.588-2.053s.4-4.552-2.738-4.5a4.483,4.483,0,0,1-1.766-.452c-.253,1.369,1.273,2.491,1.273,2.491s.63.459.479,2.6A2.036,2.036,0,0,1,459.93,282.813Z" transform="translate(-210.306 -149.356)" opacity="0.1"/>
      <path id="패스_399" data-name="패스 399" d="M459.45,280.294c.2.732,2.1,1.814,3.422,2.485.65.335,1.157.568,1.259.616.308.151,1.9-1.629,2.122-3.06s4.031-5.9,4.031-5.9a16.011,16.011,0,0,0,1.417-5.585c.144-1.951-.684-2.1-1.622-1.663a6.49,6.49,0,0,0-1.814,1.424,4.791,4.791,0,0,1-2.341,1.212,11.472,11.472,0,0,0-3.381,1.444c-.924.6-1.821,1.321-1.985,1.964-.349,1.4,1.253,2.594,1.253,2.594s.63.465.486,2.6S459.429,280.225,459.45,280.294Z" transform="translate(-210.154 -146.543)" fill="#ff6484"/>
      <path id="패스_400" data-name="패스 400" d="M464.45,282.779c.65.335,1.157.568,1.259.616.308.151,1.9-1.629,2.122-3.06s4.032-5.9,4.032-5.9a16.013,16.013,0,0,0,1.417-5.585c.144-1.951-.684-2.1-1.622-1.663a20.483,20.483,0,0,1-1.369,6.119C469.371,275.167,465.511,281.156,464.45,282.779Z" transform="translate(-211.732 -146.543)" opacity="0.1"/>
      <path id="패스_401" data-name="패스 401" d="M380.957,333.884a.891.891,0,0,1-.055.116,7.547,7.547,0,0,0,.418.684l6.037-1.855s-.349-1.369-.876-2.984c-2.389-.684-5.811,3.511-5.811,3.511Z" transform="translate(-185.297 -166.354)" opacity="0.1"/>
      <path id="패스_402" data-name="패스 402" d="M380.462,338.5s5.031,1.766,7.3,1.492c1.718-.205,1.793-1.006,1.677-2.649-.041-.52-.1-1.129-.123-1.834-.116-2.909-1.287-3.491-1.287-3.491-1.917-5.031-7.44,1.718-7.44,1.718l.294.548a6,6,0,0,0-.568,2.738A7.778,7.778,0,0,0,380.462,338.5Z" transform="translate(-185.185 -166.476)" fill="#ff6484"/>
      <path id="패스_403" data-name="패스 403" d="M380.464,341.672s5.031,1.766,7.3,1.492c1.718-.205,1.793-1.006,1.677-2.649a5.318,5.318,0,0,1-4.107,1.184,16.264,16.264,0,0,1-5.017-1.5A7.779,7.779,0,0,0,380.464,341.672Z" transform="translate(-185.186 -169.645)" opacity="0.1"/>
      <path id="패스_404" data-name="패스 404" d="M344,159.749l1.958,8.617.4,1.773L350,170.6l3.751.479,4.107-1.485s1.143-3.881.2-6.8a4.292,4.292,0,0,0-1.889-2.491,3.832,3.832,0,0,1-.787-.616,3.285,3.285,0,0,1-.684-.938,3.97,3.97,0,0,1-.356-1.369,9.756,9.756,0,0,1,1.266-4.86s-8.665-2.957-7.988-1.047c.438,1.239-.78,3.422-1.691,4.75-.493.739-.9,1.246-.9,1.246Z" transform="translate(-173.726 -109.893)" fill="#efb7b9"/>
      <circle id="타원_193" data-name="타원 193" cx="7.522" cy="7.522" r="7.522" transform="translate(170.589 31.505)" opacity="0.1"/>
      <circle id="타원_194" data-name="타원 194" cx="7.522" cy="7.522" r="7.522" transform="translate(170.548 31.225)" fill="#efb7b9"/>
      <path id="패스_405" data-name="패스 405" d="M344.482,192a18.236,18.236,0,0,0,1.992,4.264l10.5,2.58,7.529-7.83v-.048c-.233-.732-3.1-9.993-1.027-12.279s1.369-9.062,1.369-9.062-3.751-4.319-4.5-5.359-5.626-1.862-5.626-1.862c.24.329.465.643.684.938a9.472,9.472,0,0,1,1.2,2.546,3.792,3.792,0,0,1-.1,2.738,3.289,3.289,0,0,0-.253.684c-.821,3.593-4.559,3.094-6.051,2.738-.383-.1-.616-.178-.616-.178l-3.58.116-2.245.075s1.02,17.7.78,19.11a2.053,2.053,0,0,0-.048.828Z" transform="translate(-173.647 -113.543)" fill="#ff6484"/>
      <path id="패스_406" data-name="패스 406" d="M343.658,177.377l6.516-.856h-.123a6.375,6.375,0,0,1-.616-.171l-3.58.116-2.245.075S343.631,176.829,343.658,177.377Z" transform="translate(-173.603 -117.945)" fill="#925978"/>
      <path id="패스_407" data-name="패스 407" d="M259.12,122l2.827.691,4.442-.582,1.164-1.212Z" transform="translate(-81.762 -38.149)" fill="#925978"/>
      <path id="패스_408" data-name="패스 408" d="M265.98,124.083l1.28.315.527-.548Z" transform="translate(-83.927 -39.08)" fill="#925978"/>
      <path id="패스_409" data-name="패스 409" d="M344.429,190.816c1.677.171,3.224.253,3.224.253l8.652-.322v-9.042a13,13,0,0,0-3.484-2.3c-1.506-.52-3.285-2.115-2.95-6.338a5.967,5.967,0,0,1,.075-.753,10.263,10.263,0,0,0,.075-1.417,7.6,7.6,0,0,0-2.4-5.572l-.13-.11-1.41-6.557a1.586,1.586,0,0,0-.281.034c-.493.739-.9,1.246-.9,1.246l-1.04,2.279,1.958,8.617-2.245.075s1.02,17.7.78,19.11a2.054,2.054,0,0,0,.068.794Z" transform="translate(-173.594 -112.363)" opacity="0.1"/>
      <path id="패스_410" data-name="패스 410" d="M343.22,191.11l8.652-.322v-9.035a12.807,12.807,0,0,0-3.463-2.32c-1.595-.554-3.491-2.307-2.875-7.1a7.851,7.851,0,0,0-2.32-6.988l-.13-.11-1.41-6.557a3.066,3.066,0,0,0-2.231,1.28,6.277,6.277,0,0,1-.52.726,1.369,1.369,0,0,1-1.739.52c-.91-.4-4.832-2.053-5.715-.438s-1.047,11.307-1.047,11.307a7.413,7.413,0,0,1,2.546,4.189c.6,2.738,1.609,2.834,1.609,2.834l1.081,7.94s.986,1.725.253,2.676" transform="translate(-169.441 -112.37)" fill="#444053"/>
      <path id="패스_411" data-name="패스 411" d="M342.84,160.715l1.472,4.415,2.82.246-.13-.11-1.41-6.557a3.066,3.066,0,0,0-2.231,1.28A6.271,6.271,0,0,1,342.84,160.715Z" transform="translate(-173.36 -112.379)" fill="#444053"/>
      <path id="패스_412" data-name="패스 412" d="M311.82,149.509l.185,1.437,6.249.883s.513-.383,1.314-.9c-.684-.151-3.765-.828-5.394-1.369-.6-.185-1-.342-1.013-.452s.041-.123.137-.205Z" transform="translate(-163.572 -109.284)" opacity="0.1"/>
      <path id="패스_413" data-name="패스 413" d="M300.334,157.938s7.077,5.373,11.465,6.242c0,0,6.16,1.828,8.6,3.936l2.663-10.192-1.581-1.116a5.645,5.645,0,0,1-3.607.8c-1.67-.4-3.5-.63-3.5-.63a27.5,27.5,0,0,0-4.49-1.232c-1.191-.1-.684-1.643.479-2.464a3.919,3.919,0,0,1,.5-.281,1.526,1.526,0,0,0,2.005.452,4.462,4.462,0,0,0,1.164-1.081h0a14.229,14.229,0,0,0,1.314-1.992s-3.689-.787-5.531-1.369c-.6-.185-1-.342-1.013-.445-.055-.424,3.292-1.759,3.292-1.759s-2.868-1.369-4.031-.383c0,0,.746.568.144,1.123s-7.953,6.194-7.953,6.194S296.6,155.529,300.334,157.938Z" transform="translate(-159.417 -108.39)" fill="#444053"/>
      <path id="패스_414" data-name="패스 414" d="M310,154.228l3.915.561a3.925,3.925,0,0,1,.5-.281,1.526,1.526,0,0,0,2.005.452,4.463,4.463,0,0,0,1.164-1.081h0a14.75,14.75,0,0,0,1.075-1.67s-3.7-.794-5.53-1.369Z" transform="translate(-162.998 -109.896)" opacity="0.1"/>
      <path id="패스_415" data-name="패스 415" d="M310.33,153.762l4.175.6a1.526,1.526,0,0,0,2.005.452c1.2-.684,2.478-3.08,2.478-3.08s-3.689-.787-5.53-1.369Z" transform="translate(-163.102 -109.745)" fill="#444053"/>
      <path id="패스_416" data-name="패스 416" d="M420.6,245.65l-6.947,5.257s3.142,1.622,6.071,3.5c2.56-1.732,4.976-3.327,6.8-4.791C424.088,248.792,420.6,245.65,420.6,245.65Z" transform="translate(-195.703 -139.812)" opacity="0.1"/>
      <path id="패스_417" data-name="패스 417" d="M368.176,290.208a23.734,23.734,0,0,0,5.092-1.218s1.28-.281,3.183-.917c-.055-.684-.1-1.41-.1-2.266a46.54,46.54,0,0,0-.951-7.3l-7.043,1.28-.185,7.865a5.271,5.271,0,0,0,.007,2.553Z" transform="translate(-181.304 -150.18)" opacity="0.1"/>
      <path id="패스_418" data-name="패스 418" d="M347.984,234.008c1.424,2.1,5.291,11,5.291,11a37.159,37.159,0,0,0,2.943,4.538c1.54,1.944,2.608,6.3,3.778,9.781s-.349,2.827-.178,4.661,6.776-.527,6.776-.527,13.525-2.977,17.652-11.225,20.63-15.743,23.956-20.39-.951-2.738-.78-5.243a7.117,7.117,0,0,0-1.745-4.627s-6.222-1.752-7.235-2.977-5.982-4.285-5.982-4.285-4.682-2.053-5.277-2.738-6.16-2.9-7.851-3.326-3.368-2.841-3.368-2.841-1.054.137-2.608-1.369-8.063-2.8-8.063-2.8c-11.136,8.159-18.823,7-18.823,7l-.178,1.547C340.386,217.882,346.574,231.914,347.984,234.008Z" transform="translate(-173.658 -125.925)" fill="#ff6484"/>
      <path id="패스_419" data-name="패스 419" d="M347.47,210.192s9.583,3.169,19-8.542c-11.136,8.159-18.823,7-18.823,7Z" transform="translate(-174.821 -125.928)" opacity="0.1"/>
      <path id="패스_420" data-name="패스 420" d="M371.65,222.129s12.916,18.638,13.689,19.323S372.328,221.9,371.65,222.129Z" transform="translate(-182.451 -132.389)" opacity="0.1"/>
      <path id="패스_421" data-name="패스 421" d="M362.93,220s8.946,13.888,8.761,15.743C371.691,235.784,363.033,222.437,362.93,220Z" transform="translate(-179.699 -131.718)" opacity="0.1"/>
      <path id="패스_422" data-name="패스 422" d="M354.935,225.61s1.65,7.769-.835,12.163Z" transform="translate(-176.913 -133.488)" opacity="0.1"/>
      <path id="패스_423" data-name="패스 423" d="M349.9,226.27s-.109,6.715-.862,8.1Z" transform="translate(-175.317 -133.697)" opacity="0.1"/>
      <path id="패스_424" data-name="패스 424" d="M287.07,126.49l11.876,4.654-4.346.568Z" transform="translate(-90.581 -39.912)" opacity="0.1"/>
      <path id="패스_425" data-name="패스 425" d="M347,139.413c.6.39,1.088,1.027,1.793,1.116a2.779,2.779,0,0,0,1.458-.363,5.392,5.392,0,0,1,3.751-.507c1.745.582,2.7,2.587,4.442,3.183a3.06,3.06,0,0,0,3.97-2.17,3.9,3.9,0,0,0-1.369-3.662,8.152,8.152,0,0,0-3.689-1.677c-3.491-.773-7.118-.513-10.685-.246a1.568,1.568,0,0,0-.835.219,4.977,4.977,0,0,0-1.273,3.121C344.856,139.344,346.909,138.646,347,139.413Z" transform="translate(-173.897 -104.841)" opacity="0.1"/>
      <path id="패스_426" data-name="패스 426" d="M346.947,139c.6.39,1.088,1.027,1.8,1.116a2.8,2.8,0,0,0,1.458-.363,5.378,5.378,0,0,1,3.744-.507c1.745.582,2.7,2.587,4.449,3.183a3.1,3.1,0,0,0,2.6-.287,3.039,3.039,0,0,0,1.369-1.882A3.9,3.9,0,0,0,361,136.6a8.145,8.145,0,0,0-3.7-1.677c-3.491-.773-7.118-.513-10.678-.246a1.567,1.567,0,0,0-.835.219,4.939,4.939,0,0,0-1.273,3.121C344.778,138.921,346.851,138.236,346.947,139Z" transform="translate(-173.881 -104.712)" fill="#f86d70"/>
      <path id="패스_427" data-name="패스 427" d="M415.28,145.336l1.136,4.593,1.478-.89L425.9,144.2s6.064-.219,6.537-5.1-6.742-.048-7.125.329a16.017,16.017,0,0,1-1.259,1.02l-7.461,4.155Z" transform="translate(-196.217 -105.508)" fill="#efb7b9"/>
      <path id="패스_428" data-name="패스 428" d="M415.28,148.872l1.136,4.593,1.478-.89c-.329-2.053-.835-3.99-1.3-4.435Z" transform="translate(-196.217 -109.044)" opacity="0.1"/>
      <path id="패스_429" data-name="패스 429" d="M357.51,182.763l1.629,9.583,9.665-2.053c-.233-.732-3.1-9.993-1.027-12.279s1.369-9.062,1.369-9.062-3.751-4.319-4.5-5.359-5.626-1.862-5.626-1.862a3.97,3.97,0,0,1-.356-1.369,5.261,5.261,0,0,0-.37,1.02,3.836,3.836,0,0,0,2.58,3.833l.52.226c.294.116.616.226.958.335l.157.048c3.114.924,3.785,2.786,3.785,2.786a7.1,7.1,0,0,1,1.417,5.024C367.359,176.63,357.51,182.763,357.51,182.763Z" transform="translate(-177.989 -112.9)" opacity="0.1"/>
      <path id="패스_430" data-name="패스 430" d="M358.33,178.834l1.629,9.583,10.876-2.272a19.753,19.753,0,0,0-1.088-5.092c-.76-1.472-.609-7.194-.609-7.194,4.627-4.983,2.2-9.042,2.2-9.042s13.594-2.2,13.826-2.608a44.405,44.405,0,0,1,4.791-2.861s4.928-1.259,5.592-1.964a6.731,6.731,0,0,1,.808-.732,2.222,2.222,0,0,1,.267-.171l.363,3.142h.137a4.422,4.422,0,0,0,2.19-.862c1.123-.862-.294-10.267-1.369-10.616a1.3,1.3,0,0,0-.63,0,6.845,6.845,0,0,0-2.348,1.266l-.185.151-.068.055s-6.16,2.416-7.385,3.525-10.8,2.526-10.8,2.526-4.292,1.013-4.846.4-7.1-1.615-7.652-.684-2.053.794-2.053.794c-1.081-1.239-1.828-.76-2.286-.048a4.86,4.86,0,0,0-.575,1.369c0,1.91.835,3.155,3.1,4.059a10.5,10.5,0,0,0,1.116.383c3.114.924,3.785,2.786,3.785,2.786a7.125,7.125,0,0,1,1.417,5.031C368.18,172.673,358.33,178.834,358.33,178.834Z" transform="translate(-178.248 -109.033)" fill="#444053"/>
      <path id="패스_431" data-name="패스 431" d="M414.093,148.113a.979.979,0,0,1,.349,0c1.088.335,2.505,9.754,1.369,10.616a4.374,4.374,0,0,1-1.91.828h-.164l-.363-3.142a2.223,2.223,0,0,0-.267.171v-.13a8.213,8.213,0,0,0-1.547-6.975Z" transform="translate(-195.044 -109.03)" opacity="0.1"/>
      <path id="패스_432" data-name="패스 432" d="M413.479,156.451l.363,3.142a4.4,4.4,0,0,0,2.355-.876c1.122-.862-.294-10.267-1.369-10.616-.862-.267-2.375.808-2.977,1.266A8.159,8.159,0,0,1,413.479,156.451Z" transform="translate(-195.135 -109.018)" fill="#444053"/>
      <path id="패스_433" data-name="패스 433" d="M362.561,165.2l1.561-1.472-4.107-3.963a4.861,4.861,0,0,0-.575,1.369C359.44,163.055,360.268,164.3,362.561,165.2Z" transform="translate(-178.598 -112.714)" fill="#444053"/>
      <path id="패스_434" data-name="패스 434" d="M346.908,139.9c.6.39,1.088,1.027,1.793,1.116a2.779,2.779,0,0,0,1.458-.363,5.392,5.392,0,0,1,3.751-.507c1.745.582,2.738,2.587,4.442,3.183a3.032,3.032,0,0,0,4.045-3,3.2,3.2,0,0,1,0,1.369,3.018,3.018,0,0,1-2.3,2.259,3.114,3.114,0,0,1-1.663-.089c-1.745-.6-2.7-2.6-4.442-3.183a5.43,5.43,0,0,0-3.751.507,2.779,2.779,0,0,1-1.458.363c-.684-.089-1.2-.726-1.8-1.116-.1-.767-2.163-.068-2.423-.986a1.032,1.032,0,0,1,0-.418C344.95,139.756,346.8,139.181,346.908,139.9Z" transform="translate(-173.896 -106.17)" opacity="0.1"/>
      <path id="패스_435" data-name="패스 435" d="M356.6,171.91s-.869,2.437.233,3.251c0,0-1.2-3.217-1.91-3.149" transform="translate(-177.172 -116.544)" opacity="0.1"/>
      <path id="패스_436" data-name="패스 436" d="M434.608,137.3s-5.592,4.832-1.554,5.606S434.608,137.3,434.608,137.3Z" transform="translate(-201.364 -105.624)" fill="#efb7b9"/>
      <path id="패스_437" data-name="패스 437" d="M308.93,52.16,310,80.463l31.13-28.3Z" transform="translate(-97.479 -16.459)" fill="#fff"/>
      <path id="패스_438" data-name="패스 438" d="M308.93,52.16,310,80.463l31.13-28.3Z" transform="translate(-97.479 -16.459)" opacity="0.03"/>
      <ellipse id="타원_195" data-name="타원 195" cx="23.135" cy="4.449" rx="23.135" ry="4.449" transform="translate(556.929 469.291)" fill="#0f4c81"/>
      <ellipse id="타원_196" data-name="타원 196" cx="2.697" cy="3.525" rx="2.697" ry="3.525" transform="translate(576.978 468.326)" fill="#3f3d56"/>
      <ellipse id="타원_197" data-name="타원 197" cx="2.697" cy="3.525" rx="2.697" ry="3.525" transform="translate(576.978 464.013)" fill="#3f3d56"/>
      <ellipse id="타원_198" data-name="타원 198" cx="2.697" cy="3.525" rx="2.697" ry="3.525" transform="translate(576.978 459.701)" fill="#3f3d56"/>
      <ellipse id="타원_199" data-name="타원 199" cx="2.697" cy="3.525" rx="2.697" ry="3.525" transform="translate(576.978 455.396)" fill="#3f3d56"/>
      <ellipse id="타원_200" data-name="타원 200" cx="2.697" cy="3.525" rx="2.697" ry="3.525" transform="translate(576.978 451.084)" fill="#3f3d56"/>
      <ellipse id="타원_201" data-name="타원 201" cx="2.697" cy="3.525" rx="2.697" ry="3.525" transform="translate(576.978 446.772)" fill="#3f3d56"/>
      <ellipse id="타원_202" data-name="타원 202" cx="2.697" cy="3.525" rx="2.697" ry="3.525" transform="translate(576.978 442.466)" fill="#3f3d56"/>
      <path id="패스_439" data-name="패스 439" d="M946.237,689.913a14.387,14.387,0,0,0,1-1.478l-7.07-1.164,7.652.055a12.882,12.882,0,0,0,.246-10.219L937.8,682.432l9.473-6.961a12.9,12.9,0,1,0-21.314,14.442,13.394,13.394,0,0,0-1.472,2.348l9.192,4.791-9.8-3.292a12.944,12.944,0,0,0,2.053,12.122,12.9,12.9,0,1,0,20.288,0,12.916,12.916,0,0,0,0-15.955Z" transform="translate(-356.473 -273.416)" fill="#0f4c81"/>
      <path id="패스_440" data-name="패스 440" d="M923.191,711.082a12.888,12.888,0,0,0,2.738,7.981,12.9,12.9,0,1,0,20.288,0C947.961,716.866,923.191,709.631,923.191,711.082Z" transform="translate(-356.473 -286.61)" opacity="0.1"/>
    </g>
    <g id="마스크_그룹_1" data-name="마스크 그룹 1" clip-path="url(#clip-path)">
      <path id="패스_932" data-name="패스 932" d="M.059,237.552c-.133-189.478,0-155.174,0-206.9C.059,10.43,4.274,3.888,17.522.777c3.947-.926-1.517.356,0,0C22.585-.412,185.742.119,210.722.119h0" transform="translate(-6959.54 -3580.192) rotate(90)" fill="none" stroke="#b1b1b1" stroke-width="0.5"/>
    </g>
  </g>
</svg>
