<svg xmlns="http://www.w3.org/2000/svg" xmlns:xlink="http://www.w3.org/1999/xlink" width="434.421" height="370.112" viewBox="0 0 434.421 370.112">
  <defs>
    <linearGradient id="linear-gradient" x1="0.5" y1="1" x2="0.5" gradientUnits="objectBoundingBox">
      <stop offset="0" stop-color="gray" stop-opacity="0.251"/>
      <stop offset="0.54" stop-color="gray" stop-opacity="0.122"/>
      <stop offset="1" stop-color="gray" stop-opacity="0.102"/>
    </linearGradient>
  </defs>
  <g id="그룹_133" data-name="그룹 133" transform="translate(-0.008 -0.003)">
    <g id="그룹_129" data-name="그룹 129" transform="translate(122.524 0.003)" opacity="0.136">
      <path id="패스_229" data-name="패스 229" d="M515.619,28.042c-4.025,3.3-5.824,8.541-7.394,13.507q-5.28,16.712-9.875,33.648c-4.465,16.4-8.52,33.165-16.695,48.087s-20.085,27.29-31.867,39.511l-42.44,44c-13.114,13.6-27.1,29.3-26.854,48.195.216,16.393,11.673,30.935,25.693,39.4s30.4,11.928,46.439,15.258c8.14,1.691,16.781,3.352,24.589.539,9.379-3.373,15.491-12.411,24.063-17.5,15.379-9.133,34.865-3.995,52.094.794s37.531,8.421,51.5-2.735c20.275-16.19,11.536-48.807,20.59-73.12,8.593-23.075,32.354-36.344,47.949-55.395,34.839-42.548,19.607-101.648-28.472-125.5-15.754-7.8-31.284-7.394-48.372-8.623C575.267,26.58,533.984,12.956,515.619,28.042Z" transform="translate(-380.492 -21.003)" fill="#0b3458"/>
    </g>
    <g id="그룹_130" data-name="그룹 130" transform="translate(0.008 28.042)" opacity="0.5">
      <path id="패스_230" data-name="패스 230" d="M222.851,311.111s-71.265-36.064-40.809-116.617S102.231,86,102.231,86s-21.6,78.435,18.981,130.667S177.447,355.618,222.851,311.111Z" transform="translate(-96.488 -86)" fill="#0c385f"/>
      <path id="패스_231" data-name="패스 231" d="M109.8,86s30.068,52.1,45.24,119.87,39.873,123.7,75.014,103.965" transform="translate(-104.057 -86)" fill="none" stroke="#fff" stroke-miterlimit="10" stroke-width="1"/>
    </g>
    <g id="그룹_131" data-name="그룹 131" transform="translate(80.698 99.786)" opacity="0.5">
      <path id="패스_232" data-name="패스 232" d="M313.9,418.852s-28.5-40.908,9.309-80.342-13.731-86.2-13.731-86.2-32.505,40.6-24.745,82.693S277.726,432.8,313.9,418.852Z" transform="translate(-283.534 -252.31)" fill="#0c385f"/>
      <path id="패스_233" data-name="패스 233" d="M324.293,252.31a340.309,340.309,0,0,1-7.808,83.482c-9.965,44.347-11.7,84.285,12.368,82.21" transform="translate(-298.347 -252.31)" fill="none" stroke="#fff" stroke-miterlimit="10" stroke-width="1"/>
    </g>
    <g id="그룹_132" data-name="그룹 132" transform="translate(26.902 315.172)" opacity="0.1">
      <path id="패스_234" data-name="패스 234" d="M158.987,767.239c.5,3.076,2.282,5.418,3.973,7.566l20.124,25.513c1.618,2.053,3.356,4.188,5.53,4.745,4.543,1.2,8.2-4.629,12.079-8.042,13.8-12.131,32.669,6.337,48.272-.725,6.242-2.825,11.3-9.538,17.661-11.811,16.846-6.039,31.12,20.642,48.514,22,5.712.431,11.315-1.915,16.772-4.249l36.4-15.582c2.528-1.083,5.1-2.157,7.765-2.222,4.478-.078,8.649,2.8,12.864,4.879,16.966,8.36,35.805,3.848,53.233-2.485s34.981-14.482,53-13.132c4.689.354,10.884.057,12.165-6.1.763-3.658-9.542.177-11.928-1.794s3.292-10.2.509-10.548c-16.19-2.027-32.686-2.084-48.51,3.02-8.2,2.64-16.259,6.661-24.675,7.485-8.775.862-17.5-1.795-26.116-4.211-21.815-6.117-44-10.785-66.274-9.835-39.584,1.725-78.573,21.25-117.959,15.59a100.381,100.381,0,0,1-33.389-11.181c-5.315-2.869-5.078,7.29-10.5,10.711-1.764,1.113-6.384-9.266-7.765-7.269A10.145,10.145,0,0,0,158.987,767.239Z" transform="translate(-158.832 -751.595)" fill="#051624"/>
    </g>
    <path id="패스_235" data-name="패스 235" d="M498.061,330.839l-62.918-82.4c-4.914-23.131-12.29-23.131-12.29-23.131-50.136-6.747-63.9-15.422-63.9-15.422L347.74,205.5l-.936-.552c-.043-.246-.091-.492-.134-.746s-.086-.591-.121-.889a54.118,54.118,0,0,0,24.589-33.131c.091-.362.173-.733.259-1.1a14.166,14.166,0,0,0,5.862-5.224c4.819-7.9.242-17.9.345-27.1.065-5.815,2.071-11.514,1.842-17.325-.19-4.866-1.933-9.538-3.835-14.033a16.632,16.632,0,0,0-3.71-6.039c-4.689-4.258-12.282-2.433-18.3-4.53-7.791-2.713-11.419-11.169-15.922-17.967-1.726-2.623-4.866-5.392-7.7-3.956-3.326,1.682-2.424,7.441-5.785,9.059-2.036.979-4.525-.255-5.979-1.963s-2.286-3.852-3.718-5.578a10.931,10.931,0,0,0-10.608-3.555A3.68,3.68,0,0,0,301.87,71.9c-1.074,1.251-.4,3.115-.328,4.745.254,5.492-6.471,8.542-12.027,9.124s-12.1.651-15.431,5.073c-1.76,2.342-2.135,5.392-3.322,8.058-2.752,6.182-9.409,9.568-15.258,13.119s-11.872,8.727-11.82,15.474c.052,6.471,5.763,11.712,6.768,18.118.535,3.4-.3,6.9.367,10.28,1.221,6.195,7.01,10.353,12.351,13.869.362.237.729.475,1.1.7.095.38.19.755.293,1.13a54.316,54.316,0,0,0,27.764,33.648c.086.362.168.729.25,1.1.255,1.156.492,2.36.7,3.593l-.164.043v-.121L230.98,225.705a2.691,2.691,0,0,0-1.169-.147c-2.545-.207-10.5,2.537-19.792,39.744l-39.808,70.355s-23.1,22.169-5.405,40.982a35.933,35.933,0,0,0,27,11.868,37.255,37.255,0,0,0,13.3-2.252s-.319-.492-.811-1.363l5.263.643C219.9,397.044,237.537,393,237.537,393s25.085-.285,26.008-13.4l45.084,13.83.181,2.463h23.675l-.039-1.57,49.808-15c3.882,7.178,13.373,10.729,13.373,10.729s29.231,1.229,38.419-4.094a41.055,41.055,0,0,1,12.45-4.793l.255-.026-.06.06,56.279-6.039C528.535,353,498.061,330.839,498.061,330.839Zm-283.28,19.594-1.238-.716a45.748,45.748,0,0,1,6.8-2.01L231.3,334.191l1.894,13.33A24.9,24.9,0,0,0,214.782,350.433Zm211.755-.108a22.958,22.958,0,0,0-14.171-4.637l.431-32.811c4.111,2.627,7.562,5.526,8.585,8.321,2.951,8.2,17.2,21.2,17.2,21.2l-7.4,6.083h0l-1.152.945c-.31.073-.621.147-.932.229Z" transform="translate(-131.532 -49.214)" fill="url(#linear-gradient)"/>
    <path id="패스_236" data-name="패스 236" d="M151.138,730.262l11.488,1.436,6.7-33.027L156.4,691.01,139.65,709.2Z" transform="translate(-79.402 -392.914)" fill="#efb7b9"/>
    <path id="패스_237" data-name="패스 237" d="M151.138,730.262l11.488,1.436,6.7-33.027L156.4,691.01,139.65,709.2Z" transform="translate(-79.402 -392.914)" opacity="0.03"/>
    <path id="패스_238" data-name="패스 238" d="M527.579,360.155l-27.76,24.891s-53.609,11.967-40.205-4.788c7.592-9.491,6.583-23.895,4.279-34.6a89.775,89.775,0,0,0-4.279-14.236s68.936-41.625,59.363-10.03c-2.839,9.37-3.235,16.6-2.394,22.117C518.594,356.6,527.579,360.155,527.579,360.155Z" transform="translate(-301.735 -185.07)" fill="#efb7b9"/>
    <path id="패스_239" data-name="패스 239" d="M521.825,321.393c-2.839,9.37-3.236,16.6-2.394,22.117a53.669,53.669,0,0,1-52.681,2.157,89.752,89.752,0,0,0-4.279-14.236S531.4,289.8,521.825,321.393Z" transform="translate(-304.582 -185.072)" opacity="0.1"/>
    <path id="패스_240" data-name="패스 240" d="M512,209.738a53.453,53.453,0,1,1-15.664-37.96A53.609,53.609,0,0,1,512,209.738Z" transform="translate(-271.779 -97.834)" fill="#efb7b9"/>
    <path id="패스_241" data-name="패스 241" d="M347.13,407.673v98.119l94.293-7.657L425.63,398.1l-41.642,24.887Z" transform="translate(-197.378 -226.362)" fill="#e1e7ef"/>
    <path id="패스_242" data-name="패스 242" d="M530.181,516.74l-10.5-29.675h.431c11.009-11.967,6.22-19.145,6.22-19.145h-15.28c-9.728,6.9-2.977,15.845-.686,18.42l-4.581,30.4Z" transform="translate(-329.214 -275.122)" opacity="0.1"/>
    <path id="패스_243" data-name="패스 243" d="M530.181,514.52l-10.5-29.675h.431c11.009-11.967,6.22-19.145,6.22-19.145h-15.28c-9.728,6.9-2.977,15.845-.686,18.42l-4.581,30.4Z" transform="translate(-329.214 -273.86)" fill="#444053"/>
    <path id="패스_244" data-name="패스 244" d="M563.1,392.2s-3.02,13.994-24.059,32.661c0,0,6.471,2.157,7.42,19.386l7.9,10.785s6.221-22.5,17.23-30.154,0-27.76,0-27.76Z" transform="translate(-348.12 -232.067)" opacity="0.1"/>
    <path id="패스_245" data-name="패스 245" d="M563.1,390s-3.02,13.994-24.059,32.66c0,0,6.471,2.157,7.42,19.387l7.9,10.785s6.221-22.5,17.23-30.154,0-27.76,0-27.76Z" transform="translate(-348.12 -230.816)" fill="#e1e7ef"/>
    <path id="패스_246" data-name="패스 246" d="M487.57,431.615s-9.059,7.183-9.551,18.67-5.263,11.488-5.263,11.488-11.967-36.854-15.793-40.206,6.9-17.488,6.9-17.488S469.883,423.958,487.57,431.615Z" transform="translate(-300.981 -238.822)" opacity="0.1"/>
    <path id="패스_247" data-name="패스 247" d="M487.534,429.4s-9.059,7.178-9.551,18.679-5.263,11.488-5.263,11.488-11.971-36.871-15.815-40.218,6.9-17.489,6.9-17.489S469.847,421.738,487.534,429.4Z" transform="translate(-300.945 -237.56)" fill="#e1e7ef"/>
    <path id="패스_248" data-name="패스 248" d="M593.4,390.25l11.967,4.788s13.4,8.628,62.223,15.319c0,0,7.179,0,11.967,22.976l61.257,81.847s29.675,22,4.788,44.036L690.816,565.2s31.591-30.154-16.272-31.112l8.844-7.424s-13.882-12.942-16.751-21.061-26.315-17.23-26.315-17.23l2.873,68.923-43.1,6.7L593.887,435.74a85.175,85.175,0,0,1,1.035-18.088C596.545,407.924,598.257,392.515,593.4,390.25Z" transform="translate(-379.03 -230.958)" opacity="0.1"/>
    <path id="패스_249" data-name="패스 249" d="M594.51,390.25l11.967,4.788s13.4,8.628,62.224,15.319c0,0,7.178,0,11.967,22.976l61.257,81.847s29.675,22,4.789,44.036L691.926,565.2s31.591-30.154-16.272-31.112l8.856-7.42s-13.882-12.942-16.751-21.06-26.315-17.23-26.315-17.23l2.873,68.923-43.125,6.691L594.98,435.74a85.179,85.179,0,0,1,1.035-18.088C597.655,407.924,599.367,392.515,594.51,390.25Z" transform="translate(-379.661 -230.958)" fill="#67647e"/>
    <path id="패스_250" data-name="패스 250" d="M301.456,401.34l-60.787,15.815s-9.094-5.742-20.1,39.257L181.8,526.3s-22.5,22-5.263,40.684,38.782,9.542,38.782,9.542-19.624-30.629,14.84-38.29L243.1,521.96l58.393,6.7-1.471-84.241,1.635-9.818a97.494,97.494,0,0,0,0-32.057Z" transform="translate(-138.3 -237.264)" opacity="0.1"/>
    <path id="패스_251" data-name="패스 251" d="M300.338,401.34l-60.787,15.815s-9.094-5.742-20.1,39.257L180.68,526.3s-22.514,22-5.259,40.654,38.769,9.572,38.769,9.572-19.624-30.629,14.84-38.29l12.942-16.272,58.393,6.7L298.9,444.418l1.622-9.818a97.5,97.5,0,0,0,0-32.057Z" transform="translate(-137.661 -237.264)" fill="#67647e"/>
    <path id="패스_252" data-name="패스 252" d="M230.826,489.08l-5.746,4.305L311.716,515.4v-8.615Z" transform="translate(-127.979 -278.095)" fill="#e4e6ed"/>
    <path id="패스_253" data-name="패스 253" d="M512.546,485.75l5.742,4.31L425.91,513.51v-8.615Z" transform="translate(-242.173 -276.201)" fill="#e4e6ed"/>
    <path id="패스_254" data-name="패스 254" d="M212.88,489.08l80.411,18.666,5.742,116.79-70.36-22.018Z" transform="translate(-121.042 -278.095)" fill="#0f4c81"/>
    <path id="패스_255" data-name="패스 255" d="M536,489.08,450.32,508.7,455.1,625.973l79.457-24.412Z" transform="translate(-256.053 -278.095)" fill="#0f4c81"/>
    <path id="패스_256" data-name="패스 256" d="M489.1,553.35s14.038,8.628,28.8,0l2.873,119.184H497.719Z" transform="translate(-319.724 -323.699)" fill="#0f4c81"/>
    <path id="패스_257" data-name="패스 257" d="M489.1,553.35s14.038,8.628,28.8,0l2.873,119.184H497.719Z" transform="translate(-320.367 -323.699)" opacity="0.1"/>
    <path id="패스_258" data-name="패스 258" d="M339.32,506.75V510.1l78.974,15.793S378.089,511.055,339.32,506.75Z" transform="translate(-234.557 -297.201)" fill="#d8d9e5"/>
    <path id="패스_259" data-name="패스 259" d="M607.589,502.31v3.352l-85.2,17.709S568.812,506.619,607.589,502.31Z" transform="translate(-338.653 -294.677)" fill="#d8d9e5"/>
    <path id="패스_260" data-name="패스 260" d="M718.344,717.992l-2.5.673s-16.267-14.236-37,7.333,6.9,32.125,6.9,32.125,28.472,1.221,37.414-4.068a39.37,39.37,0,0,1,12.463-4.827,12.734,12.734,0,0,0,6.98-3.938h0a16.656,16.656,0,0,0,4.167-13.735h0a16.656,16.656,0,0,0-12.251-13.64h0A31.565,31.565,0,0,0,718.344,717.992Z" transform="translate(-423.228 -415.079)" fill="#efb7b9"/>
    <path id="패스_261" data-name="패스 261" d="M279.318,721.9s19.145-17.23,42.6,11.488S303.726,762.6,303.726,762.6s-22.514,5.25-31.112-13.416S279.318,721.9,279.318,721.9Z" transform="translate(-195.137 -416.626)" fill="#efb7b9"/>
    <path id="패스_262" data-name="패스 262" d="M785.28,714.079s22.255,6.5,17.484,32.177l13.451-1.467,2.839-13.058-5.742-18.187L802.3,709.23Z" transform="translate(-488.135 -412.334)" opacity="0.1"/>
    <path id="패스_263" data-name="패스 263" d="M786.39,714.079s22.255,6.5,17.484,32.177l13.451-1.467,2.839-13.058-5.742-18.187-11.009-4.314Z" transform="translate(-488.766 -412.334)" fill="#67647e"/>
    <path id="패스_264" data-name="패스 264" d="M511.989,209.707a53.448,53.448,0,0,1-1.527,12.735,18.619,18.619,0,0,1-10.81,1.588c-6.341-.971-11.941-4.745-16.578-9.176s-8.529-9.585-13-14.193c-4.055-4.176-9.059-8.08-14.874-8.248-5.28-.155-10.09,2.8-15.18,4.193-5.332,1.467-16.073-2.537-18.675,1.984-1.527,2.657-.988,8.5-1.89,11.647a45.688,45.688,0,0,1-4.111,9.857c-1.294,2.273-3.2,4.685-5.807,4.663a5.872,5.872,0,0,1-2.864-.914,53.613,53.613,0,1,1,105.323-14.149Z" transform="translate(-271.77 -97.803)" opacity="0.1"/>
    <path id="패스_265" data-name="패스 265" d="M415.7,152.823c5.095-1.4,9.922-4.348,15.18-4.193,5.815.168,10.824,4.072,14.874,8.248,4.469,4.6,8.36,9.758,13,14.193s10.237,8.2,16.578,9.176,13.481-1.406,16.773-6.9c4.689-7.843.237-17.778.336-26.914.065-5.776,2.015-11.436,1.795-17.208-.185-4.832-1.881-9.491-3.731-13.938a16.627,16.627,0,0,0-3.615-5.992c-4.568-4.228-11.958-2.416-17.825-4.5-7.584-2.7-11.121-11.1-15.5-17.846-1.691-2.588-4.745-5.354-7.5-3.93-3.24,1.674-2.36,7.394-5.634,9-1.984.971-4.409-.255-5.824-1.95s-2.23-3.826-3.619-5.539a10.526,10.526,0,0,0-10.353-3.533,3.56,3.56,0,0,0-1.963,1.022c-1.044,1.242-.393,3.093-.319,4.715.25,5.453-6.285,8.481-11.712,9.059s-11.79.647-15.025,5.043c-1.726,2.325-2.079,5.353-3.235,8-2.683,6.143-9.163,9.491-14.861,13.032s-11.561,8.671-11.51,15.37c.052,6.441,5.608,11.647,6.592,18,.518,3.373-.289,6.859.358,10.211,1.186,6.152,6.824,10.28,12.027,13.774A8.1,8.1,0,0,0,385.214,181c2.588.021,4.525-2.39,5.807-4.663a45.73,45.73,0,0,0,4.111-9.857c.9-3.153.362-9,1.89-11.647C399.627,150.286,410.368,154.285,415.7,152.823Z" transform="translate(-247.458 -54.969)" fill="#585268"/>
  </g>
</svg>
